<?xml version="1.0" encoding="utf-8" standalone="no"?>
<!DOCTYPE svg PUBLIC "-//W3C//DTD SVG 1.1//EN"
  "http://www.w3.org/Graphics/SVG/1.1/DTD/svg11.dtd">
<svg xmlns:xlink="http://www.w3.org/1999/xlink" width="837.252187pt" height="423.548438pt" viewBox="0 0 837.252187 423.548438" xmlns="http://www.w3.org/2000/svg" version="1.1">
 <metadata>
  <rdf:RDF xmlns:dc="http://purl.org/dc/elements/1.1/" xmlns:cc="http://creativecommons.org/ns#" xmlns:rdf="http://www.w3.org/1999/02/22-rdf-syntax-ns#">
   <cc:Work>
    <dc:type rdf:resource="http://purl.org/dc/dcmitype/StillImage"/>
    <dc:date>2026-03-26T14:58:55.506461</dc:date>
    <dc:format>image/svg+xml</dc:format>
    <dc:creator>
     <cc:Agent>
      <dc:title>Matplotlib v3.10.8, https://matplotlib.org/</dc:title>
     </cc:Agent>
    </dc:creator>
   </cc:Work>
  </rdf:RDF>
 </metadata>
 <defs>
  <style type="text/css">*{stroke-linejoin: round; stroke-linecap: butt}</style>
 </defs>
 <g id="figure_1">
  <g id="patch_1">
   <path d="M 0 423.548438 
L 837.252187 423.548438 
L 837.252187 0 
L 0 0 
z
" style="fill: #ffffff"/>
  </g>
  <g id="axes_1">
   <g id="patch_2">
    <path d="M 50.292187 389.17425 
L 437.664088 389.17425 
L 437.664088 23.27025 
L 50.292187 23.27025 
z
" style="fill: #ffffff"/>
   </g>
   <g id="PathCollection_1">
    <path d="M 67.900001 43.293415 
C 68.799349 43.293415 69.661982 42.9361 70.297917 42.300166 
C 70.933852 41.664231 71.291166 40.801597 71.291166 39.90225 
C 71.291166 39.002903 70.933852 38.140269 70.297917 37.504334 
C 69.661982 36.8684 68.799349 36.511085 67.900001 36.511085 
C 67.000654 36.511085 66.13802 36.8684 65.502085 37.504334 
C 64.866151 38.140269 64.508836 39.002903 64.508836 39.90225 
C 64.508836 40.801597 64.866151 41.664231 65.502085 42.300166 
C 66.13802 42.9361 67.000654 43.293415 67.900001 43.293415 
z
" clip-path="url(#pd64ab81e74)" style="fill: #166534; fill-opacity: 0.86; stroke: #ffffff; stroke-opacity: 0.86; stroke-width: 0.5"/>
    <path d="M 140.439077 144.935345 
C 142.10471 144.935345 143.702348 144.273582 144.880128 143.095801 
C 146.057909 141.918021 146.719672 140.320383 146.719672 138.65475 
C 146.719672 136.989117 146.057909 135.391479 144.880128 134.213699 
C 143.702348 133.035918 142.10471 132.374155 140.439077 132.374155 
C 138.773444 132.374155 137.175807 133.035918 135.998026 134.213699 
C 134.820246 135.391479 134.158483 136.989117 134.158483 138.65475 
C 134.158483 140.320383 134.820246 141.918021 135.998026 143.095801 
C 137.175807 144.273582 138.773444 144.935345 140.439077 144.935345 
z
" clip-path="url(#pd64ab81e74)" style="fill: #94a3b8; fill-opacity: 0.86; stroke: #ffffff; stroke-opacity: 0.86; stroke-width: 0.5"/>
    <path d="M 102.638321 204.570958 
C 103.578787 204.570958 104.48086 204.197307 105.145869 203.532298 
C 105.810879 202.867288 106.18453 201.965215 106.18453 201.02475 
C 106.18453 200.084285 105.810879 199.182212 105.145869 198.517202 
C 104.48086 197.852193 103.578787 197.478542 102.638321 197.478542 
C 101.697856 197.478542 100.795783 197.852193 100.130774 198.517202 
C 99.465764 199.182212 99.092113 200.084285 99.092113 201.02475 
C 99.092113 201.965215 99.465764 202.867288 100.130774 203.532298 
C 100.795783 204.197307 101.697856 204.570958 102.638321 204.570958 
z
" clip-path="url(#pd64ab81e74)" style="fill: #94a3b8; fill-opacity: 0.86; stroke: #ffffff; stroke-opacity: 0.86; stroke-width: 0.5"/>
    <path d="M 102.784739 179.950062 
C 104.087632 179.950062 105.337338 179.432417 106.258622 178.511133 
C 107.179906 177.589848 107.697551 176.340143 107.697551 175.03725 
C 107.697551 173.734357 107.179906 172.484652 106.258622 171.563367 
C 105.337338 170.642083 104.087632 170.124438 102.784739 170.124438 
C 101.481846 170.124438 100.232141 170.642083 99.310857 171.563367 
C 98.389572 172.484652 97.871927 173.734357 97.871927 175.03725 
C 97.871927 176.340143 98.389572 177.589848 99.310857 178.511133 
C 100.232141 179.432417 101.481846 179.950062 102.784739 179.950062 
z
" clip-path="url(#pd64ab81e74)" style="fill: #94a3b8; fill-opacity: 0.86; stroke: #ffffff; stroke-opacity: 0.86; stroke-width: 0.5"/>
    <path d="M 102.663927 200.131638 
C 103.805464 200.131638 104.9004 199.678101 105.707589 198.870912 
C 106.514777 198.063723 106.968315 196.968787 106.968315 195.82725 
C 106.968315 194.685713 106.514777 193.590777 105.707589 192.783588 
C 104.9004 191.976399 103.805464 191.522862 102.663927 191.522862 
C 101.52239 191.522862 100.427453 191.976399 99.620265 192.783588 
C 98.813076 193.590777 98.359539 194.685713 98.359539 195.82725 
C 98.359539 196.968787 98.813076 198.063723 99.620265 198.870912 
C 100.427453 199.678101 101.52239 200.131638 102.663927 200.131638 
z
" clip-path="url(#pd64ab81e74)" style="fill: #94a3b8; fill-opacity: 0.86; stroke: #ffffff; stroke-opacity: 0.86; stroke-width: 0.5"/>
    <path d="M 140.109045 201.521998 
C 141.61931 201.521998 143.067921 200.921963 144.13584 199.854045 
C 145.203758 198.786126 145.803793 197.337515 145.803793 195.82725 
C 145.803793 194.316985 145.203758 192.868374 144.13584 191.800455 
C 143.067921 190.732537 141.61931 190.132502 140.109045 190.132502 
C 138.598781 190.132502 137.150169 190.732537 136.082251 191.800455 
C 135.014332 192.868374 134.414298 194.316985 134.414298 195.82725 
C 134.414298 197.337515 135.014332 198.786126 136.082251 199.854045 
C 137.150169 200.921963 138.598781 201.521998 140.109045 201.521998 
z
" clip-path="url(#pd64ab81e74)" style="fill: #94a3b8; fill-opacity: 0.86; stroke: #ffffff; stroke-opacity: 0.86; stroke-width: 0.5"/>
    <path d="M 180.323763 207.869747 
C 182.139078 207.869747 183.880286 207.148515 185.163907 205.864894 
C 186.447529 204.581273 187.168761 202.840065 187.168761 201.02475 
C 187.168761 199.209435 186.447529 197.468227 185.163907 196.184606 
C 183.880286 194.900985 182.139078 194.179753 180.323763 194.179753 
C 178.508449 194.179753 176.767241 194.900985 175.483619 196.184606 
C 174.199998 197.468227 173.478766 199.209435 173.478766 201.02475 
C 173.478766 202.840065 174.199998 204.581273 175.483619 205.864894 
C 176.767241 207.148515 178.508449 207.869747 180.323763 207.869747 
z
" clip-path="url(#pd64ab81e74)" style="fill: #94a3b8; fill-opacity: 0.86; stroke: #ffffff; stroke-opacity: 0.86; stroke-width: 0.5"/>
    <path d="M 179.879719 212.64839 
C 181.583952 212.64839 183.218613 211.971292 184.423687 210.766217 
C 185.628761 209.561143 186.30586 207.926482 186.30586 206.22225 
C 186.30586 204.518018 185.628761 202.883357 184.423687 201.678283 
C 183.218613 200.473208 181.583952 199.79611 179.879719 199.79611 
C 178.175487 199.79611 176.540826 200.473208 175.335752 201.678283 
C 174.130678 202.883357 173.453579 204.518018 173.453579 206.22225 
C 173.453579 207.926482 174.130678 209.561143 175.335752 210.766217 
C 176.540826 211.971292 178.175487 212.64839 179.879719 212.64839 
z
" clip-path="url(#pd64ab81e74)" style="fill: #94a3b8; fill-opacity: 0.86; stroke: #ffffff; stroke-opacity: 0.86; stroke-width: 0.5"/>
    <path d="M 139.874221 201.008112 
C 141.248201 201.008112 142.566092 200.462224 143.537643 199.490673 
C 144.509195 198.519122 145.055083 197.201231 145.055083 195.82725 
C 145.055083 194.453269 144.509195 193.135378 143.537643 192.163827 
C 142.566092 191.192276 141.248201 190.646388 139.874221 190.646388 
C 138.50024 190.646388 137.182349 191.192276 136.210798 192.163827 
C 135.239247 193.135378 134.693358 194.453269 134.693358 195.82725 
C 134.693358 197.201231 135.239247 198.519122 136.210798 199.490673 
C 137.182349 200.462224 138.50024 201.008112 139.874221 201.008112 
z
" clip-path="url(#pd64ab81e74)" style="fill: #94a3b8; fill-opacity: 0.86; stroke: #ffffff; stroke-opacity: 0.86; stroke-width: 0.5"/>
    <path d="M 180.863015 234.21142 
C 182.772257 234.21142 184.603558 233.45287 185.953597 232.102832 
C 187.303635 230.752794 188.062185 228.921492 188.062185 227.01225 
C 188.062185 225.103008 187.303635 223.271706 185.953597 221.921668 
C 184.603558 220.57163 182.772257 219.81308 180.863015 219.81308 
C 178.953772 219.81308 177.122471 220.57163 175.772433 221.921668 
C 174.422394 223.271706 173.663845 225.103008 173.663845 227.01225 
C 173.663845 228.921492 174.422394 230.752794 175.772433 232.102832 
C 177.122471 233.45287 178.953772 234.21142 180.863015 234.21142 
z
" clip-path="url(#pd64ab81e74)" style="fill: #94a3b8; fill-opacity: 0.86; stroke: #ffffff; stroke-opacity: 0.86; stroke-width: 0.5"/>
    <path d="M 223.308081 198.304805 
C 225.34353 198.304805 227.295885 197.496113 228.735165 196.056833 
C 230.174444 194.617554 230.983136 192.665198 230.983136 190.62975 
C 230.983136 188.594302 230.174444 186.641946 228.735165 185.202667 
C 227.295885 183.763387 225.34353 182.954695 223.308081 182.954695 
C 221.272633 182.954695 219.320277 183.763387 217.880998 185.202667 
C 216.441718 186.641946 215.633026 188.594302 215.633026 190.62975 
C 215.633026 192.665198 216.441718 194.617554 217.880998 196.056833 
C 219.320277 197.496113 221.272633 198.304805 223.308081 198.304805 
z
" clip-path="url(#pd64ab81e74)" style="fill: #94a3b8; fill-opacity: 0.86; stroke: #ffffff; stroke-opacity: 0.86; stroke-width: 0.5"/>
    <path d="M 224.056552 224.556232 
C 226.161994 224.556232 228.181487 223.719731 229.67026 222.230958 
C 231.159033 220.742185 231.995534 218.722693 231.995534 216.61725 
C 231.995534 214.511807 231.159033 212.492315 229.67026 211.003542 
C 228.181487 209.514769 226.161994 208.678268 224.056552 208.678268 
C 221.951109 208.678268 219.931616 209.514769 218.442843 211.003542 
C 216.954071 212.492315 216.117569 214.511807 216.117569 216.61725 
C 216.117569 218.722693 216.954071 220.742185 218.442843 222.230958 
C 219.931616 223.719731 221.951109 224.556232 224.056552 224.556232 
z
" clip-path="url(#pd64ab81e74)" style="fill: #94a3b8; fill-opacity: 0.86; stroke: #ffffff; stroke-opacity: 0.86; stroke-width: 0.5"/>
    <path d="M 222.654818 265.6403 
C 224.628738 265.6403 226.522077 264.856054 227.917849 263.460281 
C 229.313622 262.064509 230.097868 260.17117 230.097868 258.19725 
C 230.097868 256.22333 229.313622 254.329991 227.917849 252.934219 
C 226.522077 251.538446 224.628738 250.7542 222.654818 250.7542 
C 220.680898 250.7542 218.787559 251.538446 217.391786 252.934219 
C 215.996014 254.329991 215.211767 256.22333 215.211767 258.19725 
C 215.211767 260.17117 215.996014 262.064509 217.391786 263.460281 
C 218.787559 264.856054 220.680898 265.6403 222.654818 265.6403 
z
" clip-path="url(#pd64ab81e74)" style="fill: #94a3b8; fill-opacity: 0.86; stroke: #ffffff; stroke-opacity: 0.86; stroke-width: 0.5"/>
    <path d="M 269.061999 302.705135 
C 271.216876 302.705135 273.283785 301.848993 274.807513 300.325265 
C 276.331242 298.801536 277.187383 296.734627 277.187383 294.57975 
C 277.187383 292.424873 276.331242 290.357964 274.807513 288.834235 
C 273.283785 287.310507 271.216876 286.454365 269.061999 286.454365 
C 266.907121 286.454365 264.840212 287.310507 263.316484 288.834235 
C 261.792755 290.357964 260.936614 292.424873 260.936614 294.57975 
C 260.936614 296.734627 261.792755 298.801536 263.316484 300.325265 
C 264.840212 301.848993 266.907121 302.705135 269.061999 302.705135 
z
" clip-path="url(#pd64ab81e74)" style="fill: #94a3b8; fill-opacity: 0.86; stroke: #ffffff; stroke-opacity: 0.86; stroke-width: 0.5"/>
    <path d="M 270.019688 334.241388 
C 272.267719 334.241388 274.423979 333.348236 276.013577 331.758638 
C 277.603174 330.16904 278.496326 328.012781 278.496326 325.76475 
C 278.496326 323.516719 277.603174 321.36046 276.013577 319.770862 
C 274.423979 318.181264 272.267719 317.288112 270.019688 317.288112 
C 267.771658 317.288112 265.615398 318.181264 264.0258 319.770862 
C 262.436202 321.36046 261.54305 323.516719 261.54305 325.76475 
C 261.54305 328.012781 262.436202 330.16904 264.0258 331.758638 
C 265.615398 333.348236 267.771658 334.241388 270.019688 334.241388 
z
" clip-path="url(#pd64ab81e74)" style="fill: #94a3b8; fill-opacity: 0.86; stroke: #ffffff; stroke-opacity: 0.86; stroke-width: 0.5"/>
    <path d="M 317.585515 381.160632 
C 319.871137 381.160632 322.063453 380.252545 323.679632 378.636366 
C 325.295811 377.020188 326.203898 374.827872 326.203898 372.54225 
C 326.203898 370.256628 325.295811 368.064312 323.679632 366.448134 
C 322.063453 364.831955 319.871137 363.923868 317.585515 363.923868 
C 315.299894 363.923868 313.107578 364.831955 311.491399 366.448134 
C 309.87522 368.064312 308.967133 370.256628 308.967133 372.54225 
C 308.967133 374.827872 309.87522 377.020188 311.491399 378.636366 
C 313.107578 380.252545 315.299894 381.160632 317.585515 381.160632 
z
" clip-path="url(#pd64ab81e74)" style="fill: #94a3b8; fill-opacity: 0.86; stroke: #ffffff; stroke-opacity: 0.86; stroke-width: 0.5"/>
    <path d="M 366.411997 365.477588 
C 368.673606 365.477588 370.84289 364.579041 372.442089 362.979842 
C 374.041288 361.380643 374.939835 359.211359 374.939835 356.94975 
C 374.939835 354.688141 374.041288 352.518857 372.442089 350.919658 
C 370.84289 349.320459 368.673606 348.421912 366.411997 348.421912 
C 364.150388 348.421912 361.981104 349.320459 360.381905 350.919658 
C 358.782706 352.518857 357.884159 354.688141 357.884159 356.94975 
C 357.884159 359.211359 358.782706 361.380643 360.381905 362.979842 
C 361.981104 364.579041 364.150388 365.477588 366.411997 365.477588 
z
" clip-path="url(#pd64ab81e74)" style="fill: #94a3b8; fill-opacity: 0.86; stroke: #ffffff; stroke-opacity: 0.86; stroke-width: 0.5"/>
    <path d="M 367.597711 370.893678 
C 369.917291 370.893678 372.142179 369.972099 373.782369 368.331908 
C 375.42256 366.691718 376.344139 364.46683 376.344139 362.14725 
C 376.344139 359.82767 375.42256 357.602782 373.782369 355.962592 
C 372.142179 354.322401 369.917291 353.400822 367.597711 353.400822 
C 365.278131 353.400822 363.053243 354.322401 361.413052 355.962592 
C 359.772862 357.602782 358.851283 359.82767 358.851283 362.14725 
C 358.851283 364.46683 359.772862 366.691718 361.413052 368.331908 
C 363.053243 369.972099 365.278131 370.893678 367.597711 370.893678 
z
" clip-path="url(#pd64ab81e74)" style="fill: #94a3b8; fill-opacity: 0.86; stroke: #ffffff; stroke-opacity: 0.86; stroke-width: 0.5"/>
    <path d="M 420.056275 349.892545 
C 422.319861 349.892545 424.491042 348.993212 426.091639 347.392615 
C 427.692237 345.792017 428.591569 343.620837 428.591569 341.35725 
C 428.591569 339.093663 427.692237 336.922483 426.091639 335.321885 
C 424.491042 333.721288 422.319861 332.821955 420.056275 332.821955 
C 417.792688 332.821955 415.621507 333.721288 414.02091 335.321885 
C 412.420312 336.922483 411.52098 339.093663 411.52098 341.35725 
C 411.52098 343.620837 412.420312 345.792017 414.02091 347.392615 
C 415.621507 348.993212 417.792688 349.892545 420.056275 349.892545 
z
" clip-path="url(#pd64ab81e74)" style="fill: #94a3b8; fill-opacity: 0.86; stroke: #ffffff; stroke-opacity: 0.86; stroke-width: 0.5"/>
   </g>
   <g id="matplotlib.axis_1">
    <g id="xtick_1">
     <g id="line2d_1">
      <path d="M 60.341515 389.17425 
L 60.341515 23.27025 
" clip-path="url(#pd64ab81e74)" style="fill: none; stroke-dasharray: 2.96,1.28; stroke-dashoffset: 0; stroke: #e2e8f0; stroke-opacity: 0.2; stroke-width: 0.8"/>
     </g>
     <g id="line2d_2">
      <defs>
       <path id="mf75a64fad6" d="M 0 0 
L 0 3.5 
" style="stroke: #475569; stroke-width: 0.8"/>
      </defs>
      <g>
       <use xlink:href="#mf75a64fad6" x="60.341515" y="389.17425" style="fill: #475569; stroke: #475569; stroke-width: 0.8"/>
      </g>
     </g>
     <g id="text_1">
      <!-- 0.174 -->
      <g style="fill: #475569" transform="translate(48.317703 402.556938) scale(0.084 -0.084)">
       <defs>
        <path id="DejaVuSerif-30" d="M 2034 219 
Q 2513 219 2750 744 
Q 2988 1269 2988 2328 
Q 2988 3391 2750 3916 
Q 2513 4441 2034 4441 
Q 1556 4441 1318 3916 
Q 1081 3391 1081 2328 
Q 1081 1269 1318 744 
Q 1556 219 2034 219 
z
M 2034 -91 
Q 1275 -91 848 546 
Q 422 1184 422 2328 
Q 422 3475 848 4112 
Q 1275 4750 2034 4750 
Q 2797 4750 3222 4112 
Q 3647 3475 3647 2328 
Q 3647 1184 3222 546 
Q 2797 -91 2034 -91 
z
" transform="scale(0.015625)"/>
        <path id="DejaVuSerif-2e" d="M 603 325 
Q 603 500 722 622 
Q 841 744 1019 744 
Q 1191 744 1312 622 
Q 1434 500 1434 325 
Q 1434 153 1312 31 
Q 1191 -91 1019 -91 
Q 841 -91 722 29 
Q 603 150 603 325 
z
" transform="scale(0.015625)"/>
        <path id="DejaVuSerif-31" d="M 909 0 
L 909 331 
L 1722 331 
L 1722 4213 
L 781 3603 
L 781 4013 
L 1919 4750 
L 2350 4750 
L 2350 331 
L 3163 331 
L 3163 0 
L 909 0 
z
" transform="scale(0.015625)"/>
        <path id="DejaVuSerif-37" d="M 3609 4347 
L 1784 0 
L 1319 0 
L 3059 4153 
L 903 4153 
L 903 3578 
L 538 3578 
L 538 4666 
L 3609 4666 
L 3609 4347 
z
" transform="scale(0.015625)"/>
        <path id="DejaVuSerif-34" d="M 2234 1581 
L 2234 4063 
L 641 1581 
L 2234 1581 
z
M 3609 0 
L 1484 0 
L 1484 331 
L 2234 331 
L 2234 1247 
L 197 1247 
L 197 1588 
L 2241 4750 
L 2859 4750 
L 2859 1581 
L 3750 1581 
L 3750 1247 
L 2859 1247 
L 2859 331 
L 3609 331 
L 3609 0 
z
" transform="scale(0.015625)"/>
       </defs>
       <use xlink:href="#DejaVuSerif-30"/>
       <use xlink:href="#DejaVuSerif-2e" transform="translate(63.623047 0)"/>
       <use xlink:href="#DejaVuSerif-31" transform="translate(95.410156 0)"/>
       <use xlink:href="#DejaVuSerif-37" transform="translate(159.033203 0)"/>
       <use xlink:href="#DejaVuSerif-34" transform="translate(222.65625 0)"/>
      </g>
     </g>
    </g>
    <g id="xtick_2">
     <g id="line2d_3">
      <path d="M 136.525664 389.17425 
L 136.525664 23.27025 
" clip-path="url(#pd64ab81e74)" style="fill: none; stroke-dasharray: 2.96,1.28; stroke-dashoffset: 0; stroke: #e2e8f0; stroke-opacity: 0.2; stroke-width: 0.8"/>
     </g>
     <g id="line2d_4">
      <g>
       <use xlink:href="#mf75a64fad6" x="136.525664" y="389.17425" style="fill: #475569; stroke: #475569; stroke-width: 0.8"/>
      </g>
     </g>
     <g id="text_2">
      <!-- 0.176 -->
      <g style="fill: #475569" transform="translate(124.501851 402.556938) scale(0.084 -0.084)">
       <defs>
        <path id="DejaVuSerif-36" d="M 2094 219 
Q 2534 219 2771 542 
Q 3009 866 3009 1472 
Q 3009 2078 2771 2401 
Q 2534 2725 2094 2725 
Q 1647 2725 1412 2412 
Q 1178 2100 1178 1509 
Q 1178 888 1415 553 
Q 1653 219 2094 219 
z
M 1075 2569 
Q 1288 2803 1556 2918 
Q 1825 3034 2163 3034 
Q 2859 3034 3264 2615 
Q 3669 2197 3669 1472 
Q 3669 763 3233 336 
Q 2797 -91 2069 -91 
Q 1278 -91 853 498 
Q 428 1088 428 2181 
Q 428 3406 931 4078 
Q 1434 4750 2350 4750 
Q 2597 4750 2869 4703 
Q 3141 4656 3425 4563 
L 3425 3794 
L 3072 3794 
Q 3034 4109 2831 4275 
Q 2628 4441 2284 4441 
Q 1678 4441 1381 3981 
Q 1084 3522 1075 2569 
z
" transform="scale(0.015625)"/>
       </defs>
       <use xlink:href="#DejaVuSerif-30"/>
       <use xlink:href="#DejaVuSerif-2e" transform="translate(63.623047 0)"/>
       <use xlink:href="#DejaVuSerif-31" transform="translate(95.410156 0)"/>
       <use xlink:href="#DejaVuSerif-37" transform="translate(159.033203 0)"/>
       <use xlink:href="#DejaVuSerif-36" transform="translate(222.65625 0)"/>
      </g>
     </g>
    </g>
    <g id="xtick_3">
     <g id="line2d_5">
      <path d="M 212.709812 389.17425 
L 212.709812 23.27025 
" clip-path="url(#pd64ab81e74)" style="fill: none; stroke-dasharray: 2.96,1.28; stroke-dashoffset: 0; stroke: #e2e8f0; stroke-opacity: 0.2; stroke-width: 0.8"/>
     </g>
     <g id="line2d_6">
      <g>
       <use xlink:href="#mf75a64fad6" x="212.709812" y="389.17425" style="fill: #475569; stroke: #475569; stroke-width: 0.8"/>
      </g>
     </g>
     <g id="text_3">
      <!-- 0.178 -->
      <g style="fill: #475569" transform="translate(200.686 402.556938) scale(0.084 -0.084)">
       <defs>
        <path id="DejaVuSerif-38" d="M 2981 1275 
Q 2981 1775 2732 2051 
Q 2484 2328 2034 2328 
Q 1584 2328 1336 2051 
Q 1088 1775 1088 1275 
Q 1088 772 1336 495 
Q 1584 219 2034 219 
Q 2484 219 2732 495 
Q 2981 772 2981 1275 
z
M 2853 3541 
Q 2853 3966 2637 4203 
Q 2422 4441 2034 4441 
Q 1650 4441 1433 4203 
Q 1216 3966 1216 3541 
Q 1216 3113 1433 2875 
Q 1650 2638 2034 2638 
Q 2422 2638 2637 2875 
Q 2853 3113 2853 3541 
z
M 2516 2484 
Q 3047 2413 3344 2092 
Q 3641 1772 3641 1275 
Q 3641 619 3225 264 
Q 2809 -91 2034 -91 
Q 1263 -91 845 264 
Q 428 619 428 1275 
Q 428 1772 725 2092 
Q 1022 2413 1556 2484 
Q 1084 2569 832 2842 
Q 581 3116 581 3541 
Q 581 4103 968 4426 
Q 1356 4750 2034 4750 
Q 2713 4750 3100 4426 
Q 3488 4103 3488 3541 
Q 3488 3116 3236 2842 
Q 2984 2569 2516 2484 
z
" transform="scale(0.015625)"/>
       </defs>
       <use xlink:href="#DejaVuSerif-30"/>
       <use xlink:href="#DejaVuSerif-2e" transform="translate(63.623047 0)"/>
       <use xlink:href="#DejaVuSerif-31" transform="translate(95.410156 0)"/>
       <use xlink:href="#DejaVuSerif-37" transform="translate(159.033203 0)"/>
       <use xlink:href="#DejaVuSerif-38" transform="translate(222.65625 0)"/>
      </g>
     </g>
    </g>
    <g id="xtick_4">
     <g id="line2d_7">
      <path d="M 288.893961 389.17425 
L 288.893961 23.27025 
" clip-path="url(#pd64ab81e74)" style="fill: none; stroke-dasharray: 2.96,1.28; stroke-dashoffset: 0; stroke: #e2e8f0; stroke-opacity: 0.2; stroke-width: 0.8"/>
     </g>
     <g id="line2d_8">
      <g>
       <use xlink:href="#mf75a64fad6" x="288.893961" y="389.17425" style="fill: #475569; stroke: #475569; stroke-width: 0.8"/>
      </g>
     </g>
     <g id="text_4">
      <!-- 0.180 -->
      <g style="fill: #475569" transform="translate(276.870148 402.556938) scale(0.084 -0.084)">
       <use xlink:href="#DejaVuSerif-30"/>
       <use xlink:href="#DejaVuSerif-2e" transform="translate(63.623047 0)"/>
       <use xlink:href="#DejaVuSerif-31" transform="translate(95.410156 0)"/>
       <use xlink:href="#DejaVuSerif-38" transform="translate(159.033203 0)"/>
       <use xlink:href="#DejaVuSerif-30" transform="translate(222.65625 0)"/>
      </g>
     </g>
    </g>
    <g id="xtick_5">
     <g id="line2d_9">
      <path d="M 365.078109 389.17425 
L 365.078109 23.27025 
" clip-path="url(#pd64ab81e74)" style="fill: none; stroke-dasharray: 2.96,1.28; stroke-dashoffset: 0; stroke: #e2e8f0; stroke-opacity: 0.2; stroke-width: 0.8"/>
     </g>
     <g id="line2d_10">
      <g>
       <use xlink:href="#mf75a64fad6" x="365.078109" y="389.17425" style="fill: #475569; stroke: #475569; stroke-width: 0.8"/>
      </g>
     </g>
     <g id="text_5">
      <!-- 0.182 -->
      <g style="fill: #475569" transform="translate(353.054297 402.556938) scale(0.084 -0.084)">
       <defs>
        <path id="DejaVuSerif-32" d="M 819 3553 
L 469 3553 
L 469 4384 
Q 803 4563 1142 4656 
Q 1481 4750 1806 4750 
Q 2534 4750 2956 4397 
Q 3378 4044 3378 3438 
Q 3378 2753 2422 1800 
Q 2347 1728 2309 1691 
L 1131 513 
L 3078 513 
L 3078 1088 
L 3444 1088 
L 3444 0 
L 434 0 
L 434 341 
L 1850 1753 
Q 2319 2222 2519 2614 
Q 2719 3006 2719 3438 
Q 2719 3909 2473 4175 
Q 2228 4441 1797 4441 
Q 1350 4441 1106 4219 
Q 863 3997 819 3553 
z
" transform="scale(0.015625)"/>
       </defs>
       <use xlink:href="#DejaVuSerif-30"/>
       <use xlink:href="#DejaVuSerif-2e" transform="translate(63.623047 0)"/>
       <use xlink:href="#DejaVuSerif-31" transform="translate(95.410156 0)"/>
       <use xlink:href="#DejaVuSerif-38" transform="translate(159.033203 0)"/>
       <use xlink:href="#DejaVuSerif-32" transform="translate(222.65625 0)"/>
      </g>
     </g>
    </g>
    <g id="text_6">
     <!-- Eval Brier (lower is better) -->
     <g style="fill: #0f172a" transform="translate(177.086247 415.750344) scale(0.098 -0.098)">
      <defs>
       <path id="DejaVuSerif-45" d="M 353 0 
L 353 331 
L 947 331 
L 947 4331 
L 353 4331 
L 353 4666 
L 4109 4666 
L 4109 3628 
L 3725 3628 
L 3725 4281 
L 1581 4281 
L 1581 2719 
L 3109 2719 
L 3109 3303 
L 3494 3303 
L 3494 1753 
L 3109 1753 
L 3109 2338 
L 1581 2338 
L 1581 384 
L 3775 384 
L 3775 1038 
L 4159 1038 
L 4159 0 
L 353 0 
z
" transform="scale(0.015625)"/>
       <path id="DejaVuSerif-76" d="M 1581 0 
L 359 2988 
L -19 2988 
L -19 3322 
L 1509 3322 
L 1509 2988 
L 978 2988 
L 1913 703 
L 2847 2988 
L 2350 2988 
L 2350 3322 
L 3597 3322 
L 3597 2988 
L 3225 2988 
L 2003 0 
L 1581 0 
z
" transform="scale(0.015625)"/>
       <path id="DejaVuSerif-61" d="M 2547 1044 
L 2547 1747 
L 1806 1747 
Q 1378 1747 1168 1562 
Q 959 1378 959 997 
Q 959 650 1171 447 
Q 1384 244 1747 244 
Q 2106 244 2326 466 
Q 2547 688 2547 1044 
z
M 3122 2075 
L 3122 331 
L 3634 331 
L 3634 0 
L 2547 0 
L 2547 359 
Q 2356 128 2106 18 
Q 1856 -91 1522 -91 
Q 969 -91 644 203 
Q 319 497 319 997 
Q 319 1513 691 1797 
Q 1063 2081 1741 2081 
L 2547 2081 
L 2547 2309 
Q 2547 2688 2317 2895 
Q 2088 3103 1672 3103 
Q 1328 3103 1125 2947 
Q 922 2791 872 2484 
L 575 2484 
L 575 3156 
Q 875 3284 1158 3348 
Q 1441 3413 1709 3413 
Q 2400 3413 2761 3070 
Q 3122 2728 3122 2075 
z
" transform="scale(0.015625)"/>
       <path id="DejaVuSerif-6c" d="M 1313 331 
L 1856 331 
L 1856 0 
L 184 0 
L 184 331 
L 738 331 
L 738 4531 
L 184 4531 
L 184 4863 
L 1313 4863 
L 1313 331 
z
" transform="scale(0.015625)"/>
       <path id="DejaVuSerif-20" transform="scale(0.015625)"/>
       <path id="DejaVuSerif-42" d="M 1581 331 
L 2516 331 
Q 3078 331 3337 575 
Q 3597 819 3597 1350 
Q 3597 1878 3339 2120 
Q 3081 2363 2516 2363 
L 1581 2363 
L 1581 331 
z
M 1581 2694 
L 2375 2694 
Q 2888 2694 3123 2891 
Q 3359 3088 3359 3513 
Q 3359 3941 3123 4136 
Q 2888 4331 2375 4331 
L 1581 4331 
L 1581 2694 
z
M 353 0 
L 353 331 
L 947 331 
L 947 4331 
L 353 4331 
L 353 4666 
L 2656 4666 
Q 3363 4666 3720 4377 
Q 4078 4088 4078 3513 
Q 4078 3097 3829 2850 
Q 3581 2603 3103 2547 
Q 3697 2472 4005 2167 
Q 4313 1863 4313 1350 
Q 4313 656 3875 328 
Q 3438 0 2509 0 
L 353 0 
z
" transform="scale(0.015625)"/>
       <path id="DejaVuSerif-72" d="M 3059 3328 
L 3059 2497 
L 2728 2497 
Q 2713 2744 2591 2866 
Q 2469 2988 2234 2988 
Q 1809 2988 1582 2694 
Q 1356 2400 1356 1850 
L 1356 331 
L 2022 331 
L 2022 0 
L 263 0 
L 263 331 
L 781 331 
L 781 2994 
L 231 2994 
L 231 3322 
L 1356 3322 
L 1356 2731 
Q 1525 3078 1790 3245 
Q 2056 3413 2438 3413 
Q 2578 3413 2733 3391 
Q 2888 3369 3059 3328 
z
" transform="scale(0.015625)"/>
       <path id="DejaVuSerif-69" d="M 622 4353 
Q 622 4497 726 4603 
Q 831 4709 978 4709 
Q 1122 4709 1226 4603 
Q 1331 4497 1331 4353 
Q 1331 4206 1228 4103 
Q 1125 4000 978 4000 
Q 831 4000 726 4103 
Q 622 4206 622 4353 
z
M 1356 331 
L 1900 331 
L 1900 0 
L 231 0 
L 231 331 
L 781 331 
L 781 2988 
L 231 2988 
L 231 3322 
L 1356 3322 
L 1356 331 
z
" transform="scale(0.015625)"/>
       <path id="DejaVuSerif-65" d="M 3469 1600 
L 991 1600 
L 991 1575 
Q 991 903 1244 561 
Q 1497 219 1991 219 
Q 2369 219 2611 417 
Q 2853 616 2950 1006 
L 3413 1006 
Q 3275 459 2904 184 
Q 2534 -91 1931 -91 
Q 1203 -91 761 389 
Q 319 869 319 1663 
Q 319 2450 753 2931 
Q 1188 3413 1894 3413 
Q 2647 3413 3050 2948 
Q 3453 2484 3469 1600 
z
M 2791 1931 
Q 2772 2513 2545 2808 
Q 2319 3103 1894 3103 
Q 1497 3103 1269 2806 
Q 1041 2509 991 1931 
L 2791 1931 
z
" transform="scale(0.015625)"/>
       <path id="DejaVuSerif-28" d="M 2041 -997 
Q 1281 -656 893 83 
Q 506 822 506 1931 
Q 506 3044 893 3783 
Q 1281 4522 2041 4863 
L 2041 4556 
Q 1559 4225 1350 3623 
Q 1141 3022 1141 1931 
Q 1141 844 1350 242 
Q 1559 -359 2041 -691 
L 2041 -997 
z
" transform="scale(0.015625)"/>
       <path id="DejaVuSerif-6f" d="M 1925 219 
Q 2388 219 2623 584 
Q 2859 950 2859 1663 
Q 2859 2375 2623 2739 
Q 2388 3103 1925 3103 
Q 1463 3103 1227 2739 
Q 991 2375 991 1663 
Q 991 950 1228 584 
Q 1466 219 1925 219 
z
M 1925 -91 
Q 1200 -91 759 389 
Q 319 869 319 1663 
Q 319 2456 758 2934 
Q 1197 3413 1925 3413 
Q 2653 3413 3092 2934 
Q 3531 2456 3531 1663 
Q 3531 869 3092 389 
Q 2653 -91 1925 -91 
z
" transform="scale(0.015625)"/>
       <path id="DejaVuSerif-77" d="M 3072 3322 
L 3922 728 
L 4672 2988 
L 4191 2988 
L 4191 3322 
L 5394 3322 
L 5394 2988 
L 5025 2988 
L 4038 0 
L 3559 0 
L 2741 2484 
L 1919 0 
L 1459 0 
L 475 2988 
L 103 2988 
L 103 3322 
L 1606 3322 
L 1606 2988 
L 1069 2988 
L 1813 728 
L 2669 3322 
L 3072 3322 
z
" transform="scale(0.015625)"/>
       <path id="DejaVuSerif-73" d="M 359 184 
L 359 959 
L 691 959 
Q 703 588 923 403 
Q 1144 219 1575 219 
Q 1963 219 2166 364 
Q 2369 509 2369 788 
Q 2369 1006 2220 1140 
Q 2072 1275 1594 1428 
L 1178 1569 
Q 750 1706 558 1912 
Q 366 2119 366 2438 
Q 366 2894 700 3153 
Q 1034 3413 1625 3413 
Q 1888 3413 2178 3344 
Q 2469 3275 2778 3144 
L 2778 2419 
L 2447 2419 
Q 2434 2741 2221 2922 
Q 2009 3103 1644 3103 
Q 1281 3103 1095 2975 
Q 909 2847 909 2591 
Q 909 2381 1050 2254 
Q 1191 2128 1613 1997 
L 2069 1856 
Q 2541 1709 2748 1489 
Q 2956 1269 2956 922 
Q 2956 450 2595 179 
Q 2234 -91 1600 -91 
Q 1278 -91 972 -22 
Q 666 47 359 184 
z
" transform="scale(0.015625)"/>
       <path id="DejaVuSerif-62" d="M 738 331 
L 738 4531 
L 184 4531 
L 184 4863 
L 1313 4863 
L 1313 2803 
Q 1481 3116 1742 3264 
Q 2003 3413 2388 3413 
Q 3000 3413 3387 2928 
Q 3775 2444 3775 1663 
Q 3775 881 3387 395 
Q 3000 -91 2388 -91 
Q 2003 -91 1742 57 
Q 1481 206 1313 519 
L 1313 0 
L 184 0 
L 184 331 
L 738 331 
z
M 1313 1497 
Q 1313 897 1542 583 
Q 1772 269 2209 269 
Q 2650 269 2876 622 
Q 3103 975 3103 1663 
Q 3103 2353 2876 2703 
Q 2650 3053 2209 3053 
Q 1772 3053 1542 2737 
Q 1313 2422 1313 1825 
L 1313 1497 
z
" transform="scale(0.015625)"/>
       <path id="DejaVuSerif-74" d="M 691 2988 
L 184 2988 
L 184 3322 
L 691 3322 
L 691 4353 
L 1269 4353 
L 1269 3322 
L 2350 3322 
L 2350 2988 
L 1269 2988 
L 1269 878 
Q 1269 456 1350 337 
Q 1431 219 1650 219 
Q 1875 219 1978 351 
Q 2081 484 2088 781 
L 2522 781 
Q 2497 328 2275 118 
Q 2053 -91 1600 -91 
Q 1103 -91 897 129 
Q 691 350 691 878 
L 691 2988 
z
" transform="scale(0.015625)"/>
       <path id="DejaVuSerif-29" d="M 453 -997 
L 453 -691 
Q 934 -359 1145 242 
Q 1356 844 1356 1931 
Q 1356 3022 1145 3623 
Q 934 4225 453 4556 
L 453 4863 
Q 1216 4522 1603 3783 
Q 1991 3044 1991 1931 
Q 1991 822 1603 83 
Q 1216 -656 453 -997 
z
" transform="scale(0.015625)"/>
      </defs>
      <use xlink:href="#DejaVuSerif-45"/>
      <use xlink:href="#DejaVuSerif-76" transform="translate(72.998047 0)"/>
      <use xlink:href="#DejaVuSerif-61" transform="translate(129.492188 0)"/>
      <use xlink:href="#DejaVuSerif-6c" transform="translate(189.111328 0)"/>
      <use xlink:href="#DejaVuSerif-20" transform="translate(221.09375 0)"/>
      <use xlink:href="#DejaVuSerif-42" transform="translate(252.880859 0)"/>
      <use xlink:href="#DejaVuSerif-72" transform="translate(326.367188 0)"/>
      <use xlink:href="#DejaVuSerif-69" transform="translate(374.169922 0)"/>
      <use xlink:href="#DejaVuSerif-65" transform="translate(406.152344 0)"/>
      <use xlink:href="#DejaVuSerif-72" transform="translate(465.332031 0)"/>
      <use xlink:href="#DejaVuSerif-20" transform="translate(513.134766 0)"/>
      <use xlink:href="#DejaVuSerif-28" transform="translate(544.921875 0)"/>
      <use xlink:href="#DejaVuSerif-6c" transform="translate(583.935547 0)"/>
      <use xlink:href="#DejaVuSerif-6f" transform="translate(615.917969 0)"/>
      <use xlink:href="#DejaVuSerif-77" transform="translate(676.123047 0)"/>
      <use xlink:href="#DejaVuSerif-65" transform="translate(761.71875 0)"/>
      <use xlink:href="#DejaVuSerif-72" transform="translate(820.898438 0)"/>
      <use xlink:href="#DejaVuSerif-20" transform="translate(868.701172 0)"/>
      <use xlink:href="#DejaVuSerif-69" transform="translate(900.488281 0)"/>
      <use xlink:href="#DejaVuSerif-73" transform="translate(932.470703 0)"/>
      <use xlink:href="#DejaVuSerif-20" transform="translate(983.789062 0)"/>
      <use xlink:href="#DejaVuSerif-62" transform="translate(1015.576172 0)"/>
      <use xlink:href="#DejaVuSerif-65" transform="translate(1079.589844 0)"/>
      <use xlink:href="#DejaVuSerif-74" transform="translate(1138.769531 0)"/>
      <use xlink:href="#DejaVuSerif-74" transform="translate(1178.955078 0)"/>
      <use xlink:href="#DejaVuSerif-65" transform="translate(1219.140625 0)"/>
      <use xlink:href="#DejaVuSerif-72" transform="translate(1278.320312 0)"/>
      <use xlink:href="#DejaVuSerif-29" transform="translate(1326.123047 0)"/>
     </g>
    </g>
   </g>
   <g id="matplotlib.axis_2">
    <g id="ytick_1">
     <g id="line2d_11">
      <path d="M 50.292187 383.76885 
L 437.664088 383.76885 
" clip-path="url(#pd64ab81e74)" style="fill: none; stroke-dasharray: 2.96,1.28; stroke-dashoffset: 0; stroke: #e2e8f0; stroke-opacity: 0.2; stroke-width: 0.8"/>
     </g>
     <g id="line2d_12">
      <defs>
       <path id="m685cb70f4a" d="M 0 0 
L -3.5 0 
" style="stroke: #475569; stroke-width: 0.8"/>
      </defs>
      <g>
       <use xlink:href="#m685cb70f4a" x="50.292187" y="383.76885" style="fill: #475569; stroke: #475569; stroke-width: 0.8"/>
      </g>
     </g>
     <g id="text_7">
      <!-- 0.740 -->
      <g style="fill: #475569" transform="translate(19.244562 386.960194) scale(0.084 -0.084)">
       <use xlink:href="#DejaVuSerif-30"/>
       <use xlink:href="#DejaVuSerif-2e" transform="translate(63.623047 0)"/>
       <use xlink:href="#DejaVuSerif-37" transform="translate(95.410156 0)"/>
       <use xlink:href="#DejaVuSerif-34" transform="translate(159.033203 0)"/>
       <use xlink:href="#DejaVuSerif-30" transform="translate(222.65625 0)"/>
      </g>
     </g>
    </g>
    <g id="ytick_2">
     <g id="line2d_13">
      <path d="M 50.292187 307.80219 
L 437.664088 307.80219 
" clip-path="url(#pd64ab81e74)" style="fill: none; stroke-dasharray: 2.96,1.28; stroke-dashoffset: 0; stroke: #e2e8f0; stroke-opacity: 0.2; stroke-width: 0.8"/>
     </g>
     <g id="line2d_14">
      <g>
       <use xlink:href="#m685cb70f4a" x="50.292187" y="307.80219" style="fill: #475569; stroke: #475569; stroke-width: 0.8"/>
      </g>
     </g>
     <g id="text_8">
      <!-- 0.741 -->
      <g style="fill: #475569" transform="translate(19.244562 310.993534) scale(0.084 -0.084)">
       <use xlink:href="#DejaVuSerif-30"/>
       <use xlink:href="#DejaVuSerif-2e" transform="translate(63.623047 0)"/>
       <use xlink:href="#DejaVuSerif-37" transform="translate(95.410156 0)"/>
       <use xlink:href="#DejaVuSerif-34" transform="translate(159.033203 0)"/>
       <use xlink:href="#DejaVuSerif-31" transform="translate(222.65625 0)"/>
      </g>
     </g>
    </g>
    <g id="ytick_3">
     <g id="line2d_15">
      <path d="M 50.292187 231.83553 
L 437.664088 231.83553 
" clip-path="url(#pd64ab81e74)" style="fill: none; stroke-dasharray: 2.96,1.28; stroke-dashoffset: 0; stroke: #e2e8f0; stroke-opacity: 0.2; stroke-width: 0.8"/>
     </g>
     <g id="line2d_16">
      <g>
       <use xlink:href="#m685cb70f4a" x="50.292187" y="231.83553" style="fill: #475569; stroke: #475569; stroke-width: 0.8"/>
      </g>
     </g>
     <g id="text_9">
      <!-- 0.742 -->
      <g style="fill: #475569" transform="translate(19.244562 235.026874) scale(0.084 -0.084)">
       <use xlink:href="#DejaVuSerif-30"/>
       <use xlink:href="#DejaVuSerif-2e" transform="translate(63.623047 0)"/>
       <use xlink:href="#DejaVuSerif-37" transform="translate(95.410156 0)"/>
       <use xlink:href="#DejaVuSerif-34" transform="translate(159.033203 0)"/>
       <use xlink:href="#DejaVuSerif-32" transform="translate(222.65625 0)"/>
      </g>
     </g>
    </g>
    <g id="ytick_4">
     <g id="line2d_17">
      <path d="M 50.292187 155.86887 
L 437.664088 155.86887 
" clip-path="url(#pd64ab81e74)" style="fill: none; stroke-dasharray: 2.96,1.28; stroke-dashoffset: 0; stroke: #e2e8f0; stroke-opacity: 0.2; stroke-width: 0.8"/>
     </g>
     <g id="line2d_18">
      <g>
       <use xlink:href="#m685cb70f4a" x="50.292187" y="155.86887" style="fill: #475569; stroke: #475569; stroke-width: 0.8"/>
      </g>
     </g>
     <g id="text_10">
      <!-- 0.743 -->
      <g style="fill: #475569" transform="translate(19.244562 159.060214) scale(0.084 -0.084)">
       <defs>
        <path id="DejaVuSerif-33" d="M 622 4469 
Q 988 4606 1323 4678 
Q 1659 4750 1953 4750 
Q 2638 4750 3022 4454 
Q 3406 4159 3406 3634 
Q 3406 3213 3140 2930 
Q 2875 2647 2388 2547 
Q 2963 2466 3280 2130 
Q 3597 1794 3597 1259 
Q 3597 606 3158 257 
Q 2719 -91 1894 -91 
Q 1528 -91 1179 -12 
Q 831 66 488 225 
L 488 1131 
L 838 1131 
Q 869 681 1141 450 
Q 1413 219 1906 219 
Q 2384 219 2661 495 
Q 2938 772 2938 1253 
Q 2938 1803 2653 2086 
Q 2369 2369 1819 2369 
L 1522 2369 
L 1522 2688 
L 1678 2688 
Q 2225 2688 2498 2914 
Q 2772 3141 2772 3597 
Q 2772 4006 2547 4223 
Q 2322 4441 1900 4441 
Q 1478 4441 1245 4241 
Q 1013 4041 972 3647 
L 622 3647 
L 622 4469 
z
" transform="scale(0.015625)"/>
       </defs>
       <use xlink:href="#DejaVuSerif-30"/>
       <use xlink:href="#DejaVuSerif-2e" transform="translate(63.623047 0)"/>
       <use xlink:href="#DejaVuSerif-37" transform="translate(95.410156 0)"/>
       <use xlink:href="#DejaVuSerif-34" transform="translate(159.033203 0)"/>
       <use xlink:href="#DejaVuSerif-33" transform="translate(222.65625 0)"/>
      </g>
     </g>
    </g>
    <g id="ytick_5">
     <g id="line2d_19">
      <path d="M 50.292187 79.90221 
L 437.664088 79.90221 
" clip-path="url(#pd64ab81e74)" style="fill: none; stroke-dasharray: 2.96,1.28; stroke-dashoffset: 0; stroke: #e2e8f0; stroke-opacity: 0.2; stroke-width: 0.8"/>
     </g>
     <g id="line2d_20">
      <g>
       <use xlink:href="#m685cb70f4a" x="50.292187" y="79.90221" style="fill: #475569; stroke: #475569; stroke-width: 0.8"/>
      </g>
     </g>
     <g id="text_11">
      <!-- 0.744 -->
      <g style="fill: #475569" transform="translate(19.244562 83.093554) scale(0.084 -0.084)">
       <use xlink:href="#DejaVuSerif-30"/>
       <use xlink:href="#DejaVuSerif-2e" transform="translate(63.623047 0)"/>
       <use xlink:href="#DejaVuSerif-37" transform="translate(95.410156 0)"/>
       <use xlink:href="#DejaVuSerif-34" transform="translate(159.033203 0)"/>
       <use xlink:href="#DejaVuSerif-34" transform="translate(222.65625 0)"/>
      </g>
     </g>
    </g>
    <g id="text_12">
     <!-- Eval ROC-AUC -->
     <g style="fill: #0f172a" transform="translate(13.206469 243.14375) rotate(-90) scale(0.098 -0.098)">
      <defs>
       <path id="DejaVuSerif-52" d="M 3066 2316 
Q 3284 2256 3442 2114 
Q 3600 1972 3725 1716 
L 4403 331 
L 4972 331 
L 4972 0 
L 3872 0 
L 3144 1484 
Q 2934 1916 2759 2042 
Q 2584 2169 2278 2169 
L 1581 2169 
L 1581 331 
L 2241 331 
L 2241 0 
L 353 0 
L 353 331 
L 947 331 
L 947 4331 
L 353 4331 
L 353 4666 
L 2719 4666 
Q 3400 4666 3770 4341 
Q 4141 4016 4141 3419 
Q 4141 2938 3870 2661 
Q 3600 2384 3066 2316 
z
M 1581 2503 
L 2503 2503 
Q 2975 2503 3200 2726 
Q 3425 2950 3425 3419 
Q 3425 3888 3200 4109 
Q 2975 4331 2503 4331 
L 1581 4331 
L 1581 2503 
z
" transform="scale(0.015625)"/>
       <path id="DejaVuSerif-4f" d="M 2625 244 
Q 3391 244 3781 770 
Q 4172 1297 4172 2328 
Q 4172 3363 3781 3889 
Q 3391 4416 2625 4416 
Q 1856 4416 1465 3889 
Q 1075 3363 1075 2328 
Q 1075 1297 1465 770 
Q 1856 244 2625 244 
z
M 2625 -91 
Q 2150 -91 1751 65 
Q 1353 222 1050 525 
Q 700 875 529 1319 
Q 359 1763 359 2328 
Q 359 2894 529 3339 
Q 700 3784 1050 4134 
Q 1356 4441 1750 4595 
Q 2144 4750 2625 4750 
Q 3641 4750 4266 4084 
Q 4891 3419 4891 2328 
Q 4891 1769 4719 1320 
Q 4547 872 4197 525 
Q 3891 219 3497 64 
Q 3103 -91 2625 -91 
z
" transform="scale(0.015625)"/>
       <path id="DejaVuSerif-43" d="M 4513 1234 
Q 4306 581 3820 245 
Q 3334 -91 2591 -91 
Q 2134 -91 1743 65 
Q 1353 222 1050 525 
Q 700 875 529 1320 
Q 359 1766 359 2328 
Q 359 3416 987 4083 
Q 1616 4750 2644 4750 
Q 3025 4750 3456 4650 
Q 3888 4550 4384 4347 
L 4384 3272 
L 4031 3272 
Q 3916 3859 3567 4137 
Q 3219 4416 2591 4416 
Q 1844 4416 1459 3886 
Q 1075 3356 1075 2328 
Q 1075 1303 1459 773 
Q 1844 244 2591 244 
Q 3113 244 3450 492 
Q 3788 741 3938 1234 
L 4513 1234 
z
" transform="scale(0.015625)"/>
       <path id="DejaVuSerif-2d" d="M 281 1959 
L 1881 1959 
L 1881 1472 
L 281 1472 
L 281 1959 
z
" transform="scale(0.015625)"/>
       <path id="DejaVuSerif-41" d="M 1281 1691 
L 2994 1691 
L 2138 3909 
L 1281 1691 
z
M -38 0 
L -38 331 
L 372 331 
L 2034 4666 
L 2559 4666 
L 4225 331 
L 4684 331 
L 4684 0 
L 2988 0 
L 2988 331 
L 3506 331 
L 3116 1356 
L 1153 1356 
L 763 331 
L 1275 331 
L 1275 0 
L -38 0 
z
" transform="scale(0.015625)"/>
       <path id="DejaVuSerif-55" d="M 897 4331 
L 300 4331 
L 300 4666 
L 2125 4666 
L 2125 4331 
L 1528 4331 
L 1528 1919 
Q 1528 1025 1820 672 
Q 2113 319 2828 319 
Q 3544 319 3836 672 
Q 4128 1025 4128 1919 
L 4128 4331 
L 3531 4331 
L 3531 4666 
L 5106 4666 
L 5106 4331 
L 4513 4331 
L 4513 1856 
Q 4513 791 4103 350 
Q 3694 -91 2713 -91 
Q 1731 -91 1314 353 
Q 897 797 897 1856 
L 897 4331 
z
" transform="scale(0.015625)"/>
      </defs>
      <use xlink:href="#DejaVuSerif-45"/>
      <use xlink:href="#DejaVuSerif-76" transform="translate(72.998047 0)"/>
      <use xlink:href="#DejaVuSerif-61" transform="translate(129.492188 0)"/>
      <use xlink:href="#DejaVuSerif-6c" transform="translate(189.111328 0)"/>
      <use xlink:href="#DejaVuSerif-20" transform="translate(221.09375 0)"/>
      <use xlink:href="#DejaVuSerif-52" transform="translate(252.880859 0)"/>
      <use xlink:href="#DejaVuSerif-4f" transform="translate(328.173828 0)"/>
      <use xlink:href="#DejaVuSerif-43" transform="translate(410.15625 0)"/>
      <use xlink:href="#DejaVuSerif-2d" transform="translate(486.669922 0)"/>
      <use xlink:href="#DejaVuSerif-41" transform="translate(520.458984 0)"/>
      <use xlink:href="#DejaVuSerif-55" transform="translate(592.675781 0)"/>
      <use xlink:href="#DejaVuSerif-43" transform="translate(676.953125 0)"/>
     </g>
    </g>
   </g>
   <g id="patch_3">
    <path d="M 50.292187 389.17425 
L 50.292187 23.27025 
" style="fill: none; stroke: #475569; stroke-width: 0.85; stroke-linejoin: miter; stroke-linecap: square"/>
   </g>
   <g id="patch_4">
    <path d="M 50.292188 389.17425 
L 437.664088 389.17425 
" style="fill: none; stroke: #475569; stroke-width: 0.85; stroke-linejoin: miter; stroke-linecap: square"/>
   </g>
   <g id="text_13">
    <!-- convex_blend (1) -->
    <g style="fill: #0f172a" transform="translate(70.900001 36.90225) scale(0.075 -0.075)">
     <defs>
      <path id="DejaVuSerif-63" d="M 3291 997 
Q 3169 466 2822 187 
Q 2475 -91 1925 -91 
Q 1200 -91 759 389 
Q 319 869 319 1663 
Q 319 2459 759 2936 
Q 1200 3413 1925 3413 
Q 2241 3413 2553 3339 
Q 2866 3266 3181 3116 
L 3181 2266 
L 2847 2266 
Q 2781 2703 2561 2903 
Q 2341 3103 1931 3103 
Q 1466 3103 1228 2742 
Q 991 2381 991 1663 
Q 991 944 1227 581 
Q 1463 219 1931 219 
Q 2303 219 2525 412 
Q 2747 606 2828 997 
L 3291 997 
z
" transform="scale(0.015625)"/>
      <path id="DejaVuSerif-6e" d="M 263 0 
L 263 331 
L 781 331 
L 781 2988 
L 231 2988 
L 231 3322 
L 1356 3322 
L 1356 2731 
Q 1516 3069 1770 3241 
Q 2025 3413 2363 3413 
Q 2913 3413 3172 3097 
Q 3431 2781 3431 2113 
L 3431 331 
L 3944 331 
L 3944 0 
L 2356 0 
L 2356 331 
L 2853 331 
L 2853 1931 
Q 2853 2541 2703 2767 
Q 2553 2994 2175 2994 
Q 1775 2994 1565 2701 
Q 1356 2409 1356 1850 
L 1356 331 
L 1856 331 
L 1856 0 
L 263 0 
z
" transform="scale(0.015625)"/>
      <path id="DejaVuSerif-78" d="M 1863 2028 
L 2559 2988 
L 2113 2988 
L 2113 3322 
L 3391 3322 
L 3391 2988 
L 2950 2988 
L 2059 1759 
L 3097 331 
L 3531 331 
L 3531 0 
L 1997 0 
L 1997 331 
L 2419 331 
L 1697 1325 
L 972 331 
L 1403 331 
L 1403 0 
L 141 0 
L 141 331 
L 581 331 
L 1497 1594 
L 488 2988 
L 78 2988 
L 78 3322 
L 1563 3322 
L 1563 2988 
L 1166 2988 
L 1863 2028 
z
" transform="scale(0.015625)"/>
      <path id="DejaVuSerif-5f" d="M 3200 -1259 
L 3200 -1509 
L 0 -1509 
L 0 -1259 
L 3200 -1259 
z
" transform="scale(0.015625)"/>
      <path id="DejaVuSerif-64" d="M 3359 331 
L 3909 331 
L 3909 0 
L 2784 0 
L 2784 519 
Q 2616 206 2355 57 
Q 2094 -91 1709 -91 
Q 1097 -91 708 395 
Q 319 881 319 1663 
Q 319 2444 706 2928 
Q 1094 3413 1709 3413 
Q 2094 3413 2355 3264 
Q 2616 3116 2784 2803 
L 2784 4531 
L 2241 4531 
L 2241 4863 
L 3359 4863 
L 3359 331 
z
M 2784 1497 
L 2784 1825 
Q 2784 2422 2554 2737 
Q 2325 3053 1888 3053 
Q 1444 3053 1217 2703 
Q 991 2353 991 1663 
Q 991 975 1217 622 
Q 1444 269 1888 269 
Q 2325 269 2554 583 
Q 2784 897 2784 1497 
z
" transform="scale(0.015625)"/>
     </defs>
     <use xlink:href="#DejaVuSerif-63"/>
     <use xlink:href="#DejaVuSerif-6f" transform="translate(56.005859 0)"/>
     <use xlink:href="#DejaVuSerif-6e" transform="translate(116.210938 0)"/>
     <use xlink:href="#DejaVuSerif-76" transform="translate(180.615234 0)"/>
     <use xlink:href="#DejaVuSerif-65" transform="translate(237.109375 0)"/>
     <use xlink:href="#DejaVuSerif-78" transform="translate(296.289062 0)"/>
     <use xlink:href="#DejaVuSerif-5f" transform="translate(352.685547 0)"/>
     <use xlink:href="#DejaVuSerif-62" transform="translate(402.685547 0)"/>
     <use xlink:href="#DejaVuSerif-6c" transform="translate(466.699219 0)"/>
     <use xlink:href="#DejaVuSerif-65" transform="translate(498.681641 0)"/>
     <use xlink:href="#DejaVuSerif-6e" transform="translate(557.861328 0)"/>
     <use xlink:href="#DejaVuSerif-64" transform="translate(622.265625 0)"/>
     <use xlink:href="#DejaVuSerif-20" transform="translate(686.279297 0)"/>
     <use xlink:href="#DejaVuSerif-28" transform="translate(718.066406 0)"/>
     <use xlink:href="#DejaVuSerif-31" transform="translate(757.080078 0)"/>
     <use xlink:href="#DejaVuSerif-29" transform="translate(820.703125 0)"/>
    </g>
   </g>
   <g id="text_14">
    <!-- convex_blend (2) -->
    <g style="fill: #0f172a" transform="translate(143.439077 135.65475) scale(0.075 -0.075)">
     <use xlink:href="#DejaVuSerif-63"/>
     <use xlink:href="#DejaVuSerif-6f" transform="translate(56.005859 0)"/>
     <use xlink:href="#DejaVuSerif-6e" transform="translate(116.210938 0)"/>
     <use xlink:href="#DejaVuSerif-76" transform="translate(180.615234 0)"/>
     <use xlink:href="#DejaVuSerif-65" transform="translate(237.109375 0)"/>
     <use xlink:href="#DejaVuSerif-78" transform="translate(296.289062 0)"/>
     <use xlink:href="#DejaVuSerif-5f" transform="translate(352.685547 0)"/>
     <use xlink:href="#DejaVuSerif-62" transform="translate(402.685547 0)"/>
     <use xlink:href="#DejaVuSerif-6c" transform="translate(466.699219 0)"/>
     <use xlink:href="#DejaVuSerif-65" transform="translate(498.681641 0)"/>
     <use xlink:href="#DejaVuSerif-6e" transform="translate(557.861328 0)"/>
     <use xlink:href="#DejaVuSerif-64" transform="translate(622.265625 0)"/>
     <use xlink:href="#DejaVuSerif-20" transform="translate(686.279297 0)"/>
     <use xlink:href="#DejaVuSerif-28" transform="translate(718.066406 0)"/>
     <use xlink:href="#DejaVuSerif-32" transform="translate(757.080078 0)"/>
     <use xlink:href="#DejaVuSerif-29" transform="translate(820.703125 0)"/>
    </g>
   </g>
   <g id="text_15">
    <!-- convex_blend (3) -->
    <g style="fill: #0f172a" transform="translate(105.638321 198.02475) scale(0.075 -0.075)">
     <use xlink:href="#DejaVuSerif-63"/>
     <use xlink:href="#DejaVuSerif-6f" transform="translate(56.005859 0)"/>
     <use xlink:href="#DejaVuSerif-6e" transform="translate(116.210938 0)"/>
     <use xlink:href="#DejaVuSerif-76" transform="translate(180.615234 0)"/>
     <use xlink:href="#DejaVuSerif-65" transform="translate(237.109375 0)"/>
     <use xlink:href="#DejaVuSerif-78" transform="translate(296.289062 0)"/>
     <use xlink:href="#DejaVuSerif-5f" transform="translate(352.685547 0)"/>
     <use xlink:href="#DejaVuSerif-62" transform="translate(402.685547 0)"/>
     <use xlink:href="#DejaVuSerif-6c" transform="translate(466.699219 0)"/>
     <use xlink:href="#DejaVuSerif-65" transform="translate(498.681641 0)"/>
     <use xlink:href="#DejaVuSerif-6e" transform="translate(557.861328 0)"/>
     <use xlink:href="#DejaVuSerif-64" transform="translate(622.265625 0)"/>
     <use xlink:href="#DejaVuSerif-20" transform="translate(686.279297 0)"/>
     <use xlink:href="#DejaVuSerif-28" transform="translate(718.066406 0)"/>
     <use xlink:href="#DejaVuSerif-33" transform="translate(757.080078 0)"/>
     <use xlink:href="#DejaVuSerif-29" transform="translate(820.703125 0)"/>
    </g>
   </g>
   <g id="text_16">
    <!-- convex_blend (4) -->
    <g style="fill: #0f172a" transform="translate(105.784739 172.03725) scale(0.075 -0.075)">
     <use xlink:href="#DejaVuSerif-63"/>
     <use xlink:href="#DejaVuSerif-6f" transform="translate(56.005859 0)"/>
     <use xlink:href="#DejaVuSerif-6e" transform="translate(116.210938 0)"/>
     <use xlink:href="#DejaVuSerif-76" transform="translate(180.615234 0)"/>
     <use xlink:href="#DejaVuSerif-65" transform="translate(237.109375 0)"/>
     <use xlink:href="#DejaVuSerif-78" transform="translate(296.289062 0)"/>
     <use xlink:href="#DejaVuSerif-5f" transform="translate(352.685547 0)"/>
     <use xlink:href="#DejaVuSerif-62" transform="translate(402.685547 0)"/>
     <use xlink:href="#DejaVuSerif-6c" transform="translate(466.699219 0)"/>
     <use xlink:href="#DejaVuSerif-65" transform="translate(498.681641 0)"/>
     <use xlink:href="#DejaVuSerif-6e" transform="translate(557.861328 0)"/>
     <use xlink:href="#DejaVuSerif-64" transform="translate(622.265625 0)"/>
     <use xlink:href="#DejaVuSerif-20" transform="translate(686.279297 0)"/>
     <use xlink:href="#DejaVuSerif-28" transform="translate(718.066406 0)"/>
     <use xlink:href="#DejaVuSerif-34" transform="translate(757.080078 0)"/>
     <use xlink:href="#DejaVuSerif-29" transform="translate(820.703125 0)"/>
    </g>
   </g>
   <g id="text_17">
    <!-- convex_blend (5) -->
    <g style="fill: #0f172a" transform="translate(105.663927 192.82725) scale(0.075 -0.075)">
     <defs>
      <path id="DejaVuSerif-35" d="M 3219 4666 
L 3219 4153 
L 1081 4153 
L 1081 2816 
Q 1244 2928 1461 2984 
Q 1678 3041 1947 3041 
Q 2703 3041 3140 2622 
Q 3578 2203 3578 1478 
Q 3578 738 3136 323 
Q 2694 -91 1894 -91 
Q 1572 -91 1234 -12 
Q 897 66 544 225 
L 544 1131 
L 897 1131 
Q 925 688 1179 453 
Q 1434 219 1894 219 
Q 2388 219 2653 544 
Q 2919 869 2919 1478 
Q 2919 2084 2655 2407 
Q 2391 2731 1894 2731 
Q 1613 2731 1398 2631 
Q 1184 2531 1019 2322 
L 750 2322 
L 750 4666 
L 3219 4666 
z
" transform="scale(0.015625)"/>
     </defs>
     <use xlink:href="#DejaVuSerif-63"/>
     <use xlink:href="#DejaVuSerif-6f" transform="translate(56.005859 0)"/>
     <use xlink:href="#DejaVuSerif-6e" transform="translate(116.210938 0)"/>
     <use xlink:href="#DejaVuSerif-76" transform="translate(180.615234 0)"/>
     <use xlink:href="#DejaVuSerif-65" transform="translate(237.109375 0)"/>
     <use xlink:href="#DejaVuSerif-78" transform="translate(296.289062 0)"/>
     <use xlink:href="#DejaVuSerif-5f" transform="translate(352.685547 0)"/>
     <use xlink:href="#DejaVuSerif-62" transform="translate(402.685547 0)"/>
     <use xlink:href="#DejaVuSerif-6c" transform="translate(466.699219 0)"/>
     <use xlink:href="#DejaVuSerif-65" transform="translate(498.681641 0)"/>
     <use xlink:href="#DejaVuSerif-6e" transform="translate(557.861328 0)"/>
     <use xlink:href="#DejaVuSerif-64" transform="translate(622.265625 0)"/>
     <use xlink:href="#DejaVuSerif-20" transform="translate(686.279297 0)"/>
     <use xlink:href="#DejaVuSerif-28" transform="translate(718.066406 0)"/>
     <use xlink:href="#DejaVuSerif-35" transform="translate(757.080078 0)"/>
     <use xlink:href="#DejaVuSerif-29" transform="translate(820.703125 0)"/>
    </g>
   </g>
   <g id="text_18">
    <!-- convex_blend (6) -->
    <g style="fill: #0f172a" transform="translate(143.109045 192.82725) scale(0.075 -0.075)">
     <use xlink:href="#DejaVuSerif-63"/>
     <use xlink:href="#DejaVuSerif-6f" transform="translate(56.005859 0)"/>
     <use xlink:href="#DejaVuSerif-6e" transform="translate(116.210938 0)"/>
     <use xlink:href="#DejaVuSerif-76" transform="translate(180.615234 0)"/>
     <use xlink:href="#DejaVuSerif-65" transform="translate(237.109375 0)"/>
     <use xlink:href="#DejaVuSerif-78" transform="translate(296.289062 0)"/>
     <use xlink:href="#DejaVuSerif-5f" transform="translate(352.685547 0)"/>
     <use xlink:href="#DejaVuSerif-62" transform="translate(402.685547 0)"/>
     <use xlink:href="#DejaVuSerif-6c" transform="translate(466.699219 0)"/>
     <use xlink:href="#DejaVuSerif-65" transform="translate(498.681641 0)"/>
     <use xlink:href="#DejaVuSerif-6e" transform="translate(557.861328 0)"/>
     <use xlink:href="#DejaVuSerif-64" transform="translate(622.265625 0)"/>
     <use xlink:href="#DejaVuSerif-20" transform="translate(686.279297 0)"/>
     <use xlink:href="#DejaVuSerif-28" transform="translate(718.066406 0)"/>
     <use xlink:href="#DejaVuSerif-36" transform="translate(757.080078 0)"/>
     <use xlink:href="#DejaVuSerif-29" transform="translate(820.703125 0)"/>
    </g>
   </g>
   <g id="text_19">
    <!-- convex_blend (7) -->
    <g style="fill: #0f172a" transform="translate(183.323763 198.02475) scale(0.075 -0.075)">
     <use xlink:href="#DejaVuSerif-63"/>
     <use xlink:href="#DejaVuSerif-6f" transform="translate(56.005859 0)"/>
     <use xlink:href="#DejaVuSerif-6e" transform="translate(116.210938 0)"/>
     <use xlink:href="#DejaVuSerif-76" transform="translate(180.615234 0)"/>
     <use xlink:href="#DejaVuSerif-65" transform="translate(237.109375 0)"/>
     <use xlink:href="#DejaVuSerif-78" transform="translate(296.289062 0)"/>
     <use xlink:href="#DejaVuSerif-5f" transform="translate(352.685547 0)"/>
     <use xlink:href="#DejaVuSerif-62" transform="translate(402.685547 0)"/>
     <use xlink:href="#DejaVuSerif-6c" transform="translate(466.699219 0)"/>
     <use xlink:href="#DejaVuSerif-65" transform="translate(498.681641 0)"/>
     <use xlink:href="#DejaVuSerif-6e" transform="translate(557.861328 0)"/>
     <use xlink:href="#DejaVuSerif-64" transform="translate(622.265625 0)"/>
     <use xlink:href="#DejaVuSerif-20" transform="translate(686.279297 0)"/>
     <use xlink:href="#DejaVuSerif-28" transform="translate(718.066406 0)"/>
     <use xlink:href="#DejaVuSerif-37" transform="translate(757.080078 0)"/>
     <use xlink:href="#DejaVuSerif-29" transform="translate(820.703125 0)"/>
    </g>
   </g>
   <g id="text_20">
    <!-- convex_blend (8) -->
    <g style="fill: #0f172a" transform="translate(182.879719 203.22225) scale(0.075 -0.075)">
     <use xlink:href="#DejaVuSerif-63"/>
     <use xlink:href="#DejaVuSerif-6f" transform="translate(56.005859 0)"/>
     <use xlink:href="#DejaVuSerif-6e" transform="translate(116.210938 0)"/>
     <use xlink:href="#DejaVuSerif-76" transform="translate(180.615234 0)"/>
     <use xlink:href="#DejaVuSerif-65" transform="translate(237.109375 0)"/>
     <use xlink:href="#DejaVuSerif-78" transform="translate(296.289062 0)"/>
     <use xlink:href="#DejaVuSerif-5f" transform="translate(352.685547 0)"/>
     <use xlink:href="#DejaVuSerif-62" transform="translate(402.685547 0)"/>
     <use xlink:href="#DejaVuSerif-6c" transform="translate(466.699219 0)"/>
     <use xlink:href="#DejaVuSerif-65" transform="translate(498.681641 0)"/>
     <use xlink:href="#DejaVuSerif-6e" transform="translate(557.861328 0)"/>
     <use xlink:href="#DejaVuSerif-64" transform="translate(622.265625 0)"/>
     <use xlink:href="#DejaVuSerif-20" transform="translate(686.279297 0)"/>
     <use xlink:href="#DejaVuSerif-28" transform="translate(718.066406 0)"/>
     <use xlink:href="#DejaVuSerif-38" transform="translate(757.080078 0)"/>
     <use xlink:href="#DejaVuSerif-29" transform="translate(820.703125 0)"/>
    </g>
   </g>
   <g id="text_21">
    <!-- convex_blend (9) -->
    <g style="fill: #0f172a" transform="translate(142.874221 192.82725) scale(0.075 -0.075)">
     <defs>
      <path id="DejaVuSerif-39" d="M 2994 2091 
Q 2784 1856 2512 1740 
Q 2241 1625 1900 1625 
Q 1206 1625 804 2044 
Q 403 2463 403 3188 
Q 403 3897 839 4323 
Q 1275 4750 2003 4750 
Q 2794 4750 3217 4161 
Q 3641 3572 3641 2478 
Q 3641 1253 3137 581 
Q 2634 -91 1722 -91 
Q 1475 -91 1203 -44 
Q 931 3 647 97 
L 647 872 
L 997 872 
Q 1038 556 1241 387 
Q 1444 219 1784 219 
Q 2391 219 2687 676 
Q 2984 1134 2994 2091 
z
M 1978 4441 
Q 1534 4441 1298 4117 
Q 1063 3794 1063 3188 
Q 1063 2581 1298 2256 
Q 1534 1931 1978 1931 
Q 2422 1931 2658 2245 
Q 2894 2559 2894 3150 
Q 2894 3772 2656 4106 
Q 2419 4441 1978 4441 
z
" transform="scale(0.015625)"/>
     </defs>
     <use xlink:href="#DejaVuSerif-63"/>
     <use xlink:href="#DejaVuSerif-6f" transform="translate(56.005859 0)"/>
     <use xlink:href="#DejaVuSerif-6e" transform="translate(116.210938 0)"/>
     <use xlink:href="#DejaVuSerif-76" transform="translate(180.615234 0)"/>
     <use xlink:href="#DejaVuSerif-65" transform="translate(237.109375 0)"/>
     <use xlink:href="#DejaVuSerif-78" transform="translate(296.289062 0)"/>
     <use xlink:href="#DejaVuSerif-5f" transform="translate(352.685547 0)"/>
     <use xlink:href="#DejaVuSerif-62" transform="translate(402.685547 0)"/>
     <use xlink:href="#DejaVuSerif-6c" transform="translate(466.699219 0)"/>
     <use xlink:href="#DejaVuSerif-65" transform="translate(498.681641 0)"/>
     <use xlink:href="#DejaVuSerif-6e" transform="translate(557.861328 0)"/>
     <use xlink:href="#DejaVuSerif-64" transform="translate(622.265625 0)"/>
     <use xlink:href="#DejaVuSerif-20" transform="translate(686.279297 0)"/>
     <use xlink:href="#DejaVuSerif-28" transform="translate(718.066406 0)"/>
     <use xlink:href="#DejaVuSerif-39" transform="translate(757.080078 0)"/>
     <use xlink:href="#DejaVuSerif-29" transform="translate(820.703125 0)"/>
    </g>
   </g>
   <g id="text_22">
    <!-- convex_blend (10) -->
    <g style="fill: #0f172a" transform="translate(183.863015 224.01225) scale(0.075 -0.075)">
     <use xlink:href="#DejaVuSerif-63"/>
     <use xlink:href="#DejaVuSerif-6f" transform="translate(56.005859 0)"/>
     <use xlink:href="#DejaVuSerif-6e" transform="translate(116.210938 0)"/>
     <use xlink:href="#DejaVuSerif-76" transform="translate(180.615234 0)"/>
     <use xlink:href="#DejaVuSerif-65" transform="translate(237.109375 0)"/>
     <use xlink:href="#DejaVuSerif-78" transform="translate(296.289062 0)"/>
     <use xlink:href="#DejaVuSerif-5f" transform="translate(352.685547 0)"/>
     <use xlink:href="#DejaVuSerif-62" transform="translate(402.685547 0)"/>
     <use xlink:href="#DejaVuSerif-6c" transform="translate(466.699219 0)"/>
     <use xlink:href="#DejaVuSerif-65" transform="translate(498.681641 0)"/>
     <use xlink:href="#DejaVuSerif-6e" transform="translate(557.861328 0)"/>
     <use xlink:href="#DejaVuSerif-64" transform="translate(622.265625 0)"/>
     <use xlink:href="#DejaVuSerif-20" transform="translate(686.279297 0)"/>
     <use xlink:href="#DejaVuSerif-28" transform="translate(718.066406 0)"/>
     <use xlink:href="#DejaVuSerif-31" transform="translate(757.080078 0)"/>
     <use xlink:href="#DejaVuSerif-30" transform="translate(820.703125 0)"/>
     <use xlink:href="#DejaVuSerif-29" transform="translate(884.326172 0)"/>
    </g>
   </g>
   <g id="text_23">
    <!-- Innovation Frontier (accuracy-calibration tradeoff) -->
    <g style="fill: #0f172a" transform="translate(83.475138 14.27025) scale(0.112 -0.112)">
     <defs>
      <path id="DejaVuSerif-Bold-49" d="M 300 0 
L 300 378 
L 897 378 
L 897 4288 
L 300 4288 
L 300 4666 
L 2700 4666 
L 2700 4288 
L 2100 4288 
L 2100 378 
L 2700 378 
L 2700 0 
L 300 0 
z
" transform="scale(0.015625)"/>
      <path id="DejaVuSerif-Bold-6e" d="M 219 0 
L 219 378 
L 691 378 
L 691 2944 
L 219 2944 
L 219 3322 
L 1797 3322 
L 1797 2853 
Q 1997 3150 2253 3281 
Q 2509 3413 2900 3413 
Q 3459 3413 3745 3083 
Q 4031 2753 4031 2113 
L 4031 378 
L 4506 378 
L 4506 0 
L 2522 0 
L 2522 378 
L 2925 378 
L 2925 2144 
Q 2925 2566 2817 2730 
Q 2709 2894 2444 2894 
Q 2109 2894 1953 2648 
Q 1797 2403 1797 1869 
L 1797 378 
L 2203 378 
L 2203 0 
L 219 0 
z
" transform="scale(0.015625)"/>
      <path id="DejaVuSerif-Bold-6f" d="M 2138 263 
Q 2488 263 2630 563 
Q 2772 863 2772 1663 
Q 2772 2463 2631 2761 
Q 2491 3059 2138 3059 
Q 1784 3059 1640 2757 
Q 1497 2456 1497 1663 
Q 1497 869 1640 566 
Q 1784 263 2138 263 
z
M 2138 -91 
Q 1259 -91 761 376 
Q 263 844 263 1663 
Q 263 2484 761 2948 
Q 1259 3413 2138 3413 
Q 3019 3413 3516 2948 
Q 4013 2484 4013 1663 
Q 4013 844 3514 376 
Q 3016 -91 2138 -91 
z
" transform="scale(0.015625)"/>
      <path id="DejaVuSerif-Bold-76" d="M 1428 0 
L 250 2944 
L -116 2944 
L -116 3322 
L 1791 3322 
L 1791 2944 
L 1388 2944 
L 2228 844 
L 3066 2944 
L 2631 2944 
L 2631 3322 
L 3878 3322 
L 3878 2944 
L 3494 2944 
L 2316 0 
L 1428 0 
z
" transform="scale(0.015625)"/>
      <path id="DejaVuSerif-Bold-61" d="M 3525 2041 
L 3525 378 
L 4000 378 
L 4000 0 
L 2419 0 
L 2419 422 
Q 2200 159 1931 34 
Q 1663 -91 1319 -91 
Q 809 -91 536 182 
Q 263 456 263 966 
Q 263 1525 655 1803 
Q 1047 2081 1838 2081 
L 2419 2081 
L 2419 2278 
Q 2419 2681 2228 2873 
Q 2038 3066 1638 3066 
Q 1306 3066 1126 2930 
Q 947 2794 872 2484 
L 519 2484 
L 519 3200 
Q 816 3306 1134 3359 
Q 1453 3413 1806 3413 
Q 2697 3413 3111 3081 
Q 3525 2750 3525 2041 
z
M 2419 1044 
L 2419 1709 
L 2003 1709 
Q 1694 1709 1528 1540 
Q 1363 1372 1363 1056 
Q 1363 741 1483 584 
Q 1603 428 1850 428 
Q 2106 428 2262 597 
Q 2419 766 2419 1044 
z
" transform="scale(0.015625)"/>
      <path id="DejaVuSerif-Bold-74" d="M 634 2944 
L 153 2944 
L 153 3322 
L 634 3322 
L 634 4353 
L 1741 4353 
L 1741 3322 
L 2663 3322 
L 2663 2944 
L 1741 2944 
L 1741 909 
Q 1741 475 1809 369 
Q 1878 263 2059 263 
Q 2259 263 2356 397 
Q 2453 531 2459 813 
L 2925 813 
Q 2897 313 2651 111 
Q 2406 -91 1806 -91 
Q 1122 -91 878 123 
Q 634 338 634 909 
L 634 2944 
z
" transform="scale(0.015625)"/>
      <path id="DejaVuSerif-Bold-69" d="M 588 4263 
Q 588 4516 763 4689 
Q 938 4863 1191 4863 
Q 1438 4863 1611 4689 
Q 1784 4516 1784 4263 
Q 1784 4016 1611 3842 
Q 1438 3669 1191 3669 
Q 938 3669 763 3841 
Q 588 4013 588 4263 
z
M 1797 378 
L 2272 378 
L 2272 0 
L 219 0 
L 219 378 
L 691 378 
L 691 2944 
L 219 2944 
L 219 3322 
L 1797 3322 
L 1797 378 
z
" transform="scale(0.015625)"/>
      <path id="DejaVuSerif-Bold-20" transform="scale(0.015625)"/>
      <path id="DejaVuSerif-Bold-46" d="M 300 0 
L 300 378 
L 897 378 
L 897 4288 
L 300 4288 
L 300 4666 
L 4459 4666 
L 4459 3566 
L 4031 3566 
L 4031 4238 
L 2106 4238 
L 2106 2741 
L 3291 2741 
L 3291 3334 
L 3719 3334 
L 3719 1722 
L 3291 1722 
L 3291 2316 
L 2106 2316 
L 2106 378 
L 2841 378 
L 2841 0 
L 300 0 
z
" transform="scale(0.015625)"/>
      <path id="DejaVuSerif-Bold-72" d="M 3438 3359 
L 3438 2369 
L 3084 2369 
Q 3066 2634 2941 2764 
Q 2816 2894 2578 2894 
Q 2216 2894 2006 2575 
Q 1797 2256 1797 1691 
L 1797 378 
L 2400 378 
L 2400 0 
L 219 0 
L 219 378 
L 691 378 
L 691 2944 
L 184 2944 
L 184 3322 
L 1797 3322 
L 1797 2731 
Q 1959 3078 2226 3245 
Q 2494 3413 2881 3413 
Q 2978 3413 3117 3398 
Q 3256 3384 3438 3359 
z
" transform="scale(0.015625)"/>
      <path id="DejaVuSerif-Bold-65" d="M 2566 1875 
Q 2566 2531 2444 2795 
Q 2322 3059 2028 3059 
Q 1744 3059 1620 2800 
Q 1497 2541 1497 1931 
L 1497 1875 
L 2566 1875 
z
M 3781 1503 
L 1497 1503 
L 1497 1478 
Q 1497 834 1690 548 
Q 1884 263 2316 263 
Q 2675 263 2897 453 
Q 3119 644 3181 1006 
L 3700 1006 
Q 3566 441 3166 175 
Q 2766 -91 2047 -91 
Q 1184 -91 723 364 
Q 263 819 263 1663 
Q 263 2488 734 2950 
Q 1206 3413 2047 3413 
Q 2872 3413 3312 2927 
Q 3753 2441 3781 1503 
z
" transform="scale(0.015625)"/>
      <path id="DejaVuSerif-Bold-28" d="M 2694 -997 
Q 1641 -606 1122 122 
Q 603 850 603 1931 
Q 603 3013 1115 3731 
Q 1628 4450 2694 4863 
L 2694 4488 
Q 2200 4188 1983 3598 
Q 1766 3009 1766 1931 
Q 1766 856 1983 267 
Q 2200 -322 2694 -622 
L 2694 -997 
z
" transform="scale(0.015625)"/>
      <path id="DejaVuSerif-Bold-63" d="M 3609 1038 
Q 3491 469 3123 189 
Q 2756 -91 2125 -91 
Q 1238 -91 750 368 
Q 263 828 263 1663 
Q 263 2488 744 2950 
Q 1225 3413 2081 3413 
Q 2428 3413 2781 3347 
Q 3134 3281 3500 3150 
L 3500 2228 
L 3150 2228 
Q 3100 2650 2903 2854 
Q 2706 3059 2350 3059 
Q 1888 3059 1692 2746 
Q 1497 2434 1497 1663 
Q 1497 909 1687 586 
Q 1878 263 2309 263 
Q 2644 263 2845 463 
Q 3047 663 3091 1038 
L 3609 1038 
z
" transform="scale(0.015625)"/>
      <path id="DejaVuSerif-Bold-75" d="M 3963 3322 
L 3963 378 
L 4434 378 
L 4434 0 
L 2853 0 
L 2853 469 
Q 2656 172 2400 40 
Q 2144 -91 1753 -91 
Q 1194 -91 908 239 
Q 622 569 622 1209 
L 622 2944 
L 147 2944 
L 147 3322 
L 1728 3322 
L 1728 1381 
Q 1728 763 1831 595 
Q 1934 428 2209 428 
Q 2544 428 2698 675 
Q 2853 922 2853 1459 
L 2853 2944 
L 2450 2944 
L 2450 3322 
L 3963 3322 
z
" transform="scale(0.015625)"/>
      <path id="DejaVuSerif-Bold-79" d="M 1997 -750 
Q 1847 -1116 1634 -1269 
Q 1422 -1422 1063 -1422 
Q 909 -1422 721 -1387 
Q 534 -1353 313 -1288 
L 313 -594 
L 666 -597 
Q 675 -838 779 -953 
Q 884 -1069 1094 -1069 
Q 1297 -1069 1422 -958 
Q 1547 -847 1672 -538 
L 1722 -422 
L 275 2944 
L -84 2944 
L -84 3322 
L 1831 3322 
L 1831 2944 
L 1434 2944 
L 2278 978 
L 3066 2944 
L 2625 2944 
L 2625 3322 
L 3872 3322 
L 3872 2944 
L 3469 2944 
L 1997 -750 
z
" transform="scale(0.015625)"/>
      <path id="DejaVuSerif-Bold-2d" d="M 347 2138 
L 2309 2138 
L 2309 1294 
L 347 1294 
L 347 2138 
z
" transform="scale(0.015625)"/>
      <path id="DejaVuSerif-Bold-6c" d="M 1797 378 
L 2272 378 
L 2272 0 
L 219 0 
L 219 378 
L 691 378 
L 691 4488 
L 219 4488 
L 219 4863 
L 1797 4863 
L 1797 378 
z
" transform="scale(0.015625)"/>
      <path id="DejaVuSerif-Bold-62" d="M 622 378 
L 622 4488 
L 147 4488 
L 147 4863 
L 1728 4863 
L 1728 2900 
Q 1869 3159 2106 3286 
Q 2344 3413 2694 3413 
Q 3403 3413 3811 2945 
Q 4219 2478 4219 1663 
Q 4219 847 3811 378 
Q 3403 -91 2694 -91 
Q 2344 -91 2106 36 
Q 1869 163 1728 422 
L 1728 0 
L 147 0 
L 147 378 
L 622 378 
z
M 1728 1497 
Q 1728 916 1876 656 
Q 2025 397 2356 397 
Q 2697 397 2836 672 
Q 2975 947 2975 1663 
Q 2975 2378 2836 2651 
Q 2697 2925 2356 2925 
Q 2025 2925 1876 2665 
Q 1728 2406 1728 1825 
L 1728 1497 
z
" transform="scale(0.015625)"/>
      <path id="DejaVuSerif-Bold-64" d="M 2747 1497 
L 2747 1825 
Q 2747 2406 2597 2665 
Q 2447 2925 2119 2925 
Q 1775 2925 1636 2651 
Q 1497 2378 1497 1663 
Q 1497 947 1637 672 
Q 1778 397 2119 397 
Q 2447 397 2597 656 
Q 2747 916 2747 1497 
z
M 3853 378 
L 4325 378 
L 4325 0 
L 2747 0 
L 2747 422 
Q 2606 163 2367 36 
Q 2128 -91 1778 -91 
Q 1072 -91 667 378 
Q 263 847 263 1663 
Q 263 2481 667 2947 
Q 1072 3413 1778 3413 
Q 2128 3413 2367 3286 
Q 2606 3159 2747 2900 
L 2747 4488 
L 2272 4488 
L 2272 4863 
L 3853 4863 
L 3853 378 
z
" transform="scale(0.015625)"/>
      <path id="DejaVuSerif-Bold-66" d="M 3097 4031 
L 2747 4031 
Q 2722 4275 2605 4394 
Q 2488 4513 2272 4513 
Q 2022 4513 1909 4333 
Q 1797 4153 1797 3750 
L 1797 3322 
L 2631 3322 
L 2631 2944 
L 1797 2944 
L 1797 378 
L 2438 378 
L 2438 0 
L 219 0 
L 219 378 
L 691 378 
L 691 2944 
L 197 2944 
L 197 3322 
L 691 3322 
L 691 3738 
Q 691 4291 1044 4577 
Q 1397 4863 2081 4863 
Q 2347 4863 2600 4833 
Q 2853 4803 3097 4744 
L 3097 4031 
z
" transform="scale(0.015625)"/>
      <path id="DejaVuSerif-Bold-29" d="M 325 -997 
L 325 -622 
Q 819 -322 1036 267 
Q 1253 856 1253 1931 
Q 1253 3009 1036 3598 
Q 819 4188 325 4488 
L 325 4863 
Q 1391 4450 1905 3731 
Q 2419 3013 2419 1931 
Q 2419 850 1898 122 
Q 1378 -606 325 -997 
z
" transform="scale(0.015625)"/>
     </defs>
     <use xlink:href="#DejaVuSerif-Bold-49"/>
     <use xlink:href="#DejaVuSerif-Bold-6e" transform="translate(46.777344 0)"/>
     <use xlink:href="#DejaVuSerif-Bold-6e" transform="translate(119.482422 0)"/>
     <use xlink:href="#DejaVuSerif-Bold-6f" transform="translate(192.1875 0)"/>
     <use xlink:href="#DejaVuSerif-Bold-76" transform="translate(258.886719 0)"/>
     <use xlink:href="#DejaVuSerif-Bold-61" transform="translate(316.992188 0)"/>
     <use xlink:href="#DejaVuSerif-Bold-74" transform="translate(381.787109 0)"/>
     <use xlink:href="#DejaVuSerif-Bold-69" transform="translate(427.978516 0)"/>
     <use xlink:href="#DejaVuSerif-Bold-6f" transform="translate(465.966797 0)"/>
     <use xlink:href="#DejaVuSerif-Bold-6e" transform="translate(532.666016 0)"/>
     <use xlink:href="#DejaVuSerif-Bold-20" transform="translate(605.371094 0)"/>
     <use xlink:href="#DejaVuSerif-Bold-46" transform="translate(640.185547 0)"/>
     <use xlink:href="#DejaVuSerif-Bold-72" transform="translate(709.431641 0)"/>
     <use xlink:href="#DejaVuSerif-Bold-6f" transform="translate(762.117188 0)"/>
     <use xlink:href="#DejaVuSerif-Bold-6e" transform="translate(828.816406 0)"/>
     <use xlink:href="#DejaVuSerif-Bold-74" transform="translate(901.521484 0)"/>
     <use xlink:href="#DejaVuSerif-Bold-69" transform="translate(947.712891 0)"/>
     <use xlink:href="#DejaVuSerif-Bold-65" transform="translate(985.701172 0)"/>
     <use xlink:href="#DejaVuSerif-Bold-72" transform="translate(1049.324219 0)"/>
     <use xlink:href="#DejaVuSerif-Bold-20" transform="translate(1102.009766 0)"/>
     <use xlink:href="#DejaVuSerif-Bold-28" transform="translate(1136.824219 0)"/>
     <use xlink:href="#DejaVuSerif-Bold-61" transform="translate(1184.138672 0)"/>
     <use xlink:href="#DejaVuSerif-Bold-63" transform="translate(1248.933594 0)"/>
     <use xlink:href="#DejaVuSerif-Bold-63" transform="translate(1309.822266 0)"/>
     <use xlink:href="#DejaVuSerif-Bold-75" transform="translate(1370.710938 0)"/>
     <use xlink:href="#DejaVuSerif-Bold-72" transform="translate(1443.416016 0)"/>
     <use xlink:href="#DejaVuSerif-Bold-61" transform="translate(1496.101562 0)"/>
     <use xlink:href="#DejaVuSerif-Bold-63" transform="translate(1560.896484 0)"/>
     <use xlink:href="#DejaVuSerif-Bold-79" transform="translate(1621.785156 0)"/>
     <use xlink:href="#DejaVuSerif-Bold-2d" transform="translate(1679.890625 0)"/>
     <use xlink:href="#DejaVuSerif-Bold-63" transform="translate(1721.394531 0)"/>
     <use xlink:href="#DejaVuSerif-Bold-61" transform="translate(1782.283203 0)"/>
     <use xlink:href="#DejaVuSerif-Bold-6c" transform="translate(1847.078125 0)"/>
     <use xlink:href="#DejaVuSerif-Bold-69" transform="translate(1885.066406 0)"/>
     <use xlink:href="#DejaVuSerif-Bold-62" transform="translate(1923.054688 0)"/>
     <use xlink:href="#DejaVuSerif-Bold-72" transform="translate(1992.976562 0)"/>
     <use xlink:href="#DejaVuSerif-Bold-61" transform="translate(2045.662109 0)"/>
     <use xlink:href="#DejaVuSerif-Bold-74" transform="translate(2110.457031 0)"/>
     <use xlink:href="#DejaVuSerif-Bold-69" transform="translate(2156.648438 0)"/>
     <use xlink:href="#DejaVuSerif-Bold-6f" transform="translate(2194.636719 0)"/>
     <use xlink:href="#DejaVuSerif-Bold-6e" transform="translate(2261.335938 0)"/>
     <use xlink:href="#DejaVuSerif-Bold-20" transform="translate(2334.041016 0)"/>
     <use xlink:href="#DejaVuSerif-Bold-74" transform="translate(2368.855469 0)"/>
     <use xlink:href="#DejaVuSerif-Bold-72" transform="translate(2415.046875 0)"/>
     <use xlink:href="#DejaVuSerif-Bold-61" transform="translate(2467.732422 0)"/>
     <use xlink:href="#DejaVuSerif-Bold-64" transform="translate(2532.527344 0)"/>
     <use xlink:href="#DejaVuSerif-Bold-65" transform="translate(2602.449219 0)"/>
     <use xlink:href="#DejaVuSerif-Bold-6f" transform="translate(2666.072266 0)"/>
     <use xlink:href="#DejaVuSerif-Bold-66" transform="translate(2732.771484 0)"/>
     <use xlink:href="#DejaVuSerif-Bold-66" transform="translate(2775.789062 0)"/>
     <use xlink:href="#DejaVuSerif-Bold-29" transform="translate(2818.806641 0)"/>
    </g>
   </g>
  </g>
  <g id="axes_2">
   <g id="patch_5">
    <path d="M 508.68227 389.17425 
L 831.492187 389.17425 
L 831.492187 23.27025 
L 508.68227 23.27025 
z
" style="fill: #ffffff"/>
   </g>
   <g id="patch_6">
    <path d="M 508.68227 372.54225 
L 816.120287 372.54225 
L 816.120287 39.90225 
L 508.68227 39.90225 
z
" clip-path="url(#p58ef09959e)" style="fill: #0f766e; opacity: 0.86"/>
   </g>
   <g id="matplotlib.axis_3">
    <g id="xtick_6">
     <g id="line2d_21">
      <path d="M 508.68227 389.17425 
L 508.68227 23.27025 
" clip-path="url(#p58ef09959e)" style="fill: none; stroke-dasharray: 2.96,1.28; stroke-dashoffset: 0; stroke: #e2e8f0; stroke-opacity: 0.2; stroke-width: 0.8"/>
     </g>
     <g id="line2d_22">
      <g>
       <use xlink:href="#mf75a64fad6" x="508.68227" y="389.17425" style="fill: #475569; stroke: #475569; stroke-width: 0.8"/>
      </g>
     </g>
     <g id="text_24">
      <!-- 0.0 -->
      <g style="fill: #475569" transform="translate(502.002958 402.556938) scale(0.084 -0.084)">
       <use xlink:href="#DejaVuSerif-30"/>
       <use xlink:href="#DejaVuSerif-2e" transform="translate(63.623047 0)"/>
       <use xlink:href="#DejaVuSerif-30" transform="translate(95.410156 0)"/>
      </g>
     </g>
    </g>
    <g id="xtick_7">
     <g id="line2d_23">
      <path d="M 547.112022 389.17425 
L 547.112022 23.27025 
" clip-path="url(#p58ef09959e)" style="fill: none; stroke-dasharray: 2.96,1.28; stroke-dashoffset: 0; stroke: #e2e8f0; stroke-opacity: 0.2; stroke-width: 0.8"/>
     </g>
     <g id="line2d_24">
      <g>
       <use xlink:href="#mf75a64fad6" x="547.112022" y="389.17425" style="fill: #475569; stroke: #475569; stroke-width: 0.8"/>
      </g>
     </g>
     <g id="text_25">
      <!-- 0.1 -->
      <g style="fill: #475569" transform="translate(540.43271 402.556938) scale(0.084 -0.084)">
       <use xlink:href="#DejaVuSerif-30"/>
       <use xlink:href="#DejaVuSerif-2e" transform="translate(63.623047 0)"/>
       <use xlink:href="#DejaVuSerif-31" transform="translate(95.410156 0)"/>
      </g>
     </g>
    </g>
    <g id="xtick_8">
     <g id="line2d_25">
      <path d="M 585.541774 389.17425 
L 585.541774 23.27025 
" clip-path="url(#p58ef09959e)" style="fill: none; stroke-dasharray: 2.96,1.28; stroke-dashoffset: 0; stroke: #e2e8f0; stroke-opacity: 0.2; stroke-width: 0.8"/>
     </g>
     <g id="line2d_26">
      <g>
       <use xlink:href="#mf75a64fad6" x="585.541774" y="389.17425" style="fill: #475569; stroke: #475569; stroke-width: 0.8"/>
      </g>
     </g>
     <g id="text_26">
      <!-- 0.2 -->
      <g style="fill: #475569" transform="translate(578.862462 402.556938) scale(0.084 -0.084)">
       <use xlink:href="#DejaVuSerif-30"/>
       <use xlink:href="#DejaVuSerif-2e" transform="translate(63.623047 0)"/>
       <use xlink:href="#DejaVuSerif-32" transform="translate(95.410156 0)"/>
      </g>
     </g>
    </g>
    <g id="xtick_9">
     <g id="line2d_27">
      <path d="M 623.971526 389.17425 
L 623.971526 23.27025 
" clip-path="url(#p58ef09959e)" style="fill: none; stroke-dasharray: 2.96,1.28; stroke-dashoffset: 0; stroke: #e2e8f0; stroke-opacity: 0.2; stroke-width: 0.8"/>
     </g>
     <g id="line2d_28">
      <g>
       <use xlink:href="#mf75a64fad6" x="623.971526" y="389.17425" style="fill: #475569; stroke: #475569; stroke-width: 0.8"/>
      </g>
     </g>
     <g id="text_27">
      <!-- 0.3 -->
      <g style="fill: #475569" transform="translate(617.292214 402.556938) scale(0.084 -0.084)">
       <use xlink:href="#DejaVuSerif-30"/>
       <use xlink:href="#DejaVuSerif-2e" transform="translate(63.623047 0)"/>
       <use xlink:href="#DejaVuSerif-33" transform="translate(95.410156 0)"/>
      </g>
     </g>
    </g>
    <g id="xtick_10">
     <g id="line2d_29">
      <path d="M 662.401278 389.17425 
L 662.401278 23.27025 
" clip-path="url(#p58ef09959e)" style="fill: none; stroke-dasharray: 2.96,1.28; stroke-dashoffset: 0; stroke: #e2e8f0; stroke-opacity: 0.2; stroke-width: 0.8"/>
     </g>
     <g id="line2d_30">
      <g>
       <use xlink:href="#mf75a64fad6" x="662.401278" y="389.17425" style="fill: #475569; stroke: #475569; stroke-width: 0.8"/>
      </g>
     </g>
     <g id="text_28">
      <!-- 0.4 -->
      <g style="fill: #475569" transform="translate(655.721966 402.556938) scale(0.084 -0.084)">
       <use xlink:href="#DejaVuSerif-30"/>
       <use xlink:href="#DejaVuSerif-2e" transform="translate(63.623047 0)"/>
       <use xlink:href="#DejaVuSerif-34" transform="translate(95.410156 0)"/>
      </g>
     </g>
    </g>
    <g id="xtick_11">
     <g id="line2d_31">
      <path d="M 700.83103 389.17425 
L 700.83103 23.27025 
" clip-path="url(#p58ef09959e)" style="fill: none; stroke-dasharray: 2.96,1.28; stroke-dashoffset: 0; stroke: #e2e8f0; stroke-opacity: 0.2; stroke-width: 0.8"/>
     </g>
     <g id="line2d_32">
      <g>
       <use xlink:href="#mf75a64fad6" x="700.83103" y="389.17425" style="fill: #475569; stroke: #475569; stroke-width: 0.8"/>
      </g>
     </g>
     <g id="text_29">
      <!-- 0.5 -->
      <g style="fill: #475569" transform="translate(694.151718 402.556938) scale(0.084 -0.084)">
       <use xlink:href="#DejaVuSerif-30"/>
       <use xlink:href="#DejaVuSerif-2e" transform="translate(63.623047 0)"/>
       <use xlink:href="#DejaVuSerif-35" transform="translate(95.410156 0)"/>
      </g>
     </g>
    </g>
    <g id="xtick_12">
     <g id="line2d_33">
      <path d="M 739.260783 389.17425 
L 739.260783 23.27025 
" clip-path="url(#p58ef09959e)" style="fill: none; stroke-dasharray: 2.96,1.28; stroke-dashoffset: 0; stroke: #e2e8f0; stroke-opacity: 0.2; stroke-width: 0.8"/>
     </g>
     <g id="line2d_34">
      <g>
       <use xlink:href="#mf75a64fad6" x="739.260783" y="389.17425" style="fill: #475569; stroke: #475569; stroke-width: 0.8"/>
      </g>
     </g>
     <g id="text_30">
      <!-- 0.6 -->
      <g style="fill: #475569" transform="translate(732.58147 402.556938) scale(0.084 -0.084)">
       <use xlink:href="#DejaVuSerif-30"/>
       <use xlink:href="#DejaVuSerif-2e" transform="translate(63.623047 0)"/>
       <use xlink:href="#DejaVuSerif-36" transform="translate(95.410156 0)"/>
      </g>
     </g>
    </g>
    <g id="xtick_13">
     <g id="line2d_35">
      <path d="M 777.690535 389.17425 
L 777.690535 23.27025 
" clip-path="url(#p58ef09959e)" style="fill: none; stroke-dasharray: 2.96,1.28; stroke-dashoffset: 0; stroke: #e2e8f0; stroke-opacity: 0.2; stroke-width: 0.8"/>
     </g>
     <g id="line2d_36">
      <g>
       <use xlink:href="#mf75a64fad6" x="777.690535" y="389.17425" style="fill: #475569; stroke: #475569; stroke-width: 0.8"/>
      </g>
     </g>
     <g id="text_31">
      <!-- 0.7 -->
      <g style="fill: #475569" transform="translate(771.011222 402.556938) scale(0.084 -0.084)">
       <use xlink:href="#DejaVuSerif-30"/>
       <use xlink:href="#DejaVuSerif-2e" transform="translate(63.623047 0)"/>
       <use xlink:href="#DejaVuSerif-37" transform="translate(95.410156 0)"/>
      </g>
     </g>
    </g>
    <g id="xtick_14">
     <g id="line2d_37">
      <path d="M 816.120287 389.17425 
L 816.120287 23.27025 
" clip-path="url(#p58ef09959e)" style="fill: none; stroke-dasharray: 2.96,1.28; stroke-dashoffset: 0; stroke: #e2e8f0; stroke-opacity: 0.2; stroke-width: 0.8"/>
     </g>
     <g id="line2d_38">
      <g>
       <use xlink:href="#mf75a64fad6" x="816.120287" y="389.17425" style="fill: #475569; stroke: #475569; stroke-width: 0.8"/>
      </g>
     </g>
     <g id="text_32">
      <!-- 0.8 -->
      <g style="fill: #475569" transform="translate(809.440974 402.556938) scale(0.084 -0.084)">
       <use xlink:href="#DejaVuSerif-30"/>
       <use xlink:href="#DejaVuSerif-2e" transform="translate(63.623047 0)"/>
       <use xlink:href="#DejaVuSerif-38" transform="translate(95.410156 0)"/>
      </g>
     </g>
    </g>
    <g id="text_33">
     <!-- Frontier Score -->
     <g style="fill: #0f172a" transform="translate(633.610557 415.750344) scale(0.098 -0.098)">
      <defs>
       <path id="DejaVuSerif-46" d="M 353 0 
L 353 331 
L 947 331 
L 947 4331 
L 353 4331 
L 353 4666 
L 4172 4666 
L 4172 3628 
L 3788 3628 
L 3788 4281 
L 1581 4281 
L 1581 2719 
L 3175 2719 
L 3175 3303 
L 3559 3303 
L 3559 1753 
L 3175 1753 
L 3175 2338 
L 1581 2338 
L 1581 331 
L 2328 331 
L 2328 0 
L 353 0 
z
" transform="scale(0.015625)"/>
       <path id="DejaVuSerif-53" d="M 594 225 
L 594 1288 
L 953 1284 
Q 969 753 1261 498 
Q 1553 244 2150 244 
Q 2706 244 2998 464 
Q 3291 684 3291 1106 
Q 3291 1444 3114 1625 
Q 2938 1806 2369 1978 
L 1753 2163 
Q 1084 2366 811 2669 
Q 538 2972 538 3500 
Q 538 4094 959 4422 
Q 1381 4750 2144 4750 
Q 2469 4750 2856 4679 
Q 3244 4609 3681 4475 
L 3681 3481 
L 3328 3481 
Q 3275 3975 2998 4195 
Q 2722 4416 2156 4416 
Q 1663 4416 1405 4214 
Q 1147 4013 1147 3628 
Q 1147 3294 1340 3103 
Q 1534 2913 2163 2725 
L 2741 2553 
Q 3375 2363 3645 2067 
Q 3916 1772 3916 1275 
Q 3916 597 3481 253 
Q 3047 -91 2188 -91 
Q 1803 -91 1404 -12 
Q 1006 66 594 225 
z
" transform="scale(0.015625)"/>
      </defs>
      <use xlink:href="#DejaVuSerif-46"/>
      <use xlink:href="#DejaVuSerif-72" transform="translate(69.384766 0)"/>
      <use xlink:href="#DejaVuSerif-6f" transform="translate(117.1875 0)"/>
      <use xlink:href="#DejaVuSerif-6e" transform="translate(177.392578 0)"/>
      <use xlink:href="#DejaVuSerif-74" transform="translate(241.796875 0)"/>
      <use xlink:href="#DejaVuSerif-69" transform="translate(281.982422 0)"/>
      <use xlink:href="#DejaVuSerif-65" transform="translate(313.964844 0)"/>
      <use xlink:href="#DejaVuSerif-72" transform="translate(373.144531 0)"/>
      <use xlink:href="#DejaVuSerif-20" transform="translate(420.947266 0)"/>
      <use xlink:href="#DejaVuSerif-53" transform="translate(452.734375 0)"/>
      <use xlink:href="#DejaVuSerif-63" transform="translate(521.240234 0)"/>
      <use xlink:href="#DejaVuSerif-6f" transform="translate(577.246094 0)"/>
      <use xlink:href="#DejaVuSerif-72" transform="translate(637.451172 0)"/>
      <use xlink:href="#DejaVuSerif-65" transform="translate(685.253906 0)"/>
     </g>
    </g>
   </g>
   <g id="matplotlib.axis_4">
    <g id="ytick_6">
     <g id="line2d_39">
      <g>
       <use xlink:href="#m685cb70f4a" x="508.68227" y="206.22225" style="fill: #475569; stroke: #475569; stroke-width: 0.8"/>
      </g>
     </g>
     <g id="text_34">
      <!-- 1 -->
      <g style="fill: #475569" transform="translate(496.33777 209.413594) scale(0.084 -0.084)">
       <use xlink:href="#DejaVuSerif-31"/>
      </g>
     </g>
    </g>
    <g id="text_35">
     <!-- Rank -->
     <g style="fill: #0f172a" transform="translate(490.299676 219.068672) rotate(-90) scale(0.098 -0.098)">
      <defs>
       <path id="DejaVuSerif-6b" d="M 1831 0 
L 219 0 
L 219 331 
L 738 331 
L 738 4531 
L 184 4531 
L 184 4863 
L 1313 4863 
L 1313 1697 
L 2713 2988 
L 2234 2988 
L 2234 3322 
L 3738 3322 
L 3738 2988 
L 3169 2988 
L 2181 2075 
L 3444 331 
L 3922 331 
L 3922 0 
L 2284 0 
L 2284 331 
L 2759 331 
L 1766 1697 
L 1313 1275 
L 1313 331 
L 1831 331 
L 1831 0 
z
" transform="scale(0.015625)"/>
      </defs>
      <use xlink:href="#DejaVuSerif-52"/>
      <use xlink:href="#DejaVuSerif-61" transform="translate(77.542969 0)"/>
      <use xlink:href="#DejaVuSerif-6e" transform="translate(137.162109 0)"/>
      <use xlink:href="#DejaVuSerif-6b" transform="translate(201.566406 0)"/>
     </g>
    </g>
   </g>
   <g id="patch_7">
    <path d="M 508.68227 389.17425 
L 508.68227 23.27025 
" style="fill: none; stroke: #475569; stroke-width: 0.85; stroke-linejoin: miter; stroke-linecap: square"/>
   </g>
   <g id="patch_8">
    <path d="M 508.68227 389.17425 
L 831.492187 389.17425 
" style="fill: none; stroke: #475569; stroke-width: 0.85; stroke-linejoin: miter; stroke-linecap: square"/>
   </g>
   <g id="text_36">
    <!-- Pareto-efficient Candidate Scores -->
    <g style="fill: #0f172a" transform="translate(564.320729 14.27025) scale(0.112 -0.112)">
     <defs>
      <path id="DejaVuSerif-Bold-50" d="M 300 0 
L 300 378 
L 897 378 
L 897 4288 
L 300 4288 
L 300 4666 
L 2956 4666 
Q 3734 4666 4193 4295 
Q 4653 3925 4653 3303 
Q 4653 2678 4192 2304 
Q 3731 1931 2956 1931 
L 2100 1931 
L 2100 378 
L 2853 378 
L 2853 0 
L 300 0 
z
M 2100 2309 
L 2450 2309 
Q 2856 2309 3098 2579 
Q 3341 2850 3341 3303 
Q 3341 3753 3100 4020 
Q 2859 4288 2450 4288 
L 2100 4288 
L 2100 2309 
z
" transform="scale(0.015625)"/>
      <path id="DejaVuSerif-Bold-43" d="M 4769 1331 
Q 4584 609 4106 259 
Q 3628 -91 2822 -91 
Q 1641 -91 955 561 
Q 269 1213 269 2328 
Q 269 3447 955 4098 
Q 1641 4750 2822 4750 
Q 3238 4750 3688 4650 
Q 4138 4550 4641 4347 
L 4641 3200 
L 4244 3200 
Q 4122 3788 3800 4080 
Q 3478 4372 2950 4372 
Q 2269 4372 1937 3870 
Q 1606 3369 1606 2328 
Q 1606 1288 1937 788 
Q 2269 288 2956 288 
Q 3422 288 3717 547 
Q 4013 806 4147 1331 
L 4769 1331 
z
" transform="scale(0.015625)"/>
      <path id="DejaVuSerif-Bold-53" d="M 494 225 
L 494 1331 
L 891 1331 
Q 981 806 1318 547 
Q 1656 288 2253 288 
Q 2738 288 2991 472 
Q 3244 656 3244 1013 
Q 3244 1294 3072 1450 
Q 2900 1606 2363 1741 
L 1663 1913 
Q 978 2088 700 2398 
Q 422 2709 422 3284 
Q 422 3978 883 4364 
Q 1344 4750 2175 4750 
Q 2584 4750 3026 4681 
Q 3469 4613 3944 4475 
L 3944 3444 
L 3547 3444 
Q 3456 3925 3150 4148 
Q 2844 4372 2278 4372 
Q 1816 4372 1580 4211 
Q 1344 4050 1344 3731 
Q 1344 3441 1506 3289 
Q 1669 3138 2303 2975 
L 3003 2803 
Q 3653 2641 3945 2297 
Q 4238 1953 4238 1350 
Q 4238 644 3750 276 
Q 3263 -91 2316 -91 
Q 1859 -91 1409 -12 
Q 959 66 494 225 
z
" transform="scale(0.015625)"/>
      <path id="DejaVuSerif-Bold-73" d="M 300 97 
L 300 1025 
L 653 1025 
Q 697 653 931 458 
Q 1166 263 1569 263 
Q 1906 263 2086 380 
Q 2266 497 2266 716 
Q 2266 916 2152 1025 
Q 2038 1134 1709 1216 
L 1253 1331 
Q 738 1459 506 1698 
Q 275 1938 275 2344 
Q 275 2884 650 3148 
Q 1025 3413 1806 3413 
Q 2100 3413 2433 3364 
Q 2766 3316 3169 3213 
L 3169 2375 
L 2816 2375 
Q 2788 2716 2573 2887 
Q 2359 3059 1959 3059 
Q 1622 3059 1448 2951 
Q 1275 2844 1275 2638 
Q 1275 2469 1375 2372 
Q 1475 2275 1734 2209 
L 2188 2094 
Q 2841 1928 3091 1684 
Q 3341 1441 3341 1006 
Q 3341 444 2939 176 
Q 2538 -91 1691 -91 
Q 1381 -91 1034 -44 
Q 688 3 300 97 
z
" transform="scale(0.015625)"/>
     </defs>
     <use xlink:href="#DejaVuSerif-Bold-50"/>
     <use xlink:href="#DejaVuSerif-Bold-61" transform="translate(72.570312 0)"/>
     <use xlink:href="#DejaVuSerif-Bold-72" transform="translate(137.365234 0)"/>
     <use xlink:href="#DejaVuSerif-Bold-65" transform="translate(190.050781 0)"/>
     <use xlink:href="#DejaVuSerif-Bold-74" transform="translate(253.673828 0)"/>
     <use xlink:href="#DejaVuSerif-Bold-6f" transform="translate(299.865234 0)"/>
     <use xlink:href="#DejaVuSerif-Bold-2d" transform="translate(366.564453 0)"/>
     <use xlink:href="#DejaVuSerif-Bold-65" transform="translate(408.068359 0)"/>
     <use xlink:href="#DejaVuSerif-Bold-66" transform="translate(471.691406 0)"/>
     <use xlink:href="#DejaVuSerif-Bold-66" transform="translate(514.708984 0)"/>
     <use xlink:href="#DejaVuSerif-Bold-69" transform="translate(557.726562 0)"/>
     <use xlink:href="#DejaVuSerif-Bold-63" transform="translate(595.714844 0)"/>
     <use xlink:href="#DejaVuSerif-Bold-69" transform="translate(656.603516 0)"/>
     <use xlink:href="#DejaVuSerif-Bold-65" transform="translate(694.591797 0)"/>
     <use xlink:href="#DejaVuSerif-Bold-6e" transform="translate(758.214844 0)"/>
     <use xlink:href="#DejaVuSerif-Bold-74" transform="translate(830.919922 0)"/>
     <use xlink:href="#DejaVuSerif-Bold-20" transform="translate(877.111328 0)"/>
     <use xlink:href="#DejaVuSerif-Bold-43" transform="translate(911.925781 0)"/>
     <use xlink:href="#DejaVuSerif-Bold-61" transform="translate(991.515625 0)"/>
     <use xlink:href="#DejaVuSerif-Bold-6e" transform="translate(1056.310547 0)"/>
     <use xlink:href="#DejaVuSerif-Bold-64" transform="translate(1129.015625 0)"/>
     <use xlink:href="#DejaVuSerif-Bold-69" transform="translate(1198.9375 0)"/>
     <use xlink:href="#DejaVuSerif-Bold-64" transform="translate(1236.925781 0)"/>
     <use xlink:href="#DejaVuSerif-Bold-61" transform="translate(1306.847656 0)"/>
     <use xlink:href="#DejaVuSerif-Bold-74" transform="translate(1371.642578 0)"/>
     <use xlink:href="#DejaVuSerif-Bold-65" transform="translate(1417.833984 0)"/>
     <use xlink:href="#DejaVuSerif-Bold-20" transform="translate(1481.457031 0)"/>
     <use xlink:href="#DejaVuSerif-Bold-53" transform="translate(1516.271484 0)"/>
     <use xlink:href="#DejaVuSerif-Bold-63" transform="translate(1588.488281 0)"/>
     <use xlink:href="#DejaVuSerif-Bold-6f" transform="translate(1649.376953 0)"/>
     <use xlink:href="#DejaVuSerif-Bold-72" transform="translate(1716.076172 0)"/>
     <use xlink:href="#DejaVuSerif-Bold-65" transform="translate(1768.761719 0)"/>
     <use xlink:href="#DejaVuSerif-Bold-73" transform="translate(1832.384766 0)"/>
    </g>
   </g>
  </g>
 </g>
 <defs>
  <clipPath id="pd64ab81e74">
   <rect x="50.292187" y="23.27025" width="387.371901" height="365.904"/>
  </clipPath>
  <clipPath id="p58ef09959e">
   <rect x="508.68227" y="23.27025" width="322.809917" height="365.904"/>
  </clipPath>
 </defs>
</svg>
