<?xml version="1.0" encoding="utf-8" standalone="no"?>
<!DOCTYPE svg PUBLIC "-//W3C//DTD SVG 1.1//EN"
  "http://www.w3.org/Graphics/SVG/1.1/DTD/svg11.dtd">
<svg xmlns:xlink="http://www.w3.org/1999/xlink" width="842.370437pt" height="445.863781pt" viewBox="0 0 842.370437 445.863781" xmlns="http://www.w3.org/2000/svg" version="1.1">
 <metadata>
  <rdf:RDF xmlns:dc="http://purl.org/dc/elements/1.1/" xmlns:cc="http://creativecommons.org/ns#" xmlns:rdf="http://www.w3.org/1999/02/22-rdf-syntax-ns#">
   <cc:Work>
    <dc:type rdf:resource="http://purl.org/dc/dcmitype/StillImage"/>
    <dc:date>2026-03-26T14:58:49.419591</dc:date>
    <dc:format>image/svg+xml</dc:format>
    <dc:creator>
     <cc:Agent>
      <dc:title>Matplotlib v3.10.8, https://matplotlib.org/</dc:title>
     </cc:Agent>
    </dc:creator>
   </cc:Work>
  </rdf:RDF>
 </metadata>
 <defs>
  <style type="text/css">*{stroke-linejoin: round; stroke-linecap: butt}</style>
 </defs>
 <g id="figure_1">
  <g id="patch_1">
   <path d="M 0 445.863781 
L 842.370437 445.863781 
L 842.370437 0 
L 0 0 
z
" style="fill: #ffffff"/>
  </g>
  <g id="axes_1">
   <g id="patch_2">
    <path d="M 94.705938 411.35025 
L 516.305938 411.35025 
L 516.305938 23.27025 
L 94.705938 23.27025 
z
" style="fill: #ffffff"/>
   </g>
   <g id="matplotlib.axis_1">
    <g id="xtick_1">
     <g id="line2d_1">
      <path d="M 109.858462 411.35025 
L 109.858462 23.27025 
" clip-path="url(#p7472a85c94)" style="fill: none; stroke-dasharray: 2.96,1.28; stroke-dashoffset: 0; stroke: #e2e8f0; stroke-opacity: 0.2; stroke-width: 0.8"/>
     </g>
     <g id="line2d_2">
      <defs>
       <path id="m2797ba9d54" d="M 0 0 
L 0 3.5 
" style="stroke: #475569; stroke-width: 0.8"/>
      </defs>
      <g>
       <use xlink:href="#m2797ba9d54" x="109.858462" y="411.35025" style="fill: #475569; stroke: #475569; stroke-width: 0.8"/>
      </g>
     </g>
     <g id="text_1">
      <!-- −0.10 -->
      <g style="fill: #475569" transform="translate(96.987431 424.732937) scale(0.084 -0.084)">
       <defs>
        <path id="DejaVuSerif-2212" d="M 678 2259 
L 4684 2259 
L 4684 1753 
L 678 1753 
L 678 2259 
z
" transform="scale(0.015625)"/>
        <path id="DejaVuSerif-30" d="M 2034 219 
Q 2513 219 2750 744 
Q 2988 1269 2988 2328 
Q 2988 3391 2750 3916 
Q 2513 4441 2034 4441 
Q 1556 4441 1318 3916 
Q 1081 3391 1081 2328 
Q 1081 1269 1318 744 
Q 1556 219 2034 219 
z
M 2034 -91 
Q 1275 -91 848 546 
Q 422 1184 422 2328 
Q 422 3475 848 4112 
Q 1275 4750 2034 4750 
Q 2797 4750 3222 4112 
Q 3647 3475 3647 2328 
Q 3647 1184 3222 546 
Q 2797 -91 2034 -91 
z
" transform="scale(0.015625)"/>
        <path id="DejaVuSerif-2e" d="M 603 325 
Q 603 500 722 622 
Q 841 744 1019 744 
Q 1191 744 1312 622 
Q 1434 500 1434 325 
Q 1434 153 1312 31 
Q 1191 -91 1019 -91 
Q 841 -91 722 29 
Q 603 150 603 325 
z
" transform="scale(0.015625)"/>
        <path id="DejaVuSerif-31" d="M 909 0 
L 909 331 
L 1722 331 
L 1722 4213 
L 781 3603 
L 781 4013 
L 1919 4750 
L 2350 4750 
L 2350 331 
L 3163 331 
L 3163 0 
L 909 0 
z
" transform="scale(0.015625)"/>
       </defs>
       <use xlink:href="#DejaVuSerif-2212"/>
       <use xlink:href="#DejaVuSerif-30" transform="translate(83.789062 0)"/>
       <use xlink:href="#DejaVuSerif-2e" transform="translate(147.412109 0)"/>
       <use xlink:href="#DejaVuSerif-31" transform="translate(179.199219 0)"/>
       <use xlink:href="#DejaVuSerif-30" transform="translate(242.822266 0)"/>
      </g>
     </g>
    </g>
    <g id="xtick_2">
     <g id="line2d_3">
      <path d="M 190.735012 411.35025 
L 190.735012 23.27025 
" clip-path="url(#p7472a85c94)" style="fill: none; stroke-dasharray: 2.96,1.28; stroke-dashoffset: 0; stroke: #e2e8f0; stroke-opacity: 0.2; stroke-width: 0.8"/>
     </g>
     <g id="line2d_4">
      <g>
       <use xlink:href="#m2797ba9d54" x="190.735012" y="411.35025" style="fill: #475569; stroke: #475569; stroke-width: 0.8"/>
      </g>
     </g>
     <g id="text_2">
      <!-- −0.05 -->
      <g style="fill: #475569" transform="translate(177.863981 424.732937) scale(0.084 -0.084)">
       <defs>
        <path id="DejaVuSerif-35" d="M 3219 4666 
L 3219 4153 
L 1081 4153 
L 1081 2816 
Q 1244 2928 1461 2984 
Q 1678 3041 1947 3041 
Q 2703 3041 3140 2622 
Q 3578 2203 3578 1478 
Q 3578 738 3136 323 
Q 2694 -91 1894 -91 
Q 1572 -91 1234 -12 
Q 897 66 544 225 
L 544 1131 
L 897 1131 
Q 925 688 1179 453 
Q 1434 219 1894 219 
Q 2388 219 2653 544 
Q 2919 869 2919 1478 
Q 2919 2084 2655 2407 
Q 2391 2731 1894 2731 
Q 1613 2731 1398 2631 
Q 1184 2531 1019 2322 
L 750 2322 
L 750 4666 
L 3219 4666 
z
" transform="scale(0.015625)"/>
       </defs>
       <use xlink:href="#DejaVuSerif-2212"/>
       <use xlink:href="#DejaVuSerif-30" transform="translate(83.789062 0)"/>
       <use xlink:href="#DejaVuSerif-2e" transform="translate(147.412109 0)"/>
       <use xlink:href="#DejaVuSerif-30" transform="translate(179.199219 0)"/>
       <use xlink:href="#DejaVuSerif-35" transform="translate(242.822266 0)"/>
      </g>
     </g>
    </g>
    <g id="xtick_3">
     <g id="line2d_5">
      <path d="M 271.611562 411.35025 
L 271.611562 23.27025 
" clip-path="url(#p7472a85c94)" style="fill: none; stroke-dasharray: 2.96,1.28; stroke-dashoffset: 0; stroke: #e2e8f0; stroke-opacity: 0.2; stroke-width: 0.8"/>
     </g>
     <g id="line2d_6">
      <g>
       <use xlink:href="#m2797ba9d54" x="271.611562" y="411.35025" style="fill: #475569; stroke: #475569; stroke-width: 0.8"/>
      </g>
     </g>
     <g id="text_3">
      <!-- 0.00 -->
      <g style="fill: #475569" transform="translate(262.259999 424.732937) scale(0.084 -0.084)">
       <use xlink:href="#DejaVuSerif-30"/>
       <use xlink:href="#DejaVuSerif-2e" transform="translate(63.623047 0)"/>
       <use xlink:href="#DejaVuSerif-30" transform="translate(95.410156 0)"/>
       <use xlink:href="#DejaVuSerif-30" transform="translate(159.033203 0)"/>
      </g>
     </g>
    </g>
    <g id="xtick_4">
     <g id="line2d_7">
      <path d="M 352.488111 411.35025 
L 352.488111 23.27025 
" clip-path="url(#p7472a85c94)" style="fill: none; stroke-dasharray: 2.96,1.28; stroke-dashoffset: 0; stroke: #e2e8f0; stroke-opacity: 0.2; stroke-width: 0.8"/>
     </g>
     <g id="line2d_8">
      <g>
       <use xlink:href="#m2797ba9d54" x="352.488111" y="411.35025" style="fill: #475569; stroke: #475569; stroke-width: 0.8"/>
      </g>
     </g>
     <g id="text_4">
      <!-- 0.05 -->
      <g style="fill: #475569" transform="translate(343.136549 424.732937) scale(0.084 -0.084)">
       <use xlink:href="#DejaVuSerif-30"/>
       <use xlink:href="#DejaVuSerif-2e" transform="translate(63.623047 0)"/>
       <use xlink:href="#DejaVuSerif-30" transform="translate(95.410156 0)"/>
       <use xlink:href="#DejaVuSerif-35" transform="translate(159.033203 0)"/>
      </g>
     </g>
    </g>
    <g id="xtick_5">
     <g id="line2d_9">
      <path d="M 433.364661 411.35025 
L 433.364661 23.27025 
" clip-path="url(#p7472a85c94)" style="fill: none; stroke-dasharray: 2.96,1.28; stroke-dashoffset: 0; stroke: #e2e8f0; stroke-opacity: 0.2; stroke-width: 0.8"/>
     </g>
     <g id="line2d_10">
      <g>
       <use xlink:href="#m2797ba9d54" x="433.364661" y="411.35025" style="fill: #475569; stroke: #475569; stroke-width: 0.8"/>
      </g>
     </g>
     <g id="text_5">
      <!-- 0.10 -->
      <g style="fill: #475569" transform="translate(424.013098 424.732937) scale(0.084 -0.084)">
       <use xlink:href="#DejaVuSerif-30"/>
       <use xlink:href="#DejaVuSerif-2e" transform="translate(63.623047 0)"/>
       <use xlink:href="#DejaVuSerif-31" transform="translate(95.410156 0)"/>
       <use xlink:href="#DejaVuSerif-30" transform="translate(159.033203 0)"/>
      </g>
     </g>
    </g>
    <g id="xtick_6">
     <g id="line2d_11">
      <path d="M 514.241211 411.35025 
L 514.241211 23.27025 
" clip-path="url(#p7472a85c94)" style="fill: none; stroke-dasharray: 2.96,1.28; stroke-dashoffset: 0; stroke: #e2e8f0; stroke-opacity: 0.2; stroke-width: 0.8"/>
     </g>
     <g id="line2d_12">
      <g>
       <use xlink:href="#m2797ba9d54" x="514.241211" y="411.35025" style="fill: #475569; stroke: #475569; stroke-width: 0.8"/>
      </g>
     </g>
     <g id="text_6">
      <!-- 0.15 -->
      <g style="fill: #475569" transform="translate(504.889648 424.732937) scale(0.084 -0.084)">
       <use xlink:href="#DejaVuSerif-30"/>
       <use xlink:href="#DejaVuSerif-2e" transform="translate(63.623047 0)"/>
       <use xlink:href="#DejaVuSerif-31" transform="translate(95.410156 0)"/>
       <use xlink:href="#DejaVuSerif-35" transform="translate(159.033203 0)"/>
      </g>
     </g>
    </g>
    <g id="text_7">
     <!-- TWFE DID Effect (95% CI) -->
     <g style="fill: #0f172a" transform="translate(238.985375 437.926344) scale(0.098 -0.098)">
      <defs>
       <path id="DejaVuSerif-54" d="M 1222 0 
L 1222 331 
L 1819 331 
L 1819 4294 
L 447 4294 
L 447 3566 
L 63 3566 
L 63 4666 
L 4206 4666 
L 4206 3566 
L 3822 3566 
L 3822 4294 
L 2450 4294 
L 2450 331 
L 3047 331 
L 3047 0 
L 1222 0 
z
" transform="scale(0.015625)"/>
       <path id="DejaVuSerif-57" d="M 4878 0 
L 4366 0 
L 3297 3794 
L 2228 0 
L 1716 0 
L 494 4331 
L 31 4331 
L 31 4666 
L 1734 4666 
L 1734 4331 
L 1153 4331 
L 2125 884 
L 3188 4666 
L 3694 4666 
L 4775 844 
L 5753 4331 
L 5216 4331 
L 5216 4666 
L 6559 4666 
L 6559 4331 
L 6100 4331 
L 4878 0 
z
" transform="scale(0.015625)"/>
       <path id="DejaVuSerif-46" d="M 353 0 
L 353 331 
L 947 331 
L 947 4331 
L 353 4331 
L 353 4666 
L 4172 4666 
L 4172 3628 
L 3788 3628 
L 3788 4281 
L 1581 4281 
L 1581 2719 
L 3175 2719 
L 3175 3303 
L 3559 3303 
L 3559 1753 
L 3175 1753 
L 3175 2338 
L 1581 2338 
L 1581 331 
L 2328 331 
L 2328 0 
L 353 0 
z
" transform="scale(0.015625)"/>
       <path id="DejaVuSerif-45" d="M 353 0 
L 353 331 
L 947 331 
L 947 4331 
L 353 4331 
L 353 4666 
L 4109 4666 
L 4109 3628 
L 3725 3628 
L 3725 4281 
L 1581 4281 
L 1581 2719 
L 3109 2719 
L 3109 3303 
L 3494 3303 
L 3494 1753 
L 3109 1753 
L 3109 2338 
L 1581 2338 
L 1581 384 
L 3775 384 
L 3775 1038 
L 4159 1038 
L 4159 0 
L 353 0 
z
" transform="scale(0.015625)"/>
       <path id="DejaVuSerif-20" transform="scale(0.015625)"/>
       <path id="DejaVuSerif-44" d="M 1581 331 
L 2163 331 
Q 3072 331 3558 850 
Q 4044 1369 4044 2338 
Q 4044 3306 3559 3818 
Q 3075 4331 2163 4331 
L 1581 4331 
L 1581 331 
z
M 353 0 
L 353 331 
L 947 331 
L 947 4331 
L 353 4331 
L 353 4666 
L 2209 4666 
Q 3416 4666 4089 4050 
Q 4763 3434 4763 2338 
Q 4763 1238 4088 619 
Q 3413 0 2209 0 
L 353 0 
z
" transform="scale(0.015625)"/>
       <path id="DejaVuSerif-49" d="M 1581 331 
L 2175 331 
L 2175 0 
L 353 0 
L 353 331 
L 947 331 
L 947 4331 
L 353 4331 
L 353 4666 
L 2175 4666 
L 2175 4331 
L 1581 4331 
L 1581 331 
z
" transform="scale(0.015625)"/>
       <path id="DejaVuSerif-66" d="M 2753 4078 
L 2450 4078 
Q 2447 4313 2317 4434 
Q 2188 4556 1941 4556 
Q 1619 4556 1487 4379 
Q 1356 4203 1356 3750 
L 1356 3322 
L 2284 3322 
L 2284 2988 
L 1356 2988 
L 1356 331 
L 2094 331 
L 2094 0 
L 231 0 
L 231 331 
L 781 331 
L 781 2988 
L 231 2988 
L 231 3322 
L 781 3322 
L 781 3738 
Q 781 4294 1070 4578 
Q 1359 4863 1919 4863 
Q 2128 4863 2337 4825 
Q 2547 4788 2753 4709 
L 2753 4078 
z
" transform="scale(0.015625)"/>
       <path id="DejaVuSerif-65" d="M 3469 1600 
L 991 1600 
L 991 1575 
Q 991 903 1244 561 
Q 1497 219 1991 219 
Q 2369 219 2611 417 
Q 2853 616 2950 1006 
L 3413 1006 
Q 3275 459 2904 184 
Q 2534 -91 1931 -91 
Q 1203 -91 761 389 
Q 319 869 319 1663 
Q 319 2450 753 2931 
Q 1188 3413 1894 3413 
Q 2647 3413 3050 2948 
Q 3453 2484 3469 1600 
z
M 2791 1931 
Q 2772 2513 2545 2808 
Q 2319 3103 1894 3103 
Q 1497 3103 1269 2806 
Q 1041 2509 991 1931 
L 2791 1931 
z
" transform="scale(0.015625)"/>
       <path id="DejaVuSerif-63" d="M 3291 997 
Q 3169 466 2822 187 
Q 2475 -91 1925 -91 
Q 1200 -91 759 389 
Q 319 869 319 1663 
Q 319 2459 759 2936 
Q 1200 3413 1925 3413 
Q 2241 3413 2553 3339 
Q 2866 3266 3181 3116 
L 3181 2266 
L 2847 2266 
Q 2781 2703 2561 2903 
Q 2341 3103 1931 3103 
Q 1466 3103 1228 2742 
Q 991 2381 991 1663 
Q 991 944 1227 581 
Q 1463 219 1931 219 
Q 2303 219 2525 412 
Q 2747 606 2828 997 
L 3291 997 
z
" transform="scale(0.015625)"/>
       <path id="DejaVuSerif-74" d="M 691 2988 
L 184 2988 
L 184 3322 
L 691 3322 
L 691 4353 
L 1269 4353 
L 1269 3322 
L 2350 3322 
L 2350 2988 
L 1269 2988 
L 1269 878 
Q 1269 456 1350 337 
Q 1431 219 1650 219 
Q 1875 219 1978 351 
Q 2081 484 2088 781 
L 2522 781 
Q 2497 328 2275 118 
Q 2053 -91 1600 -91 
Q 1103 -91 897 129 
Q 691 350 691 878 
L 691 2988 
z
" transform="scale(0.015625)"/>
       <path id="DejaVuSerif-28" d="M 2041 -997 
Q 1281 -656 893 83 
Q 506 822 506 1931 
Q 506 3044 893 3783 
Q 1281 4522 2041 4863 
L 2041 4556 
Q 1559 4225 1350 3623 
Q 1141 3022 1141 1931 
Q 1141 844 1350 242 
Q 1559 -359 2041 -691 
L 2041 -997 
z
" transform="scale(0.015625)"/>
       <path id="DejaVuSerif-39" d="M 2994 2091 
Q 2784 1856 2512 1740 
Q 2241 1625 1900 1625 
Q 1206 1625 804 2044 
Q 403 2463 403 3188 
Q 403 3897 839 4323 
Q 1275 4750 2003 4750 
Q 2794 4750 3217 4161 
Q 3641 3572 3641 2478 
Q 3641 1253 3137 581 
Q 2634 -91 1722 -91 
Q 1475 -91 1203 -44 
Q 931 3 647 97 
L 647 872 
L 997 872 
Q 1038 556 1241 387 
Q 1444 219 1784 219 
Q 2391 219 2687 676 
Q 2984 1134 2994 2091 
z
M 1978 4441 
Q 1534 4441 1298 4117 
Q 1063 3794 1063 3188 
Q 1063 2581 1298 2256 
Q 1534 1931 1978 1931 
Q 2422 1931 2658 2245 
Q 2894 2559 2894 3150 
Q 2894 3772 2656 4106 
Q 2419 4441 1978 4441 
z
" transform="scale(0.015625)"/>
       <path id="DejaVuSerif-25" d="M 1434 4459 
Q 1159 4459 1004 4200 
Q 850 3941 850 3475 
Q 850 3016 1008 2753 
Q 1166 2491 1434 2491 
Q 1700 2491 1854 2752 
Q 2009 3013 2009 3475 
Q 2009 3938 1854 4198 
Q 1700 4459 1434 4459 
z
M 4653 2169 
Q 4381 2169 4226 1906 
Q 4072 1644 4072 1178 
Q 4072 719 4228 458 
Q 4384 197 4653 197 
Q 4922 197 5075 458 
Q 5228 719 5228 1178 
Q 5228 1641 5073 1905 
Q 4919 2169 4653 2169 
z
M 4653 2450 
Q 5147 2450 5437 2106 
Q 5728 1763 5728 1178 
Q 5728 594 5436 251 
Q 5144 -91 4653 -91 
Q 4153 -91 3862 251 
Q 3572 594 3572 1178 
Q 3572 1766 3864 2108 
Q 4156 2450 4653 2450 
z
M 4263 4750 
L 4738 4750 
L 1819 -91 
L 1344 -91 
L 4263 4750 
z
M 1428 4750 
Q 1922 4750 2215 4408 
Q 2509 4066 2509 3481 
Q 2509 2891 2217 2550 
Q 1925 2209 1428 2209 
Q 931 2209 642 2551 
Q 353 2894 353 3481 
Q 353 4063 643 4406 
Q 934 4750 1428 4750 
z
" transform="scale(0.015625)"/>
       <path id="DejaVuSerif-43" d="M 4513 1234 
Q 4306 581 3820 245 
Q 3334 -91 2591 -91 
Q 2134 -91 1743 65 
Q 1353 222 1050 525 
Q 700 875 529 1320 
Q 359 1766 359 2328 
Q 359 3416 987 4083 
Q 1616 4750 2644 4750 
Q 3025 4750 3456 4650 
Q 3888 4550 4384 4347 
L 4384 3272 
L 4031 3272 
Q 3916 3859 3567 4137 
Q 3219 4416 2591 4416 
Q 1844 4416 1459 3886 
Q 1075 3356 1075 2328 
Q 1075 1303 1459 773 
Q 1844 244 2591 244 
Q 3113 244 3450 492 
Q 3788 741 3938 1234 
L 4513 1234 
z
" transform="scale(0.015625)"/>
       <path id="DejaVuSerif-29" d="M 453 -997 
L 453 -691 
Q 934 -359 1145 242 
Q 1356 844 1356 1931 
Q 1356 3022 1145 3623 
Q 934 4225 453 4556 
L 453 4863 
Q 1216 4522 1603 3783 
Q 1991 3044 1991 1931 
Q 1991 822 1603 83 
Q 1216 -656 453 -997 
z
" transform="scale(0.015625)"/>
      </defs>
      <use xlink:href="#DejaVuSerif-54"/>
      <use xlink:href="#DejaVuSerif-57" transform="translate(66.699219 0)"/>
      <use xlink:href="#DejaVuSerif-46" transform="translate(169.482422 0)"/>
      <use xlink:href="#DejaVuSerif-45" transform="translate(238.867188 0)"/>
      <use xlink:href="#DejaVuSerif-20" transform="translate(311.865234 0)"/>
      <use xlink:href="#DejaVuSerif-44" transform="translate(343.652344 0)"/>
      <use xlink:href="#DejaVuSerif-49" transform="translate(423.828125 0)"/>
      <use xlink:href="#DejaVuSerif-44" transform="translate(463.330078 0)"/>
      <use xlink:href="#DejaVuSerif-20" transform="translate(543.505859 0)"/>
      <use xlink:href="#DejaVuSerif-45" transform="translate(575.292969 0)"/>
      <use xlink:href="#DejaVuSerif-66" transform="translate(648.291016 0)"/>
      <use xlink:href="#DejaVuSerif-66" transform="translate(685.302734 0)"/>
      <use xlink:href="#DejaVuSerif-65" transform="translate(722.314453 0)"/>
      <use xlink:href="#DejaVuSerif-63" transform="translate(781.494141 0)"/>
      <use xlink:href="#DejaVuSerif-74" transform="translate(837.5 0)"/>
      <use xlink:href="#DejaVuSerif-20" transform="translate(877.685547 0)"/>
      <use xlink:href="#DejaVuSerif-28" transform="translate(909.472656 0)"/>
      <use xlink:href="#DejaVuSerif-39" transform="translate(948.486328 0)"/>
      <use xlink:href="#DejaVuSerif-35" transform="translate(1012.109375 0)"/>
      <use xlink:href="#DejaVuSerif-25" transform="translate(1075.732422 0)"/>
      <use xlink:href="#DejaVuSerif-20" transform="translate(1170.751953 0)"/>
      <use xlink:href="#DejaVuSerif-43" transform="translate(1202.539062 0)"/>
      <use xlink:href="#DejaVuSerif-49" transform="translate(1279.052734 0)"/>
      <use xlink:href="#DejaVuSerif-29" transform="translate(1318.554688 0)"/>
     </g>
    </g>
   </g>
   <g id="matplotlib.axis_2">
    <g id="ytick_1">
     <g id="line2d_13">
      <defs>
       <path id="m95d576f8a8" d="M 0 0 
L -3.5 0 
" style="stroke: #475569; stroke-width: 0.8"/>
      </defs>
      <g>
       <use xlink:href="#m95d576f8a8" x="94.705938" y="40.91025" style="fill: #475569; stroke: #475569; stroke-width: 0.8"/>
      </g>
     </g>
     <g id="text_8">
      <!-- Main Design -->
      <g style="fill: #475569" transform="translate(33.839625 44.041875) scale(0.084 -0.084)">
       <defs>
        <path id="DejaVuSerif-4d" d="M 353 0 
L 353 331 
L 947 331 
L 947 4331 
L 319 4331 
L 319 4666 
L 1678 4666 
L 3316 1344 
L 4953 4666 
L 6228 4666 
L 6228 4331 
L 5606 4331 
L 5606 331 
L 6203 331 
L 6203 0 
L 4378 0 
L 4378 331 
L 4972 331 
L 4972 3938 
L 3372 684 
L 2931 684 
L 1331 3938 
L 1331 331 
L 1925 331 
L 1925 0 
L 353 0 
z
" transform="scale(0.015625)"/>
        <path id="DejaVuSerif-61" d="M 2547 1044 
L 2547 1747 
L 1806 1747 
Q 1378 1747 1168 1562 
Q 959 1378 959 997 
Q 959 650 1171 447 
Q 1384 244 1747 244 
Q 2106 244 2326 466 
Q 2547 688 2547 1044 
z
M 3122 2075 
L 3122 331 
L 3634 331 
L 3634 0 
L 2547 0 
L 2547 359 
Q 2356 128 2106 18 
Q 1856 -91 1522 -91 
Q 969 -91 644 203 
Q 319 497 319 997 
Q 319 1513 691 1797 
Q 1063 2081 1741 2081 
L 2547 2081 
L 2547 2309 
Q 2547 2688 2317 2895 
Q 2088 3103 1672 3103 
Q 1328 3103 1125 2947 
Q 922 2791 872 2484 
L 575 2484 
L 575 3156 
Q 875 3284 1158 3348 
Q 1441 3413 1709 3413 
Q 2400 3413 2761 3070 
Q 3122 2728 3122 2075 
z
" transform="scale(0.015625)"/>
        <path id="DejaVuSerif-69" d="M 622 4353 
Q 622 4497 726 4603 
Q 831 4709 978 4709 
Q 1122 4709 1226 4603 
Q 1331 4497 1331 4353 
Q 1331 4206 1228 4103 
Q 1125 4000 978 4000 
Q 831 4000 726 4103 
Q 622 4206 622 4353 
z
M 1356 331 
L 1900 331 
L 1900 0 
L 231 0 
L 231 331 
L 781 331 
L 781 2988 
L 231 2988 
L 231 3322 
L 1356 3322 
L 1356 331 
z
" transform="scale(0.015625)"/>
        <path id="DejaVuSerif-6e" d="M 263 0 
L 263 331 
L 781 331 
L 781 2988 
L 231 2988 
L 231 3322 
L 1356 3322 
L 1356 2731 
Q 1516 3069 1770 3241 
Q 2025 3413 2363 3413 
Q 2913 3413 3172 3097 
Q 3431 2781 3431 2113 
L 3431 331 
L 3944 331 
L 3944 0 
L 2356 0 
L 2356 331 
L 2853 331 
L 2853 1931 
Q 2853 2541 2703 2767 
Q 2553 2994 2175 2994 
Q 1775 2994 1565 2701 
Q 1356 2409 1356 1850 
L 1356 331 
L 1856 331 
L 1856 0 
L 263 0 
z
" transform="scale(0.015625)"/>
        <path id="DejaVuSerif-73" d="M 359 184 
L 359 959 
L 691 959 
Q 703 588 923 403 
Q 1144 219 1575 219 
Q 1963 219 2166 364 
Q 2369 509 2369 788 
Q 2369 1006 2220 1140 
Q 2072 1275 1594 1428 
L 1178 1569 
Q 750 1706 558 1912 
Q 366 2119 366 2438 
Q 366 2894 700 3153 
Q 1034 3413 1625 3413 
Q 1888 3413 2178 3344 
Q 2469 3275 2778 3144 
L 2778 2419 
L 2447 2419 
Q 2434 2741 2221 2922 
Q 2009 3103 1644 3103 
Q 1281 3103 1095 2975 
Q 909 2847 909 2591 
Q 909 2381 1050 2254 
Q 1191 2128 1613 1997 
L 2069 1856 
Q 2541 1709 2748 1489 
Q 2956 1269 2956 922 
Q 2956 450 2595 179 
Q 2234 -91 1600 -91 
Q 1278 -91 972 -22 
Q 666 47 359 184 
z
" transform="scale(0.015625)"/>
        <path id="DejaVuSerif-67" d="M 3359 2988 
L 3359 72 
Q 3359 -644 2965 -1033 
Q 2572 -1422 1844 -1422 
Q 1516 -1422 1216 -1362 
Q 916 -1303 641 -1184 
L 641 -488 
L 941 -488 
Q 997 -813 1206 -963 
Q 1416 -1113 1806 -1113 
Q 2313 -1113 2548 -827 
Q 2784 -541 2784 72 
L 2784 519 
Q 2616 206 2355 57 
Q 2094 -91 1709 -91 
Q 1097 -91 708 395 
Q 319 881 319 1663 
Q 319 2444 706 2928 
Q 1094 3413 1709 3413 
Q 2094 3413 2355 3264 
Q 2616 3116 2784 2803 
L 2784 3322 
L 3909 3322 
L 3909 2988 
L 3359 2988 
z
M 2784 1825 
Q 2784 2422 2554 2737 
Q 2325 3053 1888 3053 
Q 1444 3053 1217 2703 
Q 991 2353 991 1663 
Q 991 975 1217 622 
Q 1444 269 1888 269 
Q 2325 269 2554 583 
Q 2784 897 2784 1497 
L 2784 1825 
z
" transform="scale(0.015625)"/>
       </defs>
       <use xlink:href="#DejaVuSerif-4d"/>
       <use xlink:href="#DejaVuSerif-61" transform="translate(102.392578 0)"/>
       <use xlink:href="#DejaVuSerif-69" transform="translate(162.011719 0)"/>
       <use xlink:href="#DejaVuSerif-6e" transform="translate(193.994141 0)"/>
       <use xlink:href="#DejaVuSerif-20" transform="translate(258.398438 0)"/>
       <use xlink:href="#DejaVuSerif-44" transform="translate(290.185547 0)"/>
       <use xlink:href="#DejaVuSerif-65" transform="translate(370.361328 0)"/>
       <use xlink:href="#DejaVuSerif-73" transform="translate(429.541016 0)"/>
       <use xlink:href="#DejaVuSerif-69" transform="translate(480.859375 0)"/>
       <use xlink:href="#DejaVuSerif-67" transform="translate(512.841797 0)"/>
       <use xlink:href="#DejaVuSerif-6e" transform="translate(576.855469 0)"/>
      </g>
     </g>
    </g>
    <g id="ytick_2">
     <g id="line2d_14">
      <g>
       <use xlink:href="#m95d576f8a8" x="94.705938" y="91.31025" style="fill: #475569; stroke: #475569; stroke-width: 0.8"/>
      </g>
     </g>
     <g id="text_9">
      <!-- Direct Event -->
      <g style="fill: #475569" transform="translate(33.913125 94.501594) scale(0.084 -0.084)">
       <defs>
        <path id="DejaVuSerif-72" d="M 3059 3328 
L 3059 2497 
L 2728 2497 
Q 2713 2744 2591 2866 
Q 2469 2988 2234 2988 
Q 1809 2988 1582 2694 
Q 1356 2400 1356 1850 
L 1356 331 
L 2022 331 
L 2022 0 
L 263 0 
L 263 331 
L 781 331 
L 781 2994 
L 231 2994 
L 231 3322 
L 1356 3322 
L 1356 2731 
Q 1525 3078 1790 3245 
Q 2056 3413 2438 3413 
Q 2578 3413 2733 3391 
Q 2888 3369 3059 3328 
z
" transform="scale(0.015625)"/>
        <path id="DejaVuSerif-76" d="M 1581 0 
L 359 2988 
L -19 2988 
L -19 3322 
L 1509 3322 
L 1509 2988 
L 978 2988 
L 1913 703 
L 2847 2988 
L 2350 2988 
L 2350 3322 
L 3597 3322 
L 3597 2988 
L 3225 2988 
L 2003 0 
L 1581 0 
z
" transform="scale(0.015625)"/>
       </defs>
       <use xlink:href="#DejaVuSerif-44"/>
       <use xlink:href="#DejaVuSerif-69" transform="translate(80.175781 0)"/>
       <use xlink:href="#DejaVuSerif-72" transform="translate(112.158203 0)"/>
       <use xlink:href="#DejaVuSerif-65" transform="translate(159.960938 0)"/>
       <use xlink:href="#DejaVuSerif-63" transform="translate(219.140625 0)"/>
       <use xlink:href="#DejaVuSerif-74" transform="translate(275.146484 0)"/>
       <use xlink:href="#DejaVuSerif-20" transform="translate(315.332031 0)"/>
       <use xlink:href="#DejaVuSerif-45" transform="translate(347.119141 0)"/>
       <use xlink:href="#DejaVuSerif-76" transform="translate(420.117188 0)"/>
       <use xlink:href="#DejaVuSerif-65" transform="translate(476.611328 0)"/>
       <use xlink:href="#DejaVuSerif-6e" transform="translate(535.791016 0)"/>
       <use xlink:href="#DejaVuSerif-74" transform="translate(600.195312 0)"/>
      </g>
     </g>
    </g>
    <g id="ytick_3">
     <g id="line2d_15">
      <g>
       <use xlink:href="#m95d576f8a8" x="94.705938" y="141.71025" style="fill: #475569; stroke: #475569; stroke-width: 0.8"/>
      </g>
     </g>
     <g id="text_10">
      <!-- Evidence A/B -->
      <g style="fill: #475569" transform="translate(30.967875 144.901594) scale(0.084 -0.084)">
       <defs>
        <path id="DejaVuSerif-64" d="M 3359 331 
L 3909 331 
L 3909 0 
L 2784 0 
L 2784 519 
Q 2616 206 2355 57 
Q 2094 -91 1709 -91 
Q 1097 -91 708 395 
Q 319 881 319 1663 
Q 319 2444 706 2928 
Q 1094 3413 1709 3413 
Q 2094 3413 2355 3264 
Q 2616 3116 2784 2803 
L 2784 4531 
L 2241 4531 
L 2241 4863 
L 3359 4863 
L 3359 331 
z
M 2784 1497 
L 2784 1825 
Q 2784 2422 2554 2737 
Q 2325 3053 1888 3053 
Q 1444 3053 1217 2703 
Q 991 2353 991 1663 
Q 991 975 1217 622 
Q 1444 269 1888 269 
Q 2325 269 2554 583 
Q 2784 897 2784 1497 
z
" transform="scale(0.015625)"/>
        <path id="DejaVuSerif-41" d="M 1281 1691 
L 2994 1691 
L 2138 3909 
L 1281 1691 
z
M -38 0 
L -38 331 
L 372 331 
L 2034 4666 
L 2559 4666 
L 4225 331 
L 4684 331 
L 4684 0 
L 2988 0 
L 2988 331 
L 3506 331 
L 3116 1356 
L 1153 1356 
L 763 331 
L 1275 331 
L 1275 0 
L -38 0 
z
" transform="scale(0.015625)"/>
        <path id="DejaVuSerif-2f" d="M 1656 4666 
L 2156 4666 
L 500 -594 
L 0 -594 
L 1656 4666 
z
" transform="scale(0.015625)"/>
        <path id="DejaVuSerif-42" d="M 1581 331 
L 2516 331 
Q 3078 331 3337 575 
Q 3597 819 3597 1350 
Q 3597 1878 3339 2120 
Q 3081 2363 2516 2363 
L 1581 2363 
L 1581 331 
z
M 1581 2694 
L 2375 2694 
Q 2888 2694 3123 2891 
Q 3359 3088 3359 3513 
Q 3359 3941 3123 4136 
Q 2888 4331 2375 4331 
L 1581 4331 
L 1581 2694 
z
M 353 0 
L 353 331 
L 947 331 
L 947 4331 
L 353 4331 
L 353 4666 
L 2656 4666 
Q 3363 4666 3720 4377 
Q 4078 4088 4078 3513 
Q 4078 3097 3829 2850 
Q 3581 2603 3103 2547 
Q 3697 2472 4005 2167 
Q 4313 1863 4313 1350 
Q 4313 656 3875 328 
Q 3438 0 2509 0 
L 353 0 
z
" transform="scale(0.015625)"/>
       </defs>
       <use xlink:href="#DejaVuSerif-45"/>
       <use xlink:href="#DejaVuSerif-76" transform="translate(72.998047 0)"/>
       <use xlink:href="#DejaVuSerif-69" transform="translate(129.492188 0)"/>
       <use xlink:href="#DejaVuSerif-64" transform="translate(161.474609 0)"/>
       <use xlink:href="#DejaVuSerif-65" transform="translate(225.488281 0)"/>
       <use xlink:href="#DejaVuSerif-6e" transform="translate(284.667969 0)"/>
       <use xlink:href="#DejaVuSerif-63" transform="translate(349.072266 0)"/>
       <use xlink:href="#DejaVuSerif-65" transform="translate(405.078125 0)"/>
       <use xlink:href="#DejaVuSerif-20" transform="translate(464.257812 0)"/>
       <use xlink:href="#DejaVuSerif-41" transform="translate(496.044922 0)"/>
       <use xlink:href="#DejaVuSerif-2f" transform="translate(568.261719 0)"/>
       <use xlink:href="#DejaVuSerif-42" transform="translate(601.953125 0)"/>
      </g>
     </g>
    </g>
    <g id="ytick_4">
     <g id="line2d_16">
      <g>
       <use xlink:href="#m95d576f8a8" x="94.705938" y="192.11025" style="fill: #475569; stroke: #475569; stroke-width: 0.8"/>
      </g>
     </g>
     <g id="text_11">
      <!-- External Direct -->
      <g style="fill: #475569" transform="translate(22.212187 195.301594) scale(0.084 -0.084)">
       <defs>
        <path id="DejaVuSerif-78" d="M 1863 2028 
L 2559 2988 
L 2113 2988 
L 2113 3322 
L 3391 3322 
L 3391 2988 
L 2950 2988 
L 2059 1759 
L 3097 331 
L 3531 331 
L 3531 0 
L 1997 0 
L 1997 331 
L 2419 331 
L 1697 1325 
L 972 331 
L 1403 331 
L 1403 0 
L 141 0 
L 141 331 
L 581 331 
L 1497 1594 
L 488 2988 
L 78 2988 
L 78 3322 
L 1563 3322 
L 1563 2988 
L 1166 2988 
L 1863 2028 
z
" transform="scale(0.015625)"/>
        <path id="DejaVuSerif-6c" d="M 1313 331 
L 1856 331 
L 1856 0 
L 184 0 
L 184 331 
L 738 331 
L 738 4531 
L 184 4531 
L 184 4863 
L 1313 4863 
L 1313 331 
z
" transform="scale(0.015625)"/>
       </defs>
       <use xlink:href="#DejaVuSerif-45"/>
       <use xlink:href="#DejaVuSerif-78" transform="translate(72.998047 0)"/>
       <use xlink:href="#DejaVuSerif-74" transform="translate(129.394531 0)"/>
       <use xlink:href="#DejaVuSerif-65" transform="translate(169.580078 0)"/>
       <use xlink:href="#DejaVuSerif-72" transform="translate(228.759766 0)"/>
       <use xlink:href="#DejaVuSerif-6e" transform="translate(276.5625 0)"/>
       <use xlink:href="#DejaVuSerif-61" transform="translate(340.966797 0)"/>
       <use xlink:href="#DejaVuSerif-6c" transform="translate(400.585938 0)"/>
       <use xlink:href="#DejaVuSerif-20" transform="translate(432.568359 0)"/>
       <use xlink:href="#DejaVuSerif-44" transform="translate(464.355469 0)"/>
       <use xlink:href="#DejaVuSerif-69" transform="translate(544.53125 0)"/>
       <use xlink:href="#DejaVuSerif-72" transform="translate(576.513672 0)"/>
       <use xlink:href="#DejaVuSerif-65" transform="translate(624.316406 0)"/>
       <use xlink:href="#DejaVuSerif-63" transform="translate(683.496094 0)"/>
       <use xlink:href="#DejaVuSerif-74" transform="translate(739.501953 0)"/>
      </g>
     </g>
    </g>
    <g id="ytick_5">
     <g id="line2d_17">
      <g>
       <use xlink:href="#m95d576f8a8" x="94.705938" y="242.51025" style="fill: #475569; stroke: #475569; stroke-width: 0.8"/>
      </g>
     </g>
     <g id="text_12">
      <!-- AI Inferred -->
      <g style="fill: #475569" transform="translate(40.463813 245.701594) scale(0.084 -0.084)">
       <use xlink:href="#DejaVuSerif-41"/>
       <use xlink:href="#DejaVuSerif-49" transform="translate(72.216797 0)"/>
       <use xlink:href="#DejaVuSerif-20" transform="translate(111.71875 0)"/>
       <use xlink:href="#DejaVuSerif-49" transform="translate(143.505859 0)"/>
       <use xlink:href="#DejaVuSerif-6e" transform="translate(183.007812 0)"/>
       <use xlink:href="#DejaVuSerif-66" transform="translate(247.412109 0)"/>
       <use xlink:href="#DejaVuSerif-65" transform="translate(284.423828 0)"/>
       <use xlink:href="#DejaVuSerif-72" transform="translate(343.603516 0)"/>
       <use xlink:href="#DejaVuSerif-72" transform="translate(391.40625 0)"/>
       <use xlink:href="#DejaVuSerif-65" transform="translate(439.208984 0)"/>
       <use xlink:href="#DejaVuSerif-64" transform="translate(498.388672 0)"/>
      </g>
     </g>
    </g>
    <g id="ytick_6">
     <g id="line2d_18">
      <g>
       <use xlink:href="#m95d576f8a8" x="94.705938" y="292.91025" style="fill: #475569; stroke: #475569; stroke-width: 0.8"/>
      </g>
     </g>
     <g id="text_13">
      <!-- Objective Indicator -->
      <g style="fill: #475569" transform="translate(5.76 296.101594) scale(0.084 -0.084)">
       <defs>
        <path id="DejaVuSerif-4f" d="M 2625 244 
Q 3391 244 3781 770 
Q 4172 1297 4172 2328 
Q 4172 3363 3781 3889 
Q 3391 4416 2625 4416 
Q 1856 4416 1465 3889 
Q 1075 3363 1075 2328 
Q 1075 1297 1465 770 
Q 1856 244 2625 244 
z
M 2625 -91 
Q 2150 -91 1751 65 
Q 1353 222 1050 525 
Q 700 875 529 1319 
Q 359 1763 359 2328 
Q 359 2894 529 3339 
Q 700 3784 1050 4134 
Q 1356 4441 1750 4595 
Q 2144 4750 2625 4750 
Q 3641 4750 4266 4084 
Q 4891 3419 4891 2328 
Q 4891 1769 4719 1320 
Q 4547 872 4197 525 
Q 3891 219 3497 64 
Q 3103 -91 2625 -91 
z
" transform="scale(0.015625)"/>
        <path id="DejaVuSerif-62" d="M 738 331 
L 738 4531 
L 184 4531 
L 184 4863 
L 1313 4863 
L 1313 2803 
Q 1481 3116 1742 3264 
Q 2003 3413 2388 3413 
Q 3000 3413 3387 2928 
Q 3775 2444 3775 1663 
Q 3775 881 3387 395 
Q 3000 -91 2388 -91 
Q 2003 -91 1742 57 
Q 1481 206 1313 519 
L 1313 0 
L 184 0 
L 184 331 
L 738 331 
z
M 1313 1497 
Q 1313 897 1542 583 
Q 1772 269 2209 269 
Q 2650 269 2876 622 
Q 3103 975 3103 1663 
Q 3103 2353 2876 2703 
Q 2650 3053 2209 3053 
Q 1772 3053 1542 2737 
Q 1313 2422 1313 1825 
L 1313 1497 
z
" transform="scale(0.015625)"/>
        <path id="DejaVuSerif-6a" d="M 641 4353 
Q 641 4497 745 4603 
Q 850 4709 997 4709 
Q 1141 4709 1245 4603 
Q 1350 4497 1350 4353 
Q 1350 4206 1248 4103 
Q 1147 4000 997 4000 
Q 850 4000 745 4103 
Q 641 4206 641 4353 
z
M 781 2988 
L 238 2988 
L 238 3322 
L 1356 3322 
L 1356 -325 
Q 1356 -838 1051 -1130 
Q 747 -1422 213 -1422 
Q -13 -1422 -217 -1370 
Q -422 -1319 -616 -1216 
L -616 -531 
L -319 -531 
Q -297 -831 -164 -972 
Q -31 -1113 225 -1113 
Q 509 -1113 645 -920 
Q 781 -728 781 -325 
L 781 2988 
z
" transform="scale(0.015625)"/>
        <path id="DejaVuSerif-6f" d="M 1925 219 
Q 2388 219 2623 584 
Q 2859 950 2859 1663 
Q 2859 2375 2623 2739 
Q 2388 3103 1925 3103 
Q 1463 3103 1227 2739 
Q 991 2375 991 1663 
Q 991 950 1228 584 
Q 1466 219 1925 219 
z
M 1925 -91 
Q 1200 -91 759 389 
Q 319 869 319 1663 
Q 319 2456 758 2934 
Q 1197 3413 1925 3413 
Q 2653 3413 3092 2934 
Q 3531 2456 3531 1663 
Q 3531 869 3092 389 
Q 2653 -91 1925 -91 
z
" transform="scale(0.015625)"/>
       </defs>
       <use xlink:href="#DejaVuSerif-4f"/>
       <use xlink:href="#DejaVuSerif-62" transform="translate(81.982422 0)"/>
       <use xlink:href="#DejaVuSerif-6a" transform="translate(145.996094 0)"/>
       <use xlink:href="#DejaVuSerif-65" transform="translate(177.001953 0)"/>
       <use xlink:href="#DejaVuSerif-63" transform="translate(236.181641 0)"/>
       <use xlink:href="#DejaVuSerif-74" transform="translate(292.1875 0)"/>
       <use xlink:href="#DejaVuSerif-69" transform="translate(332.373047 0)"/>
       <use xlink:href="#DejaVuSerif-76" transform="translate(364.355469 0)"/>
       <use xlink:href="#DejaVuSerif-65" transform="translate(420.849609 0)"/>
       <use xlink:href="#DejaVuSerif-20" transform="translate(480.029297 0)"/>
       <use xlink:href="#DejaVuSerif-49" transform="translate(511.816406 0)"/>
       <use xlink:href="#DejaVuSerif-6e" transform="translate(551.318359 0)"/>
       <use xlink:href="#DejaVuSerif-64" transform="translate(615.722656 0)"/>
       <use xlink:href="#DejaVuSerif-69" transform="translate(679.736328 0)"/>
       <use xlink:href="#DejaVuSerif-63" transform="translate(711.71875 0)"/>
       <use xlink:href="#DejaVuSerif-61" transform="translate(767.724609 0)"/>
       <use xlink:href="#DejaVuSerif-74" transform="translate(827.34375 0)"/>
       <use xlink:href="#DejaVuSerif-6f" transform="translate(867.529297 0)"/>
       <use xlink:href="#DejaVuSerif-72" transform="translate(927.734375 0)"/>
      </g>
     </g>
    </g>
    <g id="ytick_7">
     <g id="line2d_19">
      <g>
       <use xlink:href="#m95d576f8a8" x="94.705938" y="343.31025" style="fill: #475569; stroke: #475569; stroke-width: 0.8"/>
      </g>
     </g>
     <g id="text_14">
      <!-- Objective Macro -->
      <g style="fill: #475569" transform="translate(17.327062 346.501594) scale(0.084 -0.084)">
       <use xlink:href="#DejaVuSerif-4f"/>
       <use xlink:href="#DejaVuSerif-62" transform="translate(81.982422 0)"/>
       <use xlink:href="#DejaVuSerif-6a" transform="translate(145.996094 0)"/>
       <use xlink:href="#DejaVuSerif-65" transform="translate(177.001953 0)"/>
       <use xlink:href="#DejaVuSerif-63" transform="translate(236.181641 0)"/>
       <use xlink:href="#DejaVuSerif-74" transform="translate(292.1875 0)"/>
       <use xlink:href="#DejaVuSerif-69" transform="translate(332.373047 0)"/>
       <use xlink:href="#DejaVuSerif-76" transform="translate(364.355469 0)"/>
       <use xlink:href="#DejaVuSerif-65" transform="translate(420.849609 0)"/>
       <use xlink:href="#DejaVuSerif-20" transform="translate(480.029297 0)"/>
       <use xlink:href="#DejaVuSerif-4d" transform="translate(511.816406 0)"/>
       <use xlink:href="#DejaVuSerif-61" transform="translate(614.208984 0)"/>
       <use xlink:href="#DejaVuSerif-63" transform="translate(673.828125 0)"/>
       <use xlink:href="#DejaVuSerif-72" transform="translate(729.833984 0)"/>
       <use xlink:href="#DejaVuSerif-6f" transform="translate(777.636719 0)"/>
      </g>
     </g>
    </g>
    <g id="ytick_8">
     <g id="line2d_20">
      <g>
       <use xlink:href="#m95d576f8a8" x="94.705938" y="393.71025" style="fill: #475569; stroke: #475569; stroke-width: 0.8"/>
      </g>
     </g>
     <g id="text_15">
      <!-- Evidence A -->
      <g style="fill: #475569" transform="translate(39.970312 396.901594) scale(0.084 -0.084)">
       <use xlink:href="#DejaVuSerif-45"/>
       <use xlink:href="#DejaVuSerif-76" transform="translate(72.998047 0)"/>
       <use xlink:href="#DejaVuSerif-69" transform="translate(129.492188 0)"/>
       <use xlink:href="#DejaVuSerif-64" transform="translate(161.474609 0)"/>
       <use xlink:href="#DejaVuSerif-65" transform="translate(225.488281 0)"/>
       <use xlink:href="#DejaVuSerif-6e" transform="translate(284.667969 0)"/>
       <use xlink:href="#DejaVuSerif-63" transform="translate(349.072266 0)"/>
       <use xlink:href="#DejaVuSerif-65" transform="translate(405.078125 0)"/>
       <use xlink:href="#DejaVuSerif-20" transform="translate(464.257812 0)"/>
       <use xlink:href="#DejaVuSerif-41" transform="translate(496.044922 0)"/>
      </g>
     </g>
    </g>
   </g>
   <g id="line2d_21">
    <path d="M 271.611562 411.35025 
L 271.611562 23.27025 
" clip-path="url(#p7472a85c94)" style="fill: none; stroke: #111827; stroke-width: 1.1; stroke-linecap: square"/>
   </g>
   <g id="patch_3">
    <path d="M 94.705938 411.35025 
L 94.705938 23.27025 
" style="fill: none; stroke: #475569; stroke-width: 0.85; stroke-linejoin: miter; stroke-linecap: square"/>
   </g>
   <g id="patch_4">
    <path d="M 94.705938 411.35025 
L 516.305938 411.35025 
" style="fill: none; stroke: #475569; stroke-width: 0.85; stroke-linejoin: miter; stroke-linecap: square"/>
   </g>
   <g id="LineCollection_1">
    <path d="M 240.764535 40.91025 
L 497.142301 40.91025 
" clip-path="url(#p7472a85c94)" style="fill: none; stroke: #475569; stroke-width: 1.2"/>
    <path d="M 113.869574 91.31025 
L 371.595595 91.31025 
" clip-path="url(#p7472a85c94)" style="fill: none; stroke: #475569; stroke-width: 1.2"/>
    <path d="M 113.869574 141.71025 
L 371.595595 141.71025 
" clip-path="url(#p7472a85c94)" style="fill: none; stroke: #475569; stroke-width: 1.2"/>
    <path d="M 113.869574 192.11025 
L 371.595595 192.11025 
" clip-path="url(#p7472a85c94)" style="fill: none; stroke: #475569; stroke-width: 1.2"/>
    <path d="M 113.869574 242.51025 
L 371.595595 242.51025 
" clip-path="url(#p7472a85c94)" style="fill: none; stroke: #475569; stroke-width: 1.2"/>
    <path d="M 113.869574 292.91025 
L 371.595595 292.91025 
" clip-path="url(#p7472a85c94)" style="fill: none; stroke: #475569; stroke-width: 1.2"/>
    <path d="M 113.869574 343.31025 
L 371.595595 343.31025 
" clip-path="url(#p7472a85c94)" style="fill: none; stroke: #475569; stroke-width: 1.2"/>
    <path d="M 113.869574 393.71025 
L 371.595595 393.71025 
" clip-path="url(#p7472a85c94)" style="fill: none; stroke: #475569; stroke-width: 1.2"/>
   </g>
   <g id="line2d_22">
    <defs>
     <path id="m69d64e8173" d="M 0 4 
L 0 -4 
" style="stroke: #475569"/>
    </defs>
    <g clip-path="url(#p7472a85c94)">
     <use xlink:href="#m69d64e8173" x="240.764535" y="40.91025" style="fill: #0f172a; stroke: #475569"/>
     <use xlink:href="#m69d64e8173" x="113.869574" y="91.31025" style="fill: #0f172a; stroke: #475569"/>
     <use xlink:href="#m69d64e8173" x="113.869574" y="141.71025" style="fill: #0f172a; stroke: #475569"/>
     <use xlink:href="#m69d64e8173" x="113.869574" y="192.11025" style="fill: #0f172a; stroke: #475569"/>
     <use xlink:href="#m69d64e8173" x="113.869574" y="242.51025" style="fill: #0f172a; stroke: #475569"/>
     <use xlink:href="#m69d64e8173" x="113.869574" y="292.91025" style="fill: #0f172a; stroke: #475569"/>
     <use xlink:href="#m69d64e8173" x="113.869574" y="343.31025" style="fill: #0f172a; stroke: #475569"/>
     <use xlink:href="#m69d64e8173" x="113.869574" y="393.71025" style="fill: #0f172a; stroke: #475569"/>
    </g>
   </g>
   <g id="line2d_23">
    <g clip-path="url(#p7472a85c94)">
     <use xlink:href="#m69d64e8173" x="497.142301" y="40.91025" style="fill: #0f172a; stroke: #475569"/>
     <use xlink:href="#m69d64e8173" x="371.595595" y="91.31025" style="fill: #0f172a; stroke: #475569"/>
     <use xlink:href="#m69d64e8173" x="371.595595" y="141.71025" style="fill: #0f172a; stroke: #475569"/>
     <use xlink:href="#m69d64e8173" x="371.595595" y="192.11025" style="fill: #0f172a; stroke: #475569"/>
     <use xlink:href="#m69d64e8173" x="371.595595" y="242.51025" style="fill: #0f172a; stroke: #475569"/>
     <use xlink:href="#m69d64e8173" x="371.595595" y="292.91025" style="fill: #0f172a; stroke: #475569"/>
     <use xlink:href="#m69d64e8173" x="371.595595" y="343.31025" style="fill: #0f172a; stroke: #475569"/>
     <use xlink:href="#m69d64e8173" x="371.595595" y="393.71025" style="fill: #0f172a; stroke: #475569"/>
    </g>
   </g>
   <g id="text_16">
    <!-- Policy-Source Effect Sensitivity -->
    <g style="fill: #0f172a" transform="translate(207.251313 14.27025) scale(0.112 -0.112)">
     <defs>
      <path id="DejaVuSerif-Bold-50" d="M 300 0 
L 300 378 
L 897 378 
L 897 4288 
L 300 4288 
L 300 4666 
L 2956 4666 
Q 3734 4666 4193 4295 
Q 4653 3925 4653 3303 
Q 4653 2678 4192 2304 
Q 3731 1931 2956 1931 
L 2100 1931 
L 2100 378 
L 2853 378 
L 2853 0 
L 300 0 
z
M 2100 2309 
L 2450 2309 
Q 2856 2309 3098 2579 
Q 3341 2850 3341 3303 
Q 3341 3753 3100 4020 
Q 2859 4288 2450 4288 
L 2100 4288 
L 2100 2309 
z
" transform="scale(0.015625)"/>
      <path id="DejaVuSerif-Bold-6f" d="M 2138 263 
Q 2488 263 2630 563 
Q 2772 863 2772 1663 
Q 2772 2463 2631 2761 
Q 2491 3059 2138 3059 
Q 1784 3059 1640 2757 
Q 1497 2456 1497 1663 
Q 1497 869 1640 566 
Q 1784 263 2138 263 
z
M 2138 -91 
Q 1259 -91 761 376 
Q 263 844 263 1663 
Q 263 2484 761 2948 
Q 1259 3413 2138 3413 
Q 3019 3413 3516 2948 
Q 4013 2484 4013 1663 
Q 4013 844 3514 376 
Q 3016 -91 2138 -91 
z
" transform="scale(0.015625)"/>
      <path id="DejaVuSerif-Bold-6c" d="M 1797 378 
L 2272 378 
L 2272 0 
L 219 0 
L 219 378 
L 691 378 
L 691 4488 
L 219 4488 
L 219 4863 
L 1797 4863 
L 1797 378 
z
" transform="scale(0.015625)"/>
      <path id="DejaVuSerif-Bold-69" d="M 588 4263 
Q 588 4516 763 4689 
Q 938 4863 1191 4863 
Q 1438 4863 1611 4689 
Q 1784 4516 1784 4263 
Q 1784 4016 1611 3842 
Q 1438 3669 1191 3669 
Q 938 3669 763 3841 
Q 588 4013 588 4263 
z
M 1797 378 
L 2272 378 
L 2272 0 
L 219 0 
L 219 378 
L 691 378 
L 691 2944 
L 219 2944 
L 219 3322 
L 1797 3322 
L 1797 378 
z
" transform="scale(0.015625)"/>
      <path id="DejaVuSerif-Bold-63" d="M 3609 1038 
Q 3491 469 3123 189 
Q 2756 -91 2125 -91 
Q 1238 -91 750 368 
Q 263 828 263 1663 
Q 263 2488 744 2950 
Q 1225 3413 2081 3413 
Q 2428 3413 2781 3347 
Q 3134 3281 3500 3150 
L 3500 2228 
L 3150 2228 
Q 3100 2650 2903 2854 
Q 2706 3059 2350 3059 
Q 1888 3059 1692 2746 
Q 1497 2434 1497 1663 
Q 1497 909 1687 586 
Q 1878 263 2309 263 
Q 2644 263 2845 463 
Q 3047 663 3091 1038 
L 3609 1038 
z
" transform="scale(0.015625)"/>
      <path id="DejaVuSerif-Bold-79" d="M 1997 -750 
Q 1847 -1116 1634 -1269 
Q 1422 -1422 1063 -1422 
Q 909 -1422 721 -1387 
Q 534 -1353 313 -1288 
L 313 -594 
L 666 -597 
Q 675 -838 779 -953 
Q 884 -1069 1094 -1069 
Q 1297 -1069 1422 -958 
Q 1547 -847 1672 -538 
L 1722 -422 
L 275 2944 
L -84 2944 
L -84 3322 
L 1831 3322 
L 1831 2944 
L 1434 2944 
L 2278 978 
L 3066 2944 
L 2625 2944 
L 2625 3322 
L 3872 3322 
L 3872 2944 
L 3469 2944 
L 1997 -750 
z
" transform="scale(0.015625)"/>
      <path id="DejaVuSerif-Bold-2d" d="M 347 2138 
L 2309 2138 
L 2309 1294 
L 347 1294 
L 347 2138 
z
" transform="scale(0.015625)"/>
      <path id="DejaVuSerif-Bold-53" d="M 494 225 
L 494 1331 
L 891 1331 
Q 981 806 1318 547 
Q 1656 288 2253 288 
Q 2738 288 2991 472 
Q 3244 656 3244 1013 
Q 3244 1294 3072 1450 
Q 2900 1606 2363 1741 
L 1663 1913 
Q 978 2088 700 2398 
Q 422 2709 422 3284 
Q 422 3978 883 4364 
Q 1344 4750 2175 4750 
Q 2584 4750 3026 4681 
Q 3469 4613 3944 4475 
L 3944 3444 
L 3547 3444 
Q 3456 3925 3150 4148 
Q 2844 4372 2278 4372 
Q 1816 4372 1580 4211 
Q 1344 4050 1344 3731 
Q 1344 3441 1506 3289 
Q 1669 3138 2303 2975 
L 3003 2803 
Q 3653 2641 3945 2297 
Q 4238 1953 4238 1350 
Q 4238 644 3750 276 
Q 3263 -91 2316 -91 
Q 1859 -91 1409 -12 
Q 959 66 494 225 
z
" transform="scale(0.015625)"/>
      <path id="DejaVuSerif-Bold-75" d="M 3963 3322 
L 3963 378 
L 4434 378 
L 4434 0 
L 2853 0 
L 2853 469 
Q 2656 172 2400 40 
Q 2144 -91 1753 -91 
Q 1194 -91 908 239 
Q 622 569 622 1209 
L 622 2944 
L 147 2944 
L 147 3322 
L 1728 3322 
L 1728 1381 
Q 1728 763 1831 595 
Q 1934 428 2209 428 
Q 2544 428 2698 675 
Q 2853 922 2853 1459 
L 2853 2944 
L 2450 2944 
L 2450 3322 
L 3963 3322 
z
" transform="scale(0.015625)"/>
      <path id="DejaVuSerif-Bold-72" d="M 3438 3359 
L 3438 2369 
L 3084 2369 
Q 3066 2634 2941 2764 
Q 2816 2894 2578 2894 
Q 2216 2894 2006 2575 
Q 1797 2256 1797 1691 
L 1797 378 
L 2400 378 
L 2400 0 
L 219 0 
L 219 378 
L 691 378 
L 691 2944 
L 184 2944 
L 184 3322 
L 1797 3322 
L 1797 2731 
Q 1959 3078 2226 3245 
Q 2494 3413 2881 3413 
Q 2978 3413 3117 3398 
Q 3256 3384 3438 3359 
z
" transform="scale(0.015625)"/>
      <path id="DejaVuSerif-Bold-65" d="M 2566 1875 
Q 2566 2531 2444 2795 
Q 2322 3059 2028 3059 
Q 1744 3059 1620 2800 
Q 1497 2541 1497 1931 
L 1497 1875 
L 2566 1875 
z
M 3781 1503 
L 1497 1503 
L 1497 1478 
Q 1497 834 1690 548 
Q 1884 263 2316 263 
Q 2675 263 2897 453 
Q 3119 644 3181 1006 
L 3700 1006 
Q 3566 441 3166 175 
Q 2766 -91 2047 -91 
Q 1184 -91 723 364 
Q 263 819 263 1663 
Q 263 2488 734 2950 
Q 1206 3413 2047 3413 
Q 2872 3413 3312 2927 
Q 3753 2441 3781 1503 
z
" transform="scale(0.015625)"/>
      <path id="DejaVuSerif-Bold-20" transform="scale(0.015625)"/>
      <path id="DejaVuSerif-Bold-45" d="M 300 0 
L 300 378 
L 897 378 
L 897 4288 
L 300 4288 
L 300 4666 
L 4494 4666 
L 4494 3566 
L 4063 3566 
L 4063 4238 
L 2100 4238 
L 2100 2741 
L 3322 2741 
L 3322 3334 
L 3750 3334 
L 3750 1722 
L 3322 1722 
L 3322 2316 
L 2100 2316 
L 2100 428 
L 4122 428 
L 4122 1100 
L 4550 1100 
L 4550 0 
L 300 0 
z
" transform="scale(0.015625)"/>
      <path id="DejaVuSerif-Bold-66" d="M 3097 4031 
L 2747 4031 
Q 2722 4275 2605 4394 
Q 2488 4513 2272 4513 
Q 2022 4513 1909 4333 
Q 1797 4153 1797 3750 
L 1797 3322 
L 2631 3322 
L 2631 2944 
L 1797 2944 
L 1797 378 
L 2438 378 
L 2438 0 
L 219 0 
L 219 378 
L 691 378 
L 691 2944 
L 197 2944 
L 197 3322 
L 691 3322 
L 691 3738 
Q 691 4291 1044 4577 
Q 1397 4863 2081 4863 
Q 2347 4863 2600 4833 
Q 2853 4803 3097 4744 
L 3097 4031 
z
" transform="scale(0.015625)"/>
      <path id="DejaVuSerif-Bold-74" d="M 634 2944 
L 153 2944 
L 153 3322 
L 634 3322 
L 634 4353 
L 1741 4353 
L 1741 3322 
L 2663 3322 
L 2663 2944 
L 1741 2944 
L 1741 909 
Q 1741 475 1809 369 
Q 1878 263 2059 263 
Q 2259 263 2356 397 
Q 2453 531 2459 813 
L 2925 813 
Q 2897 313 2651 111 
Q 2406 -91 1806 -91 
Q 1122 -91 878 123 
Q 634 338 634 909 
L 634 2944 
z
" transform="scale(0.015625)"/>
      <path id="DejaVuSerif-Bold-6e" d="M 219 0 
L 219 378 
L 691 378 
L 691 2944 
L 219 2944 
L 219 3322 
L 1797 3322 
L 1797 2853 
Q 1997 3150 2253 3281 
Q 2509 3413 2900 3413 
Q 3459 3413 3745 3083 
Q 4031 2753 4031 2113 
L 4031 378 
L 4506 378 
L 4506 0 
L 2522 0 
L 2522 378 
L 2925 378 
L 2925 2144 
Q 2925 2566 2817 2730 
Q 2709 2894 2444 2894 
Q 2109 2894 1953 2648 
Q 1797 2403 1797 1869 
L 1797 378 
L 2203 378 
L 2203 0 
L 219 0 
z
" transform="scale(0.015625)"/>
      <path id="DejaVuSerif-Bold-73" d="M 300 97 
L 300 1025 
L 653 1025 
Q 697 653 931 458 
Q 1166 263 1569 263 
Q 1906 263 2086 380 
Q 2266 497 2266 716 
Q 2266 916 2152 1025 
Q 2038 1134 1709 1216 
L 1253 1331 
Q 738 1459 506 1698 
Q 275 1938 275 2344 
Q 275 2884 650 3148 
Q 1025 3413 1806 3413 
Q 2100 3413 2433 3364 
Q 2766 3316 3169 3213 
L 3169 2375 
L 2816 2375 
Q 2788 2716 2573 2887 
Q 2359 3059 1959 3059 
Q 1622 3059 1448 2951 
Q 1275 2844 1275 2638 
Q 1275 2469 1375 2372 
Q 1475 2275 1734 2209 
L 2188 2094 
Q 2841 1928 3091 1684 
Q 3341 1441 3341 1006 
Q 3341 444 2939 176 
Q 2538 -91 1691 -91 
Q 1381 -91 1034 -44 
Q 688 3 300 97 
z
" transform="scale(0.015625)"/>
      <path id="DejaVuSerif-Bold-76" d="M 1428 0 
L 250 2944 
L -116 2944 
L -116 3322 
L 1791 3322 
L 1791 2944 
L 1388 2944 
L 2228 844 
L 3066 2944 
L 2631 2944 
L 2631 3322 
L 3878 3322 
L 3878 2944 
L 3494 2944 
L 2316 0 
L 1428 0 
z
" transform="scale(0.015625)"/>
     </defs>
     <use xlink:href="#DejaVuSerif-Bold-50"/>
     <use xlink:href="#DejaVuSerif-Bold-6f" transform="translate(72.570312 0)"/>
     <use xlink:href="#DejaVuSerif-Bold-6c" transform="translate(139.269531 0)"/>
     <use xlink:href="#DejaVuSerif-Bold-69" transform="translate(177.257812 0)"/>
     <use xlink:href="#DejaVuSerif-Bold-63" transform="translate(215.246094 0)"/>
     <use xlink:href="#DejaVuSerif-Bold-79" transform="translate(276.134766 0)"/>
     <use xlink:href="#DejaVuSerif-Bold-2d" transform="translate(334.240234 0)"/>
     <use xlink:href="#DejaVuSerif-Bold-53" transform="translate(375.744141 0)"/>
     <use xlink:href="#DejaVuSerif-Bold-6f" transform="translate(447.960938 0)"/>
     <use xlink:href="#DejaVuSerif-Bold-75" transform="translate(514.660156 0)"/>
     <use xlink:href="#DejaVuSerif-Bold-72" transform="translate(587.365234 0)"/>
     <use xlink:href="#DejaVuSerif-Bold-63" transform="translate(640.050781 0)"/>
     <use xlink:href="#DejaVuSerif-Bold-65" transform="translate(700.939453 0)"/>
     <use xlink:href="#DejaVuSerif-Bold-20" transform="translate(764.5625 0)"/>
     <use xlink:href="#DejaVuSerif-Bold-45" transform="translate(799.376953 0)"/>
     <use xlink:href="#DejaVuSerif-Bold-66" transform="translate(875.597656 0)"/>
     <use xlink:href="#DejaVuSerif-Bold-66" transform="translate(918.615234 0)"/>
     <use xlink:href="#DejaVuSerif-Bold-65" transform="translate(961.632812 0)"/>
     <use xlink:href="#DejaVuSerif-Bold-63" transform="translate(1025.255859 0)"/>
     <use xlink:href="#DejaVuSerif-Bold-74" transform="translate(1086.144531 0)"/>
     <use xlink:href="#DejaVuSerif-Bold-20" transform="translate(1132.335938 0)"/>
     <use xlink:href="#DejaVuSerif-Bold-53" transform="translate(1167.150391 0)"/>
     <use xlink:href="#DejaVuSerif-Bold-65" transform="translate(1239.367188 0)"/>
     <use xlink:href="#DejaVuSerif-Bold-6e" transform="translate(1302.990234 0)"/>
     <use xlink:href="#DejaVuSerif-Bold-73" transform="translate(1375.695312 0)"/>
     <use xlink:href="#DejaVuSerif-Bold-69" transform="translate(1431.994141 0)"/>
     <use xlink:href="#DejaVuSerif-Bold-74" transform="translate(1469.982422 0)"/>
     <use xlink:href="#DejaVuSerif-Bold-69" transform="translate(1516.173828 0)"/>
     <use xlink:href="#DejaVuSerif-Bold-76" transform="translate(1554.162109 0)"/>
     <use xlink:href="#DejaVuSerif-Bold-69" transform="translate(1612.267578 0)"/>
     <use xlink:href="#DejaVuSerif-Bold-74" transform="translate(1650.255859 0)"/>
     <use xlink:href="#DejaVuSerif-Bold-79" transform="translate(1696.447266 0)"/>
    </g>
   </g>
   <g id="line2d_24">
    <defs>
     <path id="m952bc52312" d="M 0 2.75 
C 0.729309 2.75 1.428845 2.460243 1.944544 1.944544 
C 2.460243 1.428845 2.75 0.729309 2.75 0 
C 2.75 -0.729309 2.460243 -1.428845 1.944544 -1.944544 
C 1.428845 -2.460243 0.729309 -2.75 0 -2.75 
C -0.729309 -2.75 -1.428845 -2.460243 -1.944544 -1.944544 
C -2.460243 -1.428845 -2.75 -0.729309 -2.75 0 
C -2.75 0.729309 -2.460243 1.428845 -1.944544 1.944544 
C -1.428845 2.460243 -0.729309 2.75 0 2.75 
z
" style="stroke: #0f172a"/>
    </defs>
    <g clip-path="url(#p7472a85c94)">
     <use xlink:href="#m952bc52312" x="368.953418" y="40.91025" style="fill: #0f172a; stroke: #0f172a"/>
     <use xlink:href="#m952bc52312" x="242.732585" y="91.31025" style="fill: #0f172a; stroke: #0f172a"/>
     <use xlink:href="#m952bc52312" x="242.732585" y="141.71025" style="fill: #0f172a; stroke: #0f172a"/>
     <use xlink:href="#m952bc52312" x="242.732585" y="192.11025" style="fill: #0f172a; stroke: #0f172a"/>
     <use xlink:href="#m952bc52312" x="242.732585" y="242.51025" style="fill: #0f172a; stroke: #0f172a"/>
     <use xlink:href="#m952bc52312" x="242.732585" y="292.91025" style="fill: #0f172a; stroke: #0f172a"/>
     <use xlink:href="#m952bc52312" x="242.732585" y="343.31025" style="fill: #0f172a; stroke: #0f172a"/>
     <use xlink:href="#m952bc52312" x="242.732585" y="393.71025" style="fill: #0f172a; stroke: #0f172a"/>
    </g>
   </g>
   <g id="PathCollection_1">
    <defs>
     <path id="m7a7a311e64" d="M 0 3.24037 
C 0.859356 3.24037 1.683631 2.898944 2.291288 2.291288 
C 2.898944 1.683631 3.24037 0.859356 3.24037 0 
C 3.24037 -0.859356 2.898944 -1.683631 2.291288 -2.291288 
C 1.683631 -2.898944 0.859356 -3.24037 0 -3.24037 
C -0.859356 -3.24037 -1.683631 -2.898944 -2.291288 -2.291288 
C -2.898944 -1.683631 -3.24037 -0.859356 -3.24037 0 
C -3.24037 0.859356 -2.898944 1.683631 -2.291288 2.291288 
C -1.683631 2.898944 -0.859356 3.24037 0 3.24037 
z
" style="stroke: #ffffff; stroke-width: 0.4"/>
    </defs>
    <g clip-path="url(#p7472a85c94)">
     <use xlink:href="#m7a7a311e64" x="368.953418" y="40.91025" style="fill: #7c3aed; stroke: #ffffff; stroke-width: 0.4"/>
    </g>
   </g>
   <g id="PathCollection_2">
    <defs>
     <path id="m14df37f615" d="M 0 3.24037 
C 0.859356 3.24037 1.683631 2.898944 2.291288 2.291288 
C 2.898944 1.683631 3.24037 0.859356 3.24037 0 
C 3.24037 -0.859356 2.898944 -1.683631 2.291288 -2.291288 
C 1.683631 -2.898944 0.859356 -3.24037 0 -3.24037 
C -0.859356 -3.24037 -1.683631 -2.898944 -2.291288 -2.291288 
C -2.898944 -1.683631 -3.24037 -0.859356 -3.24037 0 
C -3.24037 0.859356 -2.898944 1.683631 -2.291288 2.291288 
C -1.683631 2.898944 -0.859356 3.24037 0 3.24037 
z
" style="stroke: #ffffff; stroke-width: 0.4"/>
    </defs>
    <g clip-path="url(#p7472a85c94)">
     <use xlink:href="#m14df37f615" x="242.732585" y="91.31025" style="fill: #a16207; stroke: #ffffff; stroke-width: 0.4"/>
    </g>
   </g>
   <g id="PathCollection_3">
    <defs>
     <path id="me1927cad27" d="M 0 3.24037 
C 0.859356 3.24037 1.683631 2.898944 2.291288 2.291288 
C 2.898944 1.683631 3.24037 0.859356 3.24037 0 
C 3.24037 -0.859356 2.898944 -1.683631 2.291288 -2.291288 
C 1.683631 -2.898944 0.859356 -3.24037 0 -3.24037 
C -0.859356 -3.24037 -1.683631 -2.898944 -2.291288 -2.291288 
C -2.898944 -1.683631 -3.24037 -0.859356 -3.24037 0 
C -3.24037 0.859356 -2.898944 1.683631 -2.291288 2.291288 
C -1.683631 2.898944 -0.859356 3.24037 0 3.24037 
z
" style="stroke: #ffffff; stroke-width: 0.4"/>
    </defs>
    <g clip-path="url(#p7472a85c94)">
     <use xlink:href="#me1927cad27" x="242.732585" y="141.71025" style="fill: #0ea5e9; stroke: #ffffff; stroke-width: 0.4"/>
    </g>
   </g>
   <g id="PathCollection_4">
    <defs>
     <path id="m9c93d0443c" d="M 0 3.24037 
C 0.859356 3.24037 1.683631 2.898944 2.291288 2.291288 
C 2.898944 1.683631 3.24037 0.859356 3.24037 0 
C 3.24037 -0.859356 2.898944 -1.683631 2.291288 -2.291288 
C 1.683631 -2.898944 0.859356 -3.24037 0 -3.24037 
C -0.859356 -3.24037 -1.683631 -2.898944 -2.291288 -2.291288 
C -2.898944 -1.683631 -3.24037 -0.859356 -3.24037 0 
C -3.24037 0.859356 -2.898944 1.683631 -2.291288 2.291288 
C -1.683631 2.898944 -0.859356 3.24037 0 3.24037 
z
" style="stroke: #ffffff; stroke-width: 0.4"/>
    </defs>
    <g clip-path="url(#p7472a85c94)">
     <use xlink:href="#m9c93d0443c" x="242.732585" y="192.11025" style="fill: #166534; stroke: #ffffff; stroke-width: 0.4"/>
    </g>
   </g>
   <g id="PathCollection_5">
    <defs>
     <path id="m53bf92636b" d="M 0 3.24037 
C 0.859356 3.24037 1.683631 2.898944 2.291288 2.291288 
C 2.898944 1.683631 3.24037 0.859356 3.24037 0 
C 3.24037 -0.859356 2.898944 -1.683631 2.291288 -2.291288 
C 1.683631 -2.898944 0.859356 -3.24037 0 -3.24037 
C -0.859356 -3.24037 -1.683631 -2.898944 -2.291288 -2.291288 
C -2.898944 -1.683631 -3.24037 -0.859356 -3.24037 0 
C -3.24037 0.859356 -2.898944 1.683631 -2.291288 2.291288 
C -1.683631 2.898944 -0.859356 3.24037 0 3.24037 
z
" style="stroke: #ffffff; stroke-width: 0.4"/>
    </defs>
    <g clip-path="url(#p7472a85c94)">
     <use xlink:href="#m53bf92636b" x="242.732585" y="242.51025" style="fill: #6b7280; stroke: #ffffff; stroke-width: 0.4"/>
    </g>
   </g>
   <g id="PathCollection_6">
    <defs>
     <path id="m695820653f" d="M 0 3.24037 
C 0.859356 3.24037 1.683631 2.898944 2.291288 2.291288 
C 2.898944 1.683631 3.24037 0.859356 3.24037 0 
C 3.24037 -0.859356 2.898944 -1.683631 2.291288 -2.291288 
C 1.683631 -2.898944 0.859356 -3.24037 0 -3.24037 
C -0.859356 -3.24037 -1.683631 -2.898944 -2.291288 -2.291288 
C -2.898944 -1.683631 -3.24037 -0.859356 -3.24037 0 
C -3.24037 0.859356 -2.898944 1.683631 -2.291288 2.291288 
C -1.683631 2.898944 -0.859356 3.24037 0 3.24037 
z
" style="stroke: #ffffff; stroke-width: 0.4"/>
    </defs>
    <g clip-path="url(#p7472a85c94)">
     <use xlink:href="#m695820653f" x="242.732585" y="292.91025" style="fill: #dc2626; stroke: #ffffff; stroke-width: 0.4"/>
    </g>
   </g>
   <g id="PathCollection_7">
    <defs>
     <path id="m0552b236b0" d="M 0 3.24037 
C 0.859356 3.24037 1.683631 2.898944 2.291288 2.291288 
C 2.898944 1.683631 3.24037 0.859356 3.24037 0 
C 3.24037 -0.859356 2.898944 -1.683631 2.291288 -2.291288 
C 1.683631 -2.898944 0.859356 -3.24037 0 -3.24037 
C -0.859356 -3.24037 -1.683631 -2.898944 -2.291288 -2.291288 
C -2.898944 -1.683631 -3.24037 -0.859356 -3.24037 0 
C -3.24037 0.859356 -2.898944 1.683631 -2.291288 2.291288 
C -1.683631 2.898944 -0.859356 3.24037 0 3.24037 
z
" style="stroke: #ffffff; stroke-width: 0.4"/>
    </defs>
    <g clip-path="url(#p7472a85c94)">
     <use xlink:href="#m0552b236b0" x="242.732585" y="343.31025" style="fill: #b91c1c; stroke: #ffffff; stroke-width: 0.4"/>
    </g>
   </g>
   <g id="PathCollection_8">
    <defs>
     <path id="md373d09d6a" d="M 0 3.24037 
C 0.859356 3.24037 1.683631 2.898944 2.291288 2.291288 
C 2.898944 1.683631 3.24037 0.859356 3.24037 0 
C 3.24037 -0.859356 2.898944 -1.683631 2.291288 -2.291288 
C 1.683631 -2.898944 0.859356 -3.24037 0 -3.24037 
C -0.859356 -3.24037 -1.683631 -2.898944 -2.291288 -2.291288 
C -2.898944 -1.683631 -3.24037 -0.859356 -3.24037 0 
C -3.24037 0.859356 -2.898944 1.683631 -2.291288 2.291288 
C -1.683631 2.898944 -0.859356 3.24037 0 3.24037 
z
" style="stroke: #ffffff; stroke-width: 0.4"/>
    </defs>
    <g clip-path="url(#p7472a85c94)">
     <use xlink:href="#md373d09d6a" x="242.732585" y="393.71025" style="fill: #0f766e; stroke: #ffffff; stroke-width: 0.4"/>
    </g>
   </g>
  </g>
  <g id="axes_2">
   <g id="patch_5">
    <path d="M 583.265937 411.35025 
L 831.265937 411.35025 
L 831.265937 23.27025 
L 583.265937 23.27025 
z
" style="fill: #ffffff"/>
   </g>
   <g id="patch_6">
    <path d="M 583.265937 40.91025 
L 748.37253 40.91025 
L 748.37253 77.094865 
L 583.265937 77.094865 
z
" clip-path="url(#p28d93f91ef)" style="fill: #7c3aed; opacity: 0.86"/>
   </g>
   <g id="patch_7">
    <path d="M 583.265937 86.141019 
L 686.150477 86.141019 
L 686.150477 122.325635 
L 583.265937 122.325635 
z
" clip-path="url(#p28d93f91ef)" style="fill: #a16207; opacity: 0.86"/>
   </g>
   <g id="patch_8">
    <path d="M 583.265937 131.371788 
L 686.150477 131.371788 
L 686.150477 167.556404 
L 583.265937 167.556404 
z
" clip-path="url(#p28d93f91ef)" style="fill: #0ea5e9; opacity: 0.86"/>
   </g>
   <g id="patch_9">
    <path d="M 583.265937 176.602558 
L 686.150477 176.602558 
L 686.150477 212.787173 
L 583.265937 212.787173 
z
" clip-path="url(#p28d93f91ef)" style="fill: #166534; opacity: 0.86"/>
   </g>
   <g id="patch_10">
    <path d="M 583.265937 221.833327 
L 685.741182 221.833327 
L 685.741182 258.017942 
L 583.265937 258.017942 
z
" clip-path="url(#p28d93f91ef)" style="fill: #6b7280; opacity: 0.86"/>
   </g>
   <g id="patch_11">
    <path d="M 583.265937 267.064096 
L 685.741182 267.064096 
L 685.741182 303.248712 
L 583.265937 303.248712 
z
" clip-path="url(#p28d93f91ef)" style="fill: #dc2626; opacity: 0.86"/>
   </g>
   <g id="patch_12">
    <path d="M 583.265937 312.294865 
L 685.741182 312.294865 
L 685.741182 348.479481 
L 583.265937 348.479481 
z
" clip-path="url(#p28d93f91ef)" style="fill: #b91c1c; opacity: 0.86"/>
   </g>
   <g id="patch_13">
    <path d="M 583.265937 357.525635 
L 628.283811 357.525635 
L 628.283811 393.71025 
L 583.265937 393.71025 
z
" clip-path="url(#p28d93f91ef)" style="fill: #0f766e; opacity: 0.86"/>
   </g>
   <g id="matplotlib.axis_3">
    <g id="xtick_7">
     <g id="line2d_25">
      <path d="M 583.265937 411.35025 
L 583.265937 23.27025 
" clip-path="url(#p28d93f91ef)" style="fill: none; stroke-dasharray: 2.96,1.28; stroke-dashoffset: 0; stroke: #e2e8f0; stroke-opacity: 0.2; stroke-width: 0.8"/>
     </g>
     <g id="line2d_26">
      <g>
       <use xlink:href="#m2797ba9d54" x="583.265937" y="411.35025" style="fill: #475569; stroke: #475569; stroke-width: 0.8"/>
      </g>
     </g>
     <g id="text_17">
      <!-- 0 -->
      <g style="fill: #475569" transform="translate(580.593687 424.732937) scale(0.084 -0.084)">
       <use xlink:href="#DejaVuSerif-30"/>
      </g>
     </g>
    </g>
    <g id="xtick_8">
     <g id="line2d_27">
      <path d="M 624.599271 411.35025 
L 624.599271 23.27025 
" clip-path="url(#p28d93f91ef)" style="fill: none; stroke-dasharray: 2.96,1.28; stroke-dashoffset: 0; stroke: #e2e8f0; stroke-opacity: 0.2; stroke-width: 0.8"/>
     </g>
     <g id="line2d_28">
      <g>
       <use xlink:href="#m2797ba9d54" x="624.599271" y="411.35025" style="fill: #475569; stroke: #475569; stroke-width: 0.8"/>
      </g>
     </g>
     <g id="text_18">
      <!-- 10 -->
      <g style="fill: #475569" transform="translate(619.254771 424.732937) scale(0.084 -0.084)">
       <use xlink:href="#DejaVuSerif-31"/>
       <use xlink:href="#DejaVuSerif-30" transform="translate(63.623047 0)"/>
      </g>
     </g>
    </g>
    <g id="xtick_9">
     <g id="line2d_29">
      <path d="M 665.932604 411.35025 
L 665.932604 23.27025 
" clip-path="url(#p28d93f91ef)" style="fill: none; stroke-dasharray: 2.96,1.28; stroke-dashoffset: 0; stroke: #e2e8f0; stroke-opacity: 0.2; stroke-width: 0.8"/>
     </g>
     <g id="line2d_30">
      <g>
       <use xlink:href="#m2797ba9d54" x="665.932604" y="411.35025" style="fill: #475569; stroke: #475569; stroke-width: 0.8"/>
      </g>
     </g>
     <g id="text_19">
      <!-- 20 -->
      <g style="fill: #475569" transform="translate(660.588104 424.732937) scale(0.084 -0.084)">
       <defs>
        <path id="DejaVuSerif-32" d="M 819 3553 
L 469 3553 
L 469 4384 
Q 803 4563 1142 4656 
Q 1481 4750 1806 4750 
Q 2534 4750 2956 4397 
Q 3378 4044 3378 3438 
Q 3378 2753 2422 1800 
Q 2347 1728 2309 1691 
L 1131 513 
L 3078 513 
L 3078 1088 
L 3444 1088 
L 3444 0 
L 434 0 
L 434 341 
L 1850 1753 
Q 2319 2222 2519 2614 
Q 2719 3006 2719 3438 
Q 2719 3909 2473 4175 
Q 2228 4441 1797 4441 
Q 1350 4441 1106 4219 
Q 863 3997 819 3553 
z
" transform="scale(0.015625)"/>
       </defs>
       <use xlink:href="#DejaVuSerif-32"/>
       <use xlink:href="#DejaVuSerif-30" transform="translate(63.623047 0)"/>
      </g>
     </g>
    </g>
    <g id="xtick_10">
     <g id="line2d_31">
      <path d="M 707.265937 411.35025 
L 707.265937 23.27025 
" clip-path="url(#p28d93f91ef)" style="fill: none; stroke-dasharray: 2.96,1.28; stroke-dashoffset: 0; stroke: #e2e8f0; stroke-opacity: 0.2; stroke-width: 0.8"/>
     </g>
     <g id="line2d_32">
      <g>
       <use xlink:href="#m2797ba9d54" x="707.265937" y="411.35025" style="fill: #475569; stroke: #475569; stroke-width: 0.8"/>
      </g>
     </g>
     <g id="text_20">
      <!-- 30 -->
      <g style="fill: #475569" transform="translate(701.921437 424.732937) scale(0.084 -0.084)">
       <defs>
        <path id="DejaVuSerif-33" d="M 622 4469 
Q 988 4606 1323 4678 
Q 1659 4750 1953 4750 
Q 2638 4750 3022 4454 
Q 3406 4159 3406 3634 
Q 3406 3213 3140 2930 
Q 2875 2647 2388 2547 
Q 2963 2466 3280 2130 
Q 3597 1794 3597 1259 
Q 3597 606 3158 257 
Q 2719 -91 1894 -91 
Q 1528 -91 1179 -12 
Q 831 66 488 225 
L 488 1131 
L 838 1131 
Q 869 681 1141 450 
Q 1413 219 1906 219 
Q 2384 219 2661 495 
Q 2938 772 2938 1253 
Q 2938 1803 2653 2086 
Q 2369 2369 1819 2369 
L 1522 2369 
L 1522 2688 
L 1678 2688 
Q 2225 2688 2498 2914 
Q 2772 3141 2772 3597 
Q 2772 4006 2547 4223 
Q 2322 4441 1900 4441 
Q 1478 4441 1245 4241 
Q 1013 4041 972 3647 
L 622 3647 
L 622 4469 
z
" transform="scale(0.015625)"/>
       </defs>
       <use xlink:href="#DejaVuSerif-33"/>
       <use xlink:href="#DejaVuSerif-30" transform="translate(63.623047 0)"/>
      </g>
     </g>
    </g>
    <g id="xtick_11">
     <g id="line2d_33">
      <path d="M 748.599271 411.35025 
L 748.599271 23.27025 
" clip-path="url(#p28d93f91ef)" style="fill: none; stroke-dasharray: 2.96,1.28; stroke-dashoffset: 0; stroke: #e2e8f0; stroke-opacity: 0.2; stroke-width: 0.8"/>
     </g>
     <g id="line2d_34">
      <g>
       <use xlink:href="#m2797ba9d54" x="748.599271" y="411.35025" style="fill: #475569; stroke: #475569; stroke-width: 0.8"/>
      </g>
     </g>
     <g id="text_21">
      <!-- 40 -->
      <g style="fill: #475569" transform="translate(743.254771 424.732937) scale(0.084 -0.084)">
       <defs>
        <path id="DejaVuSerif-34" d="M 2234 1581 
L 2234 4063 
L 641 1581 
L 2234 1581 
z
M 3609 0 
L 1484 0 
L 1484 331 
L 2234 331 
L 2234 1247 
L 197 1247 
L 197 1588 
L 2241 4750 
L 2859 4750 
L 2859 1581 
L 3750 1581 
L 3750 1247 
L 2859 1247 
L 2859 331 
L 3609 331 
L 3609 0 
z
" transform="scale(0.015625)"/>
       </defs>
       <use xlink:href="#DejaVuSerif-34"/>
       <use xlink:href="#DejaVuSerif-30" transform="translate(63.623047 0)"/>
      </g>
     </g>
    </g>
    <g id="xtick_12">
     <g id="line2d_35">
      <path d="M 789.932604 411.35025 
L 789.932604 23.27025 
" clip-path="url(#p28d93f91ef)" style="fill: none; stroke-dasharray: 2.96,1.28; stroke-dashoffset: 0; stroke: #e2e8f0; stroke-opacity: 0.2; stroke-width: 0.8"/>
     </g>
     <g id="line2d_36">
      <g>
       <use xlink:href="#m2797ba9d54" x="789.932604" y="411.35025" style="fill: #475569; stroke: #475569; stroke-width: 0.8"/>
      </g>
     </g>
     <g id="text_22">
      <!-- 50 -->
      <g style="fill: #475569" transform="translate(784.588104 424.732937) scale(0.084 -0.084)">
       <use xlink:href="#DejaVuSerif-35"/>
       <use xlink:href="#DejaVuSerif-30" transform="translate(63.623047 0)"/>
      </g>
     </g>
    </g>
    <g id="xtick_13">
     <g id="line2d_37">
      <path d="M 831.265937 411.35025 
L 831.265937 23.27025 
" clip-path="url(#p28d93f91ef)" style="fill: none; stroke-dasharray: 2.96,1.28; stroke-dashoffset: 0; stroke: #e2e8f0; stroke-opacity: 0.2; stroke-width: 0.8"/>
     </g>
     <g id="line2d_38">
      <g>
       <use xlink:href="#m2797ba9d54" x="831.265937" y="411.35025" style="fill: #475569; stroke: #475569; stroke-width: 0.8"/>
      </g>
     </g>
     <g id="text_23">
      <!-- 60 -->
      <g style="fill: #475569" transform="translate(825.921437 424.732937) scale(0.084 -0.084)">
       <defs>
        <path id="DejaVuSerif-36" d="M 2094 219 
Q 2534 219 2771 542 
Q 3009 866 3009 1472 
Q 3009 2078 2771 2401 
Q 2534 2725 2094 2725 
Q 1647 2725 1412 2412 
Q 1178 2100 1178 1509 
Q 1178 888 1415 553 
Q 1653 219 2094 219 
z
M 1075 2569 
Q 1288 2803 1556 2918 
Q 1825 3034 2163 3034 
Q 2859 3034 3264 2615 
Q 3669 2197 3669 1472 
Q 3669 763 3233 336 
Q 2797 -91 2069 -91 
Q 1278 -91 853 498 
Q 428 1088 428 2181 
Q 428 3406 931 4078 
Q 1434 4750 2350 4750 
Q 2597 4750 2869 4703 
Q 3141 4656 3425 4563 
L 3425 3794 
L 3072 3794 
Q 3034 4109 2831 4275 
Q 2628 4441 2284 4441 
Q 1678 4441 1381 3981 
Q 1084 3522 1075 2569 
z
" transform="scale(0.015625)"/>
       </defs>
       <use xlink:href="#DejaVuSerif-36"/>
       <use xlink:href="#DejaVuSerif-30" transform="translate(63.623047 0)"/>
      </g>
     </g>
    </g>
    <g id="text_24">
     <!-- Identification Strength Score -->
     <g style="fill: #0f172a" transform="translate(634.519312 437.926344) scale(0.098 -0.098)">
      <defs>
       <path id="DejaVuSerif-53" d="M 594 225 
L 594 1288 
L 953 1284 
Q 969 753 1261 498 
Q 1553 244 2150 244 
Q 2706 244 2998 464 
Q 3291 684 3291 1106 
Q 3291 1444 3114 1625 
Q 2938 1806 2369 1978 
L 1753 2163 
Q 1084 2366 811 2669 
Q 538 2972 538 3500 
Q 538 4094 959 4422 
Q 1381 4750 2144 4750 
Q 2469 4750 2856 4679 
Q 3244 4609 3681 4475 
L 3681 3481 
L 3328 3481 
Q 3275 3975 2998 4195 
Q 2722 4416 2156 4416 
Q 1663 4416 1405 4214 
Q 1147 4013 1147 3628 
Q 1147 3294 1340 3103 
Q 1534 2913 2163 2725 
L 2741 2553 
Q 3375 2363 3645 2067 
Q 3916 1772 3916 1275 
Q 3916 597 3481 253 
Q 3047 -91 2188 -91 
Q 1803 -91 1404 -12 
Q 1006 66 594 225 
z
" transform="scale(0.015625)"/>
       <path id="DejaVuSerif-68" d="M 263 0 
L 263 331 
L 781 331 
L 781 4531 
L 231 4531 
L 231 4863 
L 1356 4863 
L 1356 2731 
Q 1516 3069 1770 3241 
Q 2025 3413 2363 3413 
Q 2913 3413 3172 3097 
Q 3431 2781 3431 2113 
L 3431 331 
L 3944 331 
L 3944 0 
L 2356 0 
L 2356 331 
L 2853 331 
L 2853 1931 
Q 2853 2541 2704 2764 
Q 2556 2988 2175 2988 
Q 1775 2988 1565 2697 
Q 1356 2406 1356 1850 
L 1356 331 
L 1856 331 
L 1856 0 
L 263 0 
z
" transform="scale(0.015625)"/>
      </defs>
      <use xlink:href="#DejaVuSerif-49"/>
      <use xlink:href="#DejaVuSerif-64" transform="translate(39.501953 0)"/>
      <use xlink:href="#DejaVuSerif-65" transform="translate(103.515625 0)"/>
      <use xlink:href="#DejaVuSerif-6e" transform="translate(162.695312 0)"/>
      <use xlink:href="#DejaVuSerif-74" transform="translate(227.099609 0)"/>
      <use xlink:href="#DejaVuSerif-69" transform="translate(267.285156 0)"/>
      <use xlink:href="#DejaVuSerif-66" transform="translate(299.267578 0)"/>
      <use xlink:href="#DejaVuSerif-69" transform="translate(336.279297 0)"/>
      <use xlink:href="#DejaVuSerif-63" transform="translate(368.261719 0)"/>
      <use xlink:href="#DejaVuSerif-61" transform="translate(424.267578 0)"/>
      <use xlink:href="#DejaVuSerif-74" transform="translate(483.886719 0)"/>
      <use xlink:href="#DejaVuSerif-69" transform="translate(524.072266 0)"/>
      <use xlink:href="#DejaVuSerif-6f" transform="translate(556.054688 0)"/>
      <use xlink:href="#DejaVuSerif-6e" transform="translate(616.259766 0)"/>
      <use xlink:href="#DejaVuSerif-20" transform="translate(680.664062 0)"/>
      <use xlink:href="#DejaVuSerif-53" transform="translate(712.451172 0)"/>
      <use xlink:href="#DejaVuSerif-74" transform="translate(780.957031 0)"/>
      <use xlink:href="#DejaVuSerif-72" transform="translate(821.142578 0)"/>
      <use xlink:href="#DejaVuSerif-65" transform="translate(868.945312 0)"/>
      <use xlink:href="#DejaVuSerif-6e" transform="translate(928.125 0)"/>
      <use xlink:href="#DejaVuSerif-67" transform="translate(992.529297 0)"/>
      <use xlink:href="#DejaVuSerif-74" transform="translate(1056.542969 0)"/>
      <use xlink:href="#DejaVuSerif-68" transform="translate(1096.728516 0)"/>
      <use xlink:href="#DejaVuSerif-20" transform="translate(1161.132812 0)"/>
      <use xlink:href="#DejaVuSerif-53" transform="translate(1192.919922 0)"/>
      <use xlink:href="#DejaVuSerif-63" transform="translate(1261.425781 0)"/>
      <use xlink:href="#DejaVuSerif-6f" transform="translate(1317.431641 0)"/>
      <use xlink:href="#DejaVuSerif-72" transform="translate(1377.636719 0)"/>
      <use xlink:href="#DejaVuSerif-65" transform="translate(1425.439453 0)"/>
     </g>
    </g>
   </g>
   <g id="matplotlib.axis_4">
    <g id="ytick_9">
     <g id="line2d_39">
      <g>
       <use xlink:href="#m95d576f8a8" x="583.265937" y="59.002558" style="fill: #475569; stroke: #475569; stroke-width: 0.8"/>
      </g>
     </g>
    </g>
    <g id="ytick_10">
     <g id="line2d_40">
      <g>
       <use xlink:href="#m95d576f8a8" x="583.265937" y="104.233327" style="fill: #475569; stroke: #475569; stroke-width: 0.8"/>
      </g>
     </g>
    </g>
    <g id="ytick_11">
     <g id="line2d_41">
      <g>
       <use xlink:href="#m95d576f8a8" x="583.265937" y="149.464096" style="fill: #475569; stroke: #475569; stroke-width: 0.8"/>
      </g>
     </g>
    </g>
    <g id="ytick_12">
     <g id="line2d_42">
      <g>
       <use xlink:href="#m95d576f8a8" x="583.265937" y="194.694865" style="fill: #475569; stroke: #475569; stroke-width: 0.8"/>
      </g>
     </g>
    </g>
    <g id="ytick_13">
     <g id="line2d_43">
      <g>
       <use xlink:href="#m95d576f8a8" x="583.265937" y="239.925635" style="fill: #475569; stroke: #475569; stroke-width: 0.8"/>
      </g>
     </g>
    </g>
    <g id="ytick_14">
     <g id="line2d_44">
      <g>
       <use xlink:href="#m95d576f8a8" x="583.265937" y="285.156404" style="fill: #475569; stroke: #475569; stroke-width: 0.8"/>
      </g>
     </g>
    </g>
    <g id="ytick_15">
     <g id="line2d_45">
      <g>
       <use xlink:href="#m95d576f8a8" x="583.265937" y="330.387173" style="fill: #475569; stroke: #475569; stroke-width: 0.8"/>
      </g>
     </g>
    </g>
    <g id="ytick_16">
     <g id="line2d_46">
      <g>
       <use xlink:href="#m95d576f8a8" x="583.265937" y="375.617942" style="fill: #475569; stroke: #475569; stroke-width: 0.8"/>
      </g>
     </g>
    </g>
   </g>
   <g id="patch_14">
    <path d="M 583.265937 411.35025 
L 583.265937 23.27025 
" style="fill: none; stroke: #475569; stroke-width: 0.85; stroke-linejoin: miter; stroke-linecap: square"/>
   </g>
   <g id="patch_15">
    <path d="M 583.265937 411.35025 
L 831.265937 411.35025 
" style="fill: none; stroke: #475569; stroke-width: 0.85; stroke-linejoin: miter; stroke-linecap: square"/>
   </g>
   <g id="text_25">
    <!-- Identification Strength by Policy Source -->
    <g style="fill: #0f172a" transform="translate(581.038437 14.27025) scale(0.112 -0.112)">
     <defs>
      <path id="DejaVuSerif-Bold-49" d="M 300 0 
L 300 378 
L 897 378 
L 897 4288 
L 300 4288 
L 300 4666 
L 2700 4666 
L 2700 4288 
L 2100 4288 
L 2100 378 
L 2700 378 
L 2700 0 
L 300 0 
z
" transform="scale(0.015625)"/>
      <path id="DejaVuSerif-Bold-64" d="M 2747 1497 
L 2747 1825 
Q 2747 2406 2597 2665 
Q 2447 2925 2119 2925 
Q 1775 2925 1636 2651 
Q 1497 2378 1497 1663 
Q 1497 947 1637 672 
Q 1778 397 2119 397 
Q 2447 397 2597 656 
Q 2747 916 2747 1497 
z
M 3853 378 
L 4325 378 
L 4325 0 
L 2747 0 
L 2747 422 
Q 2606 163 2367 36 
Q 2128 -91 1778 -91 
Q 1072 -91 667 378 
Q 263 847 263 1663 
Q 263 2481 667 2947 
Q 1072 3413 1778 3413 
Q 2128 3413 2367 3286 
Q 2606 3159 2747 2900 
L 2747 4488 
L 2272 4488 
L 2272 4863 
L 3853 4863 
L 3853 378 
z
" transform="scale(0.015625)"/>
      <path id="DejaVuSerif-Bold-61" d="M 3525 2041 
L 3525 378 
L 4000 378 
L 4000 0 
L 2419 0 
L 2419 422 
Q 2200 159 1931 34 
Q 1663 -91 1319 -91 
Q 809 -91 536 182 
Q 263 456 263 966 
Q 263 1525 655 1803 
Q 1047 2081 1838 2081 
L 2419 2081 
L 2419 2278 
Q 2419 2681 2228 2873 
Q 2038 3066 1638 3066 
Q 1306 3066 1126 2930 
Q 947 2794 872 2484 
L 519 2484 
L 519 3200 
Q 816 3306 1134 3359 
Q 1453 3413 1806 3413 
Q 2697 3413 3111 3081 
Q 3525 2750 3525 2041 
z
M 2419 1044 
L 2419 1709 
L 2003 1709 
Q 1694 1709 1528 1540 
Q 1363 1372 1363 1056 
Q 1363 741 1483 584 
Q 1603 428 1850 428 
Q 2106 428 2262 597 
Q 2419 766 2419 1044 
z
" transform="scale(0.015625)"/>
      <path id="DejaVuSerif-Bold-67" d="M 3853 2944 
L 3853 44 
Q 3853 -656 3354 -1039 
Q 2856 -1422 1947 -1422 
Q 1616 -1422 1275 -1370 
Q 934 -1319 575 -1216 
L 575 -422 
L 928 -422 
Q 975 -750 1192 -909 
Q 1409 -1069 1813 -1069 
Q 2325 -1069 2536 -823 
Q 2747 -578 2747 44 
L 2747 422 
Q 2606 163 2367 36 
Q 2128 -91 1778 -91 
Q 1072 -91 667 378 
Q 263 847 263 1663 
Q 263 2481 667 2947 
Q 1072 3413 1778 3413 
Q 2128 3413 2367 3286 
Q 2606 3159 2747 2900 
L 2747 3322 
L 4325 3322 
L 4325 2944 
L 3853 2944 
z
M 2747 1825 
Q 2747 2406 2597 2665 
Q 2447 2925 2119 2925 
Q 1775 2925 1636 2651 
Q 1497 2378 1497 1663 
Q 1497 947 1637 672 
Q 1778 397 2119 397 
Q 2447 397 2597 656 
Q 2747 916 2747 1497 
L 2747 1825 
z
" transform="scale(0.015625)"/>
      <path id="DejaVuSerif-Bold-68" d="M 219 0 
L 219 378 
L 691 378 
L 691 4488 
L 197 4488 
L 197 4863 
L 1797 4863 
L 1797 2853 
Q 1997 3150 2253 3281 
Q 2509 3413 2900 3413 
Q 3459 3413 3745 3083 
Q 4031 2753 4031 2113 
L 4031 378 
L 4506 378 
L 4506 0 
L 2522 0 
L 2522 378 
L 2925 378 
L 2925 2144 
Q 2925 2566 2817 2730 
Q 2709 2894 2444 2894 
Q 2109 2894 1953 2648 
Q 1797 2403 1797 1869 
L 1797 378 
L 2203 378 
L 2203 0 
L 219 0 
z
" transform="scale(0.015625)"/>
      <path id="DejaVuSerif-Bold-62" d="M 622 378 
L 622 4488 
L 147 4488 
L 147 4863 
L 1728 4863 
L 1728 2900 
Q 1869 3159 2106 3286 
Q 2344 3413 2694 3413 
Q 3403 3413 3811 2945 
Q 4219 2478 4219 1663 
Q 4219 847 3811 378 
Q 3403 -91 2694 -91 
Q 2344 -91 2106 36 
Q 1869 163 1728 422 
L 1728 0 
L 147 0 
L 147 378 
L 622 378 
z
M 1728 1497 
Q 1728 916 1876 656 
Q 2025 397 2356 397 
Q 2697 397 2836 672 
Q 2975 947 2975 1663 
Q 2975 2378 2836 2651 
Q 2697 2925 2356 2925 
Q 2025 2925 1876 2665 
Q 1728 2406 1728 1825 
L 1728 1497 
z
" transform="scale(0.015625)"/>
     </defs>
     <use xlink:href="#DejaVuSerif-Bold-49"/>
     <use xlink:href="#DejaVuSerif-Bold-64" transform="translate(46.777344 0)"/>
     <use xlink:href="#DejaVuSerif-Bold-65" transform="translate(116.699219 0)"/>
     <use xlink:href="#DejaVuSerif-Bold-6e" transform="translate(180.322266 0)"/>
     <use xlink:href="#DejaVuSerif-Bold-74" transform="translate(253.027344 0)"/>
     <use xlink:href="#DejaVuSerif-Bold-69" transform="translate(299.21875 0)"/>
     <use xlink:href="#DejaVuSerif-Bold-66" transform="translate(337.207031 0)"/>
     <use xlink:href="#DejaVuSerif-Bold-69" transform="translate(380.224609 0)"/>
     <use xlink:href="#DejaVuSerif-Bold-63" transform="translate(418.212891 0)"/>
     <use xlink:href="#DejaVuSerif-Bold-61" transform="translate(479.101562 0)"/>
     <use xlink:href="#DejaVuSerif-Bold-74" transform="translate(543.896484 0)"/>
     <use xlink:href="#DejaVuSerif-Bold-69" transform="translate(590.087891 0)"/>
     <use xlink:href="#DejaVuSerif-Bold-6f" transform="translate(628.076172 0)"/>
     <use xlink:href="#DejaVuSerif-Bold-6e" transform="translate(694.775391 0)"/>
     <use xlink:href="#DejaVuSerif-Bold-20" transform="translate(767.480469 0)"/>
     <use xlink:href="#DejaVuSerif-Bold-53" transform="translate(802.294922 0)"/>
     <use xlink:href="#DejaVuSerif-Bold-74" transform="translate(874.511719 0)"/>
     <use xlink:href="#DejaVuSerif-Bold-72" transform="translate(920.703125 0)"/>
     <use xlink:href="#DejaVuSerif-Bold-65" transform="translate(973.388672 0)"/>
     <use xlink:href="#DejaVuSerif-Bold-6e" transform="translate(1037.011719 0)"/>
     <use xlink:href="#DejaVuSerif-Bold-67" transform="translate(1109.716797 0)"/>
     <use xlink:href="#DejaVuSerif-Bold-74" transform="translate(1179.638672 0)"/>
     <use xlink:href="#DejaVuSerif-Bold-68" transform="translate(1225.830078 0)"/>
     <use xlink:href="#DejaVuSerif-Bold-20" transform="translate(1298.535156 0)"/>
     <use xlink:href="#DejaVuSerif-Bold-62" transform="translate(1333.349609 0)"/>
     <use xlink:href="#DejaVuSerif-Bold-79" transform="translate(1403.271484 0)"/>
     <use xlink:href="#DejaVuSerif-Bold-20" transform="translate(1461.376953 0)"/>
     <use xlink:href="#DejaVuSerif-Bold-50" transform="translate(1496.191406 0)"/>
     <use xlink:href="#DejaVuSerif-Bold-6f" transform="translate(1568.761719 0)"/>
     <use xlink:href="#DejaVuSerif-Bold-6c" transform="translate(1635.460938 0)"/>
     <use xlink:href="#DejaVuSerif-Bold-69" transform="translate(1673.449219 0)"/>
     <use xlink:href="#DejaVuSerif-Bold-63" transform="translate(1711.4375 0)"/>
     <use xlink:href="#DejaVuSerif-Bold-79" transform="translate(1772.326172 0)"/>
     <use xlink:href="#DejaVuSerif-Bold-20" transform="translate(1830.431641 0)"/>
     <use xlink:href="#DejaVuSerif-Bold-53" transform="translate(1865.246094 0)"/>
     <use xlink:href="#DejaVuSerif-Bold-6f" transform="translate(1937.462891 0)"/>
     <use xlink:href="#DejaVuSerif-Bold-75" transform="translate(2004.162109 0)"/>
     <use xlink:href="#DejaVuSerif-Bold-72" transform="translate(2076.867188 0)"/>
     <use xlink:href="#DejaVuSerif-Bold-63" transform="translate(2129.552734 0)"/>
     <use xlink:href="#DejaVuSerif-Bold-65" transform="translate(2190.441406 0)"/>
    </g>
   </g>
  </g>
 </g>
 <defs>
  <clipPath id="p7472a85c94">
   <rect x="94.705938" y="23.27025" width="421.6" height="388.08"/>
  </clipPath>
  <clipPath id="p28d93f91ef">
   <rect x="583.265937" y="23.27025" width="248" height="388.08"/>
  </clipPath>
 </defs>
</svg>
