<?xml version="1.0" encoding="utf-8" standalone="no"?>
<!DOCTYPE svg PUBLIC "-//W3C//DTD SVG 1.1//EN"
  "http://www.w3.org/Graphics/SVG/1.1/DTD/svg11.dtd">
<svg xmlns:xlink="http://www.w3.org/1999/xlink" width="844.462125pt" height="443.564541pt" viewBox="0 0 844.462125 443.564541" xmlns="http://www.w3.org/2000/svg" version="1.1">
 <metadata>
  <rdf:RDF xmlns:dc="http://purl.org/dc/elements/1.1/" xmlns:cc="http://creativecommons.org/ns#" xmlns:rdf="http://www.w3.org/1999/02/22-rdf-syntax-ns#">
   <cc:Work>
    <dc:type rdf:resource="http://purl.org/dc/dcmitype/StillImage"/>
    <dc:date>2026-03-26T14:59:01.365480</dc:date>
    <dc:format>image/svg+xml</dc:format>
    <dc:creator>
     <cc:Agent>
      <dc:title>Matplotlib v3.10.8, https://matplotlib.org/</dc:title>
     </cc:Agent>
    </dc:creator>
   </cc:Work>
  </rdf:RDF>
 </metadata>
 <defs>
  <style type="text/css">*{stroke-linejoin: round; stroke-linecap: butt}</style>
 </defs>
 <g id="figure_1">
  <g id="patch_1">
   <path d="M 0 443.564541 
L 844.462125 443.564541 
L 844.462125 0 
L 0 0 
z
" style="fill: #ffffff"/>
  </g>
  <g id="axes_1">
   <g id="patch_2">
    <path d="M 46.342125 400.26225 
L 431.633457 400.26225 
L 431.633457 23.27025 
L 46.342125 23.27025 
z
" style="fill: #ffffff"/>
   </g>
   <g id="matplotlib.axis_1">
    <g id="xtick_1">
     <g id="line2d_1">
      <path d="M 97.751965 400.26225 
L 97.751965 23.27025 
" clip-path="url(#p1349f7372b)" style="fill: none; stroke-dasharray: 2.59,1.12; stroke-dashoffset: 0; stroke: #cbd5e1; stroke-opacity: 0.35; stroke-width: 0.7"/>
     </g>
     <g id="line2d_2">
      <defs>
       <path id="m1fb95f483f" d="M 0 0 
L 0 3.2 
" style="stroke: #475569; stroke-width: 0.7"/>
      </defs>
      <g>
       <use xlink:href="#m1fb95f483f" x="97.751965" y="400.26225" style="fill: #475569; stroke: #475569; stroke-width: 0.7"/>
      </g>
     </g>
     <g id="text_1">
      <!-- economic_vitality -->
      <g style="fill: #475569" transform="translate(26.696787 435.920914) rotate(-18) scale(0.084 -0.084)">
       <defs>
        <path id="DejaVuSerif-65" d="M 3469 1600 
L 991 1600 
L 991 1575 
Q 991 903 1244 561 
Q 1497 219 1991 219 
Q 2369 219 2611 417 
Q 2853 616 2950 1006 
L 3413 1006 
Q 3275 459 2904 184 
Q 2534 -91 1931 -91 
Q 1203 -91 761 389 
Q 319 869 319 1663 
Q 319 2450 753 2931 
Q 1188 3413 1894 3413 
Q 2647 3413 3050 2948 
Q 3453 2484 3469 1600 
z
M 2791 1931 
Q 2772 2513 2545 2808 
Q 2319 3103 1894 3103 
Q 1497 3103 1269 2806 
Q 1041 2509 991 1931 
L 2791 1931 
z
" transform="scale(0.015625)"/>
        <path id="DejaVuSerif-63" d="M 3291 997 
Q 3169 466 2822 187 
Q 2475 -91 1925 -91 
Q 1200 -91 759 389 
Q 319 869 319 1663 
Q 319 2459 759 2936 
Q 1200 3413 1925 3413 
Q 2241 3413 2553 3339 
Q 2866 3266 3181 3116 
L 3181 2266 
L 2847 2266 
Q 2781 2703 2561 2903 
Q 2341 3103 1931 3103 
Q 1466 3103 1228 2742 
Q 991 2381 991 1663 
Q 991 944 1227 581 
Q 1463 219 1931 219 
Q 2303 219 2525 412 
Q 2747 606 2828 997 
L 3291 997 
z
" transform="scale(0.015625)"/>
        <path id="DejaVuSerif-6f" d="M 1925 219 
Q 2388 219 2623 584 
Q 2859 950 2859 1663 
Q 2859 2375 2623 2739 
Q 2388 3103 1925 3103 
Q 1463 3103 1227 2739 
Q 991 2375 991 1663 
Q 991 950 1228 584 
Q 1466 219 1925 219 
z
M 1925 -91 
Q 1200 -91 759 389 
Q 319 869 319 1663 
Q 319 2456 758 2934 
Q 1197 3413 1925 3413 
Q 2653 3413 3092 2934 
Q 3531 2456 3531 1663 
Q 3531 869 3092 389 
Q 2653 -91 1925 -91 
z
" transform="scale(0.015625)"/>
        <path id="DejaVuSerif-6e" d="M 263 0 
L 263 331 
L 781 331 
L 781 2988 
L 231 2988 
L 231 3322 
L 1356 3322 
L 1356 2731 
Q 1516 3069 1770 3241 
Q 2025 3413 2363 3413 
Q 2913 3413 3172 3097 
Q 3431 2781 3431 2113 
L 3431 331 
L 3944 331 
L 3944 0 
L 2356 0 
L 2356 331 
L 2853 331 
L 2853 1931 
Q 2853 2541 2703 2767 
Q 2553 2994 2175 2994 
Q 1775 2994 1565 2701 
Q 1356 2409 1356 1850 
L 1356 331 
L 1856 331 
L 1856 0 
L 263 0 
z
" transform="scale(0.015625)"/>
        <path id="DejaVuSerif-6d" d="M 3316 2675 
Q 3481 3041 3739 3227 
Q 3997 3413 4341 3413 
Q 4863 3413 5119 3089 
Q 5375 2766 5375 2113 
L 5375 331 
L 5894 331 
L 5894 0 
L 4300 0 
L 4300 331 
L 4800 331 
L 4800 2047 
Q 4800 2556 4650 2772 
Q 4500 2988 4153 2988 
Q 3769 2988 3567 2697 
Q 3366 2406 3366 1850 
L 3366 331 
L 3866 331 
L 3866 0 
L 2291 0 
L 2291 331 
L 2791 331 
L 2791 2069 
Q 2791 2566 2641 2777 
Q 2491 2988 2144 2988 
Q 1759 2988 1557 2697 
Q 1356 2406 1356 1850 
L 1356 331 
L 1856 331 
L 1856 0 
L 263 0 
L 263 331 
L 781 331 
L 781 2994 
L 231 2994 
L 231 3322 
L 1356 3322 
L 1356 2731 
Q 1516 3063 1762 3238 
Q 2009 3413 2322 3413 
Q 2709 3413 2968 3220 
Q 3228 3028 3316 2675 
z
" transform="scale(0.015625)"/>
        <path id="DejaVuSerif-69" d="M 622 4353 
Q 622 4497 726 4603 
Q 831 4709 978 4709 
Q 1122 4709 1226 4603 
Q 1331 4497 1331 4353 
Q 1331 4206 1228 4103 
Q 1125 4000 978 4000 
Q 831 4000 726 4103 
Q 622 4206 622 4353 
z
M 1356 331 
L 1900 331 
L 1900 0 
L 231 0 
L 231 331 
L 781 331 
L 781 2988 
L 231 2988 
L 231 3322 
L 1356 3322 
L 1356 331 
z
" transform="scale(0.015625)"/>
        <path id="DejaVuSerif-5f" d="M 3200 -1259 
L 3200 -1509 
L 0 -1509 
L 0 -1259 
L 3200 -1259 
z
" transform="scale(0.015625)"/>
        <path id="DejaVuSerif-76" d="M 1581 0 
L 359 2988 
L -19 2988 
L -19 3322 
L 1509 3322 
L 1509 2988 
L 978 2988 
L 1913 703 
L 2847 2988 
L 2350 2988 
L 2350 3322 
L 3597 3322 
L 3597 2988 
L 3225 2988 
L 2003 0 
L 1581 0 
z
" transform="scale(0.015625)"/>
        <path id="DejaVuSerif-74" d="M 691 2988 
L 184 2988 
L 184 3322 
L 691 3322 
L 691 4353 
L 1269 4353 
L 1269 3322 
L 2350 3322 
L 2350 2988 
L 1269 2988 
L 1269 878 
Q 1269 456 1350 337 
Q 1431 219 1650 219 
Q 1875 219 1978 351 
Q 2081 484 2088 781 
L 2522 781 
Q 2497 328 2275 118 
Q 2053 -91 1600 -91 
Q 1103 -91 897 129 
Q 691 350 691 878 
L 691 2988 
z
" transform="scale(0.015625)"/>
        <path id="DejaVuSerif-61" d="M 2547 1044 
L 2547 1747 
L 1806 1747 
Q 1378 1747 1168 1562 
Q 959 1378 959 997 
Q 959 650 1171 447 
Q 1384 244 1747 244 
Q 2106 244 2326 466 
Q 2547 688 2547 1044 
z
M 3122 2075 
L 3122 331 
L 3634 331 
L 3634 0 
L 2547 0 
L 2547 359 
Q 2356 128 2106 18 
Q 1856 -91 1522 -91 
Q 969 -91 644 203 
Q 319 497 319 997 
Q 319 1513 691 1797 
Q 1063 2081 1741 2081 
L 2547 2081 
L 2547 2309 
Q 2547 2688 2317 2895 
Q 2088 3103 1672 3103 
Q 1328 3103 1125 2947 
Q 922 2791 872 2484 
L 575 2484 
L 575 3156 
Q 875 3284 1158 3348 
Q 1441 3413 1709 3413 
Q 2400 3413 2761 3070 
Q 3122 2728 3122 2075 
z
" transform="scale(0.015625)"/>
        <path id="DejaVuSerif-6c" d="M 1313 331 
L 1856 331 
L 1856 0 
L 184 0 
L 184 331 
L 738 331 
L 738 4531 
L 184 4531 
L 184 4863 
L 1313 4863 
L 1313 331 
z
" transform="scale(0.015625)"/>
        <path id="DejaVuSerif-79" d="M 1381 -609 
L 1600 -56 
L 359 2988 
L -19 2988 
L -19 3322 
L 1509 3322 
L 1509 2988 
L 978 2988 
L 1913 703 
L 2847 2988 
L 2350 2988 
L 2350 3322 
L 3597 3322 
L 3597 2988 
L 3225 2988 
L 1703 -750 
Q 1547 -1138 1356 -1280 
Q 1166 -1422 819 -1422 
Q 672 -1422 517 -1397 
Q 363 -1372 206 -1325 
L 206 -691 
L 500 -691 
Q 519 -903 608 -995 
Q 697 -1088 884 -1088 
Q 1056 -1088 1161 -992 
Q 1266 -897 1381 -609 
z
" transform="scale(0.015625)"/>
       </defs>
       <use xlink:href="#DejaVuSerif-65"/>
       <use xlink:href="#DejaVuSerif-63" transform="translate(59.179688 0)"/>
       <use xlink:href="#DejaVuSerif-6f" transform="translate(115.185547 0)"/>
       <use xlink:href="#DejaVuSerif-6e" transform="translate(175.390625 0)"/>
       <use xlink:href="#DejaVuSerif-6f" transform="translate(239.794922 0)"/>
       <use xlink:href="#DejaVuSerif-6d" transform="translate(300 0)"/>
       <use xlink:href="#DejaVuSerif-69" transform="translate(394.824219 0)"/>
       <use xlink:href="#DejaVuSerif-63" transform="translate(426.806641 0)"/>
       <use xlink:href="#DejaVuSerif-5f" transform="translate(482.8125 0)"/>
       <use xlink:href="#DejaVuSerif-76" transform="translate(532.8125 0)"/>
       <use xlink:href="#DejaVuSerif-69" transform="translate(589.306641 0)"/>
       <use xlink:href="#DejaVuSerif-74" transform="translate(621.289062 0)"/>
       <use xlink:href="#DejaVuSerif-61" transform="translate(661.474609 0)"/>
       <use xlink:href="#DejaVuSerif-6c" transform="translate(721.09375 0)"/>
       <use xlink:href="#DejaVuSerif-69" transform="translate(753.076172 0)"/>
       <use xlink:href="#DejaVuSerif-74" transform="translate(785.058594 0)"/>
       <use xlink:href="#DejaVuSerif-79" transform="translate(825.244141 0)"/>
      </g>
     </g>
    </g>
    <g id="xtick_2">
     <g id="line2d_3">
      <path d="M 191.909182 400.26225 
L 191.909182 23.27025 
" clip-path="url(#p1349f7372b)" style="fill: none; stroke-dasharray: 2.59,1.12; stroke-dashoffset: 0; stroke: #cbd5e1; stroke-opacity: 0.35; stroke-width: 0.7"/>
     </g>
     <g id="line2d_4">
      <g>
       <use xlink:href="#m1fb95f483f" x="191.909182" y="400.26225" style="fill: #475569; stroke: #475569; stroke-width: 0.7"/>
      </g>
     </g>
     <g id="text_2">
      <!-- innovation -->
      <g style="fill: #475569" transform="translate(148.716248 426.891379) rotate(-18) scale(0.084 -0.084)">
       <use xlink:href="#DejaVuSerif-69"/>
       <use xlink:href="#DejaVuSerif-6e" transform="translate(31.982422 0)"/>
       <use xlink:href="#DejaVuSerif-6e" transform="translate(96.386719 0)"/>
       <use xlink:href="#DejaVuSerif-6f" transform="translate(160.791016 0)"/>
       <use xlink:href="#DejaVuSerif-76" transform="translate(220.996094 0)"/>
       <use xlink:href="#DejaVuSerif-61" transform="translate(277.490234 0)"/>
       <use xlink:href="#DejaVuSerif-74" transform="translate(337.109375 0)"/>
       <use xlink:href="#DejaVuSerif-69" transform="translate(377.294922 0)"/>
       <use xlink:href="#DejaVuSerif-6f" transform="translate(409.277344 0)"/>
       <use xlink:href="#DejaVuSerif-6e" transform="translate(469.482422 0)"/>
      </g>
     </g>
    </g>
    <g id="xtick_3">
     <g id="line2d_5">
      <path d="M 286.066399 400.26225 
L 286.066399 23.27025 
" clip-path="url(#p1349f7372b)" style="fill: none; stroke-dasharray: 2.59,1.12; stroke-dashoffset: 0; stroke: #cbd5e1; stroke-opacity: 0.35; stroke-width: 0.7"/>
     </g>
     <g id="line2d_6">
      <g>
       <use xlink:href="#m1fb95f483f" x="286.066399" y="400.26225" style="fill: #475569; stroke: #475569; stroke-width: 0.7"/>
      </g>
     </g>
     <g id="text_3">
      <!-- composite_index -->
      <g style="fill: #475569" transform="translate(218.035759 434.938182) rotate(-18) scale(0.084 -0.084)">
       <defs>
        <path id="DejaVuSerif-70" d="M 1313 1825 
L 1313 1497 
Q 1313 897 1542 583 
Q 1772 269 2209 269 
Q 2650 269 2876 622 
Q 3103 975 3103 1663 
Q 3103 2353 2876 2703 
Q 2650 3053 2209 3053 
Q 1772 3053 1542 2737 
Q 1313 2422 1313 1825 
z
M 738 2988 
L 184 2988 
L 184 3322 
L 1313 3322 
L 1313 2803 
Q 1481 3116 1742 3264 
Q 2003 3413 2388 3413 
Q 3000 3413 3387 2928 
Q 3775 2444 3775 1663 
Q 3775 881 3387 395 
Q 3000 -91 2388 -91 
Q 2003 -91 1742 57 
Q 1481 206 1313 519 
L 1313 -997 
L 1856 -997 
L 1856 -1331 
L 184 -1331 
L 184 -997 
L 738 -997 
L 738 2988 
z
" transform="scale(0.015625)"/>
        <path id="DejaVuSerif-73" d="M 359 184 
L 359 959 
L 691 959 
Q 703 588 923 403 
Q 1144 219 1575 219 
Q 1963 219 2166 364 
Q 2369 509 2369 788 
Q 2369 1006 2220 1140 
Q 2072 1275 1594 1428 
L 1178 1569 
Q 750 1706 558 1912 
Q 366 2119 366 2438 
Q 366 2894 700 3153 
Q 1034 3413 1625 3413 
Q 1888 3413 2178 3344 
Q 2469 3275 2778 3144 
L 2778 2419 
L 2447 2419 
Q 2434 2741 2221 2922 
Q 2009 3103 1644 3103 
Q 1281 3103 1095 2975 
Q 909 2847 909 2591 
Q 909 2381 1050 2254 
Q 1191 2128 1613 1997 
L 2069 1856 
Q 2541 1709 2748 1489 
Q 2956 1269 2956 922 
Q 2956 450 2595 179 
Q 2234 -91 1600 -91 
Q 1278 -91 972 -22 
Q 666 47 359 184 
z
" transform="scale(0.015625)"/>
        <path id="DejaVuSerif-64" d="M 3359 331 
L 3909 331 
L 3909 0 
L 2784 0 
L 2784 519 
Q 2616 206 2355 57 
Q 2094 -91 1709 -91 
Q 1097 -91 708 395 
Q 319 881 319 1663 
Q 319 2444 706 2928 
Q 1094 3413 1709 3413 
Q 2094 3413 2355 3264 
Q 2616 3116 2784 2803 
L 2784 4531 
L 2241 4531 
L 2241 4863 
L 3359 4863 
L 3359 331 
z
M 2784 1497 
L 2784 1825 
Q 2784 2422 2554 2737 
Q 2325 3053 1888 3053 
Q 1444 3053 1217 2703 
Q 991 2353 991 1663 
Q 991 975 1217 622 
Q 1444 269 1888 269 
Q 2325 269 2554 583 
Q 2784 897 2784 1497 
z
" transform="scale(0.015625)"/>
        <path id="DejaVuSerif-78" d="M 1863 2028 
L 2559 2988 
L 2113 2988 
L 2113 3322 
L 3391 3322 
L 3391 2988 
L 2950 2988 
L 2059 1759 
L 3097 331 
L 3531 331 
L 3531 0 
L 1997 0 
L 1997 331 
L 2419 331 
L 1697 1325 
L 972 331 
L 1403 331 
L 1403 0 
L 141 0 
L 141 331 
L 581 331 
L 1497 1594 
L 488 2988 
L 78 2988 
L 78 3322 
L 1563 3322 
L 1563 2988 
L 1166 2988 
L 1863 2028 
z
" transform="scale(0.015625)"/>
       </defs>
       <use xlink:href="#DejaVuSerif-63"/>
       <use xlink:href="#DejaVuSerif-6f" transform="translate(56.005859 0)"/>
       <use xlink:href="#DejaVuSerif-6d" transform="translate(116.210938 0)"/>
       <use xlink:href="#DejaVuSerif-70" transform="translate(211.035156 0)"/>
       <use xlink:href="#DejaVuSerif-6f" transform="translate(275.048828 0)"/>
       <use xlink:href="#DejaVuSerif-73" transform="translate(335.253906 0)"/>
       <use xlink:href="#DejaVuSerif-69" transform="translate(386.572266 0)"/>
       <use xlink:href="#DejaVuSerif-74" transform="translate(418.554688 0)"/>
       <use xlink:href="#DejaVuSerif-65" transform="translate(458.740234 0)"/>
       <use xlink:href="#DejaVuSerif-5f" transform="translate(517.919922 0)"/>
       <use xlink:href="#DejaVuSerif-69" transform="translate(567.919922 0)"/>
       <use xlink:href="#DejaVuSerif-6e" transform="translate(599.902344 0)"/>
       <use xlink:href="#DejaVuSerif-64" transform="translate(664.306641 0)"/>
       <use xlink:href="#DejaVuSerif-65" transform="translate(728.320312 0)"/>
       <use xlink:href="#DejaVuSerif-78" transform="translate(787.5 0)"/>
      </g>
     </g>
    </g>
    <g id="xtick_4">
     <g id="line2d_7">
      <path d="M 380.223616 400.26225 
L 380.223616 23.27025 
" clip-path="url(#p1349f7372b)" style="fill: none; stroke-dasharray: 2.59,1.12; stroke-dashoffset: 0; stroke: #cbd5e1; stroke-opacity: 0.35; stroke-width: 0.7"/>
     </g>
     <g id="line2d_8">
      <g>
       <use xlink:href="#m1fb95f483f" x="380.223616" y="400.26225" style="fill: #475569; stroke: #475569; stroke-width: 0.7"/>
      </g>
     </g>
     <g id="text_4">
      <!-- livability -->
      <g style="fill: #475569" transform="translate(344.755464 424.369453) rotate(-18) scale(0.084 -0.084)">
       <defs>
        <path id="DejaVuSerif-62" d="M 738 331 
L 738 4531 
L 184 4531 
L 184 4863 
L 1313 4863 
L 1313 2803 
Q 1481 3116 1742 3264 
Q 2003 3413 2388 3413 
Q 3000 3413 3387 2928 
Q 3775 2444 3775 1663 
Q 3775 881 3387 395 
Q 3000 -91 2388 -91 
Q 2003 -91 1742 57 
Q 1481 206 1313 519 
L 1313 0 
L 184 0 
L 184 331 
L 738 331 
z
M 1313 1497 
Q 1313 897 1542 583 
Q 1772 269 2209 269 
Q 2650 269 2876 622 
Q 3103 975 3103 1663 
Q 3103 2353 2876 2703 
Q 2650 3053 2209 3053 
Q 1772 3053 1542 2737 
Q 1313 2422 1313 1825 
L 1313 1497 
z
" transform="scale(0.015625)"/>
       </defs>
       <use xlink:href="#DejaVuSerif-6c"/>
       <use xlink:href="#DejaVuSerif-69" transform="translate(31.982422 0)"/>
       <use xlink:href="#DejaVuSerif-76" transform="translate(63.964844 0)"/>
       <use xlink:href="#DejaVuSerif-61" transform="translate(120.458984 0)"/>
       <use xlink:href="#DejaVuSerif-62" transform="translate(180.078125 0)"/>
       <use xlink:href="#DejaVuSerif-69" transform="translate(244.091797 0)"/>
       <use xlink:href="#DejaVuSerif-6c" transform="translate(276.074219 0)"/>
       <use xlink:href="#DejaVuSerif-69" transform="translate(308.056641 0)"/>
       <use xlink:href="#DejaVuSerif-74" transform="translate(340.039062 0)"/>
       <use xlink:href="#DejaVuSerif-79" transform="translate(380.224609 0)"/>
      </g>
     </g>
    </g>
   </g>
   <g id="matplotlib.axis_2">
    <g id="ytick_1">
     <g id="line2d_9">
      <path d="M 46.342125 359.875642 
L 431.633457 359.875642 
" clip-path="url(#p1349f7372b)" style="fill: none; stroke-dasharray: 2.59,1.12; stroke-dashoffset: 0; stroke: #cbd5e1; stroke-opacity: 0.35; stroke-width: 0.7"/>
     </g>
     <g id="line2d_10">
      <defs>
       <path id="m2d8a9870b9" d="M 0 0 
L -3.2 0 
" style="stroke: #475569; stroke-width: 0.7"/>
      </defs>
      <g>
       <use xlink:href="#m2d8a9870b9" x="46.342125" y="359.875642" style="fill: #475569; stroke: #475569; stroke-width: 0.7"/>
      </g>
     </g>
     <g id="text_5">
      <!-- −0.6 -->
      <g style="fill: #475569" transform="translate(19.244563 363.066986) scale(0.084 -0.084)">
       <defs>
        <path id="DejaVuSerif-2212" d="M 678 2259 
L 4684 2259 
L 4684 1753 
L 678 1753 
L 678 2259 
z
" transform="scale(0.015625)"/>
        <path id="DejaVuSerif-30" d="M 2034 219 
Q 2513 219 2750 744 
Q 2988 1269 2988 2328 
Q 2988 3391 2750 3916 
Q 2513 4441 2034 4441 
Q 1556 4441 1318 3916 
Q 1081 3391 1081 2328 
Q 1081 1269 1318 744 
Q 1556 219 2034 219 
z
M 2034 -91 
Q 1275 -91 848 546 
Q 422 1184 422 2328 
Q 422 3475 848 4112 
Q 1275 4750 2034 4750 
Q 2797 4750 3222 4112 
Q 3647 3475 3647 2328 
Q 3647 1184 3222 546 
Q 2797 -91 2034 -91 
z
" transform="scale(0.015625)"/>
        <path id="DejaVuSerif-2e" d="M 603 325 
Q 603 500 722 622 
Q 841 744 1019 744 
Q 1191 744 1312 622 
Q 1434 500 1434 325 
Q 1434 153 1312 31 
Q 1191 -91 1019 -91 
Q 841 -91 722 29 
Q 603 150 603 325 
z
" transform="scale(0.015625)"/>
        <path id="DejaVuSerif-36" d="M 2094 219 
Q 2534 219 2771 542 
Q 3009 866 3009 1472 
Q 3009 2078 2771 2401 
Q 2534 2725 2094 2725 
Q 1647 2725 1412 2412 
Q 1178 2100 1178 1509 
Q 1178 888 1415 553 
Q 1653 219 2094 219 
z
M 1075 2569 
Q 1288 2803 1556 2918 
Q 1825 3034 2163 3034 
Q 2859 3034 3264 2615 
Q 3669 2197 3669 1472 
Q 3669 763 3233 336 
Q 2797 -91 2069 -91 
Q 1278 -91 853 498 
Q 428 1088 428 2181 
Q 428 3406 931 4078 
Q 1434 4750 2350 4750 
Q 2597 4750 2869 4703 
Q 3141 4656 3425 4563 
L 3425 3794 
L 3072 3794 
Q 3034 4109 2831 4275 
Q 2628 4441 2284 4441 
Q 1678 4441 1381 3981 
Q 1084 3522 1075 2569 
z
" transform="scale(0.015625)"/>
       </defs>
       <use xlink:href="#DejaVuSerif-2212"/>
       <use xlink:href="#DejaVuSerif-30" transform="translate(83.789062 0)"/>
       <use xlink:href="#DejaVuSerif-2e" transform="translate(147.412109 0)"/>
       <use xlink:href="#DejaVuSerif-36" transform="translate(179.199219 0)"/>
      </g>
     </g>
    </g>
    <g id="ytick_2">
     <g id="line2d_11">
      <path d="M 46.342125 294.311321 
L 431.633457 294.311321 
" clip-path="url(#p1349f7372b)" style="fill: none; stroke-dasharray: 2.59,1.12; stroke-dashoffset: 0; stroke: #cbd5e1; stroke-opacity: 0.35; stroke-width: 0.7"/>
     </g>
     <g id="line2d_12">
      <g>
       <use xlink:href="#m2d8a9870b9" x="46.342125" y="294.311321" style="fill: #475569; stroke: #475569; stroke-width: 0.7"/>
      </g>
     </g>
     <g id="text_6">
      <!-- −0.4 -->
      <g style="fill: #475569" transform="translate(19.244563 297.502665) scale(0.084 -0.084)">
       <defs>
        <path id="DejaVuSerif-34" d="M 2234 1581 
L 2234 4063 
L 641 1581 
L 2234 1581 
z
M 3609 0 
L 1484 0 
L 1484 331 
L 2234 331 
L 2234 1247 
L 197 1247 
L 197 1588 
L 2241 4750 
L 2859 4750 
L 2859 1581 
L 3750 1581 
L 3750 1247 
L 2859 1247 
L 2859 331 
L 3609 331 
L 3609 0 
z
" transform="scale(0.015625)"/>
       </defs>
       <use xlink:href="#DejaVuSerif-2212"/>
       <use xlink:href="#DejaVuSerif-30" transform="translate(83.789062 0)"/>
       <use xlink:href="#DejaVuSerif-2e" transform="translate(147.412109 0)"/>
       <use xlink:href="#DejaVuSerif-34" transform="translate(179.199219 0)"/>
      </g>
     </g>
    </g>
    <g id="ytick_3">
     <g id="line2d_13">
      <path d="M 46.342125 228.747 
L 431.633457 228.747 
" clip-path="url(#p1349f7372b)" style="fill: none; stroke-dasharray: 2.59,1.12; stroke-dashoffset: 0; stroke: #cbd5e1; stroke-opacity: 0.35; stroke-width: 0.7"/>
     </g>
     <g id="line2d_14">
      <g>
       <use xlink:href="#m2d8a9870b9" x="46.342125" y="228.747" style="fill: #475569; stroke: #475569; stroke-width: 0.7"/>
      </g>
     </g>
     <g id="text_7">
      <!-- −0.2 -->
      <g style="fill: #475569" transform="translate(19.244563 231.938344) scale(0.084 -0.084)">
       <defs>
        <path id="DejaVuSerif-32" d="M 819 3553 
L 469 3553 
L 469 4384 
Q 803 4563 1142 4656 
Q 1481 4750 1806 4750 
Q 2534 4750 2956 4397 
Q 3378 4044 3378 3438 
Q 3378 2753 2422 1800 
Q 2347 1728 2309 1691 
L 1131 513 
L 3078 513 
L 3078 1088 
L 3444 1088 
L 3444 0 
L 434 0 
L 434 341 
L 1850 1753 
Q 2319 2222 2519 2614 
Q 2719 3006 2719 3438 
Q 2719 3909 2473 4175 
Q 2228 4441 1797 4441 
Q 1350 4441 1106 4219 
Q 863 3997 819 3553 
z
" transform="scale(0.015625)"/>
       </defs>
       <use xlink:href="#DejaVuSerif-2212"/>
       <use xlink:href="#DejaVuSerif-30" transform="translate(83.789062 0)"/>
       <use xlink:href="#DejaVuSerif-2e" transform="translate(147.412109 0)"/>
       <use xlink:href="#DejaVuSerif-32" transform="translate(179.199219 0)"/>
      </g>
     </g>
    </g>
    <g id="ytick_4">
     <g id="line2d_15">
      <path d="M 46.342125 163.182679 
L 431.633457 163.182679 
" clip-path="url(#p1349f7372b)" style="fill: none; stroke-dasharray: 2.59,1.12; stroke-dashoffset: 0; stroke: #cbd5e1; stroke-opacity: 0.35; stroke-width: 0.7"/>
     </g>
     <g id="line2d_16">
      <g>
       <use xlink:href="#m2d8a9870b9" x="46.342125" y="163.182679" style="fill: #475569; stroke: #475569; stroke-width: 0.7"/>
      </g>
     </g>
     <g id="text_8">
      <!-- 0.0 -->
      <g style="fill: #475569" transform="translate(26.2835 166.374023) scale(0.084 -0.084)">
       <use xlink:href="#DejaVuSerif-30"/>
       <use xlink:href="#DejaVuSerif-2e" transform="translate(63.623047 0)"/>
       <use xlink:href="#DejaVuSerif-30" transform="translate(95.410156 0)"/>
      </g>
     </g>
    </g>
    <g id="ytick_5">
     <g id="line2d_17">
      <path d="M 46.342125 97.618358 
L 431.633457 97.618358 
" clip-path="url(#p1349f7372b)" style="fill: none; stroke-dasharray: 2.59,1.12; stroke-dashoffset: 0; stroke: #cbd5e1; stroke-opacity: 0.35; stroke-width: 0.7"/>
     </g>
     <g id="line2d_18">
      <g>
       <use xlink:href="#m2d8a9870b9" x="46.342125" y="97.618358" style="fill: #475569; stroke: #475569; stroke-width: 0.7"/>
      </g>
     </g>
     <g id="text_9">
      <!-- 0.2 -->
      <g style="fill: #475569" transform="translate(26.2835 100.809702) scale(0.084 -0.084)">
       <use xlink:href="#DejaVuSerif-30"/>
       <use xlink:href="#DejaVuSerif-2e" transform="translate(63.623047 0)"/>
       <use xlink:href="#DejaVuSerif-32" transform="translate(95.410156 0)"/>
      </g>
     </g>
    </g>
    <g id="ytick_6">
     <g id="line2d_19">
      <path d="M 46.342125 32.054037 
L 431.633457 32.054037 
" clip-path="url(#p1349f7372b)" style="fill: none; stroke-dasharray: 2.59,1.12; stroke-dashoffset: 0; stroke: #cbd5e1; stroke-opacity: 0.35; stroke-width: 0.7"/>
     </g>
     <g id="line2d_20">
      <g>
       <use xlink:href="#m2d8a9870b9" x="46.342125" y="32.054037" style="fill: #475569; stroke: #475569; stroke-width: 0.7"/>
      </g>
     </g>
     <g id="text_10">
      <!-- 0.4 -->
      <g style="fill: #475569" transform="translate(26.2835 35.24538) scale(0.084 -0.084)">
       <use xlink:href="#DejaVuSerif-30"/>
       <use xlink:href="#DejaVuSerif-2e" transform="translate(63.623047 0)"/>
       <use xlink:href="#DejaVuSerif-34" transform="translate(95.410156 0)"/>
      </g>
     </g>
    </g>
    <g id="text_11">
     <!-- Effect -->
     <g style="fill: #0f172a" transform="translate(13.206469 226.584156) rotate(-90) scale(0.098 -0.098)">
      <defs>
       <path id="DejaVuSerif-45" d="M 353 0 
L 353 331 
L 947 331 
L 947 4331 
L 353 4331 
L 353 4666 
L 4109 4666 
L 4109 3628 
L 3725 3628 
L 3725 4281 
L 1581 4281 
L 1581 2719 
L 3109 2719 
L 3109 3303 
L 3494 3303 
L 3494 1753 
L 3109 1753 
L 3109 2338 
L 1581 2338 
L 1581 384 
L 3775 384 
L 3775 1038 
L 4159 1038 
L 4159 0 
L 353 0 
z
" transform="scale(0.015625)"/>
       <path id="DejaVuSerif-66" d="M 2753 4078 
L 2450 4078 
Q 2447 4313 2317 4434 
Q 2188 4556 1941 4556 
Q 1619 4556 1487 4379 
Q 1356 4203 1356 3750 
L 1356 3322 
L 2284 3322 
L 2284 2988 
L 1356 2988 
L 1356 331 
L 2094 331 
L 2094 0 
L 231 0 
L 231 331 
L 781 331 
L 781 2988 
L 231 2988 
L 231 3322 
L 781 3322 
L 781 3738 
Q 781 4294 1070 4578 
Q 1359 4863 1919 4863 
Q 2128 4863 2337 4825 
Q 2547 4788 2753 4709 
L 2753 4078 
z
" transform="scale(0.015625)"/>
      </defs>
      <use xlink:href="#DejaVuSerif-45"/>
      <use xlink:href="#DejaVuSerif-66" transform="translate(72.998047 0)"/>
      <use xlink:href="#DejaVuSerif-66" transform="translate(110.009766 0)"/>
      <use xlink:href="#DejaVuSerif-65" transform="translate(147.021484 0)"/>
      <use xlink:href="#DejaVuSerif-63" transform="translate(206.201172 0)"/>
      <use xlink:href="#DejaVuSerif-74" transform="translate(262.207031 0)"/>
     </g>
    </g>
   </g>
   <g id="patch_3">
    <path d="M 63.855367 163.182679 
L 97.751965 163.182679 
L 97.751965 204.897992 
L 63.855367 204.897992 
z
" clip-path="url(#p1349f7372b)" style="fill: #cbd5e1; opacity: 0.86"/>
   </g>
   <g id="patch_4">
    <path d="M 158.012584 163.182679 
L 191.909182 163.182679 
L 191.909182 180.710275 
L 158.012584 180.710275 
z
" clip-path="url(#p1349f7372b)" style="fill: #cbd5e1; opacity: 0.86"/>
   </g>
   <g id="patch_5">
    <path d="M 252.169801 163.182679 
L 286.066399 163.182679 
L 286.066399 155.239374 
L 252.169801 155.239374 
z
" clip-path="url(#p1349f7372b)" style="fill: #cbd5e1; opacity: 0.86"/>
   </g>
   <g id="patch_6">
    <path d="M 346.327018 163.182679 
L 380.223616 163.182679 
L 380.223616 76.83778 
L 346.327018 76.83778 
z
" clip-path="url(#p1349f7372b)" style="fill: #cbd5e1; opacity: 0.86"/>
   </g>
   <g id="patch_7">
    <path d="M 97.751965 163.182679 
L 131.648564 163.182679 
L 131.648564 40.40625 
L 97.751965 40.40625 
z
" clip-path="url(#p1349f7372b)" style="fill: #365a9b; opacity: 0.86"/>
   </g>
   <g id="patch_8">
    <path d="M 191.909182 163.182679 
L 225.805781 163.182679 
L 225.805781 134.75436 
L 191.909182 134.75436 
z
" clip-path="url(#p1349f7372b)" style="fill: #365a9b; opacity: 0.86"/>
   </g>
   <g id="patch_9">
    <path d="M 286.066399 163.182679 
L 319.962998 163.182679 
L 319.962998 179.227872 
L 286.066399 179.227872 
z
" clip-path="url(#p1349f7372b)" style="fill: #365a9b; opacity: 0.86"/>
   </g>
   <g id="patch_10">
    <path d="M 380.223616 163.182679 
L 414.120215 163.182679 
L 414.120215 383.12625 
L 380.223616 383.12625 
z
" clip-path="url(#p1349f7372b)" style="fill: #365a9b; opacity: 0.86"/>
   </g>
   <g id="line2d_21">
    <path d="M 46.342125 163.182679 
L 431.633457 163.182679 
" clip-path="url(#p1349f7372b)" style="fill: none; stroke: #0f172a; stroke-linecap: square"/>
   </g>
   <g id="patch_11">
    <path d="M 46.342125 400.26225 
L 46.342125 23.27025 
" style="fill: none; stroke: #cbd5e1; stroke-width: 0.8; stroke-linejoin: miter; stroke-linecap: square"/>
   </g>
   <g id="patch_12">
    <path d="M 46.342125 400.26225 
L 431.633457 400.26225 
" style="fill: none; stroke: #cbd5e1; stroke-width: 0.8; stroke-linejoin: miter; stroke-linecap: square"/>
   </g>
   <g id="text_12">
    <!-- Channel Effects: Pre vs Post Shock -->
    <g style="fill: #0f172a" transform="translate(46.342125 14.27025) scale(0.112 -0.112)">
     <defs>
      <path id="DejaVuSerif-Bold-43" d="M 4769 1331 
Q 4584 609 4106 259 
Q 3628 -91 2822 -91 
Q 1641 -91 955 561 
Q 269 1213 269 2328 
Q 269 3447 955 4098 
Q 1641 4750 2822 4750 
Q 3238 4750 3688 4650 
Q 4138 4550 4641 4347 
L 4641 3200 
L 4244 3200 
Q 4122 3788 3800 4080 
Q 3478 4372 2950 4372 
Q 2269 4372 1937 3870 
Q 1606 3369 1606 2328 
Q 1606 1288 1937 788 
Q 2269 288 2956 288 
Q 3422 288 3717 547 
Q 4013 806 4147 1331 
L 4769 1331 
z
" transform="scale(0.015625)"/>
      <path id="DejaVuSerif-Bold-68" d="M 219 0 
L 219 378 
L 691 378 
L 691 4488 
L 197 4488 
L 197 4863 
L 1797 4863 
L 1797 2853 
Q 1997 3150 2253 3281 
Q 2509 3413 2900 3413 
Q 3459 3413 3745 3083 
Q 4031 2753 4031 2113 
L 4031 378 
L 4506 378 
L 4506 0 
L 2522 0 
L 2522 378 
L 2925 378 
L 2925 2144 
Q 2925 2566 2817 2730 
Q 2709 2894 2444 2894 
Q 2109 2894 1953 2648 
Q 1797 2403 1797 1869 
L 1797 378 
L 2203 378 
L 2203 0 
L 219 0 
z
" transform="scale(0.015625)"/>
      <path id="DejaVuSerif-Bold-61" d="M 3525 2041 
L 3525 378 
L 4000 378 
L 4000 0 
L 2419 0 
L 2419 422 
Q 2200 159 1931 34 
Q 1663 -91 1319 -91 
Q 809 -91 536 182 
Q 263 456 263 966 
Q 263 1525 655 1803 
Q 1047 2081 1838 2081 
L 2419 2081 
L 2419 2278 
Q 2419 2681 2228 2873 
Q 2038 3066 1638 3066 
Q 1306 3066 1126 2930 
Q 947 2794 872 2484 
L 519 2484 
L 519 3200 
Q 816 3306 1134 3359 
Q 1453 3413 1806 3413 
Q 2697 3413 3111 3081 
Q 3525 2750 3525 2041 
z
M 2419 1044 
L 2419 1709 
L 2003 1709 
Q 1694 1709 1528 1540 
Q 1363 1372 1363 1056 
Q 1363 741 1483 584 
Q 1603 428 1850 428 
Q 2106 428 2262 597 
Q 2419 766 2419 1044 
z
" transform="scale(0.015625)"/>
      <path id="DejaVuSerif-Bold-6e" d="M 219 0 
L 219 378 
L 691 378 
L 691 2944 
L 219 2944 
L 219 3322 
L 1797 3322 
L 1797 2853 
Q 1997 3150 2253 3281 
Q 2509 3413 2900 3413 
Q 3459 3413 3745 3083 
Q 4031 2753 4031 2113 
L 4031 378 
L 4506 378 
L 4506 0 
L 2522 0 
L 2522 378 
L 2925 378 
L 2925 2144 
Q 2925 2566 2817 2730 
Q 2709 2894 2444 2894 
Q 2109 2894 1953 2648 
Q 1797 2403 1797 1869 
L 1797 378 
L 2203 378 
L 2203 0 
L 219 0 
z
" transform="scale(0.015625)"/>
      <path id="DejaVuSerif-Bold-65" d="M 2566 1875 
Q 2566 2531 2444 2795 
Q 2322 3059 2028 3059 
Q 1744 3059 1620 2800 
Q 1497 2541 1497 1931 
L 1497 1875 
L 2566 1875 
z
M 3781 1503 
L 1497 1503 
L 1497 1478 
Q 1497 834 1690 548 
Q 1884 263 2316 263 
Q 2675 263 2897 453 
Q 3119 644 3181 1006 
L 3700 1006 
Q 3566 441 3166 175 
Q 2766 -91 2047 -91 
Q 1184 -91 723 364 
Q 263 819 263 1663 
Q 263 2488 734 2950 
Q 1206 3413 2047 3413 
Q 2872 3413 3312 2927 
Q 3753 2441 3781 1503 
z
" transform="scale(0.015625)"/>
      <path id="DejaVuSerif-Bold-6c" d="M 1797 378 
L 2272 378 
L 2272 0 
L 219 0 
L 219 378 
L 691 378 
L 691 4488 
L 219 4488 
L 219 4863 
L 1797 4863 
L 1797 378 
z
" transform="scale(0.015625)"/>
      <path id="DejaVuSerif-Bold-20" transform="scale(0.015625)"/>
      <path id="DejaVuSerif-Bold-45" d="M 300 0 
L 300 378 
L 897 378 
L 897 4288 
L 300 4288 
L 300 4666 
L 4494 4666 
L 4494 3566 
L 4063 3566 
L 4063 4238 
L 2100 4238 
L 2100 2741 
L 3322 2741 
L 3322 3334 
L 3750 3334 
L 3750 1722 
L 3322 1722 
L 3322 2316 
L 2100 2316 
L 2100 428 
L 4122 428 
L 4122 1100 
L 4550 1100 
L 4550 0 
L 300 0 
z
" transform="scale(0.015625)"/>
      <path id="DejaVuSerif-Bold-66" d="M 3097 4031 
L 2747 4031 
Q 2722 4275 2605 4394 
Q 2488 4513 2272 4513 
Q 2022 4513 1909 4333 
Q 1797 4153 1797 3750 
L 1797 3322 
L 2631 3322 
L 2631 2944 
L 1797 2944 
L 1797 378 
L 2438 378 
L 2438 0 
L 219 0 
L 219 378 
L 691 378 
L 691 2944 
L 197 2944 
L 197 3322 
L 691 3322 
L 691 3738 
Q 691 4291 1044 4577 
Q 1397 4863 2081 4863 
Q 2347 4863 2600 4833 
Q 2853 4803 3097 4744 
L 3097 4031 
z
" transform="scale(0.015625)"/>
      <path id="DejaVuSerif-Bold-63" d="M 3609 1038 
Q 3491 469 3123 189 
Q 2756 -91 2125 -91 
Q 1238 -91 750 368 
Q 263 828 263 1663 
Q 263 2488 744 2950 
Q 1225 3413 2081 3413 
Q 2428 3413 2781 3347 
Q 3134 3281 3500 3150 
L 3500 2228 
L 3150 2228 
Q 3100 2650 2903 2854 
Q 2706 3059 2350 3059 
Q 1888 3059 1692 2746 
Q 1497 2434 1497 1663 
Q 1497 909 1687 586 
Q 1878 263 2309 263 
Q 2644 263 2845 463 
Q 3047 663 3091 1038 
L 3609 1038 
z
" transform="scale(0.015625)"/>
      <path id="DejaVuSerif-Bold-74" d="M 634 2944 
L 153 2944 
L 153 3322 
L 634 3322 
L 634 4353 
L 1741 4353 
L 1741 3322 
L 2663 3322 
L 2663 2944 
L 1741 2944 
L 1741 909 
Q 1741 475 1809 369 
Q 1878 263 2059 263 
Q 2259 263 2356 397 
Q 2453 531 2459 813 
L 2925 813 
Q 2897 313 2651 111 
Q 2406 -91 1806 -91 
Q 1122 -91 878 123 
Q 634 338 634 909 
L 634 2944 
z
" transform="scale(0.015625)"/>
      <path id="DejaVuSerif-Bold-73" d="M 300 97 
L 300 1025 
L 653 1025 
Q 697 653 931 458 
Q 1166 263 1569 263 
Q 1906 263 2086 380 
Q 2266 497 2266 716 
Q 2266 916 2152 1025 
Q 2038 1134 1709 1216 
L 1253 1331 
Q 738 1459 506 1698 
Q 275 1938 275 2344 
Q 275 2884 650 3148 
Q 1025 3413 1806 3413 
Q 2100 3413 2433 3364 
Q 2766 3316 3169 3213 
L 3169 2375 
L 2816 2375 
Q 2788 2716 2573 2887 
Q 2359 3059 1959 3059 
Q 1622 3059 1448 2951 
Q 1275 2844 1275 2638 
Q 1275 2469 1375 2372 
Q 1475 2275 1734 2209 
L 2188 2094 
Q 2841 1928 3091 1684 
Q 3341 1441 3341 1006 
Q 3341 444 2939 176 
Q 2538 -91 1691 -91 
Q 1381 -91 1034 -44 
Q 688 3 300 97 
z
" transform="scale(0.015625)"/>
      <path id="DejaVuSerif-Bold-3a" d="M 588 2541 
Q 588 2788 761 2963 
Q 934 3138 1178 3138 
Q 1422 3138 1597 2961 
Q 1772 2784 1772 2541 
Q 1772 2297 1598 2125 
Q 1425 1953 1178 1953 
Q 931 1953 759 2125 
Q 588 2297 588 2541 
z
M 588 506 
Q 588 750 761 925 
Q 934 1100 1178 1100 
Q 1422 1100 1597 925 
Q 1772 750 1772 506 
Q 1772 259 1597 84 
Q 1422 -91 1178 -91 
Q 934 -91 761 84 
Q 588 259 588 506 
z
" transform="scale(0.015625)"/>
      <path id="DejaVuSerif-Bold-50" d="M 300 0 
L 300 378 
L 897 378 
L 897 4288 
L 300 4288 
L 300 4666 
L 2956 4666 
Q 3734 4666 4193 4295 
Q 4653 3925 4653 3303 
Q 4653 2678 4192 2304 
Q 3731 1931 2956 1931 
L 2100 1931 
L 2100 378 
L 2853 378 
L 2853 0 
L 300 0 
z
M 2100 2309 
L 2450 2309 
Q 2856 2309 3098 2579 
Q 3341 2850 3341 3303 
Q 3341 3753 3100 4020 
Q 2859 4288 2450 4288 
L 2100 4288 
L 2100 2309 
z
" transform="scale(0.015625)"/>
      <path id="DejaVuSerif-Bold-72" d="M 3438 3359 
L 3438 2369 
L 3084 2369 
Q 3066 2634 2941 2764 
Q 2816 2894 2578 2894 
Q 2216 2894 2006 2575 
Q 1797 2256 1797 1691 
L 1797 378 
L 2400 378 
L 2400 0 
L 219 0 
L 219 378 
L 691 378 
L 691 2944 
L 184 2944 
L 184 3322 
L 1797 3322 
L 1797 2731 
Q 1959 3078 2226 3245 
Q 2494 3413 2881 3413 
Q 2978 3413 3117 3398 
Q 3256 3384 3438 3359 
z
" transform="scale(0.015625)"/>
      <path id="DejaVuSerif-Bold-76" d="M 1428 0 
L 250 2944 
L -116 2944 
L -116 3322 
L 1791 3322 
L 1791 2944 
L 1388 2944 
L 2228 844 
L 3066 2944 
L 2631 2944 
L 2631 3322 
L 3878 3322 
L 3878 2944 
L 3494 2944 
L 2316 0 
L 1428 0 
z
" transform="scale(0.015625)"/>
      <path id="DejaVuSerif-Bold-6f" d="M 2138 263 
Q 2488 263 2630 563 
Q 2772 863 2772 1663 
Q 2772 2463 2631 2761 
Q 2491 3059 2138 3059 
Q 1784 3059 1640 2757 
Q 1497 2456 1497 1663 
Q 1497 869 1640 566 
Q 1784 263 2138 263 
z
M 2138 -91 
Q 1259 -91 761 376 
Q 263 844 263 1663 
Q 263 2484 761 2948 
Q 1259 3413 2138 3413 
Q 3019 3413 3516 2948 
Q 4013 2484 4013 1663 
Q 4013 844 3514 376 
Q 3016 -91 2138 -91 
z
" transform="scale(0.015625)"/>
      <path id="DejaVuSerif-Bold-53" d="M 494 225 
L 494 1331 
L 891 1331 
Q 981 806 1318 547 
Q 1656 288 2253 288 
Q 2738 288 2991 472 
Q 3244 656 3244 1013 
Q 3244 1294 3072 1450 
Q 2900 1606 2363 1741 
L 1663 1913 
Q 978 2088 700 2398 
Q 422 2709 422 3284 
Q 422 3978 883 4364 
Q 1344 4750 2175 4750 
Q 2584 4750 3026 4681 
Q 3469 4613 3944 4475 
L 3944 3444 
L 3547 3444 
Q 3456 3925 3150 4148 
Q 2844 4372 2278 4372 
Q 1816 4372 1580 4211 
Q 1344 4050 1344 3731 
Q 1344 3441 1506 3289 
Q 1669 3138 2303 2975 
L 3003 2803 
Q 3653 2641 3945 2297 
Q 4238 1953 4238 1350 
Q 4238 644 3750 276 
Q 3263 -91 2316 -91 
Q 1859 -91 1409 -12 
Q 959 66 494 225 
z
" transform="scale(0.015625)"/>
      <path id="DejaVuSerif-Bold-6b" d="M 2216 0 
L 219 0 
L 219 378 
L 691 378 
L 691 4488 
L 219 4488 
L 219 4863 
L 1797 4863 
L 1797 1741 
L 3138 2944 
L 2741 2944 
L 2741 3322 
L 4256 3322 
L 4256 2944 
L 3641 2944 
L 2784 2175 
L 4184 378 
L 4544 378 
L 4544 0 
L 2638 0 
L 2638 378 
L 3028 378 
L 2106 1563 
L 1797 1288 
L 1797 378 
L 2216 378 
L 2216 0 
z
" transform="scale(0.015625)"/>
     </defs>
     <use xlink:href="#DejaVuSerif-Bold-43"/>
     <use xlink:href="#DejaVuSerif-Bold-68" transform="translate(79.589844 0)"/>
     <use xlink:href="#DejaVuSerif-Bold-61" transform="translate(152.294922 0)"/>
     <use xlink:href="#DejaVuSerif-Bold-6e" transform="translate(217.089844 0)"/>
     <use xlink:href="#DejaVuSerif-Bold-6e" transform="translate(289.794922 0)"/>
     <use xlink:href="#DejaVuSerif-Bold-65" transform="translate(362.5 0)"/>
     <use xlink:href="#DejaVuSerif-Bold-6c" transform="translate(426.123047 0)"/>
     <use xlink:href="#DejaVuSerif-Bold-20" transform="translate(464.111328 0)"/>
     <use xlink:href="#DejaVuSerif-Bold-45" transform="translate(498.925781 0)"/>
     <use xlink:href="#DejaVuSerif-Bold-66" transform="translate(575.146484 0)"/>
     <use xlink:href="#DejaVuSerif-Bold-66" transform="translate(618.164062 0)"/>
     <use xlink:href="#DejaVuSerif-Bold-65" transform="translate(661.181641 0)"/>
     <use xlink:href="#DejaVuSerif-Bold-63" transform="translate(724.804688 0)"/>
     <use xlink:href="#DejaVuSerif-Bold-74" transform="translate(785.693359 0)"/>
     <use xlink:href="#DejaVuSerif-Bold-73" transform="translate(831.884766 0)"/>
     <use xlink:href="#DejaVuSerif-Bold-3a" transform="translate(888.183594 0)"/>
     <use xlink:href="#DejaVuSerif-Bold-20" transform="translate(925.097656 0)"/>
     <use xlink:href="#DejaVuSerif-Bold-50" transform="translate(959.912109 0)"/>
     <use xlink:href="#DejaVuSerif-Bold-72" transform="translate(1035.107422 0)"/>
     <use xlink:href="#DejaVuSerif-Bold-65" transform="translate(1087.792969 0)"/>
     <use xlink:href="#DejaVuSerif-Bold-20" transform="translate(1151.416016 0)"/>
     <use xlink:href="#DejaVuSerif-Bold-76" transform="translate(1186.230469 0)"/>
     <use xlink:href="#DejaVuSerif-Bold-73" transform="translate(1244.335938 0)"/>
     <use xlink:href="#DejaVuSerif-Bold-20" transform="translate(1300.634766 0)"/>
     <use xlink:href="#DejaVuSerif-Bold-50" transform="translate(1335.449219 0)"/>
     <use xlink:href="#DejaVuSerif-Bold-6f" transform="translate(1408.019531 0)"/>
     <use xlink:href="#DejaVuSerif-Bold-73" transform="translate(1474.71875 0)"/>
     <use xlink:href="#DejaVuSerif-Bold-74" transform="translate(1531.017578 0)"/>
     <use xlink:href="#DejaVuSerif-Bold-20" transform="translate(1577.208984 0)"/>
     <use xlink:href="#DejaVuSerif-Bold-53" transform="translate(1612.023438 0)"/>
     <use xlink:href="#DejaVuSerif-Bold-68" transform="translate(1684.240234 0)"/>
     <use xlink:href="#DejaVuSerif-Bold-6f" transform="translate(1756.945312 0)"/>
     <use xlink:href="#DejaVuSerif-Bold-63" transform="translate(1823.644531 0)"/>
     <use xlink:href="#DejaVuSerif-Bold-6b" transform="translate(1884.533203 0)"/>
    </g>
   </g>
   <g id="legend_1">
    <g id="patch_13">
     <path d="M 360.048457 36.549 
L 376.048457 36.549 
L 376.048457 30.949 
L 360.048457 30.949 
z
" style="fill: #cbd5e1; opacity: 0.86"/>
    </g>
    <g id="text_13">
     <!-- Pre mean -->
     <g style="fill: #0f172a" transform="translate(382.448457 36.549) scale(0.08 -0.08)">
      <defs>
       <path id="DejaVuSerif-50" d="M 1581 2375 
L 2406 2375 
Q 2872 2375 3115 2626 
Q 3359 2878 3359 3353 
Q 3359 3831 3115 4081 
Q 2872 4331 2406 4331 
L 1581 4331 
L 1581 2375 
z
M 353 0 
L 353 331 
L 947 331 
L 947 4331 
L 353 4331 
L 353 4666 
L 2559 4666 
Q 3259 4666 3668 4311 
Q 4078 3956 4078 3353 
Q 4078 2753 3668 2397 
Q 3259 2041 2559 2041 
L 1581 2041 
L 1581 331 
L 2303 331 
L 2303 0 
L 353 0 
z
" transform="scale(0.015625)"/>
       <path id="DejaVuSerif-72" d="M 3059 3328 
L 3059 2497 
L 2728 2497 
Q 2713 2744 2591 2866 
Q 2469 2988 2234 2988 
Q 1809 2988 1582 2694 
Q 1356 2400 1356 1850 
L 1356 331 
L 2022 331 
L 2022 0 
L 263 0 
L 263 331 
L 781 331 
L 781 2994 
L 231 2994 
L 231 3322 
L 1356 3322 
L 1356 2731 
Q 1525 3078 1790 3245 
Q 2056 3413 2438 3413 
Q 2578 3413 2733 3391 
Q 2888 3369 3059 3328 
z
" transform="scale(0.015625)"/>
       <path id="DejaVuSerif-20" transform="scale(0.015625)"/>
      </defs>
      <use xlink:href="#DejaVuSerif-50"/>
      <use xlink:href="#DejaVuSerif-72" transform="translate(67.285156 0)"/>
      <use xlink:href="#DejaVuSerif-65" transform="translate(115.087891 0)"/>
      <use xlink:href="#DejaVuSerif-20" transform="translate(174.267578 0)"/>
      <use xlink:href="#DejaVuSerif-6d" transform="translate(206.054688 0)"/>
      <use xlink:href="#DejaVuSerif-65" transform="translate(300.878906 0)"/>
      <use xlink:href="#DejaVuSerif-61" transform="translate(360.058594 0)"/>
      <use xlink:href="#DejaVuSerif-6e" transform="translate(419.677734 0)"/>
     </g>
    </g>
    <g id="patch_14">
     <path d="M 360.048457 48.2915 
L 376.048457 48.2915 
L 376.048457 42.6915 
L 360.048457 42.6915 
z
" style="fill: #365a9b; opacity: 0.86"/>
    </g>
    <g id="text_14">
     <!-- Post mean -->
     <g style="fill: #0f172a" transform="translate(382.448457 48.2915) scale(0.08 -0.08)">
      <use xlink:href="#DejaVuSerif-50"/>
      <use xlink:href="#DejaVuSerif-6f" transform="translate(63.285156 0)"/>
      <use xlink:href="#DejaVuSerif-73" transform="translate(123.490234 0)"/>
      <use xlink:href="#DejaVuSerif-74" transform="translate(174.808594 0)"/>
      <use xlink:href="#DejaVuSerif-20" transform="translate(214.994141 0)"/>
      <use xlink:href="#DejaVuSerif-6d" transform="translate(246.78125 0)"/>
      <use xlink:href="#DejaVuSerif-65" transform="translate(341.605469 0)"/>
      <use xlink:href="#DejaVuSerif-61" transform="translate(400.785156 0)"/>
      <use xlink:href="#DejaVuSerif-6e" transform="translate(460.404297 0)"/>
     </g>
    </g>
   </g>
  </g>
  <g id="axes_2">
   <g id="patch_15">
    <path d="M 503.666184 400.26225 
L 838.702125 400.26225 
L 838.702125 23.27025 
L 503.666184 23.27025 
z
" style="fill: #ffffff"/>
   </g>
   <g id="matplotlib.axis_3">
    <g id="xtick_5">
     <g id="line2d_22">
      <path d="M 548.370393 400.26225 
L 548.370393 23.27025 
" clip-path="url(#p98b4b16634)" style="fill: none; stroke-dasharray: 2.59,1.12; stroke-dashoffset: 0; stroke: #cbd5e1; stroke-opacity: 0.35; stroke-width: 0.7"/>
     </g>
     <g id="line2d_23">
      <g>
       <use xlink:href="#m1fb95f483f" x="548.370393" y="400.26225" style="fill: #475569; stroke: #475569; stroke-width: 0.7"/>
      </g>
     </g>
     <g id="text_15">
      <!-- economic_vitality -->
      <g style="fill: #475569" transform="translate(477.315215 435.920914) rotate(-18) scale(0.084 -0.084)">
       <use xlink:href="#DejaVuSerif-65"/>
       <use xlink:href="#DejaVuSerif-63" transform="translate(59.179688 0)"/>
       <use xlink:href="#DejaVuSerif-6f" transform="translate(115.185547 0)"/>
       <use xlink:href="#DejaVuSerif-6e" transform="translate(175.390625 0)"/>
       <use xlink:href="#DejaVuSerif-6f" transform="translate(239.794922 0)"/>
       <use xlink:href="#DejaVuSerif-6d" transform="translate(300 0)"/>
       <use xlink:href="#DejaVuSerif-69" transform="translate(394.824219 0)"/>
       <use xlink:href="#DejaVuSerif-63" transform="translate(426.806641 0)"/>
       <use xlink:href="#DejaVuSerif-5f" transform="translate(482.8125 0)"/>
       <use xlink:href="#DejaVuSerif-76" transform="translate(532.8125 0)"/>
       <use xlink:href="#DejaVuSerif-69" transform="translate(589.306641 0)"/>
       <use xlink:href="#DejaVuSerif-74" transform="translate(621.289062 0)"/>
       <use xlink:href="#DejaVuSerif-61" transform="translate(661.474609 0)"/>
       <use xlink:href="#DejaVuSerif-6c" transform="translate(721.09375 0)"/>
       <use xlink:href="#DejaVuSerif-69" transform="translate(753.076172 0)"/>
       <use xlink:href="#DejaVuSerif-74" transform="translate(785.058594 0)"/>
       <use xlink:href="#DejaVuSerif-79" transform="translate(825.244141 0)"/>
      </g>
     </g>
    </g>
    <g id="xtick_6">
     <g id="line2d_24">
      <path d="M 630.246234 400.26225 
L 630.246234 23.27025 
" clip-path="url(#p98b4b16634)" style="fill: none; stroke-dasharray: 2.59,1.12; stroke-dashoffset: 0; stroke: #cbd5e1; stroke-opacity: 0.35; stroke-width: 0.7"/>
     </g>
     <g id="line2d_25">
      <g>
       <use xlink:href="#m1fb95f483f" x="630.246234" y="400.26225" style="fill: #475569; stroke: #475569; stroke-width: 0.7"/>
      </g>
     </g>
     <g id="text_16">
      <!-- innovation -->
      <g style="fill: #475569" transform="translate(587.053299 426.891379) rotate(-18) scale(0.084 -0.084)">
       <use xlink:href="#DejaVuSerif-69"/>
       <use xlink:href="#DejaVuSerif-6e" transform="translate(31.982422 0)"/>
       <use xlink:href="#DejaVuSerif-6e" transform="translate(96.386719 0)"/>
       <use xlink:href="#DejaVuSerif-6f" transform="translate(160.791016 0)"/>
       <use xlink:href="#DejaVuSerif-76" transform="translate(220.996094 0)"/>
       <use xlink:href="#DejaVuSerif-61" transform="translate(277.490234 0)"/>
       <use xlink:href="#DejaVuSerif-74" transform="translate(337.109375 0)"/>
       <use xlink:href="#DejaVuSerif-69" transform="translate(377.294922 0)"/>
       <use xlink:href="#DejaVuSerif-6f" transform="translate(409.277344 0)"/>
       <use xlink:href="#DejaVuSerif-6e" transform="translate(469.482422 0)"/>
      </g>
     </g>
    </g>
    <g id="xtick_7">
     <g id="line2d_26">
      <path d="M 712.122075 400.26225 
L 712.122075 23.27025 
" clip-path="url(#p98b4b16634)" style="fill: none; stroke-dasharray: 2.59,1.12; stroke-dashoffset: 0; stroke: #cbd5e1; stroke-opacity: 0.35; stroke-width: 0.7"/>
     </g>
     <g id="line2d_27">
      <g>
       <use xlink:href="#m1fb95f483f" x="712.122075" y="400.26225" style="fill: #475569; stroke: #475569; stroke-width: 0.7"/>
      </g>
     </g>
     <g id="text_17">
      <!-- composite_index -->
      <g style="fill: #475569" transform="translate(644.091434 434.938182) rotate(-18) scale(0.084 -0.084)">
       <use xlink:href="#DejaVuSerif-63"/>
       <use xlink:href="#DejaVuSerif-6f" transform="translate(56.005859 0)"/>
       <use xlink:href="#DejaVuSerif-6d" transform="translate(116.210938 0)"/>
       <use xlink:href="#DejaVuSerif-70" transform="translate(211.035156 0)"/>
       <use xlink:href="#DejaVuSerif-6f" transform="translate(275.048828 0)"/>
       <use xlink:href="#DejaVuSerif-73" transform="translate(335.253906 0)"/>
       <use xlink:href="#DejaVuSerif-69" transform="translate(386.572266 0)"/>
       <use xlink:href="#DejaVuSerif-74" transform="translate(418.554688 0)"/>
       <use xlink:href="#DejaVuSerif-65" transform="translate(458.740234 0)"/>
       <use xlink:href="#DejaVuSerif-5f" transform="translate(517.919922 0)"/>
       <use xlink:href="#DejaVuSerif-69" transform="translate(567.919922 0)"/>
       <use xlink:href="#DejaVuSerif-6e" transform="translate(599.902344 0)"/>
       <use xlink:href="#DejaVuSerif-64" transform="translate(664.306641 0)"/>
       <use xlink:href="#DejaVuSerif-65" transform="translate(728.320312 0)"/>
       <use xlink:href="#DejaVuSerif-78" transform="translate(787.5 0)"/>
      </g>
     </g>
    </g>
    <g id="xtick_8">
     <g id="line2d_28">
      <path d="M 793.997916 400.26225 
L 793.997916 23.27025 
" clip-path="url(#p98b4b16634)" style="fill: none; stroke-dasharray: 2.59,1.12; stroke-dashoffset: 0; stroke: #cbd5e1; stroke-opacity: 0.35; stroke-width: 0.7"/>
     </g>
     <g id="line2d_29">
      <g>
       <use xlink:href="#m1fb95f483f" x="793.997916" y="400.26225" style="fill: #475569; stroke: #475569; stroke-width: 0.7"/>
      </g>
     </g>
     <g id="text_18">
      <!-- livability -->
      <g style="fill: #475569" transform="translate(758.529764 424.369453) rotate(-18) scale(0.084 -0.084)">
       <use xlink:href="#DejaVuSerif-6c"/>
       <use xlink:href="#DejaVuSerif-69" transform="translate(31.982422 0)"/>
       <use xlink:href="#DejaVuSerif-76" transform="translate(63.964844 0)"/>
       <use xlink:href="#DejaVuSerif-61" transform="translate(120.458984 0)"/>
       <use xlink:href="#DejaVuSerif-62" transform="translate(180.078125 0)"/>
       <use xlink:href="#DejaVuSerif-69" transform="translate(244.091797 0)"/>
       <use xlink:href="#DejaVuSerif-6c" transform="translate(276.074219 0)"/>
       <use xlink:href="#DejaVuSerif-69" transform="translate(308.056641 0)"/>
       <use xlink:href="#DejaVuSerif-74" transform="translate(340.039062 0)"/>
       <use xlink:href="#DejaVuSerif-79" transform="translate(380.224609 0)"/>
      </g>
     </g>
    </g>
   </g>
   <g id="matplotlib.axis_4">
    <g id="ytick_7">
     <g id="line2d_30">
      <path d="M 503.666184 374.480291 
L 838.702125 374.480291 
" clip-path="url(#p98b4b16634)" style="fill: none; stroke-dasharray: 2.59,1.12; stroke-dashoffset: 0; stroke: #cbd5e1; stroke-opacity: 0.35; stroke-width: 0.7"/>
     </g>
     <g id="line2d_31">
      <g>
       <use xlink:href="#m2d8a9870b9" x="503.666184" y="374.480291" style="fill: #475569; stroke: #475569; stroke-width: 0.7"/>
      </g>
     </g>
     <g id="text_19">
      <!-- −0.4 -->
      <g style="fill: #475569" transform="translate(476.568622 377.671635) scale(0.084 -0.084)">
       <use xlink:href="#DejaVuSerif-2212"/>
       <use xlink:href="#DejaVuSerif-30" transform="translate(83.789062 0)"/>
       <use xlink:href="#DejaVuSerif-2e" transform="translate(147.412109 0)"/>
       <use xlink:href="#DejaVuSerif-34" transform="translate(179.199219 0)"/>
      </g>
     </g>
    </g>
    <g id="ytick_8">
     <g id="line2d_32">
      <path d="M 503.666184 324.067413 
L 838.702125 324.067413 
" clip-path="url(#p98b4b16634)" style="fill: none; stroke-dasharray: 2.59,1.12; stroke-dashoffset: 0; stroke: #cbd5e1; stroke-opacity: 0.35; stroke-width: 0.7"/>
     </g>
     <g id="line2d_33">
      <g>
       <use xlink:href="#m2d8a9870b9" x="503.666184" y="324.067413" style="fill: #475569; stroke: #475569; stroke-width: 0.7"/>
      </g>
     </g>
     <g id="text_20">
      <!-- −0.3 -->
      <g style="fill: #475569" transform="translate(476.568622 327.258757) scale(0.084 -0.084)">
       <defs>
        <path id="DejaVuSerif-33" d="M 622 4469 
Q 988 4606 1323 4678 
Q 1659 4750 1953 4750 
Q 2638 4750 3022 4454 
Q 3406 4159 3406 3634 
Q 3406 3213 3140 2930 
Q 2875 2647 2388 2547 
Q 2963 2466 3280 2130 
Q 3597 1794 3597 1259 
Q 3597 606 3158 257 
Q 2719 -91 1894 -91 
Q 1528 -91 1179 -12 
Q 831 66 488 225 
L 488 1131 
L 838 1131 
Q 869 681 1141 450 
Q 1413 219 1906 219 
Q 2384 219 2661 495 
Q 2938 772 2938 1253 
Q 2938 1803 2653 2086 
Q 2369 2369 1819 2369 
L 1522 2369 
L 1522 2688 
L 1678 2688 
Q 2225 2688 2498 2914 
Q 2772 3141 2772 3597 
Q 2772 4006 2547 4223 
Q 2322 4441 1900 4441 
Q 1478 4441 1245 4241 
Q 1013 4041 972 3647 
L 622 3647 
L 622 4469 
z
" transform="scale(0.015625)"/>
       </defs>
       <use xlink:href="#DejaVuSerif-2212"/>
       <use xlink:href="#DejaVuSerif-30" transform="translate(83.789062 0)"/>
       <use xlink:href="#DejaVuSerif-2e" transform="translate(147.412109 0)"/>
       <use xlink:href="#DejaVuSerif-33" transform="translate(179.199219 0)"/>
      </g>
     </g>
    </g>
    <g id="ytick_9">
     <g id="line2d_34">
      <path d="M 503.666184 273.654536 
L 838.702125 273.654536 
" clip-path="url(#p98b4b16634)" style="fill: none; stroke-dasharray: 2.59,1.12; stroke-dashoffset: 0; stroke: #cbd5e1; stroke-opacity: 0.35; stroke-width: 0.7"/>
     </g>
     <g id="line2d_35">
      <g>
       <use xlink:href="#m2d8a9870b9" x="503.666184" y="273.654536" style="fill: #475569; stroke: #475569; stroke-width: 0.7"/>
      </g>
     </g>
     <g id="text_21">
      <!-- −0.2 -->
      <g style="fill: #475569" transform="translate(476.568622 276.845879) scale(0.084 -0.084)">
       <use xlink:href="#DejaVuSerif-2212"/>
       <use xlink:href="#DejaVuSerif-30" transform="translate(83.789062 0)"/>
       <use xlink:href="#DejaVuSerif-2e" transform="translate(147.412109 0)"/>
       <use xlink:href="#DejaVuSerif-32" transform="translate(179.199219 0)"/>
      </g>
     </g>
    </g>
    <g id="ytick_10">
     <g id="line2d_36">
      <path d="M 503.666184 223.241658 
L 838.702125 223.241658 
" clip-path="url(#p98b4b16634)" style="fill: none; stroke-dasharray: 2.59,1.12; stroke-dashoffset: 0; stroke: #cbd5e1; stroke-opacity: 0.35; stroke-width: 0.7"/>
     </g>
     <g id="line2d_37">
      <g>
       <use xlink:href="#m2d8a9870b9" x="503.666184" y="223.241658" style="fill: #475569; stroke: #475569; stroke-width: 0.7"/>
      </g>
     </g>
     <g id="text_22">
      <!-- −0.1 -->
      <g style="fill: #475569" transform="translate(476.568622 226.433002) scale(0.084 -0.084)">
       <defs>
        <path id="DejaVuSerif-31" d="M 909 0 
L 909 331 
L 1722 331 
L 1722 4213 
L 781 3603 
L 781 4013 
L 1919 4750 
L 2350 4750 
L 2350 331 
L 3163 331 
L 3163 0 
L 909 0 
z
" transform="scale(0.015625)"/>
       </defs>
       <use xlink:href="#DejaVuSerif-2212"/>
       <use xlink:href="#DejaVuSerif-30" transform="translate(83.789062 0)"/>
       <use xlink:href="#DejaVuSerif-2e" transform="translate(147.412109 0)"/>
       <use xlink:href="#DejaVuSerif-31" transform="translate(179.199219 0)"/>
      </g>
     </g>
    </g>
    <g id="ytick_11">
     <g id="line2d_38">
      <path d="M 503.666184 172.82878 
L 838.702125 172.82878 
" clip-path="url(#p98b4b16634)" style="fill: none; stroke-dasharray: 2.59,1.12; stroke-dashoffset: 0; stroke: #cbd5e1; stroke-opacity: 0.35; stroke-width: 0.7"/>
     </g>
     <g id="line2d_39">
      <g>
       <use xlink:href="#m2d8a9870b9" x="503.666184" y="172.82878" style="fill: #475569; stroke: #475569; stroke-width: 0.7"/>
      </g>
     </g>
     <g id="text_23">
      <!-- 0.0 -->
      <g style="fill: #475569" transform="translate(483.607559 176.020124) scale(0.084 -0.084)">
       <use xlink:href="#DejaVuSerif-30"/>
       <use xlink:href="#DejaVuSerif-2e" transform="translate(63.623047 0)"/>
       <use xlink:href="#DejaVuSerif-30" transform="translate(95.410156 0)"/>
      </g>
     </g>
    </g>
    <g id="ytick_12">
     <g id="line2d_40">
      <path d="M 503.666184 122.415903 
L 838.702125 122.415903 
" clip-path="url(#p98b4b16634)" style="fill: none; stroke-dasharray: 2.59,1.12; stroke-dashoffset: 0; stroke: #cbd5e1; stroke-opacity: 0.35; stroke-width: 0.7"/>
     </g>
     <g id="line2d_41">
      <g>
       <use xlink:href="#m2d8a9870b9" x="503.666184" y="122.415903" style="fill: #475569; stroke: #475569; stroke-width: 0.7"/>
      </g>
     </g>
     <g id="text_24">
      <!-- 0.1 -->
      <g style="fill: #475569" transform="translate(483.607559 125.607246) scale(0.084 -0.084)">
       <use xlink:href="#DejaVuSerif-30"/>
       <use xlink:href="#DejaVuSerif-2e" transform="translate(63.623047 0)"/>
       <use xlink:href="#DejaVuSerif-31" transform="translate(95.410156 0)"/>
      </g>
     </g>
    </g>
    <g id="ytick_13">
     <g id="line2d_42">
      <path d="M 503.666184 72.003025 
L 838.702125 72.003025 
" clip-path="url(#p98b4b16634)" style="fill: none; stroke-dasharray: 2.59,1.12; stroke-dashoffset: 0; stroke: #cbd5e1; stroke-opacity: 0.35; stroke-width: 0.7"/>
     </g>
     <g id="line2d_43">
      <g>
       <use xlink:href="#m2d8a9870b9" x="503.666184" y="72.003025" style="fill: #475569; stroke: #475569; stroke-width: 0.7"/>
      </g>
     </g>
     <g id="text_25">
      <!-- 0.2 -->
      <g style="fill: #475569" transform="translate(483.607559 75.194369) scale(0.084 -0.084)">
       <use xlink:href="#DejaVuSerif-30"/>
       <use xlink:href="#DejaVuSerif-2e" transform="translate(63.623047 0)"/>
       <use xlink:href="#DejaVuSerif-32" transform="translate(95.410156 0)"/>
      </g>
     </g>
    </g>
    <g id="text_26">
     <!-- Effect -->
     <g style="fill: #0f172a" transform="translate(470.530528 226.584156) rotate(-90) scale(0.098 -0.098)">
      <use xlink:href="#DejaVuSerif-45"/>
      <use xlink:href="#DejaVuSerif-66" transform="translate(72.998047 0)"/>
      <use xlink:href="#DejaVuSerif-66" transform="translate(110.009766 0)"/>
      <use xlink:href="#DejaVuSerif-65" transform="translate(147.021484 0)"/>
      <use xlink:href="#DejaVuSerif-63" transform="translate(206.201172 0)"/>
      <use xlink:href="#DejaVuSerif-74" transform="translate(262.207031 0)"/>
     </g>
    </g>
   </g>
   <g id="patch_16">
    <path d="M 518.895091 172.82878 
L 548.370393 172.82878 
L 548.370393 53.785614 
L 518.895091 53.785614 
z
" clip-path="url(#p98b4b16634)" style="fill: #2b7a78; opacity: 0.86"/>
   </g>
   <g id="patch_17">
    <path d="M 600.770931 172.82878 
L 630.246234 172.82878 
L 630.246234 83.586166 
L 600.770931 83.586166 
z
" clip-path="url(#p98b4b16634)" style="fill: #2b7a78; opacity: 0.86"/>
   </g>
   <g id="patch_18">
    <path d="M 682.646772 172.82878 
L 712.122075 172.82878 
L 712.122075 162.969594 
L 682.646772 162.969594 
z
" clip-path="url(#p98b4b16634)" style="fill: #2b7a78; opacity: 0.86"/>
   </g>
   <g id="patch_19">
    <path d="M 764.522613 172.82878 
L 793.997916 172.82878 
L 793.997916 348.710955 
L 764.522613 348.710955 
z
" clip-path="url(#p98b4b16634)" style="fill: #2b7a78; opacity: 0.86"/>
   </g>
   <g id="patch_20">
    <path d="M 548.370393 172.82878 
L 577.845696 172.82878 
L 577.845696 40.40625 
L 548.370393 40.40625 
z
" clip-path="url(#p98b4b16634)" style="fill: #b24a54; opacity: 0.86"/>
   </g>
   <g id="patch_21">
    <path d="M 630.246234 172.82878 
L 659.721537 172.82878 
L 659.721537 208.984369 
L 630.246234 208.984369 
z
" clip-path="url(#p98b4b16634)" style="fill: #b24a54; opacity: 0.86"/>
   </g>
   <g id="patch_22">
    <path d="M 712.122075 172.82878 
L 741.597378 172.82878 
L 741.597378 194.073874 
L 712.122075 194.073874 
z
" clip-path="url(#p98b4b16634)" style="fill: #b24a54; opacity: 0.86"/>
   </g>
   <g id="patch_23">
    <path d="M 793.997916 172.82878 
L 823.473219 172.82878 
L 823.473219 383.12625 
L 793.997916 383.12625 
z
" clip-path="url(#p98b4b16634)" style="fill: #b24a54; opacity: 0.86"/>
   </g>
   <g id="line2d_44">
    <path d="M 503.666184 172.82878 
L 838.702125 172.82878 
" clip-path="url(#p98b4b16634)" style="fill: none; stroke: #0f172a; stroke-linecap: square"/>
   </g>
   <g id="patch_24">
    <path d="M 503.666184 400.26225 
L 503.666184 23.27025 
" style="fill: none; stroke: #cbd5e1; stroke-width: 0.8; stroke-linejoin: miter; stroke-linecap: square"/>
   </g>
   <g id="patch_25">
    <path d="M 503.666184 400.26225 
L 838.702125 400.26225 
" style="fill: none; stroke: #cbd5e1; stroke-width: 0.8; stroke-linejoin: miter; stroke-linecap: square"/>
   </g>
   <g id="text_27">
    <!-- Immediate Channel Response -->
    <g style="fill: #0f172a" transform="translate(503.666184 14.27025) scale(0.112 -0.112)">
     <defs>
      <path id="DejaVuSerif-Bold-49" d="M 300 0 
L 300 378 
L 897 378 
L 897 4288 
L 300 4288 
L 300 4666 
L 2700 4666 
L 2700 4288 
L 2100 4288 
L 2100 378 
L 2700 378 
L 2700 0 
L 300 0 
z
" transform="scale(0.015625)"/>
      <path id="DejaVuSerif-Bold-6d" d="M 3884 2778 
Q 4116 3109 4384 3261 
Q 4653 3413 5013 3413 
Q 5584 3413 5867 3089 
Q 6150 2766 6150 2113 
L 6150 378 
L 6625 378 
L 6625 0 
L 4647 0 
L 4647 378 
L 5044 378 
L 5044 1947 
Q 5044 2569 4948 2731 
Q 4853 2894 4594 2894 
Q 4300 2894 4137 2667 
Q 3975 2441 3975 2022 
L 3975 378 
L 4372 378 
L 4372 0 
L 2472 0 
L 2472 378 
L 2869 378 
L 2869 1947 
Q 2869 2569 2772 2731 
Q 2675 2894 2419 2894 
Q 2122 2894 1959 2667 
Q 1797 2441 1797 2022 
L 1797 378 
L 2194 378 
L 2194 0 
L 219 0 
L 219 378 
L 691 378 
L 691 2944 
L 219 2944 
L 219 3322 
L 1797 3322 
L 1797 2853 
Q 1991 3144 2241 3278 
Q 2491 3413 2834 3413 
Q 3241 3413 3494 3258 
Q 3747 3103 3884 2778 
z
" transform="scale(0.015625)"/>
      <path id="DejaVuSerif-Bold-64" d="M 2747 1497 
L 2747 1825 
Q 2747 2406 2597 2665 
Q 2447 2925 2119 2925 
Q 1775 2925 1636 2651 
Q 1497 2378 1497 1663 
Q 1497 947 1637 672 
Q 1778 397 2119 397 
Q 2447 397 2597 656 
Q 2747 916 2747 1497 
z
M 3853 378 
L 4325 378 
L 4325 0 
L 2747 0 
L 2747 422 
Q 2606 163 2367 36 
Q 2128 -91 1778 -91 
Q 1072 -91 667 378 
Q 263 847 263 1663 
Q 263 2481 667 2947 
Q 1072 3413 1778 3413 
Q 2128 3413 2367 3286 
Q 2606 3159 2747 2900 
L 2747 4488 
L 2272 4488 
L 2272 4863 
L 3853 4863 
L 3853 378 
z
" transform="scale(0.015625)"/>
      <path id="DejaVuSerif-Bold-69" d="M 588 4263 
Q 588 4516 763 4689 
Q 938 4863 1191 4863 
Q 1438 4863 1611 4689 
Q 1784 4516 1784 4263 
Q 1784 4016 1611 3842 
Q 1438 3669 1191 3669 
Q 938 3669 763 3841 
Q 588 4013 588 4263 
z
M 1797 378 
L 2272 378 
L 2272 0 
L 219 0 
L 219 378 
L 691 378 
L 691 2944 
L 219 2944 
L 219 3322 
L 1797 3322 
L 1797 378 
z
" transform="scale(0.015625)"/>
      <path id="DejaVuSerif-Bold-52" d="M 3397 2278 
Q 3675 2238 3865 2094 
Q 4056 1950 4197 1678 
L 4878 378 
L 5356 378 
L 5356 0 
L 3822 0 
L 3078 1409 
Q 2863 1847 2711 1967 
Q 2559 2088 2291 2088 
L 2100 2088 
L 2100 378 
L 2700 378 
L 2700 0 
L 300 0 
L 300 378 
L 897 378 
L 897 4288 
L 300 4288 
L 300 4666 
L 2963 4666 
Q 3775 4666 4217 4339 
Q 4659 4013 4659 3413 
Q 4659 2925 4345 2642 
Q 4031 2359 3397 2278 
z
M 2100 2463 
L 2509 2463 
Q 2947 2463 3183 2700 
Q 3419 2938 3419 3378 
Q 3419 3819 3183 4053 
Q 2947 4288 2509 4288 
L 2100 4288 
L 2100 2463 
z
" transform="scale(0.015625)"/>
      <path id="DejaVuSerif-Bold-70" d="M 1728 1825 
L 1728 1497 
Q 1728 916 1876 656 
Q 2025 397 2356 397 
Q 2697 397 2836 672 
Q 2975 947 2975 1663 
Q 2975 2378 2836 2651 
Q 2697 2925 2356 2925 
Q 2025 2925 1876 2665 
Q 1728 2406 1728 1825 
z
M 622 2944 
L 147 2944 
L 147 3322 
L 1728 3322 
L 1728 2900 
Q 1869 3159 2106 3286 
Q 2344 3413 2694 3413 
Q 3403 3413 3811 2945 
Q 4219 2478 4219 1663 
Q 4219 847 3811 378 
Q 3403 -91 2694 -91 
Q 2344 -91 2106 36 
Q 1869 163 1728 422 
L 1728 -953 
L 2241 -953 
L 2241 -1331 
L 147 -1331 
L 147 -953 
L 622 -953 
L 622 2944 
z
" transform="scale(0.015625)"/>
     </defs>
     <use xlink:href="#DejaVuSerif-Bold-49"/>
     <use xlink:href="#DejaVuSerif-Bold-6d" transform="translate(46.777344 0)"/>
     <use xlink:href="#DejaVuSerif-Bold-6d" transform="translate(152.587891 0)"/>
     <use xlink:href="#DejaVuSerif-Bold-65" transform="translate(258.398438 0)"/>
     <use xlink:href="#DejaVuSerif-Bold-64" transform="translate(322.021484 0)"/>
     <use xlink:href="#DejaVuSerif-Bold-69" transform="translate(391.943359 0)"/>
     <use xlink:href="#DejaVuSerif-Bold-61" transform="translate(429.931641 0)"/>
     <use xlink:href="#DejaVuSerif-Bold-74" transform="translate(494.726562 0)"/>
     <use xlink:href="#DejaVuSerif-Bold-65" transform="translate(540.917969 0)"/>
     <use xlink:href="#DejaVuSerif-Bold-20" transform="translate(604.541016 0)"/>
     <use xlink:href="#DejaVuSerif-Bold-43" transform="translate(639.355469 0)"/>
     <use xlink:href="#DejaVuSerif-Bold-68" transform="translate(718.945312 0)"/>
     <use xlink:href="#DejaVuSerif-Bold-61" transform="translate(791.650391 0)"/>
     <use xlink:href="#DejaVuSerif-Bold-6e" transform="translate(856.445312 0)"/>
     <use xlink:href="#DejaVuSerif-Bold-6e" transform="translate(929.150391 0)"/>
     <use xlink:href="#DejaVuSerif-Bold-65" transform="translate(1001.855469 0)"/>
     <use xlink:href="#DejaVuSerif-Bold-6c" transform="translate(1065.478516 0)"/>
     <use xlink:href="#DejaVuSerif-Bold-20" transform="translate(1103.466797 0)"/>
     <use xlink:href="#DejaVuSerif-Bold-52" transform="translate(1138.28125 0)"/>
     <use xlink:href="#DejaVuSerif-Bold-65" transform="translate(1221.386719 0)"/>
     <use xlink:href="#DejaVuSerif-Bold-73" transform="translate(1285.009766 0)"/>
     <use xlink:href="#DejaVuSerif-Bold-70" transform="translate(1341.308594 0)"/>
     <use xlink:href="#DejaVuSerif-Bold-6f" transform="translate(1411.230469 0)"/>
     <use xlink:href="#DejaVuSerif-Bold-6e" transform="translate(1477.929688 0)"/>
     <use xlink:href="#DejaVuSerif-Bold-73" transform="translate(1550.634766 0)"/>
     <use xlink:href="#DejaVuSerif-Bold-65" transform="translate(1606.933594 0)"/>
    </g>
   </g>
   <g id="legend_2">
    <g id="patch_26">
     <path d="M 787.389625 36.549 
L 803.389625 36.549 
L 803.389625 30.949 
L 787.389625 30.949 
z
" style="fill: #2b7a78; opacity: 0.86"/>
    </g>
    <g id="text_28">
     <!-- t=0 -->
     <g style="fill: #0f172a" transform="translate(809.789625 36.549) scale(0.08 -0.08)">
      <defs>
       <path id="DejaVuSerif-3d" d="M 678 2894 
L 4684 2894 
L 4684 2394 
L 678 2394 
L 678 2894 
z
M 678 1619 
L 4684 1619 
L 4684 1119 
L 678 1119 
L 678 1619 
z
" transform="scale(0.015625)"/>
      </defs>
      <use xlink:href="#DejaVuSerif-74"/>
      <use xlink:href="#DejaVuSerif-3d" transform="translate(40.185547 0)"/>
      <use xlink:href="#DejaVuSerif-30" transform="translate(123.974609 0)"/>
     </g>
    </g>
    <g id="patch_27">
     <path d="M 787.389625 48.2915 
L 803.389625 48.2915 
L 803.389625 42.6915 
L 787.389625 42.6915 
z
" style="fill: #b24a54; opacity: 0.86"/>
    </g>
    <g id="text_29">
     <!-- t=+1 -->
     <g style="fill: #0f172a" transform="translate(809.789625 48.2915) scale(0.08 -0.08)">
      <defs>
       <path id="DejaVuSerif-2b" d="M 2931 4013 
L 2931 2259 
L 4684 2259 
L 4684 1753 
L 2931 1753 
L 2931 0 
L 2431 0 
L 2431 1753 
L 678 1753 
L 678 2259 
L 2431 2259 
L 2431 4013 
L 2931 4013 
z
" transform="scale(0.015625)"/>
      </defs>
      <use xlink:href="#DejaVuSerif-74"/>
      <use xlink:href="#DejaVuSerif-3d" transform="translate(40.185547 0)"/>
      <use xlink:href="#DejaVuSerif-2b" transform="translate(123.974609 0)"/>
      <use xlink:href="#DejaVuSerif-31" transform="translate(207.763672 0)"/>
     </g>
    </g>
   </g>
  </g>
 </g>
 <defs>
  <clipPath id="p1349f7372b">
   <rect x="46.342125" y="23.27025" width="385.291332" height="376.992"/>
  </clipPath>
  <clipPath id="p98b4b16634">
   <rect x="503.666184" y="23.27025" width="335.035941" height="376.992"/>
  </clipPath>
 </defs>
</svg>
