<?xml version="1.0" encoding="utf-8" standalone="no"?>
<!DOCTYPE svg PUBLIC "-//W3C//DTD SVG 1.1//EN"
  "http://www.w3.org/Graphics/SVG/1.1/DTD/svg11.dtd">
<svg xmlns:xlink="http://www.w3.org/1999/xlink" width="883.91952pt" height="358.31952pt" viewBox="0 0 883.91952 358.31952" xmlns="http://www.w3.org/2000/svg" version="1.1">
 <metadata>
  <rdf:RDF xmlns:dc="http://purl.org/dc/elements/1.1/" xmlns:cc="http://creativecommons.org/ns#" xmlns:rdf="http://www.w3.org/1999/02/22-rdf-syntax-ns#">
   <cc:Work>
    <dc:type rdf:resource="http://purl.org/dc/dcmitype/StillImage"/>
    <dc:date>2026-03-26T14:59:05.613452</dc:date>
    <dc:format>image/svg+xml</dc:format>
    <dc:creator>
     <cc:Agent>
      <dc:title>Matplotlib v3.10.8, https://matplotlib.org/</dc:title>
     </cc:Agent>
    </dc:creator>
   </cc:Work>
  </rdf:RDF>
 </metadata>
 <defs>
  <style type="text/css">*{stroke-linejoin: round; stroke-linecap: butt}</style>
 </defs>
 <g id="figure_1">
  <g id="patch_1">
   <path d="M 0 358.31952 
L 883.91952 358.31952 
L 883.91952 0 
L 0 0 
z
" style="fill: #ffffff"/>
  </g>
  <g id="axes_1">
   <g id="patch_2">
    <path d="M 42.278063 323.805989 
L 434.89551 323.805989 
L 434.89551 35.97105 
L 42.278063 35.97105 
z
" style="fill: #ffffff"/>
   </g>
   <g id="patch_3">
    <path d="M 60.12431 323.805989 
L 74.996183 323.805989 
L 74.996183 238.914578 
L 60.12431 238.914578 
z
" clip-path="url(#p1f9e248284)" style="fill: #93c5fd; stroke: #ffffff; stroke-linejoin: miter"/>
   </g>
   <g id="patch_4">
    <path d="M 74.996183 323.805989 
L 89.868056 323.805989 
L 89.868056 276.644094 
L 74.996183 276.644094 
z
" clip-path="url(#p1f9e248284)" style="fill: #93c5fd; stroke: #ffffff; stroke-linejoin: miter"/>
   </g>
   <g id="patch_5">
    <path d="M 89.868056 323.805989 
L 104.739929 323.805989 
L 104.739929 287.25552 
L 89.868056 287.25552 
z
" clip-path="url(#p1f9e248284)" style="fill: #93c5fd; stroke: #ffffff; stroke-linejoin: miter"/>
   </g>
   <g id="patch_6">
    <path d="M 104.739929 323.805989 
L 119.611802 323.805989 
L 119.611802 187.036494 
L 104.739929 187.036494 
z
" clip-path="url(#p1f9e248284)" style="fill: #93c5fd; stroke: #ffffff; stroke-linejoin: miter"/>
   </g>
   <g id="patch_7">
    <path d="M 119.611802 323.805989 
L 134.483675 323.805989 
L 134.483675 187.036494 
L 119.611802 187.036494 
z
" clip-path="url(#p1f9e248284)" style="fill: #93c5fd; stroke: #ffffff; stroke-linejoin: miter"/>
   </g>
   <g id="patch_8">
    <path d="M 134.483675 323.805989 
L 149.355548 323.805989 
L 149.355548 144.590789 
L 134.483675 144.590789 
z
" clip-path="url(#p1f9e248284)" style="fill: #93c5fd; stroke: #ffffff; stroke-linejoin: miter"/>
   </g>
   <g id="patch_9">
    <path d="M 149.355548 323.805989 
L 164.227421 323.805989 
L 164.227421 280.77076 
L 149.355548 280.77076 
z
" clip-path="url(#p1f9e248284)" style="fill: #93c5fd; stroke: #ffffff; stroke-linejoin: miter"/>
   </g>
   <g id="patch_10">
    <path d="M 164.227421 323.805989 
L 179.099294 323.805989 
L 179.099294 166.992689 
L 164.227421 166.992689 
z
" clip-path="url(#p1f9e248284)" style="fill: #93c5fd; stroke: #ffffff; stroke-linejoin: miter"/>
   </g>
   <g id="patch_11">
    <path d="M 179.099294 323.805989 
L 193.971167 323.805989 
L 193.971167 128.084126 
L 179.099294 128.084126 
z
" clip-path="url(#p1f9e248284)" style="fill: #93c5fd; stroke: #ffffff; stroke-linejoin: miter"/>
   </g>
   <g id="patch_12">
    <path d="M 193.971167 323.805989 
L 208.84304 323.805989 
L 208.84304 198.237444 
L 193.971167 198.237444 
z
" clip-path="url(#p1f9e248284)" style="fill: #93c5fd; stroke: #ffffff; stroke-linejoin: miter"/>
   </g>
   <g id="patch_13">
    <path d="M 208.84304 323.805989 
L 223.714913 323.805989 
L 223.714913 235.377436 
L 208.84304 235.377436 
z
" clip-path="url(#p1f9e248284)" style="fill: #93c5fd; stroke: #ffffff; stroke-linejoin: miter"/>
   </g>
   <g id="patch_14">
    <path d="M 223.714913 323.805989 
L 238.586786 323.805989 
L 238.586786 189.394589 
L 223.714913 189.394589 
z
" clip-path="url(#p1f9e248284)" style="fill: #93c5fd; stroke: #ffffff; stroke-linejoin: miter"/>
   </g>
   <g id="patch_15">
    <path d="M 238.586786 323.805989 
L 253.458659 323.805989 
L 253.458659 49.677476 
L 238.586786 49.677476 
z
" clip-path="url(#p1f9e248284)" style="fill: #93c5fd; stroke: #ffffff; stroke-linejoin: miter"/>
   </g>
   <g id="patch_16">
    <path d="M 253.458659 323.805989 
L 268.330532 323.805989 
L 268.330532 235.96696 
L 253.458659 235.96696 
z
" clip-path="url(#p1f9e248284)" style="fill: #93c5fd; stroke: #ffffff; stroke-linejoin: miter"/>
   </g>
   <g id="patch_17">
    <path d="M 268.330532 323.805989 
L 283.202405 323.805989 
L 283.202405 245.399339 
L 268.330532 245.399339 
z
" clip-path="url(#p1f9e248284)" style="fill: #93c5fd; stroke: #ffffff; stroke-linejoin: miter"/>
   </g>
   <g id="patch_18">
    <path d="M 283.202405 323.805989 
L 298.074278 323.805989 
L 298.074278 150.486026 
L 283.202405 150.486026 
z
" clip-path="url(#p1f9e248284)" style="fill: #93c5fd; stroke: #ffffff; stroke-linejoin: miter"/>
   </g>
   <g id="patch_19">
    <path d="M 298.074278 323.805989 
L 312.946151 323.805989 
L 312.946151 274.285999 
L 298.074278 274.285999 
z
" clip-path="url(#p1f9e248284)" style="fill: #93c5fd; stroke: #ffffff; stroke-linejoin: miter"/>
   </g>
   <g id="patch_20">
    <path d="M 312.946151 323.805989 
L 327.818024 323.805989 
L 327.818024 240.093626 
L 312.946151 240.093626 
z
" clip-path="url(#p1f9e248284)" style="fill: #93c5fd; stroke: #ffffff; stroke-linejoin: miter"/>
   </g>
   <g id="patch_21">
    <path d="M 327.818024 323.805989 
L 342.689897 323.805989 
L 342.689897 243.041244 
L 327.818024 243.041244 
z
" clip-path="url(#p1f9e248284)" style="fill: #93c5fd; stroke: #ffffff; stroke-linejoin: miter"/>
   </g>
   <g id="patch_22">
    <path d="M 342.689897 323.805989 
L 357.56177 323.805989 
L 357.56177 284.897426 
L 342.689897 284.897426 
z
" clip-path="url(#p1f9e248284)" style="fill: #93c5fd; stroke: #ffffff; stroke-linejoin: miter"/>
   </g>
   <g id="patch_23">
    <path d="M 357.56177 323.805989 
L 372.433643 323.805989 
L 372.433643 285.486949 
L 357.56177 285.486949 
z
" clip-path="url(#p1f9e248284)" style="fill: #93c5fd; stroke: #ffffff; stroke-linejoin: miter"/>
   </g>
   <g id="patch_24">
    <path d="M 372.433643 323.805989 
L 387.305516 323.805989 
L 387.305516 277.823141 
L 372.433643 277.823141 
z
" clip-path="url(#p1f9e248284)" style="fill: #93c5fd; stroke: #ffffff; stroke-linejoin: miter"/>
   </g>
   <g id="patch_25">
    <path d="M 387.305516 323.805989 
L 402.177389 323.805989 
L 402.177389 323.805989 
L 387.305516 323.805989 
z
" clip-path="url(#p1f9e248284)" style="fill: #93c5fd; stroke: #ffffff; stroke-linejoin: miter"/>
   </g>
   <g id="patch_26">
    <path d="M 402.177389 323.805989 
L 417.049262 323.805989 
L 417.049262 281.949807 
L 402.177389 281.949807 
z
" clip-path="url(#p1f9e248284)" style="fill: #93c5fd; stroke: #ffffff; stroke-linejoin: miter"/>
   </g>
   <g id="matplotlib.axis_1">
    <g id="xtick_1">
     <g id="line2d_1">
      <path d="M 86.824988 323.805989 
L 86.824988 35.97105 
" clip-path="url(#p1f9e248284)" style="fill: none; stroke-dasharray: 2.96,1.28; stroke-dashoffset: 0; stroke: #e2e8f0; stroke-opacity: 0.2; stroke-width: 0.8"/>
     </g>
     <g id="line2d_2">
      <defs>
       <path id="md3ef010125" d="M 0 0 
L 0 3.5 
" style="stroke: #475569; stroke-width: 0.8"/>
      </defs>
      <g>
       <use xlink:href="#md3ef010125" x="86.824988" y="323.805989" style="fill: #475569; stroke: #475569; stroke-width: 0.8"/>
      </g>
     </g>
     <g id="text_1">
      <!-- −4 -->
      <g style="fill: #475569" transform="translate(80.633269 337.188676) scale(0.084 -0.084)">
       <defs>
        <path id="DejaVuSerif-2212" d="M 678 2259 
L 4684 2259 
L 4684 1753 
L 678 1753 
L 678 2259 
z
" transform="scale(0.015625)"/>
        <path id="DejaVuSerif-34" d="M 2234 1581 
L 2234 4063 
L 641 1581 
L 2234 1581 
z
M 3609 0 
L 1484 0 
L 1484 331 
L 2234 331 
L 2234 1247 
L 197 1247 
L 197 1588 
L 2241 4750 
L 2859 4750 
L 2859 1581 
L 3750 1581 
L 3750 1247 
L 2859 1247 
L 2859 331 
L 3609 331 
L 3609 0 
z
" transform="scale(0.015625)"/>
       </defs>
       <use xlink:href="#DejaVuSerif-2212"/>
       <use xlink:href="#DejaVuSerif-34" transform="translate(83.789062 0)"/>
      </g>
     </g>
    </g>
    <g id="xtick_2">
     <g id="line2d_3">
      <path d="M 151.574546 323.805989 
L 151.574546 35.97105 
" clip-path="url(#p1f9e248284)" style="fill: none; stroke-dasharray: 2.96,1.28; stroke-dashoffset: 0; stroke: #e2e8f0; stroke-opacity: 0.2; stroke-width: 0.8"/>
     </g>
     <g id="line2d_4">
      <g>
       <use xlink:href="#md3ef010125" x="151.574546" y="323.805989" style="fill: #475569; stroke: #475569; stroke-width: 0.8"/>
      </g>
     </g>
     <g id="text_2">
      <!-- −2 -->
      <g style="fill: #475569" transform="translate(145.382827 337.188676) scale(0.084 -0.084)">
       <defs>
        <path id="DejaVuSerif-32" d="M 819 3553 
L 469 3553 
L 469 4384 
Q 803 4563 1142 4656 
Q 1481 4750 1806 4750 
Q 2534 4750 2956 4397 
Q 3378 4044 3378 3438 
Q 3378 2753 2422 1800 
Q 2347 1728 2309 1691 
L 1131 513 
L 3078 513 
L 3078 1088 
L 3444 1088 
L 3444 0 
L 434 0 
L 434 341 
L 1850 1753 
Q 2319 2222 2519 2614 
Q 2719 3006 2719 3438 
Q 2719 3909 2473 4175 
Q 2228 4441 1797 4441 
Q 1350 4441 1106 4219 
Q 863 3997 819 3553 
z
" transform="scale(0.015625)"/>
       </defs>
       <use xlink:href="#DejaVuSerif-2212"/>
       <use xlink:href="#DejaVuSerif-32" transform="translate(83.789062 0)"/>
      </g>
     </g>
    </g>
    <g id="xtick_3">
     <g id="line2d_5">
      <path d="M 216.324104 323.805989 
L 216.324104 35.97105 
" clip-path="url(#p1f9e248284)" style="fill: none; stroke-dasharray: 2.96,1.28; stroke-dashoffset: 0; stroke: #e2e8f0; stroke-opacity: 0.2; stroke-width: 0.8"/>
     </g>
     <g id="line2d_6">
      <g>
       <use xlink:href="#md3ef010125" x="216.324104" y="323.805989" style="fill: #475569; stroke: #475569; stroke-width: 0.8"/>
      </g>
     </g>
     <g id="text_3">
      <!-- 0 -->
      <g style="fill: #475569" transform="translate(213.651854 337.188676) scale(0.084 -0.084)">
       <defs>
        <path id="DejaVuSerif-30" d="M 2034 219 
Q 2513 219 2750 744 
Q 2988 1269 2988 2328 
Q 2988 3391 2750 3916 
Q 2513 4441 2034 4441 
Q 1556 4441 1318 3916 
Q 1081 3391 1081 2328 
Q 1081 1269 1318 744 
Q 1556 219 2034 219 
z
M 2034 -91 
Q 1275 -91 848 546 
Q 422 1184 422 2328 
Q 422 3475 848 4112 
Q 1275 4750 2034 4750 
Q 2797 4750 3222 4112 
Q 3647 3475 3647 2328 
Q 3647 1184 3222 546 
Q 2797 -91 2034 -91 
z
" transform="scale(0.015625)"/>
       </defs>
       <use xlink:href="#DejaVuSerif-30"/>
      </g>
     </g>
    </g>
    <g id="xtick_4">
     <g id="line2d_7">
      <path d="M 281.073662 323.805989 
L 281.073662 35.97105 
" clip-path="url(#p1f9e248284)" style="fill: none; stroke-dasharray: 2.96,1.28; stroke-dashoffset: 0; stroke: #e2e8f0; stroke-opacity: 0.2; stroke-width: 0.8"/>
     </g>
     <g id="line2d_8">
      <g>
       <use xlink:href="#md3ef010125" x="281.073662" y="323.805989" style="fill: #475569; stroke: #475569; stroke-width: 0.8"/>
      </g>
     </g>
     <g id="text_4">
      <!-- 2 -->
      <g style="fill: #475569" transform="translate(278.401412 337.188676) scale(0.084 -0.084)">
       <use xlink:href="#DejaVuSerif-32"/>
      </g>
     </g>
    </g>
    <g id="xtick_5">
     <g id="line2d_9">
      <path d="M 345.82322 323.805989 
L 345.82322 35.97105 
" clip-path="url(#p1f9e248284)" style="fill: none; stroke-dasharray: 2.96,1.28; stroke-dashoffset: 0; stroke: #e2e8f0; stroke-opacity: 0.2; stroke-width: 0.8"/>
     </g>
     <g id="line2d_10">
      <g>
       <use xlink:href="#md3ef010125" x="345.82322" y="323.805989" style="fill: #475569; stroke: #475569; stroke-width: 0.8"/>
      </g>
     </g>
     <g id="text_5">
      <!-- 4 -->
      <g style="fill: #475569" transform="translate(343.15097 337.188676) scale(0.084 -0.084)">
       <use xlink:href="#DejaVuSerif-34"/>
      </g>
     </g>
    </g>
    <g id="xtick_6">
     <g id="line2d_11">
      <path d="M 410.572778 323.805989 
L 410.572778 35.97105 
" clip-path="url(#p1f9e248284)" style="fill: none; stroke-dasharray: 2.96,1.28; stroke-dashoffset: 0; stroke: #e2e8f0; stroke-opacity: 0.2; stroke-width: 0.8"/>
     </g>
     <g id="line2d_12">
      <g>
       <use xlink:href="#md3ef010125" x="410.572778" y="323.805989" style="fill: #475569; stroke: #475569; stroke-width: 0.8"/>
      </g>
     </g>
     <g id="text_6">
      <!-- 6 -->
      <g style="fill: #475569" transform="translate(407.900528 337.188676) scale(0.084 -0.084)">
       <defs>
        <path id="DejaVuSerif-36" d="M 2094 219 
Q 2534 219 2771 542 
Q 3009 866 3009 1472 
Q 3009 2078 2771 2401 
Q 2534 2725 2094 2725 
Q 1647 2725 1412 2412 
Q 1178 2100 1178 1509 
Q 1178 888 1415 553 
Q 1653 219 2094 219 
z
M 1075 2569 
Q 1288 2803 1556 2918 
Q 1825 3034 2163 3034 
Q 2859 3034 3264 2615 
Q 3669 2197 3669 1472 
Q 3669 763 3233 336 
Q 2797 -91 2069 -91 
Q 1278 -91 853 498 
Q 428 1088 428 2181 
Q 428 3406 931 4078 
Q 1434 4750 2350 4750 
Q 2597 4750 2869 4703 
Q 3141 4656 3425 4563 
L 3425 3794 
L 3072 3794 
Q 3034 4109 2831 4275 
Q 2628 4441 2284 4441 
Q 1678 4441 1381 3981 
Q 1084 3522 1075 2569 
z
" transform="scale(0.015625)"/>
       </defs>
       <use xlink:href="#DejaVuSerif-36"/>
      </g>
     </g>
    </g>
    <g id="text_7">
     <!-- Permuted post-pre gap -->
     <g style="fill: #0f172a" transform="translate(181.544661 350.382083) scale(0.098 -0.098)">
      <defs>
       <path id="DejaVuSerif-50" d="M 1581 2375 
L 2406 2375 
Q 2872 2375 3115 2626 
Q 3359 2878 3359 3353 
Q 3359 3831 3115 4081 
Q 2872 4331 2406 4331 
L 1581 4331 
L 1581 2375 
z
M 353 0 
L 353 331 
L 947 331 
L 947 4331 
L 353 4331 
L 353 4666 
L 2559 4666 
Q 3259 4666 3668 4311 
Q 4078 3956 4078 3353 
Q 4078 2753 3668 2397 
Q 3259 2041 2559 2041 
L 1581 2041 
L 1581 331 
L 2303 331 
L 2303 0 
L 353 0 
z
" transform="scale(0.015625)"/>
       <path id="DejaVuSerif-65" d="M 3469 1600 
L 991 1600 
L 991 1575 
Q 991 903 1244 561 
Q 1497 219 1991 219 
Q 2369 219 2611 417 
Q 2853 616 2950 1006 
L 3413 1006 
Q 3275 459 2904 184 
Q 2534 -91 1931 -91 
Q 1203 -91 761 389 
Q 319 869 319 1663 
Q 319 2450 753 2931 
Q 1188 3413 1894 3413 
Q 2647 3413 3050 2948 
Q 3453 2484 3469 1600 
z
M 2791 1931 
Q 2772 2513 2545 2808 
Q 2319 3103 1894 3103 
Q 1497 3103 1269 2806 
Q 1041 2509 991 1931 
L 2791 1931 
z
" transform="scale(0.015625)"/>
       <path id="DejaVuSerif-72" d="M 3059 3328 
L 3059 2497 
L 2728 2497 
Q 2713 2744 2591 2866 
Q 2469 2988 2234 2988 
Q 1809 2988 1582 2694 
Q 1356 2400 1356 1850 
L 1356 331 
L 2022 331 
L 2022 0 
L 263 0 
L 263 331 
L 781 331 
L 781 2994 
L 231 2994 
L 231 3322 
L 1356 3322 
L 1356 2731 
Q 1525 3078 1790 3245 
Q 2056 3413 2438 3413 
Q 2578 3413 2733 3391 
Q 2888 3369 3059 3328 
z
" transform="scale(0.015625)"/>
       <path id="DejaVuSerif-6d" d="M 3316 2675 
Q 3481 3041 3739 3227 
Q 3997 3413 4341 3413 
Q 4863 3413 5119 3089 
Q 5375 2766 5375 2113 
L 5375 331 
L 5894 331 
L 5894 0 
L 4300 0 
L 4300 331 
L 4800 331 
L 4800 2047 
Q 4800 2556 4650 2772 
Q 4500 2988 4153 2988 
Q 3769 2988 3567 2697 
Q 3366 2406 3366 1850 
L 3366 331 
L 3866 331 
L 3866 0 
L 2291 0 
L 2291 331 
L 2791 331 
L 2791 2069 
Q 2791 2566 2641 2777 
Q 2491 2988 2144 2988 
Q 1759 2988 1557 2697 
Q 1356 2406 1356 1850 
L 1356 331 
L 1856 331 
L 1856 0 
L 263 0 
L 263 331 
L 781 331 
L 781 2994 
L 231 2994 
L 231 3322 
L 1356 3322 
L 1356 2731 
Q 1516 3063 1762 3238 
Q 2009 3413 2322 3413 
Q 2709 3413 2968 3220 
Q 3228 3028 3316 2675 
z
" transform="scale(0.015625)"/>
       <path id="DejaVuSerif-75" d="M 2266 3322 
L 3341 3322 
L 3341 331 
L 3884 331 
L 3884 0 
L 2766 0 
L 2766 588 
Q 2606 256 2353 82 
Q 2100 -91 1766 -91 
Q 1213 -91 952 223 
Q 691 538 691 1209 
L 691 2988 
L 172 2988 
L 172 3322 
L 1269 3322 
L 1269 1388 
Q 1269 781 1417 556 
Q 1566 331 1947 331 
Q 2347 331 2556 625 
Q 2766 919 2766 1478 
L 2766 2988 
L 2266 2988 
L 2266 3322 
z
" transform="scale(0.015625)"/>
       <path id="DejaVuSerif-74" d="M 691 2988 
L 184 2988 
L 184 3322 
L 691 3322 
L 691 4353 
L 1269 4353 
L 1269 3322 
L 2350 3322 
L 2350 2988 
L 1269 2988 
L 1269 878 
Q 1269 456 1350 337 
Q 1431 219 1650 219 
Q 1875 219 1978 351 
Q 2081 484 2088 781 
L 2522 781 
Q 2497 328 2275 118 
Q 2053 -91 1600 -91 
Q 1103 -91 897 129 
Q 691 350 691 878 
L 691 2988 
z
" transform="scale(0.015625)"/>
       <path id="DejaVuSerif-64" d="M 3359 331 
L 3909 331 
L 3909 0 
L 2784 0 
L 2784 519 
Q 2616 206 2355 57 
Q 2094 -91 1709 -91 
Q 1097 -91 708 395 
Q 319 881 319 1663 
Q 319 2444 706 2928 
Q 1094 3413 1709 3413 
Q 2094 3413 2355 3264 
Q 2616 3116 2784 2803 
L 2784 4531 
L 2241 4531 
L 2241 4863 
L 3359 4863 
L 3359 331 
z
M 2784 1497 
L 2784 1825 
Q 2784 2422 2554 2737 
Q 2325 3053 1888 3053 
Q 1444 3053 1217 2703 
Q 991 2353 991 1663 
Q 991 975 1217 622 
Q 1444 269 1888 269 
Q 2325 269 2554 583 
Q 2784 897 2784 1497 
z
" transform="scale(0.015625)"/>
       <path id="DejaVuSerif-20" transform="scale(0.015625)"/>
       <path id="DejaVuSerif-70" d="M 1313 1825 
L 1313 1497 
Q 1313 897 1542 583 
Q 1772 269 2209 269 
Q 2650 269 2876 622 
Q 3103 975 3103 1663 
Q 3103 2353 2876 2703 
Q 2650 3053 2209 3053 
Q 1772 3053 1542 2737 
Q 1313 2422 1313 1825 
z
M 738 2988 
L 184 2988 
L 184 3322 
L 1313 3322 
L 1313 2803 
Q 1481 3116 1742 3264 
Q 2003 3413 2388 3413 
Q 3000 3413 3387 2928 
Q 3775 2444 3775 1663 
Q 3775 881 3387 395 
Q 3000 -91 2388 -91 
Q 2003 -91 1742 57 
Q 1481 206 1313 519 
L 1313 -997 
L 1856 -997 
L 1856 -1331 
L 184 -1331 
L 184 -997 
L 738 -997 
L 738 2988 
z
" transform="scale(0.015625)"/>
       <path id="DejaVuSerif-6f" d="M 1925 219 
Q 2388 219 2623 584 
Q 2859 950 2859 1663 
Q 2859 2375 2623 2739 
Q 2388 3103 1925 3103 
Q 1463 3103 1227 2739 
Q 991 2375 991 1663 
Q 991 950 1228 584 
Q 1466 219 1925 219 
z
M 1925 -91 
Q 1200 -91 759 389 
Q 319 869 319 1663 
Q 319 2456 758 2934 
Q 1197 3413 1925 3413 
Q 2653 3413 3092 2934 
Q 3531 2456 3531 1663 
Q 3531 869 3092 389 
Q 2653 -91 1925 -91 
z
" transform="scale(0.015625)"/>
       <path id="DejaVuSerif-73" d="M 359 184 
L 359 959 
L 691 959 
Q 703 588 923 403 
Q 1144 219 1575 219 
Q 1963 219 2166 364 
Q 2369 509 2369 788 
Q 2369 1006 2220 1140 
Q 2072 1275 1594 1428 
L 1178 1569 
Q 750 1706 558 1912 
Q 366 2119 366 2438 
Q 366 2894 700 3153 
Q 1034 3413 1625 3413 
Q 1888 3413 2178 3344 
Q 2469 3275 2778 3144 
L 2778 2419 
L 2447 2419 
Q 2434 2741 2221 2922 
Q 2009 3103 1644 3103 
Q 1281 3103 1095 2975 
Q 909 2847 909 2591 
Q 909 2381 1050 2254 
Q 1191 2128 1613 1997 
L 2069 1856 
Q 2541 1709 2748 1489 
Q 2956 1269 2956 922 
Q 2956 450 2595 179 
Q 2234 -91 1600 -91 
Q 1278 -91 972 -22 
Q 666 47 359 184 
z
" transform="scale(0.015625)"/>
       <path id="DejaVuSerif-2d" d="M 281 1959 
L 1881 1959 
L 1881 1472 
L 281 1472 
L 281 1959 
z
" transform="scale(0.015625)"/>
       <path id="DejaVuSerif-67" d="M 3359 2988 
L 3359 72 
Q 3359 -644 2965 -1033 
Q 2572 -1422 1844 -1422 
Q 1516 -1422 1216 -1362 
Q 916 -1303 641 -1184 
L 641 -488 
L 941 -488 
Q 997 -813 1206 -963 
Q 1416 -1113 1806 -1113 
Q 2313 -1113 2548 -827 
Q 2784 -541 2784 72 
L 2784 519 
Q 2616 206 2355 57 
Q 2094 -91 1709 -91 
Q 1097 -91 708 395 
Q 319 881 319 1663 
Q 319 2444 706 2928 
Q 1094 3413 1709 3413 
Q 2094 3413 2355 3264 
Q 2616 3116 2784 2803 
L 2784 3322 
L 3909 3322 
L 3909 2988 
L 3359 2988 
z
M 2784 1825 
Q 2784 2422 2554 2737 
Q 2325 3053 1888 3053 
Q 1444 3053 1217 2703 
Q 991 2353 991 1663 
Q 991 975 1217 622 
Q 1444 269 1888 269 
Q 2325 269 2554 583 
Q 2784 897 2784 1497 
L 2784 1825 
z
" transform="scale(0.015625)"/>
       <path id="DejaVuSerif-61" d="M 2547 1044 
L 2547 1747 
L 1806 1747 
Q 1378 1747 1168 1562 
Q 959 1378 959 997 
Q 959 650 1171 447 
Q 1384 244 1747 244 
Q 2106 244 2326 466 
Q 2547 688 2547 1044 
z
M 3122 2075 
L 3122 331 
L 3634 331 
L 3634 0 
L 2547 0 
L 2547 359 
Q 2356 128 2106 18 
Q 1856 -91 1522 -91 
Q 969 -91 644 203 
Q 319 497 319 997 
Q 319 1513 691 1797 
Q 1063 2081 1741 2081 
L 2547 2081 
L 2547 2309 
Q 2547 2688 2317 2895 
Q 2088 3103 1672 3103 
Q 1328 3103 1125 2947 
Q 922 2791 872 2484 
L 575 2484 
L 575 3156 
Q 875 3284 1158 3348 
Q 1441 3413 1709 3413 
Q 2400 3413 2761 3070 
Q 3122 2728 3122 2075 
z
" transform="scale(0.015625)"/>
      </defs>
      <use xlink:href="#DejaVuSerif-50"/>
      <use xlink:href="#DejaVuSerif-65" transform="translate(62.785156 0)"/>
      <use xlink:href="#DejaVuSerif-72" transform="translate(121.964844 0)"/>
      <use xlink:href="#DejaVuSerif-6d" transform="translate(169.767578 0)"/>
      <use xlink:href="#DejaVuSerif-75" transform="translate(264.591797 0)"/>
      <use xlink:href="#DejaVuSerif-74" transform="translate(328.996094 0)"/>
      <use xlink:href="#DejaVuSerif-65" transform="translate(369.181641 0)"/>
      <use xlink:href="#DejaVuSerif-64" transform="translate(428.361328 0)"/>
      <use xlink:href="#DejaVuSerif-20" transform="translate(492.375 0)"/>
      <use xlink:href="#DejaVuSerif-70" transform="translate(524.162109 0)"/>
      <use xlink:href="#DejaVuSerif-6f" transform="translate(588.175781 0)"/>
      <use xlink:href="#DejaVuSerif-73" transform="translate(648.380859 0)"/>
      <use xlink:href="#DejaVuSerif-74" transform="translate(699.699219 0)"/>
      <use xlink:href="#DejaVuSerif-2d" transform="translate(739.884766 0)"/>
      <use xlink:href="#DejaVuSerif-70" transform="translate(773.673828 0)"/>
      <use xlink:href="#DejaVuSerif-72" transform="translate(837.6875 0)"/>
      <use xlink:href="#DejaVuSerif-65" transform="translate(885.490234 0)"/>
      <use xlink:href="#DejaVuSerif-20" transform="translate(944.669922 0)"/>
      <use xlink:href="#DejaVuSerif-67" transform="translate(976.457031 0)"/>
      <use xlink:href="#DejaVuSerif-61" transform="translate(1040.470703 0)"/>
      <use xlink:href="#DejaVuSerif-70" transform="translate(1100.089844 0)"/>
     </g>
    </g>
   </g>
   <g id="matplotlib.axis_2">
    <g id="ytick_1">
     <g id="line2d_13">
      <path d="M 42.278063 323.805989 
L 434.89551 323.805989 
" clip-path="url(#p1f9e248284)" style="fill: none; stroke-dasharray: 2.96,1.28; stroke-dashoffset: 0; stroke: #e2e8f0; stroke-opacity: 0.2; stroke-width: 0.8"/>
     </g>
     <g id="line2d_14">
      <defs>
       <path id="mbfc8f2e442" d="M 0 0 
L -3.5 0 
" style="stroke: #475569; stroke-width: 0.8"/>
      </defs>
      <g>
       <use xlink:href="#mbfc8f2e442" x="42.278063" y="323.805989" style="fill: #475569; stroke: #475569; stroke-width: 0.8"/>
      </g>
     </g>
     <g id="text_8">
      <!-- 0 -->
      <g style="fill: #475569" transform="translate(29.933563 326.997333) scale(0.084 -0.084)">
       <use xlink:href="#DejaVuSerif-30"/>
      </g>
     </g>
    </g>
    <g id="ytick_2">
     <g id="line2d_15">
      <path d="M 42.278063 264.85362 
L 434.89551 264.85362 
" clip-path="url(#p1f9e248284)" style="fill: none; stroke-dasharray: 2.96,1.28; stroke-dashoffset: 0; stroke: #e2e8f0; stroke-opacity: 0.2; stroke-width: 0.8"/>
     </g>
     <g id="line2d_16">
      <g>
       <use xlink:href="#mbfc8f2e442" x="42.278063" y="264.85362" style="fill: #475569; stroke: #475569; stroke-width: 0.8"/>
      </g>
     </g>
     <g id="text_9">
      <!-- 100 -->
      <g style="fill: #475569" transform="translate(19.244563 268.044964) scale(0.084 -0.084)">
       <defs>
        <path id="DejaVuSerif-31" d="M 909 0 
L 909 331 
L 1722 331 
L 1722 4213 
L 781 3603 
L 781 4013 
L 1919 4750 
L 2350 4750 
L 2350 331 
L 3163 331 
L 3163 0 
L 909 0 
z
" transform="scale(0.015625)"/>
       </defs>
       <use xlink:href="#DejaVuSerif-31"/>
       <use xlink:href="#DejaVuSerif-30" transform="translate(63.623047 0)"/>
       <use xlink:href="#DejaVuSerif-30" transform="translate(127.246094 0)"/>
      </g>
     </g>
    </g>
    <g id="ytick_3">
     <g id="line2d_17">
      <path d="M 42.278063 205.901252 
L 434.89551 205.901252 
" clip-path="url(#p1f9e248284)" style="fill: none; stroke-dasharray: 2.96,1.28; stroke-dashoffset: 0; stroke: #e2e8f0; stroke-opacity: 0.2; stroke-width: 0.8"/>
     </g>
     <g id="line2d_18">
      <g>
       <use xlink:href="#mbfc8f2e442" x="42.278063" y="205.901252" style="fill: #475569; stroke: #475569; stroke-width: 0.8"/>
      </g>
     </g>
     <g id="text_10">
      <!-- 200 -->
      <g style="fill: #475569" transform="translate(19.244563 209.092596) scale(0.084 -0.084)">
       <use xlink:href="#DejaVuSerif-32"/>
       <use xlink:href="#DejaVuSerif-30" transform="translate(63.623047 0)"/>
       <use xlink:href="#DejaVuSerif-30" transform="translate(127.246094 0)"/>
      </g>
     </g>
    </g>
    <g id="ytick_4">
     <g id="line2d_19">
      <path d="M 42.278063 146.948884 
L 434.89551 146.948884 
" clip-path="url(#p1f9e248284)" style="fill: none; stroke-dasharray: 2.96,1.28; stroke-dashoffset: 0; stroke: #e2e8f0; stroke-opacity: 0.2; stroke-width: 0.8"/>
     </g>
     <g id="line2d_20">
      <g>
       <use xlink:href="#mbfc8f2e442" x="42.278063" y="146.948884" style="fill: #475569; stroke: #475569; stroke-width: 0.8"/>
      </g>
     </g>
     <g id="text_11">
      <!-- 300 -->
      <g style="fill: #475569" transform="translate(19.244563 150.140227) scale(0.084 -0.084)">
       <defs>
        <path id="DejaVuSerif-33" d="M 622 4469 
Q 988 4606 1323 4678 
Q 1659 4750 1953 4750 
Q 2638 4750 3022 4454 
Q 3406 4159 3406 3634 
Q 3406 3213 3140 2930 
Q 2875 2647 2388 2547 
Q 2963 2466 3280 2130 
Q 3597 1794 3597 1259 
Q 3597 606 3158 257 
Q 2719 -91 1894 -91 
Q 1528 -91 1179 -12 
Q 831 66 488 225 
L 488 1131 
L 838 1131 
Q 869 681 1141 450 
Q 1413 219 1906 219 
Q 2384 219 2661 495 
Q 2938 772 2938 1253 
Q 2938 1803 2653 2086 
Q 2369 2369 1819 2369 
L 1522 2369 
L 1522 2688 
L 1678 2688 
Q 2225 2688 2498 2914 
Q 2772 3141 2772 3597 
Q 2772 4006 2547 4223 
Q 2322 4441 1900 4441 
Q 1478 4441 1245 4241 
Q 1013 4041 972 3647 
L 622 3647 
L 622 4469 
z
" transform="scale(0.015625)"/>
       </defs>
       <use xlink:href="#DejaVuSerif-33"/>
       <use xlink:href="#DejaVuSerif-30" transform="translate(63.623047 0)"/>
       <use xlink:href="#DejaVuSerif-30" transform="translate(127.246094 0)"/>
      </g>
     </g>
    </g>
    <g id="ytick_5">
     <g id="line2d_21">
      <path d="M 42.278063 87.996515 
L 434.89551 87.996515 
" clip-path="url(#p1f9e248284)" style="fill: none; stroke-dasharray: 2.96,1.28; stroke-dashoffset: 0; stroke: #e2e8f0; stroke-opacity: 0.2; stroke-width: 0.8"/>
     </g>
     <g id="line2d_22">
      <g>
       <use xlink:href="#mbfc8f2e442" x="42.278063" y="87.996515" style="fill: #475569; stroke: #475569; stroke-width: 0.8"/>
      </g>
     </g>
     <g id="text_12">
      <!-- 400 -->
      <g style="fill: #475569" transform="translate(19.244563 91.187859) scale(0.084 -0.084)">
       <use xlink:href="#DejaVuSerif-34"/>
       <use xlink:href="#DejaVuSerif-30" transform="translate(63.623047 0)"/>
       <use xlink:href="#DejaVuSerif-30" transform="translate(127.246094 0)"/>
      </g>
     </g>
    </g>
    <g id="text_13">
     <!-- Frequency -->
     <g style="fill: #0f172a" transform="translate(13.067125 206.39216) rotate(-90) scale(0.098 -0.098)">
      <defs>
       <path id="DejaVuSerif-46" d="M 353 0 
L 353 331 
L 947 331 
L 947 4331 
L 353 4331 
L 353 4666 
L 4172 4666 
L 4172 3628 
L 3788 3628 
L 3788 4281 
L 1581 4281 
L 1581 2719 
L 3175 2719 
L 3175 3303 
L 3559 3303 
L 3559 1753 
L 3175 1753 
L 3175 2338 
L 1581 2338 
L 1581 331 
L 2328 331 
L 2328 0 
L 353 0 
z
" transform="scale(0.015625)"/>
       <path id="DejaVuSerif-71" d="M 3359 2988 
L 3359 -997 
L 3909 -997 
L 3909 -1331 
L 2241 -1331 
L 2241 -997 
L 2784 -997 
L 2784 519 
Q 2616 206 2355 57 
Q 2094 -91 1709 -91 
Q 1097 -91 708 395 
Q 319 881 319 1663 
Q 319 2444 706 2928 
Q 1094 3413 1709 3413 
Q 2094 3413 2355 3264 
Q 2616 3116 2784 2803 
L 2784 3322 
L 3909 3322 
L 3909 2988 
L 3359 2988 
z
M 2784 1825 
Q 2784 2422 2554 2737 
Q 2325 3053 1888 3053 
Q 1444 3053 1217 2703 
Q 991 2353 991 1663 
Q 991 975 1217 622 
Q 1444 269 1888 269 
Q 2325 269 2554 583 
Q 2784 897 2784 1497 
L 2784 1825 
z
" transform="scale(0.015625)"/>
       <path id="DejaVuSerif-6e" d="M 263 0 
L 263 331 
L 781 331 
L 781 2988 
L 231 2988 
L 231 3322 
L 1356 3322 
L 1356 2731 
Q 1516 3069 1770 3241 
Q 2025 3413 2363 3413 
Q 2913 3413 3172 3097 
Q 3431 2781 3431 2113 
L 3431 331 
L 3944 331 
L 3944 0 
L 2356 0 
L 2356 331 
L 2853 331 
L 2853 1931 
Q 2853 2541 2703 2767 
Q 2553 2994 2175 2994 
Q 1775 2994 1565 2701 
Q 1356 2409 1356 1850 
L 1356 331 
L 1856 331 
L 1856 0 
L 263 0 
z
" transform="scale(0.015625)"/>
       <path id="DejaVuSerif-63" d="M 3291 997 
Q 3169 466 2822 187 
Q 2475 -91 1925 -91 
Q 1200 -91 759 389 
Q 319 869 319 1663 
Q 319 2459 759 2936 
Q 1200 3413 1925 3413 
Q 2241 3413 2553 3339 
Q 2866 3266 3181 3116 
L 3181 2266 
L 2847 2266 
Q 2781 2703 2561 2903 
Q 2341 3103 1931 3103 
Q 1466 3103 1228 2742 
Q 991 2381 991 1663 
Q 991 944 1227 581 
Q 1463 219 1931 219 
Q 2303 219 2525 412 
Q 2747 606 2828 997 
L 3291 997 
z
" transform="scale(0.015625)"/>
       <path id="DejaVuSerif-79" d="M 1381 -609 
L 1600 -56 
L 359 2988 
L -19 2988 
L -19 3322 
L 1509 3322 
L 1509 2988 
L 978 2988 
L 1913 703 
L 2847 2988 
L 2350 2988 
L 2350 3322 
L 3597 3322 
L 3597 2988 
L 3225 2988 
L 1703 -750 
Q 1547 -1138 1356 -1280 
Q 1166 -1422 819 -1422 
Q 672 -1422 517 -1397 
Q 363 -1372 206 -1325 
L 206 -691 
L 500 -691 
Q 519 -903 608 -995 
Q 697 -1088 884 -1088 
Q 1056 -1088 1161 -992 
Q 1266 -897 1381 -609 
z
" transform="scale(0.015625)"/>
      </defs>
      <use xlink:href="#DejaVuSerif-46"/>
      <use xlink:href="#DejaVuSerif-72" transform="translate(69.384766 0)"/>
      <use xlink:href="#DejaVuSerif-65" transform="translate(117.1875 0)"/>
      <use xlink:href="#DejaVuSerif-71" transform="translate(176.367188 0)"/>
      <use xlink:href="#DejaVuSerif-75" transform="translate(240.380859 0)"/>
      <use xlink:href="#DejaVuSerif-65" transform="translate(304.785156 0)"/>
      <use xlink:href="#DejaVuSerif-6e" transform="translate(363.964844 0)"/>
      <use xlink:href="#DejaVuSerif-63" transform="translate(428.369141 0)"/>
      <use xlink:href="#DejaVuSerif-79" transform="translate(484.375 0)"/>
     </g>
    </g>
   </g>
   <g id="line2d_23">
    <path d="M 417.049262 323.805989 
L 417.049262 35.97105 
" clip-path="url(#p1f9e248284)" style="fill: none; stroke-dasharray: 7.4,3.2; stroke-dashoffset: 0; stroke: #1d4ed8; stroke-width: 2"/>
   </g>
   <g id="patch_27">
    <path d="M 42.278063 323.805989 
L 42.278063 35.97105 
" style="fill: none; stroke: #475569; stroke-width: 0.85; stroke-linejoin: miter; stroke-linecap: square"/>
   </g>
   <g id="patch_28">
    <path d="M 42.278063 323.805989 
L 434.89551 323.805989 
" style="fill: none; stroke: #475569; stroke-width: 0.85; stroke-linejoin: miter; stroke-linecap: square"/>
   </g>
   <g id="text_14">
    <!-- Matrix Completion -->
    <g style="fill: #0f172a" transform="translate(179.562786 14.4295) scale(0.112 -0.112)">
     <defs>
      <path id="DejaVuSerif-Bold-4d" d="M 269 0 
L 269 378 
L 863 378 
L 863 4288 
L 269 4288 
L 269 4666 
L 2194 4666 
L 3525 1672 
L 4863 4666 
L 6784 4666 
L 6784 4288 
L 6188 4288 
L 6188 378 
L 6784 378 
L 6784 0 
L 4384 0 
L 4384 378 
L 4978 378 
L 4978 3938 
L 3531 684 
L 2741 684 
L 1300 3938 
L 1300 378 
L 1894 378 
L 1894 0 
L 269 0 
z
" transform="scale(0.015625)"/>
      <path id="DejaVuSerif-Bold-61" d="M 3525 2041 
L 3525 378 
L 4000 378 
L 4000 0 
L 2419 0 
L 2419 422 
Q 2200 159 1931 34 
Q 1663 -91 1319 -91 
Q 809 -91 536 182 
Q 263 456 263 966 
Q 263 1525 655 1803 
Q 1047 2081 1838 2081 
L 2419 2081 
L 2419 2278 
Q 2419 2681 2228 2873 
Q 2038 3066 1638 3066 
Q 1306 3066 1126 2930 
Q 947 2794 872 2484 
L 519 2484 
L 519 3200 
Q 816 3306 1134 3359 
Q 1453 3413 1806 3413 
Q 2697 3413 3111 3081 
Q 3525 2750 3525 2041 
z
M 2419 1044 
L 2419 1709 
L 2003 1709 
Q 1694 1709 1528 1540 
Q 1363 1372 1363 1056 
Q 1363 741 1483 584 
Q 1603 428 1850 428 
Q 2106 428 2262 597 
Q 2419 766 2419 1044 
z
" transform="scale(0.015625)"/>
      <path id="DejaVuSerif-Bold-74" d="M 634 2944 
L 153 2944 
L 153 3322 
L 634 3322 
L 634 4353 
L 1741 4353 
L 1741 3322 
L 2663 3322 
L 2663 2944 
L 1741 2944 
L 1741 909 
Q 1741 475 1809 369 
Q 1878 263 2059 263 
Q 2259 263 2356 397 
Q 2453 531 2459 813 
L 2925 813 
Q 2897 313 2651 111 
Q 2406 -91 1806 -91 
Q 1122 -91 878 123 
Q 634 338 634 909 
L 634 2944 
z
" transform="scale(0.015625)"/>
      <path id="DejaVuSerif-Bold-72" d="M 3438 3359 
L 3438 2369 
L 3084 2369 
Q 3066 2634 2941 2764 
Q 2816 2894 2578 2894 
Q 2216 2894 2006 2575 
Q 1797 2256 1797 1691 
L 1797 378 
L 2400 378 
L 2400 0 
L 219 0 
L 219 378 
L 691 378 
L 691 2944 
L 184 2944 
L 184 3322 
L 1797 3322 
L 1797 2731 
Q 1959 3078 2226 3245 
Q 2494 3413 2881 3413 
Q 2978 3413 3117 3398 
Q 3256 3384 3438 3359 
z
" transform="scale(0.015625)"/>
      <path id="DejaVuSerif-Bold-69" d="M 588 4263 
Q 588 4516 763 4689 
Q 938 4863 1191 4863 
Q 1438 4863 1611 4689 
Q 1784 4516 1784 4263 
Q 1784 4016 1611 3842 
Q 1438 3669 1191 3669 
Q 938 3669 763 3841 
Q 588 4013 588 4263 
z
M 1797 378 
L 2272 378 
L 2272 0 
L 219 0 
L 219 378 
L 691 378 
L 691 2944 
L 219 2944 
L 219 3322 
L 1797 3322 
L 1797 378 
z
" transform="scale(0.015625)"/>
      <path id="DejaVuSerif-Bold-78" d="M 2247 2119 
L 2834 2944 
L 2425 2944 
L 2425 3322 
L 3719 3322 
L 3719 2944 
L 3278 2944 
L 2431 1759 
L 3419 378 
L 3859 378 
L 3859 0 
L 1747 0 
L 1747 378 
L 2175 378 
L 1550 1253 
L 922 378 
L 1369 378 
L 1369 0 
L 0 0 
L 0 378 
L 475 378 
L 1356 1619 
L 403 2944 
L 31 2944 
L 31 3322 
L 2059 3322 
L 2059 2944 
L 1656 2944 
L 2247 2119 
z
" transform="scale(0.015625)"/>
      <path id="DejaVuSerif-Bold-20" transform="scale(0.015625)"/>
      <path id="DejaVuSerif-Bold-43" d="M 4769 1331 
Q 4584 609 4106 259 
Q 3628 -91 2822 -91 
Q 1641 -91 955 561 
Q 269 1213 269 2328 
Q 269 3447 955 4098 
Q 1641 4750 2822 4750 
Q 3238 4750 3688 4650 
Q 4138 4550 4641 4347 
L 4641 3200 
L 4244 3200 
Q 4122 3788 3800 4080 
Q 3478 4372 2950 4372 
Q 2269 4372 1937 3870 
Q 1606 3369 1606 2328 
Q 1606 1288 1937 788 
Q 2269 288 2956 288 
Q 3422 288 3717 547 
Q 4013 806 4147 1331 
L 4769 1331 
z
" transform="scale(0.015625)"/>
      <path id="DejaVuSerif-Bold-6f" d="M 2138 263 
Q 2488 263 2630 563 
Q 2772 863 2772 1663 
Q 2772 2463 2631 2761 
Q 2491 3059 2138 3059 
Q 1784 3059 1640 2757 
Q 1497 2456 1497 1663 
Q 1497 869 1640 566 
Q 1784 263 2138 263 
z
M 2138 -91 
Q 1259 -91 761 376 
Q 263 844 263 1663 
Q 263 2484 761 2948 
Q 1259 3413 2138 3413 
Q 3019 3413 3516 2948 
Q 4013 2484 4013 1663 
Q 4013 844 3514 376 
Q 3016 -91 2138 -91 
z
" transform="scale(0.015625)"/>
      <path id="DejaVuSerif-Bold-6d" d="M 3884 2778 
Q 4116 3109 4384 3261 
Q 4653 3413 5013 3413 
Q 5584 3413 5867 3089 
Q 6150 2766 6150 2113 
L 6150 378 
L 6625 378 
L 6625 0 
L 4647 0 
L 4647 378 
L 5044 378 
L 5044 1947 
Q 5044 2569 4948 2731 
Q 4853 2894 4594 2894 
Q 4300 2894 4137 2667 
Q 3975 2441 3975 2022 
L 3975 378 
L 4372 378 
L 4372 0 
L 2472 0 
L 2472 378 
L 2869 378 
L 2869 1947 
Q 2869 2569 2772 2731 
Q 2675 2894 2419 2894 
Q 2122 2894 1959 2667 
Q 1797 2441 1797 2022 
L 1797 378 
L 2194 378 
L 2194 0 
L 219 0 
L 219 378 
L 691 378 
L 691 2944 
L 219 2944 
L 219 3322 
L 1797 3322 
L 1797 2853 
Q 1991 3144 2241 3278 
Q 2491 3413 2834 3413 
Q 3241 3413 3494 3258 
Q 3747 3103 3884 2778 
z
" transform="scale(0.015625)"/>
      <path id="DejaVuSerif-Bold-70" d="M 1728 1825 
L 1728 1497 
Q 1728 916 1876 656 
Q 2025 397 2356 397 
Q 2697 397 2836 672 
Q 2975 947 2975 1663 
Q 2975 2378 2836 2651 
Q 2697 2925 2356 2925 
Q 2025 2925 1876 2665 
Q 1728 2406 1728 1825 
z
M 622 2944 
L 147 2944 
L 147 3322 
L 1728 3322 
L 1728 2900 
Q 1869 3159 2106 3286 
Q 2344 3413 2694 3413 
Q 3403 3413 3811 2945 
Q 4219 2478 4219 1663 
Q 4219 847 3811 378 
Q 3403 -91 2694 -91 
Q 2344 -91 2106 36 
Q 1869 163 1728 422 
L 1728 -953 
L 2241 -953 
L 2241 -1331 
L 147 -1331 
L 147 -953 
L 622 -953 
L 622 2944 
z
" transform="scale(0.015625)"/>
      <path id="DejaVuSerif-Bold-6c" d="M 1797 378 
L 2272 378 
L 2272 0 
L 219 0 
L 219 378 
L 691 378 
L 691 4488 
L 219 4488 
L 219 4863 
L 1797 4863 
L 1797 378 
z
" transform="scale(0.015625)"/>
      <path id="DejaVuSerif-Bold-65" d="M 2566 1875 
Q 2566 2531 2444 2795 
Q 2322 3059 2028 3059 
Q 1744 3059 1620 2800 
Q 1497 2541 1497 1931 
L 1497 1875 
L 2566 1875 
z
M 3781 1503 
L 1497 1503 
L 1497 1478 
Q 1497 834 1690 548 
Q 1884 263 2316 263 
Q 2675 263 2897 453 
Q 3119 644 3181 1006 
L 3700 1006 
Q 3566 441 3166 175 
Q 2766 -91 2047 -91 
Q 1184 -91 723 364 
Q 263 819 263 1663 
Q 263 2488 734 2950 
Q 1206 3413 2047 3413 
Q 2872 3413 3312 2927 
Q 3753 2441 3781 1503 
z
" transform="scale(0.015625)"/>
      <path id="DejaVuSerif-Bold-6e" d="M 219 0 
L 219 378 
L 691 378 
L 691 2944 
L 219 2944 
L 219 3322 
L 1797 3322 
L 1797 2853 
Q 1997 3150 2253 3281 
Q 2509 3413 2900 3413 
Q 3459 3413 3745 3083 
Q 4031 2753 4031 2113 
L 4031 378 
L 4506 378 
L 4506 0 
L 2522 0 
L 2522 378 
L 2925 378 
L 2925 2144 
Q 2925 2566 2817 2730 
Q 2709 2894 2444 2894 
Q 2109 2894 1953 2648 
Q 1797 2403 1797 1869 
L 1797 378 
L 2203 378 
L 2203 0 
L 219 0 
z
" transform="scale(0.015625)"/>
     </defs>
     <use xlink:href="#DejaVuSerif-Bold-4d"/>
     <use xlink:href="#DejaVuSerif-Bold-61" transform="translate(110.693359 0)"/>
     <use xlink:href="#DejaVuSerif-Bold-74" transform="translate(175.488281 0)"/>
     <use xlink:href="#DejaVuSerif-Bold-72" transform="translate(221.679688 0)"/>
     <use xlink:href="#DejaVuSerif-Bold-69" transform="translate(274.365234 0)"/>
     <use xlink:href="#DejaVuSerif-Bold-78" transform="translate(312.353516 0)"/>
     <use xlink:href="#DejaVuSerif-Bold-20" transform="translate(371.972656 0)"/>
     <use xlink:href="#DejaVuSerif-Bold-43" transform="translate(406.787109 0)"/>
     <use xlink:href="#DejaVuSerif-Bold-6f" transform="translate(486.376953 0)"/>
     <use xlink:href="#DejaVuSerif-Bold-6d" transform="translate(553.076172 0)"/>
     <use xlink:href="#DejaVuSerif-Bold-70" transform="translate(658.886719 0)"/>
     <use xlink:href="#DejaVuSerif-Bold-6c" transform="translate(728.808594 0)"/>
     <use xlink:href="#DejaVuSerif-Bold-65" transform="translate(766.796875 0)"/>
     <use xlink:href="#DejaVuSerif-Bold-74" transform="translate(830.419922 0)"/>
     <use xlink:href="#DejaVuSerif-Bold-69" transform="translate(876.611328 0)"/>
     <use xlink:href="#DejaVuSerif-Bold-6f" transform="translate(914.599609 0)"/>
     <use xlink:href="#DejaVuSerif-Bold-6e" transform="translate(981.298828 0)"/>
    </g>
    <!-- obs=6.200, permutation p=0.018 -->
    <g style="fill: #0f172a" transform="translate(134.402286 26.97105) scale(0.112 -0.112)">
     <defs>
      <path id="DejaVuSerif-Bold-62" d="M 622 378 
L 622 4488 
L 147 4488 
L 147 4863 
L 1728 4863 
L 1728 2900 
Q 1869 3159 2106 3286 
Q 2344 3413 2694 3413 
Q 3403 3413 3811 2945 
Q 4219 2478 4219 1663 
Q 4219 847 3811 378 
Q 3403 -91 2694 -91 
Q 2344 -91 2106 36 
Q 1869 163 1728 422 
L 1728 0 
L 147 0 
L 147 378 
L 622 378 
z
M 1728 1497 
Q 1728 916 1876 656 
Q 2025 397 2356 397 
Q 2697 397 2836 672 
Q 2975 947 2975 1663 
Q 2975 2378 2836 2651 
Q 2697 2925 2356 2925 
Q 2025 2925 1876 2665 
Q 1728 2406 1728 1825 
L 1728 1497 
z
" transform="scale(0.015625)"/>
      <path id="DejaVuSerif-Bold-73" d="M 300 97 
L 300 1025 
L 653 1025 
Q 697 653 931 458 
Q 1166 263 1569 263 
Q 1906 263 2086 380 
Q 2266 497 2266 716 
Q 2266 916 2152 1025 
Q 2038 1134 1709 1216 
L 1253 1331 
Q 738 1459 506 1698 
Q 275 1938 275 2344 
Q 275 2884 650 3148 
Q 1025 3413 1806 3413 
Q 2100 3413 2433 3364 
Q 2766 3316 3169 3213 
L 3169 2375 
L 2816 2375 
Q 2788 2716 2573 2887 
Q 2359 3059 1959 3059 
Q 1622 3059 1448 2951 
Q 1275 2844 1275 2638 
Q 1275 2469 1375 2372 
Q 1475 2275 1734 2209 
L 2188 2094 
Q 2841 1928 3091 1684 
Q 3341 1441 3341 1006 
Q 3341 444 2939 176 
Q 2538 -91 1691 -91 
Q 1381 -91 1034 -44 
Q 688 3 300 97 
z
" transform="scale(0.015625)"/>
      <path id="DejaVuSerif-Bold-3d" d="M 678 1650 
L 4684 1650 
L 4684 941 
L 678 941 
L 678 1650 
z
M 678 3072 
L 4684 3072 
L 4684 2363 
L 678 2363 
L 678 3072 
z
" transform="scale(0.015625)"/>
      <path id="DejaVuSerif-Bold-36" d="M 1575 2766 
Q 1778 2928 2029 3009 
Q 2281 3091 2578 3091 
Q 3294 3091 3701 2672 
Q 4109 2253 4109 1522 
Q 4109 750 3650 329 
Q 3191 -91 2344 -91 
Q 1388 -91 895 486 
Q 403 1063 403 2181 
Q 403 3453 950 4101 
Q 1497 4750 2572 4750 
Q 2853 4750 3175 4703 
Q 3497 4656 3866 4563 
L 3866 3738 
L 3488 3738 
Q 3409 4056 3192 4220 
Q 2975 4384 2631 4384 
Q 2075 4384 1826 4003 
Q 1578 3622 1575 2766 
z
M 2272 275 
Q 2594 275 2731 548 
Q 2869 822 2869 1497 
Q 2869 2172 2731 2445 
Q 2594 2719 2272 2719 
Q 1950 2719 1814 2445 
Q 1678 2172 1678 1497 
Q 1678 822 1814 548 
Q 1950 275 2272 275 
z
" transform="scale(0.015625)"/>
      <path id="DejaVuSerif-Bold-2e" d="M 519 506 
Q 519 750 694 925 
Q 869 1100 1113 1100 
Q 1359 1100 1534 925 
Q 1709 750 1709 506 
Q 1709 259 1534 84 
Q 1359 -91 1113 -91 
Q 869 -91 694 84 
Q 519 259 519 506 
z
" transform="scale(0.015625)"/>
      <path id="DejaVuSerif-Bold-32" d="M 844 3513 
L 469 3513 
L 469 4519 
Q 850 4634 1223 4692 
Q 1597 4750 1978 4750 
Q 2869 4750 3367 4386 
Q 3866 4022 3866 3372 
Q 3866 2909 3591 2542 
Q 3316 2175 2541 1672 
L 1241 819 
L 3450 819 
L 3450 1369 
L 3878 1369 
L 3878 0 
L 428 0 
L 428 763 
L 1119 1241 
Q 2003 1850 2297 2278 
Q 2591 2706 2591 3278 
Q 2591 3819 2367 4101 
Q 2144 4384 1716 4384 
Q 1347 4384 1125 4161 
Q 903 3938 844 3513 
z
" transform="scale(0.015625)"/>
      <path id="DejaVuSerif-Bold-30" d="M 2228 275 
Q 2603 275 2742 615 
Q 2881 956 2881 2328 
Q 2881 3691 2742 4037 
Q 2603 4384 2228 4384 
Q 1853 4384 1714 4043 
Q 1575 3703 1575 2328 
Q 1575 956 1714 615 
Q 1853 275 2228 275 
z
M 2228 -91 
Q 1294 -91 797 532 
Q 300 1156 300 2328 
Q 300 3500 797 4125 
Q 1294 4750 2228 4750 
Q 3159 4750 3656 4125 
Q 4153 3500 4153 2328 
Q 4153 1156 3656 532 
Q 3159 -91 2228 -91 
z
" transform="scale(0.015625)"/>
      <path id="DejaVuSerif-Bold-2c" d="M 84 -616 
Q 409 -353 562 -28 
Q 716 297 716 728 
L 716 997 
L 1606 997 
L 1606 972 
Q 1606 281 1317 -217 
Q 1028 -716 428 -1056 
L 84 -616 
z
" transform="scale(0.015625)"/>
      <path id="DejaVuSerif-Bold-75" d="M 3963 3322 
L 3963 378 
L 4434 378 
L 4434 0 
L 2853 0 
L 2853 469 
Q 2656 172 2400 40 
Q 2144 -91 1753 -91 
Q 1194 -91 908 239 
Q 622 569 622 1209 
L 622 2944 
L 147 2944 
L 147 3322 
L 1728 3322 
L 1728 1381 
Q 1728 763 1831 595 
Q 1934 428 2209 428 
Q 2544 428 2698 675 
Q 2853 922 2853 1459 
L 2853 2944 
L 2450 2944 
L 2450 3322 
L 3963 3322 
z
" transform="scale(0.015625)"/>
      <path id="DejaVuSerif-Bold-31" d="M 878 0 
L 878 378 
L 1753 378 
L 1753 4153 
L 781 3578 
L 781 4044 
L 1953 4750 
L 2938 4750 
L 2938 378 
L 3816 378 
L 3816 0 
L 878 0 
z
" transform="scale(0.015625)"/>
      <path id="DejaVuSerif-Bold-38" d="M 2975 2484 
Q 3531 2394 3820 2075 
Q 4109 1756 4109 1241 
Q 4109 597 3623 253 
Q 3138 -91 2222 -91 
Q 1306 -91 818 253 
Q 331 597 331 1241 
Q 331 1756 622 2075 
Q 913 2394 1466 2484 
Q 975 2597 731 2861 
Q 488 3125 488 3531 
Q 488 4125 931 4437 
Q 1375 4750 2222 4750 
Q 3066 4750 3511 4437 
Q 3956 4125 3956 3531 
Q 3956 3125 3711 2861 
Q 3466 2597 2975 2484 
z
M 2747 3519 
Q 2747 4013 2628 4198 
Q 2509 4384 2222 4384 
Q 1931 4384 1814 4198 
Q 1697 4013 1697 3519 
Q 1697 3028 1814 2845 
Q 1931 2663 2222 2663 
Q 2513 2663 2630 2845 
Q 2747 3028 2747 3519 
z
M 2869 1294 
Q 2869 1866 2723 2081 
Q 2578 2297 2222 2297 
Q 1863 2297 1719 2081 
Q 1575 1866 1575 1294 
Q 1575 716 1720 495 
Q 1866 275 2222 275 
Q 2575 275 2722 495 
Q 2869 716 2869 1294 
z
" transform="scale(0.015625)"/>
     </defs>
     <use xlink:href="#DejaVuSerif-Bold-6f"/>
     <use xlink:href="#DejaVuSerif-Bold-62" transform="translate(66.699219 0)"/>
     <use xlink:href="#DejaVuSerif-Bold-73" transform="translate(136.621094 0)"/>
     <use xlink:href="#DejaVuSerif-Bold-3d" transform="translate(192.919922 0)"/>
     <use xlink:href="#DejaVuSerif-Bold-36" transform="translate(276.708984 0)"/>
     <use xlink:href="#DejaVuSerif-Bold-2e" transform="translate(346.289062 0)"/>
     <use xlink:href="#DejaVuSerif-Bold-32" transform="translate(381.103516 0)"/>
     <use xlink:href="#DejaVuSerif-Bold-30" transform="translate(450.683594 0)"/>
     <use xlink:href="#DejaVuSerif-Bold-30" transform="translate(520.263672 0)"/>
     <use xlink:href="#DejaVuSerif-Bold-2c" transform="translate(589.84375 0)"/>
     <use xlink:href="#DejaVuSerif-Bold-20" transform="translate(624.658203 0)"/>
     <use xlink:href="#DejaVuSerif-Bold-70" transform="translate(659.472656 0)"/>
     <use xlink:href="#DejaVuSerif-Bold-65" transform="translate(729.394531 0)"/>
     <use xlink:href="#DejaVuSerif-Bold-72" transform="translate(793.017578 0)"/>
     <use xlink:href="#DejaVuSerif-Bold-6d" transform="translate(845.703125 0)"/>
     <use xlink:href="#DejaVuSerif-Bold-75" transform="translate(951.513672 0)"/>
     <use xlink:href="#DejaVuSerif-Bold-74" transform="translate(1024.21875 0)"/>
     <use xlink:href="#DejaVuSerif-Bold-61" transform="translate(1070.410156 0)"/>
     <use xlink:href="#DejaVuSerif-Bold-74" transform="translate(1135.205078 0)"/>
     <use xlink:href="#DejaVuSerif-Bold-69" transform="translate(1181.396484 0)"/>
     <use xlink:href="#DejaVuSerif-Bold-6f" transform="translate(1219.384766 0)"/>
     <use xlink:href="#DejaVuSerif-Bold-6e" transform="translate(1286.083984 0)"/>
     <use xlink:href="#DejaVuSerif-Bold-20" transform="translate(1358.789062 0)"/>
     <use xlink:href="#DejaVuSerif-Bold-70" transform="translate(1393.603516 0)"/>
     <use xlink:href="#DejaVuSerif-Bold-3d" transform="translate(1463.525391 0)"/>
     <use xlink:href="#DejaVuSerif-Bold-30" transform="translate(1547.314453 0)"/>
     <use xlink:href="#DejaVuSerif-Bold-2e" transform="translate(1616.894531 0)"/>
     <use xlink:href="#DejaVuSerif-Bold-30" transform="translate(1651.708984 0)"/>
     <use xlink:href="#DejaVuSerif-Bold-31" transform="translate(1721.289062 0)"/>
     <use xlink:href="#DejaVuSerif-Bold-38" transform="translate(1790.869141 0)"/>
    </g>
   </g>
  </g>
  <g id="axes_2">
   <g id="patch_29">
    <path d="M 485.542072 323.805989 
L 878.15952 323.805989 
L 878.15952 35.97105 
L 485.542072 35.97105 
z
" style="fill: #ffffff"/>
   </g>
   <g id="patch_30">
    <path d="M 503.38832 323.805989 
L 518.260193 323.805989 
L 518.260193 187.56742 
L 503.38832 187.56742 
z
" clip-path="url(#p1f6729dd8b)" style="fill: #fdba74; stroke: #ffffff; stroke-linejoin: miter"/>
   </g>
   <g id="patch_31">
    <path d="M 518.260193 323.805989 
L 533.132066 323.805989 
L 533.132066 323.805989 
L 518.260193 323.805989 
z
" clip-path="url(#p1f6729dd8b)" style="fill: #fdba74; stroke: #ffffff; stroke-linejoin: miter"/>
   </g>
   <g id="patch_32">
    <path d="M 533.132066 323.805989 
L 548.003939 323.805989 
L 548.003939 323.805989 
L 533.132066 323.805989 
z
" clip-path="url(#p1f6729dd8b)" style="fill: #fdba74; stroke: #ffffff; stroke-linejoin: miter"/>
   </g>
   <g id="patch_33">
    <path d="M 548.003939 323.805989 
L 562.875812 323.805989 
L 562.875812 323.805989 
L 548.003939 323.805989 
z
" clip-path="url(#p1f6729dd8b)" style="fill: #fdba74; stroke: #ffffff; stroke-linejoin: miter"/>
   </g>
   <g id="patch_34">
    <path d="M 562.875812 323.805989 
L 577.747685 323.805989 
L 577.747685 323.805989 
L 562.875812 323.805989 
z
" clip-path="url(#p1f6729dd8b)" style="fill: #fdba74; stroke: #ffffff; stroke-linejoin: miter"/>
   </g>
   <g id="patch_35">
    <path d="M 577.747685 323.805989 
L 592.619558 323.805989 
L 592.619558 323.805989 
L 577.747685 323.805989 
z
" clip-path="url(#p1f6729dd8b)" style="fill: #fdba74; stroke: #ffffff; stroke-linejoin: miter"/>
   </g>
   <g id="patch_36">
    <path d="M 592.619558 323.805989 
L 607.491431 323.805989 
L 607.491431 323.805989 
L 592.619558 323.805989 
z
" clip-path="url(#p1f6729dd8b)" style="fill: #fdba74; stroke: #ffffff; stroke-linejoin: miter"/>
   </g>
   <g id="patch_37">
    <path d="M 607.491431 323.805989 
L 622.363304 323.805989 
L 622.363304 323.805989 
L 607.491431 323.805989 
z
" clip-path="url(#p1f6729dd8b)" style="fill: #fdba74; stroke: #ffffff; stroke-linejoin: miter"/>
   </g>
   <g id="patch_38">
    <path d="M 622.363304 323.805989 
L 637.235177 323.805989 
L 637.235177 323.805989 
L 622.363304 323.805989 
z
" clip-path="url(#p1f6729dd8b)" style="fill: #fdba74; stroke: #ffffff; stroke-linejoin: miter"/>
   </g>
   <g id="patch_39">
    <path d="M 637.235177 323.805989 
L 652.10705 323.805989 
L 652.10705 323.805989 
L 637.235177 323.805989 
z
" clip-path="url(#p1f6729dd8b)" style="fill: #fdba74; stroke: #ffffff; stroke-linejoin: miter"/>
   </g>
   <g id="patch_40">
    <path d="M 652.10705 323.805989 
L 666.978923 323.805989 
L 666.978923 323.805989 
L 652.10705 323.805989 
z
" clip-path="url(#p1f6729dd8b)" style="fill: #fdba74; stroke: #ffffff; stroke-linejoin: miter"/>
   </g>
   <g id="patch_41">
    <path d="M 666.978923 323.805989 
L 681.850796 323.805989 
L 681.850796 323.805989 
L 666.978923 323.805989 
z
" clip-path="url(#p1f6729dd8b)" style="fill: #fdba74; stroke: #ffffff; stroke-linejoin: miter"/>
   </g>
   <g id="patch_42">
    <path d="M 681.850796 323.805989 
L 696.722669 323.805989 
L 696.722669 323.805989 
L 681.850796 323.805989 
z
" clip-path="url(#p1f6729dd8b)" style="fill: #fdba74; stroke: #ffffff; stroke-linejoin: miter"/>
   </g>
   <g id="patch_43">
    <path d="M 696.722669 323.805989 
L 711.594542 323.805989 
L 711.594542 323.805989 
L 696.722669 323.805989 
z
" clip-path="url(#p1f6729dd8b)" style="fill: #fdba74; stroke: #ffffff; stroke-linejoin: miter"/>
   </g>
   <g id="patch_44">
    <path d="M 711.594542 323.805989 
L 726.466415 323.805989 
L 726.466415 323.805989 
L 711.594542 323.805989 
z
" clip-path="url(#p1f6729dd8b)" style="fill: #fdba74; stroke: #ffffff; stroke-linejoin: miter"/>
   </g>
   <g id="patch_45">
    <path d="M 726.466415 323.805989 
L 741.338288 323.805989 
L 741.338288 323.805989 
L 726.466415 323.805989 
z
" clip-path="url(#p1f6729dd8b)" style="fill: #fdba74; stroke: #ffffff; stroke-linejoin: miter"/>
   </g>
   <g id="patch_46">
    <path d="M 741.338288 323.805989 
L 756.210161 323.805989 
L 756.210161 323.805989 
L 741.338288 323.805989 
z
" clip-path="url(#p1f6729dd8b)" style="fill: #fdba74; stroke: #ffffff; stroke-linejoin: miter"/>
   </g>
   <g id="patch_47">
    <path d="M 756.210161 323.805989 
L 771.082034 323.805989 
L 771.082034 323.805989 
L 756.210161 323.805989 
z
" clip-path="url(#p1f6729dd8b)" style="fill: #fdba74; stroke: #ffffff; stroke-linejoin: miter"/>
   </g>
   <g id="patch_48">
    <path d="M 771.082034 323.805989 
L 785.953907 323.805989 
L 785.953907 323.805989 
L 771.082034 323.805989 
z
" clip-path="url(#p1f6729dd8b)" style="fill: #fdba74; stroke: #ffffff; stroke-linejoin: miter"/>
   </g>
   <g id="patch_49">
    <path d="M 785.953907 323.805989 
L 800.82578 323.805989 
L 800.82578 184.058245 
L 785.953907 184.058245 
z
" clip-path="url(#p1f6729dd8b)" style="fill: #fdba74; stroke: #ffffff; stroke-linejoin: miter"/>
   </g>
   <g id="patch_50">
    <path d="M 800.82578 323.805989 
L 815.697653 323.805989 
L 815.697653 186.328888 
L 800.82578 186.328888 
z
" clip-path="url(#p1f6729dd8b)" style="fill: #fdba74; stroke: #ffffff; stroke-linejoin: miter"/>
   </g>
   <g id="patch_51">
    <path d="M 815.697653 323.805989 
L 830.569526 323.805989 
L 830.569526 49.677476 
L 815.697653 49.677476 
z
" clip-path="url(#p1f6729dd8b)" style="fill: #fdba74; stroke: #ffffff; stroke-linejoin: miter"/>
   </g>
   <g id="patch_52">
    <path d="M 830.569526 323.805989 
L 845.441399 323.805989 
L 845.441399 323.805989 
L 830.569526 323.805989 
z
" clip-path="url(#p1f6729dd8b)" style="fill: #fdba74; stroke: #ffffff; stroke-linejoin: miter"/>
   </g>
   <g id="patch_53">
    <path d="M 845.441399 323.805989 
L 860.313272 323.805989 
L 860.313272 185.709622 
L 845.441399 185.709622 
z
" clip-path="url(#p1f6729dd8b)" style="fill: #fdba74; stroke: #ffffff; stroke-linejoin: miter"/>
   </g>
   <g id="matplotlib.axis_3">
    <g id="xtick_7">
     <g id="line2d_24">
      <path d="M 505.262632 323.805989 
L 505.262632 35.97105 
" clip-path="url(#p1f6729dd8b)" style="fill: none; stroke-dasharray: 2.96,1.28; stroke-dashoffset: 0; stroke: #e2e8f0; stroke-opacity: 0.2; stroke-width: 0.8"/>
     </g>
     <g id="line2d_25">
      <g>
       <use xlink:href="#md3ef010125" x="505.262632" y="323.805989" style="fill: #475569; stroke: #475569; stroke-width: 0.8"/>
      </g>
     </g>
     <g id="text_15">
      <!-- −0.06 -->
      <g style="fill: #475569" transform="translate(492.391601 337.188676) scale(0.084 -0.084)">
       <defs>
        <path id="DejaVuSerif-2e" d="M 603 325 
Q 603 500 722 622 
Q 841 744 1019 744 
Q 1191 744 1312 622 
Q 1434 500 1434 325 
Q 1434 153 1312 31 
Q 1191 -91 1019 -91 
Q 841 -91 722 29 
Q 603 150 603 325 
z
" transform="scale(0.015625)"/>
       </defs>
       <use xlink:href="#DejaVuSerif-2212"/>
       <use xlink:href="#DejaVuSerif-30" transform="translate(83.789062 0)"/>
       <use xlink:href="#DejaVuSerif-2e" transform="translate(147.412109 0)"/>
       <use xlink:href="#DejaVuSerif-30" transform="translate(179.199219 0)"/>
       <use xlink:href="#DejaVuSerif-36" transform="translate(242.822266 0)"/>
      </g>
     </g>
    </g>
    <g id="xtick_8">
     <g id="line2d_26">
      <path d="M 549.34284 323.805989 
L 549.34284 35.97105 
" clip-path="url(#p1f6729dd8b)" style="fill: none; stroke-dasharray: 2.96,1.28; stroke-dashoffset: 0; stroke: #e2e8f0; stroke-opacity: 0.2; stroke-width: 0.8"/>
     </g>
     <g id="line2d_27">
      <g>
       <use xlink:href="#md3ef010125" x="549.34284" y="323.805989" style="fill: #475569; stroke: #475569; stroke-width: 0.8"/>
      </g>
     </g>
     <g id="text_16">
      <!-- −0.05 -->
      <g style="fill: #475569" transform="translate(536.471808 337.188676) scale(0.084 -0.084)">
       <defs>
        <path id="DejaVuSerif-35" d="M 3219 4666 
L 3219 4153 
L 1081 4153 
L 1081 2816 
Q 1244 2928 1461 2984 
Q 1678 3041 1947 3041 
Q 2703 3041 3140 2622 
Q 3578 2203 3578 1478 
Q 3578 738 3136 323 
Q 2694 -91 1894 -91 
Q 1572 -91 1234 -12 
Q 897 66 544 225 
L 544 1131 
L 897 1131 
Q 925 688 1179 453 
Q 1434 219 1894 219 
Q 2388 219 2653 544 
Q 2919 869 2919 1478 
Q 2919 2084 2655 2407 
Q 2391 2731 1894 2731 
Q 1613 2731 1398 2631 
Q 1184 2531 1019 2322 
L 750 2322 
L 750 4666 
L 3219 4666 
z
" transform="scale(0.015625)"/>
       </defs>
       <use xlink:href="#DejaVuSerif-2212"/>
       <use xlink:href="#DejaVuSerif-30" transform="translate(83.789062 0)"/>
       <use xlink:href="#DejaVuSerif-2e" transform="translate(147.412109 0)"/>
       <use xlink:href="#DejaVuSerif-30" transform="translate(179.199219 0)"/>
       <use xlink:href="#DejaVuSerif-35" transform="translate(242.822266 0)"/>
      </g>
     </g>
    </g>
    <g id="xtick_9">
     <g id="line2d_28">
      <path d="M 593.423047 323.805989 
L 593.423047 35.97105 
" clip-path="url(#p1f6729dd8b)" style="fill: none; stroke-dasharray: 2.96,1.28; stroke-dashoffset: 0; stroke: #e2e8f0; stroke-opacity: 0.2; stroke-width: 0.8"/>
     </g>
     <g id="line2d_29">
      <g>
       <use xlink:href="#md3ef010125" x="593.423047" y="323.805989" style="fill: #475569; stroke: #475569; stroke-width: 0.8"/>
      </g>
     </g>
     <g id="text_17">
      <!-- −0.04 -->
      <g style="fill: #475569" transform="translate(580.552016 337.188676) scale(0.084 -0.084)">
       <use xlink:href="#DejaVuSerif-2212"/>
       <use xlink:href="#DejaVuSerif-30" transform="translate(83.789062 0)"/>
       <use xlink:href="#DejaVuSerif-2e" transform="translate(147.412109 0)"/>
       <use xlink:href="#DejaVuSerif-30" transform="translate(179.199219 0)"/>
       <use xlink:href="#DejaVuSerif-34" transform="translate(242.822266 0)"/>
      </g>
     </g>
    </g>
    <g id="xtick_10">
     <g id="line2d_30">
      <path d="M 637.503254 323.805989 
L 637.503254 35.97105 
" clip-path="url(#p1f6729dd8b)" style="fill: none; stroke-dasharray: 2.96,1.28; stroke-dashoffset: 0; stroke: #e2e8f0; stroke-opacity: 0.2; stroke-width: 0.8"/>
     </g>
     <g id="line2d_31">
      <g>
       <use xlink:href="#md3ef010125" x="637.503254" y="323.805989" style="fill: #475569; stroke: #475569; stroke-width: 0.8"/>
      </g>
     </g>
     <g id="text_18">
      <!-- −0.03 -->
      <g style="fill: #475569" transform="translate(624.632223 337.188676) scale(0.084 -0.084)">
       <use xlink:href="#DejaVuSerif-2212"/>
       <use xlink:href="#DejaVuSerif-30" transform="translate(83.789062 0)"/>
       <use xlink:href="#DejaVuSerif-2e" transform="translate(147.412109 0)"/>
       <use xlink:href="#DejaVuSerif-30" transform="translate(179.199219 0)"/>
       <use xlink:href="#DejaVuSerif-33" transform="translate(242.822266 0)"/>
      </g>
     </g>
    </g>
    <g id="xtick_11">
     <g id="line2d_32">
      <path d="M 681.583461 323.805989 
L 681.583461 35.97105 
" clip-path="url(#p1f6729dd8b)" style="fill: none; stroke-dasharray: 2.96,1.28; stroke-dashoffset: 0; stroke: #e2e8f0; stroke-opacity: 0.2; stroke-width: 0.8"/>
     </g>
     <g id="line2d_33">
      <g>
       <use xlink:href="#md3ef010125" x="681.583461" y="323.805989" style="fill: #475569; stroke: #475569; stroke-width: 0.8"/>
      </g>
     </g>
     <g id="text_19">
      <!-- −0.02 -->
      <g style="fill: #475569" transform="translate(668.71243 337.188676) scale(0.084 -0.084)">
       <use xlink:href="#DejaVuSerif-2212"/>
       <use xlink:href="#DejaVuSerif-30" transform="translate(83.789062 0)"/>
       <use xlink:href="#DejaVuSerif-2e" transform="translate(147.412109 0)"/>
       <use xlink:href="#DejaVuSerif-30" transform="translate(179.199219 0)"/>
       <use xlink:href="#DejaVuSerif-32" transform="translate(242.822266 0)"/>
      </g>
     </g>
    </g>
    <g id="xtick_12">
     <g id="line2d_34">
      <path d="M 725.663669 323.805989 
L 725.663669 35.97105 
" clip-path="url(#p1f6729dd8b)" style="fill: none; stroke-dasharray: 2.96,1.28; stroke-dashoffset: 0; stroke: #e2e8f0; stroke-opacity: 0.2; stroke-width: 0.8"/>
     </g>
     <g id="line2d_35">
      <g>
       <use xlink:href="#md3ef010125" x="725.663669" y="323.805989" style="fill: #475569; stroke: #475569; stroke-width: 0.8"/>
      </g>
     </g>
     <g id="text_20">
      <!-- −0.01 -->
      <g style="fill: #475569" transform="translate(712.792637 337.188676) scale(0.084 -0.084)">
       <use xlink:href="#DejaVuSerif-2212"/>
       <use xlink:href="#DejaVuSerif-30" transform="translate(83.789062 0)"/>
       <use xlink:href="#DejaVuSerif-2e" transform="translate(147.412109 0)"/>
       <use xlink:href="#DejaVuSerif-30" transform="translate(179.199219 0)"/>
       <use xlink:href="#DejaVuSerif-31" transform="translate(242.822266 0)"/>
      </g>
     </g>
    </g>
    <g id="xtick_13">
     <g id="line2d_36">
      <path d="M 769.743876 323.805989 
L 769.743876 35.97105 
" clip-path="url(#p1f6729dd8b)" style="fill: none; stroke-dasharray: 2.96,1.28; stroke-dashoffset: 0; stroke: #e2e8f0; stroke-opacity: 0.2; stroke-width: 0.8"/>
     </g>
     <g id="line2d_37">
      <g>
       <use xlink:href="#md3ef010125" x="769.743876" y="323.805989" style="fill: #475569; stroke: #475569; stroke-width: 0.8"/>
      </g>
     </g>
     <g id="text_21">
      <!-- 0.00 -->
      <g style="fill: #475569" transform="translate(760.392313 337.188676) scale(0.084 -0.084)">
       <use xlink:href="#DejaVuSerif-30"/>
       <use xlink:href="#DejaVuSerif-2e" transform="translate(63.623047 0)"/>
       <use xlink:href="#DejaVuSerif-30" transform="translate(95.410156 0)"/>
       <use xlink:href="#DejaVuSerif-30" transform="translate(159.033203 0)"/>
      </g>
     </g>
    </g>
    <g id="xtick_14">
     <g id="line2d_38">
      <path d="M 813.824083 323.805989 
L 813.824083 35.97105 
" clip-path="url(#p1f6729dd8b)" style="fill: none; stroke-dasharray: 2.96,1.28; stroke-dashoffset: 0; stroke: #e2e8f0; stroke-opacity: 0.2; stroke-width: 0.8"/>
     </g>
     <g id="line2d_39">
      <g>
       <use xlink:href="#md3ef010125" x="813.824083" y="323.805989" style="fill: #475569; stroke: #475569; stroke-width: 0.8"/>
      </g>
     </g>
     <g id="text_22">
      <!-- 0.01 -->
      <g style="fill: #475569" transform="translate(804.472521 337.188676) scale(0.084 -0.084)">
       <use xlink:href="#DejaVuSerif-30"/>
       <use xlink:href="#DejaVuSerif-2e" transform="translate(63.623047 0)"/>
       <use xlink:href="#DejaVuSerif-30" transform="translate(95.410156 0)"/>
       <use xlink:href="#DejaVuSerif-31" transform="translate(159.033203 0)"/>
      </g>
     </g>
    </g>
    <g id="xtick_15">
     <g id="line2d_40">
      <path d="M 857.90429 323.805989 
L 857.90429 35.97105 
" clip-path="url(#p1f6729dd8b)" style="fill: none; stroke-dasharray: 2.96,1.28; stroke-dashoffset: 0; stroke: #e2e8f0; stroke-opacity: 0.2; stroke-width: 0.8"/>
     </g>
     <g id="line2d_41">
      <g>
       <use xlink:href="#md3ef010125" x="857.90429" y="323.805989" style="fill: #475569; stroke: #475569; stroke-width: 0.8"/>
      </g>
     </g>
     <g id="text_23">
      <!-- 0.02 -->
      <g style="fill: #475569" transform="translate(848.552728 337.188676) scale(0.084 -0.084)">
       <use xlink:href="#DejaVuSerif-30"/>
       <use xlink:href="#DejaVuSerif-2e" transform="translate(63.623047 0)"/>
       <use xlink:href="#DejaVuSerif-30" transform="translate(95.410156 0)"/>
       <use xlink:href="#DejaVuSerif-32" transform="translate(159.033203 0)"/>
      </g>
     </g>
    </g>
    <g id="text_24">
     <!-- Permuted post-pre gap -->
     <g style="fill: #0f172a" transform="translate(624.808671 350.382083) scale(0.098 -0.098)">
      <use xlink:href="#DejaVuSerif-50"/>
      <use xlink:href="#DejaVuSerif-65" transform="translate(62.785156 0)"/>
      <use xlink:href="#DejaVuSerif-72" transform="translate(121.964844 0)"/>
      <use xlink:href="#DejaVuSerif-6d" transform="translate(169.767578 0)"/>
      <use xlink:href="#DejaVuSerif-75" transform="translate(264.591797 0)"/>
      <use xlink:href="#DejaVuSerif-74" transform="translate(328.996094 0)"/>
      <use xlink:href="#DejaVuSerif-65" transform="translate(369.181641 0)"/>
      <use xlink:href="#DejaVuSerif-64" transform="translate(428.361328 0)"/>
      <use xlink:href="#DejaVuSerif-20" transform="translate(492.375 0)"/>
      <use xlink:href="#DejaVuSerif-70" transform="translate(524.162109 0)"/>
      <use xlink:href="#DejaVuSerif-6f" transform="translate(588.175781 0)"/>
      <use xlink:href="#DejaVuSerif-73" transform="translate(648.380859 0)"/>
      <use xlink:href="#DejaVuSerif-74" transform="translate(699.699219 0)"/>
      <use xlink:href="#DejaVuSerif-2d" transform="translate(739.884766 0)"/>
      <use xlink:href="#DejaVuSerif-70" transform="translate(773.673828 0)"/>
      <use xlink:href="#DejaVuSerif-72" transform="translate(837.6875 0)"/>
      <use xlink:href="#DejaVuSerif-65" transform="translate(885.490234 0)"/>
      <use xlink:href="#DejaVuSerif-20" transform="translate(944.669922 0)"/>
      <use xlink:href="#DejaVuSerif-67" transform="translate(976.457031 0)"/>
      <use xlink:href="#DejaVuSerif-61" transform="translate(1040.470703 0)"/>
      <use xlink:href="#DejaVuSerif-70" transform="translate(1100.089844 0)"/>
     </g>
    </g>
   </g>
   <g id="matplotlib.axis_4">
    <g id="ytick_6">
     <g id="line2d_42">
      <path d="M 485.542072 323.805989 
L 878.15952 323.805989 
" clip-path="url(#p1f6729dd8b)" style="fill: none; stroke-dasharray: 2.96,1.28; stroke-dashoffset: 0; stroke: #e2e8f0; stroke-opacity: 0.2; stroke-width: 0.8"/>
     </g>
     <g id="line2d_43">
      <g>
       <use xlink:href="#mbfc8f2e442" x="485.542072" y="323.805989" style="fill: #475569; stroke: #475569; stroke-width: 0.8"/>
      </g>
     </g>
     <g id="text_25">
      <!-- 0 -->
      <g style="fill: #475569" transform="translate(473.197572 326.997333) scale(0.084 -0.084)">
       <use xlink:href="#DejaVuSerif-30"/>
      </g>
     </g>
    </g>
    <g id="ytick_7">
     <g id="line2d_44">
      <path d="M 485.542072 282.521574 
L 878.15952 282.521574 
" clip-path="url(#p1f6729dd8b)" style="fill: none; stroke-dasharray: 2.96,1.28; stroke-dashoffset: 0; stroke: #e2e8f0; stroke-opacity: 0.2; stroke-width: 0.8"/>
     </g>
     <g id="line2d_45">
      <g>
       <use xlink:href="#mbfc8f2e442" x="485.542072" y="282.521574" style="fill: #475569; stroke: #475569; stroke-width: 0.8"/>
      </g>
     </g>
     <g id="text_26">
      <!-- 200 -->
      <g style="fill: #475569" transform="translate(462.508572 285.712918) scale(0.084 -0.084)">
       <use xlink:href="#DejaVuSerif-32"/>
       <use xlink:href="#DejaVuSerif-30" transform="translate(63.623047 0)"/>
       <use xlink:href="#DejaVuSerif-30" transform="translate(127.246094 0)"/>
      </g>
     </g>
    </g>
    <g id="ytick_8">
     <g id="line2d_46">
      <path d="M 485.542072 241.23716 
L 878.15952 241.23716 
" clip-path="url(#p1f6729dd8b)" style="fill: none; stroke-dasharray: 2.96,1.28; stroke-dashoffset: 0; stroke: #e2e8f0; stroke-opacity: 0.2; stroke-width: 0.8"/>
     </g>
     <g id="line2d_47">
      <g>
       <use xlink:href="#mbfc8f2e442" x="485.542072" y="241.23716" style="fill: #475569; stroke: #475569; stroke-width: 0.8"/>
      </g>
     </g>
     <g id="text_27">
      <!-- 400 -->
      <g style="fill: #475569" transform="translate(462.508572 244.428503) scale(0.084 -0.084)">
       <use xlink:href="#DejaVuSerif-34"/>
       <use xlink:href="#DejaVuSerif-30" transform="translate(63.623047 0)"/>
       <use xlink:href="#DejaVuSerif-30" transform="translate(127.246094 0)"/>
      </g>
     </g>
    </g>
    <g id="ytick_9">
     <g id="line2d_48">
      <path d="M 485.542072 199.952745 
L 878.15952 199.952745 
" clip-path="url(#p1f6729dd8b)" style="fill: none; stroke-dasharray: 2.96,1.28; stroke-dashoffset: 0; stroke: #e2e8f0; stroke-opacity: 0.2; stroke-width: 0.8"/>
     </g>
     <g id="line2d_49">
      <g>
       <use xlink:href="#mbfc8f2e442" x="485.542072" y="199.952745" style="fill: #475569; stroke: #475569; stroke-width: 0.8"/>
      </g>
     </g>
     <g id="text_28">
      <!-- 600 -->
      <g style="fill: #475569" transform="translate(462.508572 203.144089) scale(0.084 -0.084)">
       <use xlink:href="#DejaVuSerif-36"/>
       <use xlink:href="#DejaVuSerif-30" transform="translate(63.623047 0)"/>
       <use xlink:href="#DejaVuSerif-30" transform="translate(127.246094 0)"/>
      </g>
     </g>
    </g>
    <g id="ytick_10">
     <g id="line2d_50">
      <path d="M 485.542072 158.66833 
L 878.15952 158.66833 
" clip-path="url(#p1f6729dd8b)" style="fill: none; stroke-dasharray: 2.96,1.28; stroke-dashoffset: 0; stroke: #e2e8f0; stroke-opacity: 0.2; stroke-width: 0.8"/>
     </g>
     <g id="line2d_51">
      <g>
       <use xlink:href="#mbfc8f2e442" x="485.542072" y="158.66833" style="fill: #475569; stroke: #475569; stroke-width: 0.8"/>
      </g>
     </g>
     <g id="text_29">
      <!-- 800 -->
      <g style="fill: #475569" transform="translate(462.508572 161.859674) scale(0.084 -0.084)">
       <defs>
        <path id="DejaVuSerif-38" d="M 2981 1275 
Q 2981 1775 2732 2051 
Q 2484 2328 2034 2328 
Q 1584 2328 1336 2051 
Q 1088 1775 1088 1275 
Q 1088 772 1336 495 
Q 1584 219 2034 219 
Q 2484 219 2732 495 
Q 2981 772 2981 1275 
z
M 2853 3541 
Q 2853 3966 2637 4203 
Q 2422 4441 2034 4441 
Q 1650 4441 1433 4203 
Q 1216 3966 1216 3541 
Q 1216 3113 1433 2875 
Q 1650 2638 2034 2638 
Q 2422 2638 2637 2875 
Q 2853 3113 2853 3541 
z
M 2516 2484 
Q 3047 2413 3344 2092 
Q 3641 1772 3641 1275 
Q 3641 619 3225 264 
Q 2809 -91 2034 -91 
Q 1263 -91 845 264 
Q 428 619 428 1275 
Q 428 1772 725 2092 
Q 1022 2413 1556 2484 
Q 1084 2569 832 2842 
Q 581 3116 581 3541 
Q 581 4103 968 4426 
Q 1356 4750 2034 4750 
Q 2713 4750 3100 4426 
Q 3488 4103 3488 3541 
Q 3488 3116 3236 2842 
Q 2984 2569 2516 2484 
z
" transform="scale(0.015625)"/>
       </defs>
       <use xlink:href="#DejaVuSerif-38"/>
       <use xlink:href="#DejaVuSerif-30" transform="translate(63.623047 0)"/>
       <use xlink:href="#DejaVuSerif-30" transform="translate(127.246094 0)"/>
      </g>
     </g>
    </g>
    <g id="ytick_11">
     <g id="line2d_52">
      <path d="M 485.542072 117.383916 
L 878.15952 117.383916 
" clip-path="url(#p1f6729dd8b)" style="fill: none; stroke-dasharray: 2.96,1.28; stroke-dashoffset: 0; stroke: #e2e8f0; stroke-opacity: 0.2; stroke-width: 0.8"/>
     </g>
     <g id="line2d_53">
      <g>
       <use xlink:href="#mbfc8f2e442" x="485.542072" y="117.383916" style="fill: #475569; stroke: #475569; stroke-width: 0.8"/>
      </g>
     </g>
     <g id="text_30">
      <!-- 1000 -->
      <g style="fill: #475569" transform="translate(457.164072 120.575259) scale(0.084 -0.084)">
       <use xlink:href="#DejaVuSerif-31"/>
       <use xlink:href="#DejaVuSerif-30" transform="translate(63.623047 0)"/>
       <use xlink:href="#DejaVuSerif-30" transform="translate(127.246094 0)"/>
       <use xlink:href="#DejaVuSerif-30" transform="translate(190.869141 0)"/>
      </g>
     </g>
    </g>
    <g id="ytick_12">
     <g id="line2d_54">
      <path d="M 485.542072 76.099501 
L 878.15952 76.099501 
" clip-path="url(#p1f6729dd8b)" style="fill: none; stroke-dasharray: 2.96,1.28; stroke-dashoffset: 0; stroke: #e2e8f0; stroke-opacity: 0.2; stroke-width: 0.8"/>
     </g>
     <g id="line2d_55">
      <g>
       <use xlink:href="#mbfc8f2e442" x="485.542072" y="76.099501" style="fill: #475569; stroke: #475569; stroke-width: 0.8"/>
      </g>
     </g>
     <g id="text_31">
      <!-- 1200 -->
      <g style="fill: #475569" transform="translate(457.164072 79.290845) scale(0.084 -0.084)">
       <use xlink:href="#DejaVuSerif-31"/>
       <use xlink:href="#DejaVuSerif-32" transform="translate(63.623047 0)"/>
       <use xlink:href="#DejaVuSerif-30" transform="translate(127.246094 0)"/>
       <use xlink:href="#DejaVuSerif-30" transform="translate(190.869141 0)"/>
      </g>
     </g>
    </g>
    <g id="text_32">
     <!-- Frequency -->
     <g style="fill: #0f172a" transform="translate(450.986635 206.39216) rotate(-90) scale(0.098 -0.098)">
      <use xlink:href="#DejaVuSerif-46"/>
      <use xlink:href="#DejaVuSerif-72" transform="translate(69.384766 0)"/>
      <use xlink:href="#DejaVuSerif-65" transform="translate(117.1875 0)"/>
      <use xlink:href="#DejaVuSerif-71" transform="translate(176.367188 0)"/>
      <use xlink:href="#DejaVuSerif-75" transform="translate(240.380859 0)"/>
      <use xlink:href="#DejaVuSerif-65" transform="translate(304.785156 0)"/>
      <use xlink:href="#DejaVuSerif-6e" transform="translate(363.964844 0)"/>
      <use xlink:href="#DejaVuSerif-63" transform="translate(428.369141 0)"/>
      <use xlink:href="#DejaVuSerif-79" transform="translate(484.375 0)"/>
     </g>
    </g>
   </g>
   <g id="line2d_56">
    <path d="M 503.38832 323.805989 
L 503.38832 35.97105 
" clip-path="url(#p1f6729dd8b)" style="fill: none; stroke-dasharray: 7.4,3.2; stroke-dashoffset: 0; stroke: #c2410c; stroke-width: 2"/>
   </g>
   <g id="patch_54">
    <path d="M 485.542072 323.805989 
L 485.542072 35.97105 
" style="fill: none; stroke: #475569; stroke-width: 0.85; stroke-linejoin: miter; stroke-linecap: square"/>
   </g>
   <g id="patch_55">
    <path d="M 485.542072 323.805989 
L 878.15952 323.805989 
" style="fill: none; stroke: #475569; stroke-width: 0.85; stroke-linejoin: miter; stroke-linecap: square"/>
   </g>
   <g id="text_33">
    <!-- Synthetic Control -->
    <g style="fill: #0f172a" transform="translate(626.523671 14.27025) scale(0.112 -0.112)">
     <defs>
      <path id="DejaVuSerif-Bold-53" d="M 494 225 
L 494 1331 
L 891 1331 
Q 981 806 1318 547 
Q 1656 288 2253 288 
Q 2738 288 2991 472 
Q 3244 656 3244 1013 
Q 3244 1294 3072 1450 
Q 2900 1606 2363 1741 
L 1663 1913 
Q 978 2088 700 2398 
Q 422 2709 422 3284 
Q 422 3978 883 4364 
Q 1344 4750 2175 4750 
Q 2584 4750 3026 4681 
Q 3469 4613 3944 4475 
L 3944 3444 
L 3547 3444 
Q 3456 3925 3150 4148 
Q 2844 4372 2278 4372 
Q 1816 4372 1580 4211 
Q 1344 4050 1344 3731 
Q 1344 3441 1506 3289 
Q 1669 3138 2303 2975 
L 3003 2803 
Q 3653 2641 3945 2297 
Q 4238 1953 4238 1350 
Q 4238 644 3750 276 
Q 3263 -91 2316 -91 
Q 1859 -91 1409 -12 
Q 959 66 494 225 
z
" transform="scale(0.015625)"/>
      <path id="DejaVuSerif-Bold-79" d="M 1997 -750 
Q 1847 -1116 1634 -1269 
Q 1422 -1422 1063 -1422 
Q 909 -1422 721 -1387 
Q 534 -1353 313 -1288 
L 313 -594 
L 666 -597 
Q 675 -838 779 -953 
Q 884 -1069 1094 -1069 
Q 1297 -1069 1422 -958 
Q 1547 -847 1672 -538 
L 1722 -422 
L 275 2944 
L -84 2944 
L -84 3322 
L 1831 3322 
L 1831 2944 
L 1434 2944 
L 2278 978 
L 3066 2944 
L 2625 2944 
L 2625 3322 
L 3872 3322 
L 3872 2944 
L 3469 2944 
L 1997 -750 
z
" transform="scale(0.015625)"/>
      <path id="DejaVuSerif-Bold-68" d="M 219 0 
L 219 378 
L 691 378 
L 691 4488 
L 197 4488 
L 197 4863 
L 1797 4863 
L 1797 2853 
Q 1997 3150 2253 3281 
Q 2509 3413 2900 3413 
Q 3459 3413 3745 3083 
Q 4031 2753 4031 2113 
L 4031 378 
L 4506 378 
L 4506 0 
L 2522 0 
L 2522 378 
L 2925 378 
L 2925 2144 
Q 2925 2566 2817 2730 
Q 2709 2894 2444 2894 
Q 2109 2894 1953 2648 
Q 1797 2403 1797 1869 
L 1797 378 
L 2203 378 
L 2203 0 
L 219 0 
z
" transform="scale(0.015625)"/>
      <path id="DejaVuSerif-Bold-63" d="M 3609 1038 
Q 3491 469 3123 189 
Q 2756 -91 2125 -91 
Q 1238 -91 750 368 
Q 263 828 263 1663 
Q 263 2488 744 2950 
Q 1225 3413 2081 3413 
Q 2428 3413 2781 3347 
Q 3134 3281 3500 3150 
L 3500 2228 
L 3150 2228 
Q 3100 2650 2903 2854 
Q 2706 3059 2350 3059 
Q 1888 3059 1692 2746 
Q 1497 2434 1497 1663 
Q 1497 909 1687 586 
Q 1878 263 2309 263 
Q 2644 263 2845 463 
Q 3047 663 3091 1038 
L 3609 1038 
z
" transform="scale(0.015625)"/>
     </defs>
     <use xlink:href="#DejaVuSerif-Bold-53"/>
     <use xlink:href="#DejaVuSerif-Bold-79" transform="translate(72.216797 0)"/>
     <use xlink:href="#DejaVuSerif-Bold-6e" transform="translate(130.322266 0)"/>
     <use xlink:href="#DejaVuSerif-Bold-74" transform="translate(203.027344 0)"/>
     <use xlink:href="#DejaVuSerif-Bold-68" transform="translate(249.21875 0)"/>
     <use xlink:href="#DejaVuSerif-Bold-65" transform="translate(321.923828 0)"/>
     <use xlink:href="#DejaVuSerif-Bold-74" transform="translate(385.546875 0)"/>
     <use xlink:href="#DejaVuSerif-Bold-69" transform="translate(431.738281 0)"/>
     <use xlink:href="#DejaVuSerif-Bold-63" transform="translate(469.726562 0)"/>
     <use xlink:href="#DejaVuSerif-Bold-20" transform="translate(530.615234 0)"/>
     <use xlink:href="#DejaVuSerif-Bold-43" transform="translate(565.429688 0)"/>
     <use xlink:href="#DejaVuSerif-Bold-6f" transform="translate(645.019531 0)"/>
     <use xlink:href="#DejaVuSerif-Bold-6e" transform="translate(711.71875 0)"/>
     <use xlink:href="#DejaVuSerif-Bold-74" transform="translate(784.423828 0)"/>
     <use xlink:href="#DejaVuSerif-Bold-72" transform="translate(830.615234 0)"/>
     <use xlink:href="#DejaVuSerif-Bold-6f" transform="translate(883.300781 0)"/>
     <use xlink:href="#DejaVuSerif-Bold-6c" transform="translate(950 0)"/>
    </g>
    <!-- obs=-0.060, permutation p=0.165 -->
    <g style="fill: #0f172a" transform="translate(575.342296 26.97105) scale(0.112 -0.112)">
     <defs>
      <path id="DejaVuSerif-Bold-2d" d="M 347 2138 
L 2309 2138 
L 2309 1294 
L 347 1294 
L 347 2138 
z
" transform="scale(0.015625)"/>
      <path id="DejaVuSerif-Bold-35" d="M 3609 4666 
L 3609 3847 
L 1113 3847 
L 1113 2822 
Q 1319 2981 1572 3062 
Q 1825 3144 2106 3144 
Q 2969 3144 3469 2708 
Q 3969 2272 3969 1522 
Q 3969 759 3469 334 
Q 2969 -91 2069 -91 
Q 1688 -91 1311 -28 
Q 934 34 525 166 
L 525 1184 
L 900 1184 
Q 919 725 1139 500 
Q 1359 275 1791 275 
Q 2250 275 2472 583 
Q 2694 891 2694 1522 
Q 2694 2144 2476 2451 
Q 2259 2759 1819 2759 
Q 1581 2759 1395 2661 
Q 1209 2563 1050 2356 
L 738 2356 
L 738 4666 
L 3609 4666 
z
" transform="scale(0.015625)"/>
     </defs>
     <use xlink:href="#DejaVuSerif-Bold-6f"/>
     <use xlink:href="#DejaVuSerif-Bold-62" transform="translate(66.699219 0)"/>
     <use xlink:href="#DejaVuSerif-Bold-73" transform="translate(136.621094 0)"/>
     <use xlink:href="#DejaVuSerif-Bold-3d" transform="translate(192.919922 0)"/>
     <use xlink:href="#DejaVuSerif-Bold-2d" transform="translate(276.708984 0)"/>
     <use xlink:href="#DejaVuSerif-Bold-30" transform="translate(318.212891 0)"/>
     <use xlink:href="#DejaVuSerif-Bold-2e" transform="translate(387.792969 0)"/>
     <use xlink:href="#DejaVuSerif-Bold-30" transform="translate(422.607422 0)"/>
     <use xlink:href="#DejaVuSerif-Bold-36" transform="translate(492.1875 0)"/>
     <use xlink:href="#DejaVuSerif-Bold-30" transform="translate(561.767578 0)"/>
     <use xlink:href="#DejaVuSerif-Bold-2c" transform="translate(631.347656 0)"/>
     <use xlink:href="#DejaVuSerif-Bold-20" transform="translate(666.162109 0)"/>
     <use xlink:href="#DejaVuSerif-Bold-70" transform="translate(700.976562 0)"/>
     <use xlink:href="#DejaVuSerif-Bold-65" transform="translate(770.898438 0)"/>
     <use xlink:href="#DejaVuSerif-Bold-72" transform="translate(834.521484 0)"/>
     <use xlink:href="#DejaVuSerif-Bold-6d" transform="translate(887.207031 0)"/>
     <use xlink:href="#DejaVuSerif-Bold-75" transform="translate(993.017578 0)"/>
     <use xlink:href="#DejaVuSerif-Bold-74" transform="translate(1065.722656 0)"/>
     <use xlink:href="#DejaVuSerif-Bold-61" transform="translate(1111.914062 0)"/>
     <use xlink:href="#DejaVuSerif-Bold-74" transform="translate(1176.708984 0)"/>
     <use xlink:href="#DejaVuSerif-Bold-69" transform="translate(1222.900391 0)"/>
     <use xlink:href="#DejaVuSerif-Bold-6f" transform="translate(1260.888672 0)"/>
     <use xlink:href="#DejaVuSerif-Bold-6e" transform="translate(1327.587891 0)"/>
     <use xlink:href="#DejaVuSerif-Bold-20" transform="translate(1400.292969 0)"/>
     <use xlink:href="#DejaVuSerif-Bold-70" transform="translate(1435.107422 0)"/>
     <use xlink:href="#DejaVuSerif-Bold-3d" transform="translate(1505.029297 0)"/>
     <use xlink:href="#DejaVuSerif-Bold-30" transform="translate(1588.818359 0)"/>
     <use xlink:href="#DejaVuSerif-Bold-2e" transform="translate(1658.398438 0)"/>
     <use xlink:href="#DejaVuSerif-Bold-31" transform="translate(1693.212891 0)"/>
     <use xlink:href="#DejaVuSerif-Bold-36" transform="translate(1762.792969 0)"/>
     <use xlink:href="#DejaVuSerif-Bold-35" transform="translate(1832.373047 0)"/>
    </g>
   </g>
  </g>
 </g>
 <defs>
  <clipPath id="p1f9e248284">
   <rect x="42.278063" y="35.97105" width="392.617447" height="287.834939"/>
  </clipPath>
  <clipPath id="p1f6729dd8b">
   <rect x="485.542072" y="35.97105" width="392.617448" height="287.834939"/>
  </clipPath>
 </defs>
</svg>
