<?xml version="1.0" encoding="utf-8" standalone="no"?>
<!DOCTYPE svg PUBLIC "-//W3C//DTD SVG 1.1//EN"
  "http://www.w3.org/Graphics/SVG/1.1/DTD/svg11.dtd">
<svg xmlns:xlink="http://www.w3.org/1999/xlink" width="519.146132pt" height="501.804437pt" viewBox="0 0 519.146132 501.804437" xmlns="http://www.w3.org/2000/svg" version="1.1">
 <metadata>
  <rdf:RDF xmlns:dc="http://purl.org/dc/elements/1.1/" xmlns:cc="http://creativecommons.org/ns#" xmlns:rdf="http://www.w3.org/1999/02/22-rdf-syntax-ns#">
   <cc:Work>
    <dc:type rdf:resource="http://purl.org/dc/dcmitype/StillImage"/>
    <dc:date>2026-03-26T14:58:47.691255</dc:date>
    <dc:format>image/svg+xml</dc:format>
    <dc:creator>
     <cc:Agent>
      <dc:title>Matplotlib v3.10.8, https://matplotlib.org/</dc:title>
     </cc:Agent>
    </dc:creator>
   </cc:Work>
  </rdf:RDF>
 </metadata>
 <defs>
  <style type="text/css">*{stroke-linejoin: round; stroke-linecap: butt}</style>
 </defs>
 <g id="figure_1">
  <g id="patch_1">
   <path d="M 0 501.804437 
L 519.146132 501.804437 
L 519.146132 0 
L 0 0 
z
" style="fill: #ffffff"/>
  </g>
  <g id="axes_1">
   <g id="patch_2">
    <path d="M 197.608445 467.73025 
L 415.33133 467.73025 
L 415.33133 23.27025 
L 197.608445 23.27025 
z
" style="fill: #ffffff"/>
   </g>
   <g id="patch_3">
    <path d="M 197.608445 234.983762 
L 415.33133 234.983762 
L 415.33133 43.472977 
L 197.608445 43.472977 
z
" clip-path="url(#p1a6916340d)" style="fill: #ddd8f0; opacity: 0.14; stroke: #ddd8f0; stroke-linejoin: miter"/>
   </g>
   <g id="patch_4">
    <path d="M 197.608445 447.527523 
L 415.33133 447.527523 
L 415.33133 264.872728 
L 197.608445 264.872728 
z
" clip-path="url(#p1a6916340d)" style="fill: #b9e3df; opacity: 0.12; stroke: #b9e3df; stroke-linejoin: miter"/>
   </g>
   <g id="matplotlib.axis_1">
    <g id="xtick_1">
     <g id="line2d_1">
      <path d="M 234.011734 467.73025 
L 234.011734 23.27025 
" clip-path="url(#p1a6916340d)" style="fill: none; stroke-dasharray: 2.59,1.12; stroke-dashoffset: 0; stroke: #cbd5e1; stroke-opacity: 0.35; stroke-width: 0.7"/>
     </g>
     <g id="line2d_2">
      <defs>
       <path id="ma59820afbd" d="M 0 0 
L 0 3.2 
" style="stroke: #475569; stroke-width: 0.7"/>
      </defs>
      <g>
       <use xlink:href="#ma59820afbd" x="234.011734" y="467.73025" style="fill: #475569; stroke: #475569; stroke-width: 0.7"/>
      </g>
     </g>
     <g id="text_1">
      <!-- 0.00 -->
      <g style="fill: #475569" transform="translate(224.660171 480.812937) scale(0.084 -0.084)">
       <defs>
        <path id="DejaVuSerif-30" d="M 2034 219 
Q 2513 219 2750 744 
Q 2988 1269 2988 2328 
Q 2988 3391 2750 3916 
Q 2513 4441 2034 4441 
Q 1556 4441 1318 3916 
Q 1081 3391 1081 2328 
Q 1081 1269 1318 744 
Q 1556 219 2034 219 
z
M 2034 -91 
Q 1275 -91 848 546 
Q 422 1184 422 2328 
Q 422 3475 848 4112 
Q 1275 4750 2034 4750 
Q 2797 4750 3222 4112 
Q 3647 3475 3647 2328 
Q 3647 1184 3222 546 
Q 2797 -91 2034 -91 
z
" transform="scale(0.015625)"/>
        <path id="DejaVuSerif-2e" d="M 603 325 
Q 603 500 722 622 
Q 841 744 1019 744 
Q 1191 744 1312 622 
Q 1434 500 1434 325 
Q 1434 153 1312 31 
Q 1191 -91 1019 -91 
Q 841 -91 722 29 
Q 603 150 603 325 
z
" transform="scale(0.015625)"/>
       </defs>
       <use xlink:href="#DejaVuSerif-30"/>
       <use xlink:href="#DejaVuSerif-2e" transform="translate(63.623047 0)"/>
       <use xlink:href="#DejaVuSerif-30" transform="translate(95.410156 0)"/>
       <use xlink:href="#DejaVuSerif-30" transform="translate(159.033203 0)"/>
      </g>
     </g>
    </g>
    <g id="xtick_2">
     <g id="line2d_3">
      <path d="M 274.770972 467.73025 
L 274.770972 23.27025 
" clip-path="url(#p1a6916340d)" style="fill: none; stroke-dasharray: 2.59,1.12; stroke-dashoffset: 0; stroke: #cbd5e1; stroke-opacity: 0.35; stroke-width: 0.7"/>
     </g>
     <g id="line2d_4">
      <g>
       <use xlink:href="#ma59820afbd" x="274.770972" y="467.73025" style="fill: #475569; stroke: #475569; stroke-width: 0.7"/>
      </g>
     </g>
     <g id="text_2">
      <!-- 0.02 -->
      <g style="fill: #475569" transform="translate(265.41941 480.812937) scale(0.084 -0.084)">
       <defs>
        <path id="DejaVuSerif-32" d="M 819 3553 
L 469 3553 
L 469 4384 
Q 803 4563 1142 4656 
Q 1481 4750 1806 4750 
Q 2534 4750 2956 4397 
Q 3378 4044 3378 3438 
Q 3378 2753 2422 1800 
Q 2347 1728 2309 1691 
L 1131 513 
L 3078 513 
L 3078 1088 
L 3444 1088 
L 3444 0 
L 434 0 
L 434 341 
L 1850 1753 
Q 2319 2222 2519 2614 
Q 2719 3006 2719 3438 
Q 2719 3909 2473 4175 
Q 2228 4441 1797 4441 
Q 1350 4441 1106 4219 
Q 863 3997 819 3553 
z
" transform="scale(0.015625)"/>
       </defs>
       <use xlink:href="#DejaVuSerif-30"/>
       <use xlink:href="#DejaVuSerif-2e" transform="translate(63.623047 0)"/>
       <use xlink:href="#DejaVuSerif-30" transform="translate(95.410156 0)"/>
       <use xlink:href="#DejaVuSerif-32" transform="translate(159.033203 0)"/>
      </g>
     </g>
    </g>
    <g id="xtick_3">
     <g id="line2d_5">
      <path d="M 315.53021 467.73025 
L 315.53021 23.27025 
" clip-path="url(#p1a6916340d)" style="fill: none; stroke-dasharray: 2.59,1.12; stroke-dashoffset: 0; stroke: #cbd5e1; stroke-opacity: 0.35; stroke-width: 0.7"/>
     </g>
     <g id="line2d_6">
      <g>
       <use xlink:href="#ma59820afbd" x="315.53021" y="467.73025" style="fill: #475569; stroke: #475569; stroke-width: 0.7"/>
      </g>
     </g>
     <g id="text_3">
      <!-- 0.04 -->
      <g style="fill: #475569" transform="translate(306.178648 480.812937) scale(0.084 -0.084)">
       <defs>
        <path id="DejaVuSerif-34" d="M 2234 1581 
L 2234 4063 
L 641 1581 
L 2234 1581 
z
M 3609 0 
L 1484 0 
L 1484 331 
L 2234 331 
L 2234 1247 
L 197 1247 
L 197 1588 
L 2241 4750 
L 2859 4750 
L 2859 1581 
L 3750 1581 
L 3750 1247 
L 2859 1247 
L 2859 331 
L 3609 331 
L 3609 0 
z
" transform="scale(0.015625)"/>
       </defs>
       <use xlink:href="#DejaVuSerif-30"/>
       <use xlink:href="#DejaVuSerif-2e" transform="translate(63.623047 0)"/>
       <use xlink:href="#DejaVuSerif-30" transform="translate(95.410156 0)"/>
       <use xlink:href="#DejaVuSerif-34" transform="translate(159.033203 0)"/>
      </g>
     </g>
    </g>
    <g id="xtick_4">
     <g id="line2d_7">
      <path d="M 356.289449 467.73025 
L 356.289449 23.27025 
" clip-path="url(#p1a6916340d)" style="fill: none; stroke-dasharray: 2.59,1.12; stroke-dashoffset: 0; stroke: #cbd5e1; stroke-opacity: 0.35; stroke-width: 0.7"/>
     </g>
     <g id="line2d_8">
      <g>
       <use xlink:href="#ma59820afbd" x="356.289449" y="467.73025" style="fill: #475569; stroke: #475569; stroke-width: 0.7"/>
      </g>
     </g>
     <g id="text_4">
      <!-- 0.06 -->
      <g style="fill: #475569" transform="translate(346.937886 480.812937) scale(0.084 -0.084)">
       <defs>
        <path id="DejaVuSerif-36" d="M 2094 219 
Q 2534 219 2771 542 
Q 3009 866 3009 1472 
Q 3009 2078 2771 2401 
Q 2534 2725 2094 2725 
Q 1647 2725 1412 2412 
Q 1178 2100 1178 1509 
Q 1178 888 1415 553 
Q 1653 219 2094 219 
z
M 1075 2569 
Q 1288 2803 1556 2918 
Q 1825 3034 2163 3034 
Q 2859 3034 3264 2615 
Q 3669 2197 3669 1472 
Q 3669 763 3233 336 
Q 2797 -91 2069 -91 
Q 1278 -91 853 498 
Q 428 1088 428 2181 
Q 428 3406 931 4078 
Q 1434 4750 2350 4750 
Q 2597 4750 2869 4703 
Q 3141 4656 3425 4563 
L 3425 3794 
L 3072 3794 
Q 3034 4109 2831 4275 
Q 2628 4441 2284 4441 
Q 1678 4441 1381 3981 
Q 1084 3522 1075 2569 
z
" transform="scale(0.015625)"/>
       </defs>
       <use xlink:href="#DejaVuSerif-30"/>
       <use xlink:href="#DejaVuSerif-2e" transform="translate(63.623047 0)"/>
       <use xlink:href="#DejaVuSerif-30" transform="translate(95.410156 0)"/>
       <use xlink:href="#DejaVuSerif-36" transform="translate(159.033203 0)"/>
      </g>
     </g>
    </g>
    <g id="xtick_5">
     <g id="line2d_9">
      <path d="M 397.048687 467.73025 
L 397.048687 23.27025 
" clip-path="url(#p1a6916340d)" style="fill: none; stroke-dasharray: 2.59,1.12; stroke-dashoffset: 0; stroke: #cbd5e1; stroke-opacity: 0.35; stroke-width: 0.7"/>
     </g>
     <g id="line2d_10">
      <g>
       <use xlink:href="#ma59820afbd" x="397.048687" y="467.73025" style="fill: #475569; stroke: #475569; stroke-width: 0.7"/>
      </g>
     </g>
     <g id="text_5">
      <!-- 0.08 -->
      <g style="fill: #475569" transform="translate(387.697124 480.812937) scale(0.084 -0.084)">
       <defs>
        <path id="DejaVuSerif-38" d="M 2981 1275 
Q 2981 1775 2732 2051 
Q 2484 2328 2034 2328 
Q 1584 2328 1336 2051 
Q 1088 1775 1088 1275 
Q 1088 772 1336 495 
Q 1584 219 2034 219 
Q 2484 219 2732 495 
Q 2981 772 2981 1275 
z
M 2853 3541 
Q 2853 3966 2637 4203 
Q 2422 4441 2034 4441 
Q 1650 4441 1433 4203 
Q 1216 3966 1216 3541 
Q 1216 3113 1433 2875 
Q 1650 2638 2034 2638 
Q 2422 2638 2637 2875 
Q 2853 3113 2853 3541 
z
M 2516 2484 
Q 3047 2413 3344 2092 
Q 3641 1772 3641 1275 
Q 3641 619 3225 264 
Q 2809 -91 2034 -91 
Q 1263 -91 845 264 
Q 428 619 428 1275 
Q 428 1772 725 2092 
Q 1022 2413 1556 2484 
Q 1084 2569 832 2842 
Q 581 3116 581 3541 
Q 581 4103 968 4426 
Q 1356 4750 2034 4750 
Q 2713 4750 3100 4426 
Q 3488 4103 3488 3541 
Q 3488 3116 3236 2842 
Q 2984 2569 2516 2484 
z
" transform="scale(0.015625)"/>
       </defs>
       <use xlink:href="#DejaVuSerif-30"/>
       <use xlink:href="#DejaVuSerif-2e" transform="translate(63.623047 0)"/>
       <use xlink:href="#DejaVuSerif-30" transform="translate(95.410156 0)"/>
       <use xlink:href="#DejaVuSerif-38" transform="translate(159.033203 0)"/>
      </g>
     </g>
    </g>
    <g id="text_6">
     <!-- ATT with 95% confidence interval -->
     <g style="fill: #0f172a" transform="translate(222.305497 494.006344) scale(0.098 -0.098)">
      <defs>
       <path id="DejaVuSerif-41" d="M 1281 1691 
L 2994 1691 
L 2138 3909 
L 1281 1691 
z
M -38 0 
L -38 331 
L 372 331 
L 2034 4666 
L 2559 4666 
L 4225 331 
L 4684 331 
L 4684 0 
L 2988 0 
L 2988 331 
L 3506 331 
L 3116 1356 
L 1153 1356 
L 763 331 
L 1275 331 
L 1275 0 
L -38 0 
z
" transform="scale(0.015625)"/>
       <path id="DejaVuSerif-54" d="M 1222 0 
L 1222 331 
L 1819 331 
L 1819 4294 
L 447 4294 
L 447 3566 
L 63 3566 
L 63 4666 
L 4206 4666 
L 4206 3566 
L 3822 3566 
L 3822 4294 
L 2450 4294 
L 2450 331 
L 3047 331 
L 3047 0 
L 1222 0 
z
" transform="scale(0.015625)"/>
       <path id="DejaVuSerif-20" transform="scale(0.015625)"/>
       <path id="DejaVuSerif-77" d="M 3072 3322 
L 3922 728 
L 4672 2988 
L 4191 2988 
L 4191 3322 
L 5394 3322 
L 5394 2988 
L 5025 2988 
L 4038 0 
L 3559 0 
L 2741 2484 
L 1919 0 
L 1459 0 
L 475 2988 
L 103 2988 
L 103 3322 
L 1606 3322 
L 1606 2988 
L 1069 2988 
L 1813 728 
L 2669 3322 
L 3072 3322 
z
" transform="scale(0.015625)"/>
       <path id="DejaVuSerif-69" d="M 622 4353 
Q 622 4497 726 4603 
Q 831 4709 978 4709 
Q 1122 4709 1226 4603 
Q 1331 4497 1331 4353 
Q 1331 4206 1228 4103 
Q 1125 4000 978 4000 
Q 831 4000 726 4103 
Q 622 4206 622 4353 
z
M 1356 331 
L 1900 331 
L 1900 0 
L 231 0 
L 231 331 
L 781 331 
L 781 2988 
L 231 2988 
L 231 3322 
L 1356 3322 
L 1356 331 
z
" transform="scale(0.015625)"/>
       <path id="DejaVuSerif-74" d="M 691 2988 
L 184 2988 
L 184 3322 
L 691 3322 
L 691 4353 
L 1269 4353 
L 1269 3322 
L 2350 3322 
L 2350 2988 
L 1269 2988 
L 1269 878 
Q 1269 456 1350 337 
Q 1431 219 1650 219 
Q 1875 219 1978 351 
Q 2081 484 2088 781 
L 2522 781 
Q 2497 328 2275 118 
Q 2053 -91 1600 -91 
Q 1103 -91 897 129 
Q 691 350 691 878 
L 691 2988 
z
" transform="scale(0.015625)"/>
       <path id="DejaVuSerif-68" d="M 263 0 
L 263 331 
L 781 331 
L 781 4531 
L 231 4531 
L 231 4863 
L 1356 4863 
L 1356 2731 
Q 1516 3069 1770 3241 
Q 2025 3413 2363 3413 
Q 2913 3413 3172 3097 
Q 3431 2781 3431 2113 
L 3431 331 
L 3944 331 
L 3944 0 
L 2356 0 
L 2356 331 
L 2853 331 
L 2853 1931 
Q 2853 2541 2704 2764 
Q 2556 2988 2175 2988 
Q 1775 2988 1565 2697 
Q 1356 2406 1356 1850 
L 1356 331 
L 1856 331 
L 1856 0 
L 263 0 
z
" transform="scale(0.015625)"/>
       <path id="DejaVuSerif-39" d="M 2994 2091 
Q 2784 1856 2512 1740 
Q 2241 1625 1900 1625 
Q 1206 1625 804 2044 
Q 403 2463 403 3188 
Q 403 3897 839 4323 
Q 1275 4750 2003 4750 
Q 2794 4750 3217 4161 
Q 3641 3572 3641 2478 
Q 3641 1253 3137 581 
Q 2634 -91 1722 -91 
Q 1475 -91 1203 -44 
Q 931 3 647 97 
L 647 872 
L 997 872 
Q 1038 556 1241 387 
Q 1444 219 1784 219 
Q 2391 219 2687 676 
Q 2984 1134 2994 2091 
z
M 1978 4441 
Q 1534 4441 1298 4117 
Q 1063 3794 1063 3188 
Q 1063 2581 1298 2256 
Q 1534 1931 1978 1931 
Q 2422 1931 2658 2245 
Q 2894 2559 2894 3150 
Q 2894 3772 2656 4106 
Q 2419 4441 1978 4441 
z
" transform="scale(0.015625)"/>
       <path id="DejaVuSerif-35" d="M 3219 4666 
L 3219 4153 
L 1081 4153 
L 1081 2816 
Q 1244 2928 1461 2984 
Q 1678 3041 1947 3041 
Q 2703 3041 3140 2622 
Q 3578 2203 3578 1478 
Q 3578 738 3136 323 
Q 2694 -91 1894 -91 
Q 1572 -91 1234 -12 
Q 897 66 544 225 
L 544 1131 
L 897 1131 
Q 925 688 1179 453 
Q 1434 219 1894 219 
Q 2388 219 2653 544 
Q 2919 869 2919 1478 
Q 2919 2084 2655 2407 
Q 2391 2731 1894 2731 
Q 1613 2731 1398 2631 
Q 1184 2531 1019 2322 
L 750 2322 
L 750 4666 
L 3219 4666 
z
" transform="scale(0.015625)"/>
       <path id="DejaVuSerif-25" d="M 1434 4459 
Q 1159 4459 1004 4200 
Q 850 3941 850 3475 
Q 850 3016 1008 2753 
Q 1166 2491 1434 2491 
Q 1700 2491 1854 2752 
Q 2009 3013 2009 3475 
Q 2009 3938 1854 4198 
Q 1700 4459 1434 4459 
z
M 4653 2169 
Q 4381 2169 4226 1906 
Q 4072 1644 4072 1178 
Q 4072 719 4228 458 
Q 4384 197 4653 197 
Q 4922 197 5075 458 
Q 5228 719 5228 1178 
Q 5228 1641 5073 1905 
Q 4919 2169 4653 2169 
z
M 4653 2450 
Q 5147 2450 5437 2106 
Q 5728 1763 5728 1178 
Q 5728 594 5436 251 
Q 5144 -91 4653 -91 
Q 4153 -91 3862 251 
Q 3572 594 3572 1178 
Q 3572 1766 3864 2108 
Q 4156 2450 4653 2450 
z
M 4263 4750 
L 4738 4750 
L 1819 -91 
L 1344 -91 
L 4263 4750 
z
M 1428 4750 
Q 1922 4750 2215 4408 
Q 2509 4066 2509 3481 
Q 2509 2891 2217 2550 
Q 1925 2209 1428 2209 
Q 931 2209 642 2551 
Q 353 2894 353 3481 
Q 353 4063 643 4406 
Q 934 4750 1428 4750 
z
" transform="scale(0.015625)"/>
       <path id="DejaVuSerif-63" d="M 3291 997 
Q 3169 466 2822 187 
Q 2475 -91 1925 -91 
Q 1200 -91 759 389 
Q 319 869 319 1663 
Q 319 2459 759 2936 
Q 1200 3413 1925 3413 
Q 2241 3413 2553 3339 
Q 2866 3266 3181 3116 
L 3181 2266 
L 2847 2266 
Q 2781 2703 2561 2903 
Q 2341 3103 1931 3103 
Q 1466 3103 1228 2742 
Q 991 2381 991 1663 
Q 991 944 1227 581 
Q 1463 219 1931 219 
Q 2303 219 2525 412 
Q 2747 606 2828 997 
L 3291 997 
z
" transform="scale(0.015625)"/>
       <path id="DejaVuSerif-6f" d="M 1925 219 
Q 2388 219 2623 584 
Q 2859 950 2859 1663 
Q 2859 2375 2623 2739 
Q 2388 3103 1925 3103 
Q 1463 3103 1227 2739 
Q 991 2375 991 1663 
Q 991 950 1228 584 
Q 1466 219 1925 219 
z
M 1925 -91 
Q 1200 -91 759 389 
Q 319 869 319 1663 
Q 319 2456 758 2934 
Q 1197 3413 1925 3413 
Q 2653 3413 3092 2934 
Q 3531 2456 3531 1663 
Q 3531 869 3092 389 
Q 2653 -91 1925 -91 
z
" transform="scale(0.015625)"/>
       <path id="DejaVuSerif-6e" d="M 263 0 
L 263 331 
L 781 331 
L 781 2988 
L 231 2988 
L 231 3322 
L 1356 3322 
L 1356 2731 
Q 1516 3069 1770 3241 
Q 2025 3413 2363 3413 
Q 2913 3413 3172 3097 
Q 3431 2781 3431 2113 
L 3431 331 
L 3944 331 
L 3944 0 
L 2356 0 
L 2356 331 
L 2853 331 
L 2853 1931 
Q 2853 2541 2703 2767 
Q 2553 2994 2175 2994 
Q 1775 2994 1565 2701 
Q 1356 2409 1356 1850 
L 1356 331 
L 1856 331 
L 1856 0 
L 263 0 
z
" transform="scale(0.015625)"/>
       <path id="DejaVuSerif-66" d="M 2753 4078 
L 2450 4078 
Q 2447 4313 2317 4434 
Q 2188 4556 1941 4556 
Q 1619 4556 1487 4379 
Q 1356 4203 1356 3750 
L 1356 3322 
L 2284 3322 
L 2284 2988 
L 1356 2988 
L 1356 331 
L 2094 331 
L 2094 0 
L 231 0 
L 231 331 
L 781 331 
L 781 2988 
L 231 2988 
L 231 3322 
L 781 3322 
L 781 3738 
Q 781 4294 1070 4578 
Q 1359 4863 1919 4863 
Q 2128 4863 2337 4825 
Q 2547 4788 2753 4709 
L 2753 4078 
z
" transform="scale(0.015625)"/>
       <path id="DejaVuSerif-64" d="M 3359 331 
L 3909 331 
L 3909 0 
L 2784 0 
L 2784 519 
Q 2616 206 2355 57 
Q 2094 -91 1709 -91 
Q 1097 -91 708 395 
Q 319 881 319 1663 
Q 319 2444 706 2928 
Q 1094 3413 1709 3413 
Q 2094 3413 2355 3264 
Q 2616 3116 2784 2803 
L 2784 4531 
L 2241 4531 
L 2241 4863 
L 3359 4863 
L 3359 331 
z
M 2784 1497 
L 2784 1825 
Q 2784 2422 2554 2737 
Q 2325 3053 1888 3053 
Q 1444 3053 1217 2703 
Q 991 2353 991 1663 
Q 991 975 1217 622 
Q 1444 269 1888 269 
Q 2325 269 2554 583 
Q 2784 897 2784 1497 
z
" transform="scale(0.015625)"/>
       <path id="DejaVuSerif-65" d="M 3469 1600 
L 991 1600 
L 991 1575 
Q 991 903 1244 561 
Q 1497 219 1991 219 
Q 2369 219 2611 417 
Q 2853 616 2950 1006 
L 3413 1006 
Q 3275 459 2904 184 
Q 2534 -91 1931 -91 
Q 1203 -91 761 389 
Q 319 869 319 1663 
Q 319 2450 753 2931 
Q 1188 3413 1894 3413 
Q 2647 3413 3050 2948 
Q 3453 2484 3469 1600 
z
M 2791 1931 
Q 2772 2513 2545 2808 
Q 2319 3103 1894 3103 
Q 1497 3103 1269 2806 
Q 1041 2509 991 1931 
L 2791 1931 
z
" transform="scale(0.015625)"/>
       <path id="DejaVuSerif-72" d="M 3059 3328 
L 3059 2497 
L 2728 2497 
Q 2713 2744 2591 2866 
Q 2469 2988 2234 2988 
Q 1809 2988 1582 2694 
Q 1356 2400 1356 1850 
L 1356 331 
L 2022 331 
L 2022 0 
L 263 0 
L 263 331 
L 781 331 
L 781 2994 
L 231 2994 
L 231 3322 
L 1356 3322 
L 1356 2731 
Q 1525 3078 1790 3245 
Q 2056 3413 2438 3413 
Q 2578 3413 2733 3391 
Q 2888 3369 3059 3328 
z
" transform="scale(0.015625)"/>
       <path id="DejaVuSerif-76" d="M 1581 0 
L 359 2988 
L -19 2988 
L -19 3322 
L 1509 3322 
L 1509 2988 
L 978 2988 
L 1913 703 
L 2847 2988 
L 2350 2988 
L 2350 3322 
L 3597 3322 
L 3597 2988 
L 3225 2988 
L 2003 0 
L 1581 0 
z
" transform="scale(0.015625)"/>
       <path id="DejaVuSerif-61" d="M 2547 1044 
L 2547 1747 
L 1806 1747 
Q 1378 1747 1168 1562 
Q 959 1378 959 997 
Q 959 650 1171 447 
Q 1384 244 1747 244 
Q 2106 244 2326 466 
Q 2547 688 2547 1044 
z
M 3122 2075 
L 3122 331 
L 3634 331 
L 3634 0 
L 2547 0 
L 2547 359 
Q 2356 128 2106 18 
Q 1856 -91 1522 -91 
Q 969 -91 644 203 
Q 319 497 319 997 
Q 319 1513 691 1797 
Q 1063 2081 1741 2081 
L 2547 2081 
L 2547 2309 
Q 2547 2688 2317 2895 
Q 2088 3103 1672 3103 
Q 1328 3103 1125 2947 
Q 922 2791 872 2484 
L 575 2484 
L 575 3156 
Q 875 3284 1158 3348 
Q 1441 3413 1709 3413 
Q 2400 3413 2761 3070 
Q 3122 2728 3122 2075 
z
" transform="scale(0.015625)"/>
       <path id="DejaVuSerif-6c" d="M 1313 331 
L 1856 331 
L 1856 0 
L 184 0 
L 184 331 
L 738 331 
L 738 4531 
L 184 4531 
L 184 4863 
L 1313 4863 
L 1313 331 
z
" transform="scale(0.015625)"/>
      </defs>
      <use xlink:href="#DejaVuSerif-41"/>
      <use xlink:href="#DejaVuSerif-54" transform="translate(66.716797 0)"/>
      <use xlink:href="#DejaVuSerif-54" transform="translate(135.291016 0)"/>
      <use xlink:href="#DejaVuSerif-20" transform="translate(201.990234 0)"/>
      <use xlink:href="#DejaVuSerif-77" transform="translate(233.777344 0)"/>
      <use xlink:href="#DejaVuSerif-69" transform="translate(319.373047 0)"/>
      <use xlink:href="#DejaVuSerif-74" transform="translate(351.355469 0)"/>
      <use xlink:href="#DejaVuSerif-68" transform="translate(391.541016 0)"/>
      <use xlink:href="#DejaVuSerif-20" transform="translate(455.945312 0)"/>
      <use xlink:href="#DejaVuSerif-39" transform="translate(487.732422 0)"/>
      <use xlink:href="#DejaVuSerif-35" transform="translate(551.355469 0)"/>
      <use xlink:href="#DejaVuSerif-25" transform="translate(614.978516 0)"/>
      <use xlink:href="#DejaVuSerif-20" transform="translate(709.998047 0)"/>
      <use xlink:href="#DejaVuSerif-63" transform="translate(741.785156 0)"/>
      <use xlink:href="#DejaVuSerif-6f" transform="translate(797.791016 0)"/>
      <use xlink:href="#DejaVuSerif-6e" transform="translate(857.996094 0)"/>
      <use xlink:href="#DejaVuSerif-66" transform="translate(922.400391 0)"/>
      <use xlink:href="#DejaVuSerif-69" transform="translate(959.412109 0)"/>
      <use xlink:href="#DejaVuSerif-64" transform="translate(991.394531 0)"/>
      <use xlink:href="#DejaVuSerif-65" transform="translate(1055.408203 0)"/>
      <use xlink:href="#DejaVuSerif-6e" transform="translate(1114.587891 0)"/>
      <use xlink:href="#DejaVuSerif-63" transform="translate(1178.992188 0)"/>
      <use xlink:href="#DejaVuSerif-65" transform="translate(1234.998047 0)"/>
      <use xlink:href="#DejaVuSerif-20" transform="translate(1294.177734 0)"/>
      <use xlink:href="#DejaVuSerif-69" transform="translate(1325.964844 0)"/>
      <use xlink:href="#DejaVuSerif-6e" transform="translate(1357.947266 0)"/>
      <use xlink:href="#DejaVuSerif-74" transform="translate(1422.351562 0)"/>
      <use xlink:href="#DejaVuSerif-65" transform="translate(1462.537109 0)"/>
      <use xlink:href="#DejaVuSerif-72" transform="translate(1521.716797 0)"/>
      <use xlink:href="#DejaVuSerif-76" transform="translate(1569.519531 0)"/>
      <use xlink:href="#DejaVuSerif-61" transform="translate(1626.013672 0)"/>
      <use xlink:href="#DejaVuSerif-6c" transform="translate(1685.632812 0)"/>
     </g>
    </g>
   </g>
   <g id="matplotlib.axis_2">
    <g id="ytick_1">
     <g id="line2d_11">
      <defs>
       <path id="mef0d397c8e" d="M 0 0 
L -3.2 0 
" style="stroke: #475569; stroke-width: 0.7"/>
      </defs>
      <g>
       <use xlink:href="#mef0d397c8e" x="197.608445" y="87.752927" style="fill: #475569; stroke: #475569; stroke-width: 0.7"/>
      </g>
     </g>
     <g id="text_7">
      <!-- Local ATT (no spatial) -->
      <g style="fill: #475569" transform="translate(85.179383 91.362185) scale(0.095 -0.095)">
       <defs>
        <path id="DejaVuSerif-4c" d="M 353 0 
L 353 331 
L 947 331 
L 947 4331 
L 353 4331 
L 353 4666 
L 2175 4666 
L 2175 4331 
L 1581 4331 
L 1581 384 
L 3713 384 
L 3713 1166 
L 4097 1166 
L 4097 0 
L 353 0 
z
" transform="scale(0.015625)"/>
        <path id="DejaVuSerif-28" d="M 2041 -997 
Q 1281 -656 893 83 
Q 506 822 506 1931 
Q 506 3044 893 3783 
Q 1281 4522 2041 4863 
L 2041 4556 
Q 1559 4225 1350 3623 
Q 1141 3022 1141 1931 
Q 1141 844 1350 242 
Q 1559 -359 2041 -691 
L 2041 -997 
z
" transform="scale(0.015625)"/>
        <path id="DejaVuSerif-73" d="M 359 184 
L 359 959 
L 691 959 
Q 703 588 923 403 
Q 1144 219 1575 219 
Q 1963 219 2166 364 
Q 2369 509 2369 788 
Q 2369 1006 2220 1140 
Q 2072 1275 1594 1428 
L 1178 1569 
Q 750 1706 558 1912 
Q 366 2119 366 2438 
Q 366 2894 700 3153 
Q 1034 3413 1625 3413 
Q 1888 3413 2178 3344 
Q 2469 3275 2778 3144 
L 2778 2419 
L 2447 2419 
Q 2434 2741 2221 2922 
Q 2009 3103 1644 3103 
Q 1281 3103 1095 2975 
Q 909 2847 909 2591 
Q 909 2381 1050 2254 
Q 1191 2128 1613 1997 
L 2069 1856 
Q 2541 1709 2748 1489 
Q 2956 1269 2956 922 
Q 2956 450 2595 179 
Q 2234 -91 1600 -91 
Q 1278 -91 972 -22 
Q 666 47 359 184 
z
" transform="scale(0.015625)"/>
        <path id="DejaVuSerif-70" d="M 1313 1825 
L 1313 1497 
Q 1313 897 1542 583 
Q 1772 269 2209 269 
Q 2650 269 2876 622 
Q 3103 975 3103 1663 
Q 3103 2353 2876 2703 
Q 2650 3053 2209 3053 
Q 1772 3053 1542 2737 
Q 1313 2422 1313 1825 
z
M 738 2988 
L 184 2988 
L 184 3322 
L 1313 3322 
L 1313 2803 
Q 1481 3116 1742 3264 
Q 2003 3413 2388 3413 
Q 3000 3413 3387 2928 
Q 3775 2444 3775 1663 
Q 3775 881 3387 395 
Q 3000 -91 2388 -91 
Q 2003 -91 1742 57 
Q 1481 206 1313 519 
L 1313 -997 
L 1856 -997 
L 1856 -1331 
L 184 -1331 
L 184 -997 
L 738 -997 
L 738 2988 
z
" transform="scale(0.015625)"/>
        <path id="DejaVuSerif-29" d="M 453 -997 
L 453 -691 
Q 934 -359 1145 242 
Q 1356 844 1356 1931 
Q 1356 3022 1145 3623 
Q 934 4225 453 4556 
L 453 4863 
Q 1216 4522 1603 3783 
Q 1991 3044 1991 1931 
Q 1991 822 1603 83 
Q 1216 -656 453 -997 
z
" transform="scale(0.015625)"/>
       </defs>
       <use xlink:href="#DejaVuSerif-4c"/>
       <use xlink:href="#DejaVuSerif-6f" transform="translate(66.40625 0)"/>
       <use xlink:href="#DejaVuSerif-63" transform="translate(126.611328 0)"/>
       <use xlink:href="#DejaVuSerif-61" transform="translate(182.617188 0)"/>
       <use xlink:href="#DejaVuSerif-6c" transform="translate(242.236328 0)"/>
       <use xlink:href="#DejaVuSerif-20" transform="translate(274.21875 0)"/>
       <use xlink:href="#DejaVuSerif-41" transform="translate(306.005859 0)"/>
       <use xlink:href="#DejaVuSerif-54" transform="translate(372.722656 0)"/>
       <use xlink:href="#DejaVuSerif-54" transform="translate(441.296875 0)"/>
       <use xlink:href="#DejaVuSerif-20" transform="translate(507.996094 0)"/>
       <use xlink:href="#DejaVuSerif-28" transform="translate(539.783203 0)"/>
       <use xlink:href="#DejaVuSerif-6e" transform="translate(578.796875 0)"/>
       <use xlink:href="#DejaVuSerif-6f" transform="translate(643.201172 0)"/>
       <use xlink:href="#DejaVuSerif-20" transform="translate(703.40625 0)"/>
       <use xlink:href="#DejaVuSerif-73" transform="translate(735.193359 0)"/>
       <use xlink:href="#DejaVuSerif-70" transform="translate(786.511719 0)"/>
       <use xlink:href="#DejaVuSerif-61" transform="translate(850.525391 0)"/>
       <use xlink:href="#DejaVuSerif-74" transform="translate(910.144531 0)"/>
       <use xlink:href="#DejaVuSerif-69" transform="translate(950.330078 0)"/>
       <use xlink:href="#DejaVuSerif-61" transform="translate(982.3125 0)"/>
       <use xlink:href="#DejaVuSerif-6c" transform="translate(1041.931641 0)"/>
       <use xlink:href="#DejaVuSerif-29" transform="translate(1073.914062 0)"/>
      </g>
     </g>
    </g>
    <g id="ytick_2">
     <g id="line2d_12">
      <g>
       <use xlink:href="#mef0d397c8e" x="197.608445" y="176.312828" style="fill: #475569; stroke: #475569; stroke-width: 0.7"/>
      </g>
     </g>
     <g id="text_8">
      <!-- Spatially augmented ATT -->
      <g style="fill: #475569" transform="translate(69.324773 179.922086) scale(0.095 -0.095)">
       <defs>
        <path id="DejaVuSerif-53" d="M 594 225 
L 594 1288 
L 953 1284 
Q 969 753 1261 498 
Q 1553 244 2150 244 
Q 2706 244 2998 464 
Q 3291 684 3291 1106 
Q 3291 1444 3114 1625 
Q 2938 1806 2369 1978 
L 1753 2163 
Q 1084 2366 811 2669 
Q 538 2972 538 3500 
Q 538 4094 959 4422 
Q 1381 4750 2144 4750 
Q 2469 4750 2856 4679 
Q 3244 4609 3681 4475 
L 3681 3481 
L 3328 3481 
Q 3275 3975 2998 4195 
Q 2722 4416 2156 4416 
Q 1663 4416 1405 4214 
Q 1147 4013 1147 3628 
Q 1147 3294 1340 3103 
Q 1534 2913 2163 2725 
L 2741 2553 
Q 3375 2363 3645 2067 
Q 3916 1772 3916 1275 
Q 3916 597 3481 253 
Q 3047 -91 2188 -91 
Q 1803 -91 1404 -12 
Q 1006 66 594 225 
z
" transform="scale(0.015625)"/>
        <path id="DejaVuSerif-79" d="M 1381 -609 
L 1600 -56 
L 359 2988 
L -19 2988 
L -19 3322 
L 1509 3322 
L 1509 2988 
L 978 2988 
L 1913 703 
L 2847 2988 
L 2350 2988 
L 2350 3322 
L 3597 3322 
L 3597 2988 
L 3225 2988 
L 1703 -750 
Q 1547 -1138 1356 -1280 
Q 1166 -1422 819 -1422 
Q 672 -1422 517 -1397 
Q 363 -1372 206 -1325 
L 206 -691 
L 500 -691 
Q 519 -903 608 -995 
Q 697 -1088 884 -1088 
Q 1056 -1088 1161 -992 
Q 1266 -897 1381 -609 
z
" transform="scale(0.015625)"/>
        <path id="DejaVuSerif-75" d="M 2266 3322 
L 3341 3322 
L 3341 331 
L 3884 331 
L 3884 0 
L 2766 0 
L 2766 588 
Q 2606 256 2353 82 
Q 2100 -91 1766 -91 
Q 1213 -91 952 223 
Q 691 538 691 1209 
L 691 2988 
L 172 2988 
L 172 3322 
L 1269 3322 
L 1269 1388 
Q 1269 781 1417 556 
Q 1566 331 1947 331 
Q 2347 331 2556 625 
Q 2766 919 2766 1478 
L 2766 2988 
L 2266 2988 
L 2266 3322 
z
" transform="scale(0.015625)"/>
        <path id="DejaVuSerif-67" d="M 3359 2988 
L 3359 72 
Q 3359 -644 2965 -1033 
Q 2572 -1422 1844 -1422 
Q 1516 -1422 1216 -1362 
Q 916 -1303 641 -1184 
L 641 -488 
L 941 -488 
Q 997 -813 1206 -963 
Q 1416 -1113 1806 -1113 
Q 2313 -1113 2548 -827 
Q 2784 -541 2784 72 
L 2784 519 
Q 2616 206 2355 57 
Q 2094 -91 1709 -91 
Q 1097 -91 708 395 
Q 319 881 319 1663 
Q 319 2444 706 2928 
Q 1094 3413 1709 3413 
Q 2094 3413 2355 3264 
Q 2616 3116 2784 2803 
L 2784 3322 
L 3909 3322 
L 3909 2988 
L 3359 2988 
z
M 2784 1825 
Q 2784 2422 2554 2737 
Q 2325 3053 1888 3053 
Q 1444 3053 1217 2703 
Q 991 2353 991 1663 
Q 991 975 1217 622 
Q 1444 269 1888 269 
Q 2325 269 2554 583 
Q 2784 897 2784 1497 
L 2784 1825 
z
" transform="scale(0.015625)"/>
        <path id="DejaVuSerif-6d" d="M 3316 2675 
Q 3481 3041 3739 3227 
Q 3997 3413 4341 3413 
Q 4863 3413 5119 3089 
Q 5375 2766 5375 2113 
L 5375 331 
L 5894 331 
L 5894 0 
L 4300 0 
L 4300 331 
L 4800 331 
L 4800 2047 
Q 4800 2556 4650 2772 
Q 4500 2988 4153 2988 
Q 3769 2988 3567 2697 
Q 3366 2406 3366 1850 
L 3366 331 
L 3866 331 
L 3866 0 
L 2291 0 
L 2291 331 
L 2791 331 
L 2791 2069 
Q 2791 2566 2641 2777 
Q 2491 2988 2144 2988 
Q 1759 2988 1557 2697 
Q 1356 2406 1356 1850 
L 1356 331 
L 1856 331 
L 1856 0 
L 263 0 
L 263 331 
L 781 331 
L 781 2994 
L 231 2994 
L 231 3322 
L 1356 3322 
L 1356 2731 
Q 1516 3063 1762 3238 
Q 2009 3413 2322 3413 
Q 2709 3413 2968 3220 
Q 3228 3028 3316 2675 
z
" transform="scale(0.015625)"/>
       </defs>
       <use xlink:href="#DejaVuSerif-53"/>
       <use xlink:href="#DejaVuSerif-70" transform="translate(68.505859 0)"/>
       <use xlink:href="#DejaVuSerif-61" transform="translate(132.519531 0)"/>
       <use xlink:href="#DejaVuSerif-74" transform="translate(192.138672 0)"/>
       <use xlink:href="#DejaVuSerif-69" transform="translate(232.324219 0)"/>
       <use xlink:href="#DejaVuSerif-61" transform="translate(264.306641 0)"/>
       <use xlink:href="#DejaVuSerif-6c" transform="translate(323.925781 0)"/>
       <use xlink:href="#DejaVuSerif-6c" transform="translate(355.908203 0)"/>
       <use xlink:href="#DejaVuSerif-79" transform="translate(387.890625 0)"/>
       <use xlink:href="#DejaVuSerif-20" transform="translate(444.384766 0)"/>
       <use xlink:href="#DejaVuSerif-61" transform="translate(476.171875 0)"/>
       <use xlink:href="#DejaVuSerif-75" transform="translate(535.791016 0)"/>
       <use xlink:href="#DejaVuSerif-67" transform="translate(600.195312 0)"/>
       <use xlink:href="#DejaVuSerif-6d" transform="translate(664.208984 0)"/>
       <use xlink:href="#DejaVuSerif-65" transform="translate(759.033203 0)"/>
       <use xlink:href="#DejaVuSerif-6e" transform="translate(818.212891 0)"/>
       <use xlink:href="#DejaVuSerif-74" transform="translate(882.617188 0)"/>
       <use xlink:href="#DejaVuSerif-65" transform="translate(922.802734 0)"/>
       <use xlink:href="#DejaVuSerif-64" transform="translate(981.982422 0)"/>
       <use xlink:href="#DejaVuSerif-20" transform="translate(1045.996094 0)"/>
       <use xlink:href="#DejaVuSerif-41" transform="translate(1077.783203 0)"/>
       <use xlink:href="#DejaVuSerif-54" transform="translate(1144.5 0)"/>
       <use xlink:href="#DejaVuSerif-54" transform="translate(1213.074219 0)"/>
      </g>
     </g>
    </g>
    <g id="ytick_3">
     <g id="line2d_13">
      <g>
       <use xlink:href="#mef0d397c8e" x="197.608445" y="320.222666" style="fill: #475569; stroke: #475569; stroke-width: 0.7"/>
      </g>
     </g>
     <g id="text_9">
      <!-- Local ATT (same comparator) -->
      <g style="fill: #475569" transform="translate(47.949773 323.831924) scale(0.095 -0.095)">
       <use xlink:href="#DejaVuSerif-4c"/>
       <use xlink:href="#DejaVuSerif-6f" transform="translate(66.40625 0)"/>
       <use xlink:href="#DejaVuSerif-63" transform="translate(126.611328 0)"/>
       <use xlink:href="#DejaVuSerif-61" transform="translate(182.617188 0)"/>
       <use xlink:href="#DejaVuSerif-6c" transform="translate(242.236328 0)"/>
       <use xlink:href="#DejaVuSerif-20" transform="translate(274.21875 0)"/>
       <use xlink:href="#DejaVuSerif-41" transform="translate(306.005859 0)"/>
       <use xlink:href="#DejaVuSerif-54" transform="translate(372.722656 0)"/>
       <use xlink:href="#DejaVuSerif-54" transform="translate(441.296875 0)"/>
       <use xlink:href="#DejaVuSerif-20" transform="translate(507.996094 0)"/>
       <use xlink:href="#DejaVuSerif-28" transform="translate(539.783203 0)"/>
       <use xlink:href="#DejaVuSerif-73" transform="translate(578.796875 0)"/>
       <use xlink:href="#DejaVuSerif-61" transform="translate(630.115234 0)"/>
       <use xlink:href="#DejaVuSerif-6d" transform="translate(689.734375 0)"/>
       <use xlink:href="#DejaVuSerif-65" transform="translate(784.558594 0)"/>
       <use xlink:href="#DejaVuSerif-20" transform="translate(843.738281 0)"/>
       <use xlink:href="#DejaVuSerif-63" transform="translate(875.525391 0)"/>
       <use xlink:href="#DejaVuSerif-6f" transform="translate(931.53125 0)"/>
       <use xlink:href="#DejaVuSerif-6d" transform="translate(991.736328 0)"/>
       <use xlink:href="#DejaVuSerif-70" transform="translate(1086.560547 0)"/>
       <use xlink:href="#DejaVuSerif-61" transform="translate(1150.574219 0)"/>
       <use xlink:href="#DejaVuSerif-72" transform="translate(1210.193359 0)"/>
       <use xlink:href="#DejaVuSerif-61" transform="translate(1257.996094 0)"/>
       <use xlink:href="#DejaVuSerif-74" transform="translate(1317.615234 0)"/>
       <use xlink:href="#DejaVuSerif-6f" transform="translate(1357.800781 0)"/>
       <use xlink:href="#DejaVuSerif-72" transform="translate(1418.005859 0)"/>
       <use xlink:href="#DejaVuSerif-29" transform="translate(1465.808594 0)"/>
      </g>
     </g>
    </g>
    <g id="ytick_4">
     <g id="line2d_14">
      <g>
       <use xlink:href="#mef0d397c8e" x="197.608445" y="408.782566" style="fill: #475569; stroke: #475569; stroke-width: 0.7"/>
      </g>
     </g>
     <g id="text_10">
      <!-- Network-augmented ATT -->
      <g style="fill: #475569" transform="translate(69.617195 412.391824) scale(0.095 -0.095)">
       <defs>
        <path id="DejaVuSerif-4e" d="M 313 0 
L 313 331 
L 941 331 
L 941 4331 
L 313 4331 
L 313 4666 
L 1509 4666 
L 4306 984 
L 4306 4331 
L 3681 4331 
L 3681 4666 
L 5319 4666 
L 5319 4331 
L 4691 4331 
L 4691 -91 
L 4313 -91 
L 1325 3841 
L 1325 331 
L 1953 331 
L 1953 0 
L 313 0 
z
" transform="scale(0.015625)"/>
        <path id="DejaVuSerif-6b" d="M 1831 0 
L 219 0 
L 219 331 
L 738 331 
L 738 4531 
L 184 4531 
L 184 4863 
L 1313 4863 
L 1313 1697 
L 2713 2988 
L 2234 2988 
L 2234 3322 
L 3738 3322 
L 3738 2988 
L 3169 2988 
L 2181 2075 
L 3444 331 
L 3922 331 
L 3922 0 
L 2284 0 
L 2284 331 
L 2759 331 
L 1766 1697 
L 1313 1275 
L 1313 331 
L 1831 331 
L 1831 0 
z
" transform="scale(0.015625)"/>
        <path id="DejaVuSerif-2d" d="M 281 1959 
L 1881 1959 
L 1881 1472 
L 281 1472 
L 281 1959 
z
" transform="scale(0.015625)"/>
       </defs>
       <use xlink:href="#DejaVuSerif-4e"/>
       <use xlink:href="#DejaVuSerif-65" transform="translate(87.5 0)"/>
       <use xlink:href="#DejaVuSerif-74" transform="translate(146.679688 0)"/>
       <use xlink:href="#DejaVuSerif-77" transform="translate(186.865234 0)"/>
       <use xlink:href="#DejaVuSerif-6f" transform="translate(272.460938 0)"/>
       <use xlink:href="#DejaVuSerif-72" transform="translate(332.666016 0)"/>
       <use xlink:href="#DejaVuSerif-6b" transform="translate(380.46875 0)"/>
       <use xlink:href="#DejaVuSerif-2d" transform="translate(439.314453 0)"/>
       <use xlink:href="#DejaVuSerif-61" transform="translate(473.103516 0)"/>
       <use xlink:href="#DejaVuSerif-75" transform="translate(532.722656 0)"/>
       <use xlink:href="#DejaVuSerif-67" transform="translate(597.126953 0)"/>
       <use xlink:href="#DejaVuSerif-6d" transform="translate(661.140625 0)"/>
       <use xlink:href="#DejaVuSerif-65" transform="translate(755.964844 0)"/>
       <use xlink:href="#DejaVuSerif-6e" transform="translate(815.144531 0)"/>
       <use xlink:href="#DejaVuSerif-74" transform="translate(879.548828 0)"/>
       <use xlink:href="#DejaVuSerif-65" transform="translate(919.734375 0)"/>
       <use xlink:href="#DejaVuSerif-64" transform="translate(978.914062 0)"/>
       <use xlink:href="#DejaVuSerif-20" transform="translate(1042.927734 0)"/>
       <use xlink:href="#DejaVuSerif-41" transform="translate(1074.714844 0)"/>
       <use xlink:href="#DejaVuSerif-54" transform="translate(1141.431641 0)"/>
       <use xlink:href="#DejaVuSerif-54" transform="translate(1210.005859 0)"/>
      </g>
     </g>
    </g>
   </g>
   <g id="line2d_15">
    <path d="M 234.011734 467.73025 
L 234.011734 23.27025 
" clip-path="url(#p1a6916340d)" style="fill: none; stroke: #0f172a; stroke-width: 1.05; stroke-linecap: square"/>
   </g>
   <g id="LineCollection_1">
    <path d="M 209.560401 87.752927 
L 383.602638 87.752927 
" clip-path="url(#p1a6916340d)" style="fill: none; stroke: #64748b; stroke-opacity: 0.95; stroke-width: 2.5"/>
   </g>
   <g id="LineCollection_2">
    <path d="M 242.634116 176.312828 
L 405.434835 176.312828 
" clip-path="url(#p1a6916340d)" style="fill: none; stroke: #6b5ca5; stroke-opacity: 0.95; stroke-width: 2.5"/>
   </g>
   <g id="LineCollection_3">
    <path d="M 209.560401 320.222666 
L 383.602638 320.222666 
" clip-path="url(#p1a6916340d)" style="fill: none; stroke: #64748b; stroke-opacity: 0.95; stroke-width: 2.5"/>
   </g>
   <g id="LineCollection_4">
    <path d="M 207.50494 408.782566 
L 367.503955 408.782566 
" clip-path="url(#p1a6916340d)" style="fill: none; stroke: #2b7a78; stroke-opacity: 0.95; stroke-width: 2.5"/>
   </g>
   <g id="line2d_16">
    <path d="M 197.608445 248.267747 
L 415.33133 248.267747 
" clip-path="url(#p1a6916340d)" style="fill: none; stroke-dasharray: 3.7,1.6; stroke-dashoffset: 0; stroke: #cbd5e1; stroke-opacity: 0.85"/>
   </g>
   <g id="patch_5">
    <path d="M 197.608445 467.73025 
L 197.608445 23.27025 
" style="fill: none; stroke: #cbd5e1; stroke-width: 0.8; stroke-linejoin: miter; stroke-linecap: square"/>
   </g>
   <g id="patch_6">
    <path d="M 197.608445 467.73025 
L 415.33133 467.73025 
" style="fill: none; stroke: #cbd5e1; stroke-width: 0.8; stroke-linejoin: miter; stroke-linecap: square"/>
   </g>
   <g id="PathCollection_1">
    <defs>
     <path id="m05bb3f765d" d="M -4.242641 4.242641 
L 4.242641 4.242641 
L 4.242641 -4.242641 
L -4.242641 -4.242641 
z
" style="stroke: #ffffff; stroke-width: 0.9"/>
    </defs>
    <g clip-path="url(#p1a6916340d)">
     <use xlink:href="#m05bb3f765d" x="322.044845" y="87.752927" style="fill: #64748b; stroke: #ffffff; stroke-width: 0.9"/>
    </g>
   </g>
   <g id="text_11">
    <!-- 0.043 -->
    <g style="fill: #0f172a" transform="translate(395.830409 90.181177) scale(0.088 -0.088)">
     <defs>
      <path id="DejaVuSerif-33" d="M 622 4469 
Q 988 4606 1323 4678 
Q 1659 4750 1953 4750 
Q 2638 4750 3022 4454 
Q 3406 4159 3406 3634 
Q 3406 3213 3140 2930 
Q 2875 2647 2388 2547 
Q 2963 2466 3280 2130 
Q 3597 1794 3597 1259 
Q 3597 606 3158 257 
Q 2719 -91 1894 -91 
Q 1528 -91 1179 -12 
Q 831 66 488 225 
L 488 1131 
L 838 1131 
Q 869 681 1141 450 
Q 1413 219 1906 219 
Q 2384 219 2661 495 
Q 2938 772 2938 1253 
Q 2938 1803 2653 2086 
Q 2369 2369 1819 2369 
L 1522 2369 
L 1522 2688 
L 1678 2688 
Q 2225 2688 2498 2914 
Q 2772 3141 2772 3597 
Q 2772 4006 2547 4223 
Q 2322 4441 1900 4441 
Q 1478 4441 1245 4241 
Q 1013 4041 972 3647 
L 622 3647 
L 622 4469 
z
" transform="scale(0.015625)"/>
     </defs>
     <use xlink:href="#DejaVuSerif-30"/>
     <use xlink:href="#DejaVuSerif-2e" transform="translate(63.623047 0)"/>
     <use xlink:href="#DejaVuSerif-30" transform="translate(95.410156 0)"/>
     <use xlink:href="#DejaVuSerif-34" transform="translate(159.033203 0)"/>
     <use xlink:href="#DejaVuSerif-33" transform="translate(222.65625 0)"/>
    </g>
   </g>
   <g id="PathCollection_2">
    <defs>
     <path id="ma037d86fed" d="M -0 6 
L 6 0 
L 0 -6 
L -6 -0 
z
" style="stroke: #ffffff; stroke-width: 0.9"/>
    </defs>
    <g clip-path="url(#p1a6916340d)">
     <use xlink:href="#ma037d86fed" x="336.972515" y="176.312828" style="fill: #6b5ca5; stroke: #ffffff; stroke-width: 0.9"/>
    </g>
   </g>
   <g id="text_12">
    <!-- 0.051 -->
    <g style="fill: #0f172a" transform="translate(417.662607 178.741078) scale(0.088 -0.088)">
     <defs>
      <path id="DejaVuSerif-31" d="M 909 0 
L 909 331 
L 1722 331 
L 1722 4213 
L 781 3603 
L 781 4013 
L 1919 4750 
L 2350 4750 
L 2350 331 
L 3163 331 
L 3163 0 
L 909 0 
z
" transform="scale(0.015625)"/>
     </defs>
     <use xlink:href="#DejaVuSerif-30"/>
     <use xlink:href="#DejaVuSerif-2e" transform="translate(63.623047 0)"/>
     <use xlink:href="#DejaVuSerif-30" transform="translate(95.410156 0)"/>
     <use xlink:href="#DejaVuSerif-35" transform="translate(159.033203 0)"/>
     <use xlink:href="#DejaVuSerif-31" transform="translate(222.65625 0)"/>
    </g>
   </g>
   <g id="PathCollection_3">
    <g clip-path="url(#p1a6916340d)">
     <use xlink:href="#m05bb3f765d" x="322.044845" y="320.222666" style="fill: #64748b; stroke: #ffffff; stroke-width: 0.9"/>
    </g>
   </g>
   <g id="text_13">
    <!-- 0.043 -->
    <g style="fill: #0f172a" transform="translate(395.830409 322.650916) scale(0.088 -0.088)">
     <use xlink:href="#DejaVuSerif-30"/>
     <use xlink:href="#DejaVuSerif-2e" transform="translate(63.623047 0)"/>
     <use xlink:href="#DejaVuSerif-30" transform="translate(95.410156 0)"/>
     <use xlink:href="#DejaVuSerif-34" transform="translate(159.033203 0)"/>
     <use xlink:href="#DejaVuSerif-33" transform="translate(222.65625 0)"/>
    </g>
   </g>
   <g id="PathCollection_4">
    <defs>
     <path id="m083f0f8ec8" d="M -0 6 
L 6 0 
L 0 -6 
L -6 -0 
z
" style="stroke: #ffffff; stroke-width: 0.9"/>
    </defs>
    <g clip-path="url(#p1a6916340d)">
     <use xlink:href="#m083f0f8ec8" x="314.661707" y="408.782566" style="fill: #2b7a78; stroke: #ffffff; stroke-width: 0.9"/>
    </g>
   </g>
   <g id="text_14">
    <!-- 0.040 -->
    <g style="fill: #0f172a" transform="translate(379.731727 411.210816) scale(0.088 -0.088)">
     <use xlink:href="#DejaVuSerif-30"/>
     <use xlink:href="#DejaVuSerif-2e" transform="translate(63.623047 0)"/>
     <use xlink:href="#DejaVuSerif-30" transform="translate(95.410156 0)"/>
     <use xlink:href="#DejaVuSerif-34" transform="translate(159.033203 0)"/>
     <use xlink:href="#DejaVuSerif-30" transform="translate(222.65625 0)"/>
    </g>
   </g>
   <g id="text_15">
    <!-- Distance Matrix -->
    <g style="fill: #6b5ca5" transform="translate(5.76 134.930221) scale(0.105 -0.105)">
     <defs>
      <path id="DejaVuSerif-Bold-44" d="M 2100 378 
L 2534 378 
Q 3266 378 3605 847 
Q 3944 1316 3944 2338 
Q 3944 3353 3606 3820 
Q 3269 4288 2534 4288 
L 2100 4288 
L 2100 378 
z
M 300 0 
L 300 378 
L 897 378 
L 897 4288 
L 300 4288 
L 300 4666 
L 2694 4666 
Q 3950 4666 4615 4066 
Q 5281 3466 5281 2338 
Q 5281 1203 4614 601 
Q 3947 0 2694 0 
L 300 0 
z
" transform="scale(0.015625)"/>
      <path id="DejaVuSerif-Bold-69" d="M 588 4263 
Q 588 4516 763 4689 
Q 938 4863 1191 4863 
Q 1438 4863 1611 4689 
Q 1784 4516 1784 4263 
Q 1784 4016 1611 3842 
Q 1438 3669 1191 3669 
Q 938 3669 763 3841 
Q 588 4013 588 4263 
z
M 1797 378 
L 2272 378 
L 2272 0 
L 219 0 
L 219 378 
L 691 378 
L 691 2944 
L 219 2944 
L 219 3322 
L 1797 3322 
L 1797 378 
z
" transform="scale(0.015625)"/>
      <path id="DejaVuSerif-Bold-73" d="M 300 97 
L 300 1025 
L 653 1025 
Q 697 653 931 458 
Q 1166 263 1569 263 
Q 1906 263 2086 380 
Q 2266 497 2266 716 
Q 2266 916 2152 1025 
Q 2038 1134 1709 1216 
L 1253 1331 
Q 738 1459 506 1698 
Q 275 1938 275 2344 
Q 275 2884 650 3148 
Q 1025 3413 1806 3413 
Q 2100 3413 2433 3364 
Q 2766 3316 3169 3213 
L 3169 2375 
L 2816 2375 
Q 2788 2716 2573 2887 
Q 2359 3059 1959 3059 
Q 1622 3059 1448 2951 
Q 1275 2844 1275 2638 
Q 1275 2469 1375 2372 
Q 1475 2275 1734 2209 
L 2188 2094 
Q 2841 1928 3091 1684 
Q 3341 1441 3341 1006 
Q 3341 444 2939 176 
Q 2538 -91 1691 -91 
Q 1381 -91 1034 -44 
Q 688 3 300 97 
z
" transform="scale(0.015625)"/>
      <path id="DejaVuSerif-Bold-74" d="M 634 2944 
L 153 2944 
L 153 3322 
L 634 3322 
L 634 4353 
L 1741 4353 
L 1741 3322 
L 2663 3322 
L 2663 2944 
L 1741 2944 
L 1741 909 
Q 1741 475 1809 369 
Q 1878 263 2059 263 
Q 2259 263 2356 397 
Q 2453 531 2459 813 
L 2925 813 
Q 2897 313 2651 111 
Q 2406 -91 1806 -91 
Q 1122 -91 878 123 
Q 634 338 634 909 
L 634 2944 
z
" transform="scale(0.015625)"/>
      <path id="DejaVuSerif-Bold-61" d="M 3525 2041 
L 3525 378 
L 4000 378 
L 4000 0 
L 2419 0 
L 2419 422 
Q 2200 159 1931 34 
Q 1663 -91 1319 -91 
Q 809 -91 536 182 
Q 263 456 263 966 
Q 263 1525 655 1803 
Q 1047 2081 1838 2081 
L 2419 2081 
L 2419 2278 
Q 2419 2681 2228 2873 
Q 2038 3066 1638 3066 
Q 1306 3066 1126 2930 
Q 947 2794 872 2484 
L 519 2484 
L 519 3200 
Q 816 3306 1134 3359 
Q 1453 3413 1806 3413 
Q 2697 3413 3111 3081 
Q 3525 2750 3525 2041 
z
M 2419 1044 
L 2419 1709 
L 2003 1709 
Q 1694 1709 1528 1540 
Q 1363 1372 1363 1056 
Q 1363 741 1483 584 
Q 1603 428 1850 428 
Q 2106 428 2262 597 
Q 2419 766 2419 1044 
z
" transform="scale(0.015625)"/>
      <path id="DejaVuSerif-Bold-6e" d="M 219 0 
L 219 378 
L 691 378 
L 691 2944 
L 219 2944 
L 219 3322 
L 1797 3322 
L 1797 2853 
Q 1997 3150 2253 3281 
Q 2509 3413 2900 3413 
Q 3459 3413 3745 3083 
Q 4031 2753 4031 2113 
L 4031 378 
L 4506 378 
L 4506 0 
L 2522 0 
L 2522 378 
L 2925 378 
L 2925 2144 
Q 2925 2566 2817 2730 
Q 2709 2894 2444 2894 
Q 2109 2894 1953 2648 
Q 1797 2403 1797 1869 
L 1797 378 
L 2203 378 
L 2203 0 
L 219 0 
z
" transform="scale(0.015625)"/>
      <path id="DejaVuSerif-Bold-63" d="M 3609 1038 
Q 3491 469 3123 189 
Q 2756 -91 2125 -91 
Q 1238 -91 750 368 
Q 263 828 263 1663 
Q 263 2488 744 2950 
Q 1225 3413 2081 3413 
Q 2428 3413 2781 3347 
Q 3134 3281 3500 3150 
L 3500 2228 
L 3150 2228 
Q 3100 2650 2903 2854 
Q 2706 3059 2350 3059 
Q 1888 3059 1692 2746 
Q 1497 2434 1497 1663 
Q 1497 909 1687 586 
Q 1878 263 2309 263 
Q 2644 263 2845 463 
Q 3047 663 3091 1038 
L 3609 1038 
z
" transform="scale(0.015625)"/>
      <path id="DejaVuSerif-Bold-65" d="M 2566 1875 
Q 2566 2531 2444 2795 
Q 2322 3059 2028 3059 
Q 1744 3059 1620 2800 
Q 1497 2541 1497 1931 
L 1497 1875 
L 2566 1875 
z
M 3781 1503 
L 1497 1503 
L 1497 1478 
Q 1497 834 1690 548 
Q 1884 263 2316 263 
Q 2675 263 2897 453 
Q 3119 644 3181 1006 
L 3700 1006 
Q 3566 441 3166 175 
Q 2766 -91 2047 -91 
Q 1184 -91 723 364 
Q 263 819 263 1663 
Q 263 2488 734 2950 
Q 1206 3413 2047 3413 
Q 2872 3413 3312 2927 
Q 3753 2441 3781 1503 
z
" transform="scale(0.015625)"/>
      <path id="DejaVuSerif-Bold-20" transform="scale(0.015625)"/>
      <path id="DejaVuSerif-Bold-4d" d="M 269 0 
L 269 378 
L 863 378 
L 863 4288 
L 269 4288 
L 269 4666 
L 2194 4666 
L 3525 1672 
L 4863 4666 
L 6784 4666 
L 6784 4288 
L 6188 4288 
L 6188 378 
L 6784 378 
L 6784 0 
L 4384 0 
L 4384 378 
L 4978 378 
L 4978 3938 
L 3531 684 
L 2741 684 
L 1300 3938 
L 1300 378 
L 1894 378 
L 1894 0 
L 269 0 
z
" transform="scale(0.015625)"/>
      <path id="DejaVuSerif-Bold-72" d="M 3438 3359 
L 3438 2369 
L 3084 2369 
Q 3066 2634 2941 2764 
Q 2816 2894 2578 2894 
Q 2216 2894 2006 2575 
Q 1797 2256 1797 1691 
L 1797 378 
L 2400 378 
L 2400 0 
L 219 0 
L 219 378 
L 691 378 
L 691 2944 
L 184 2944 
L 184 3322 
L 1797 3322 
L 1797 2731 
Q 1959 3078 2226 3245 
Q 2494 3413 2881 3413 
Q 2978 3413 3117 3398 
Q 3256 3384 3438 3359 
z
" transform="scale(0.015625)"/>
      <path id="DejaVuSerif-Bold-78" d="M 2247 2119 
L 2834 2944 
L 2425 2944 
L 2425 3322 
L 3719 3322 
L 3719 2944 
L 3278 2944 
L 2431 1759 
L 3419 378 
L 3859 378 
L 3859 0 
L 1747 0 
L 1747 378 
L 2175 378 
L 1550 1253 
L 922 378 
L 1369 378 
L 1369 0 
L 0 0 
L 0 378 
L 475 378 
L 1356 1619 
L 403 2944 
L 31 2944 
L 31 3322 
L 2059 3322 
L 2059 2944 
L 1656 2944 
L 2247 2119 
z
" transform="scale(0.015625)"/>
     </defs>
     <use xlink:href="#DejaVuSerif-Bold-44"/>
     <use xlink:href="#DejaVuSerif-Bold-69" transform="translate(86.71875 0)"/>
     <use xlink:href="#DejaVuSerif-Bold-73" transform="translate(124.707031 0)"/>
     <use xlink:href="#DejaVuSerif-Bold-74" transform="translate(181.005859 0)"/>
     <use xlink:href="#DejaVuSerif-Bold-61" transform="translate(227.197266 0)"/>
     <use xlink:href="#DejaVuSerif-Bold-6e" transform="translate(291.992188 0)"/>
     <use xlink:href="#DejaVuSerif-Bold-63" transform="translate(364.697266 0)"/>
     <use xlink:href="#DejaVuSerif-Bold-65" transform="translate(425.585938 0)"/>
     <use xlink:href="#DejaVuSerif-Bold-20" transform="translate(489.208984 0)"/>
     <use xlink:href="#DejaVuSerif-Bold-4d" transform="translate(524.023438 0)"/>
     <use xlink:href="#DejaVuSerif-Bold-61" transform="translate(634.716797 0)"/>
     <use xlink:href="#DejaVuSerif-Bold-74" transform="translate(699.511719 0)"/>
     <use xlink:href="#DejaVuSerif-Bold-72" transform="translate(745.703125 0)"/>
     <use xlink:href="#DejaVuSerif-Bold-69" transform="translate(798.388672 0)"/>
     <use xlink:href="#DejaVuSerif-Bold-78" transform="translate(836.376953 0)"/>
    </g>
   </g>
   <g id="text_16">
    <!-- Flight Network -->
    <g style="fill: #2b7a78" transform="translate(5.76 367.325311) scale(0.105 -0.105)">
     <defs>
      <path id="DejaVuSerif-Bold-46" d="M 300 0 
L 300 378 
L 897 378 
L 897 4288 
L 300 4288 
L 300 4666 
L 4459 4666 
L 4459 3566 
L 4031 3566 
L 4031 4238 
L 2106 4238 
L 2106 2741 
L 3291 2741 
L 3291 3334 
L 3719 3334 
L 3719 1722 
L 3291 1722 
L 3291 2316 
L 2106 2316 
L 2106 378 
L 2841 378 
L 2841 0 
L 300 0 
z
" transform="scale(0.015625)"/>
      <path id="DejaVuSerif-Bold-6c" d="M 1797 378 
L 2272 378 
L 2272 0 
L 219 0 
L 219 378 
L 691 378 
L 691 4488 
L 219 4488 
L 219 4863 
L 1797 4863 
L 1797 378 
z
" transform="scale(0.015625)"/>
      <path id="DejaVuSerif-Bold-67" d="M 3853 2944 
L 3853 44 
Q 3853 -656 3354 -1039 
Q 2856 -1422 1947 -1422 
Q 1616 -1422 1275 -1370 
Q 934 -1319 575 -1216 
L 575 -422 
L 928 -422 
Q 975 -750 1192 -909 
Q 1409 -1069 1813 -1069 
Q 2325 -1069 2536 -823 
Q 2747 -578 2747 44 
L 2747 422 
Q 2606 163 2367 36 
Q 2128 -91 1778 -91 
Q 1072 -91 667 378 
Q 263 847 263 1663 
Q 263 2481 667 2947 
Q 1072 3413 1778 3413 
Q 2128 3413 2367 3286 
Q 2606 3159 2747 2900 
L 2747 3322 
L 4325 3322 
L 4325 2944 
L 3853 2944 
z
M 2747 1825 
Q 2747 2406 2597 2665 
Q 2447 2925 2119 2925 
Q 1775 2925 1636 2651 
Q 1497 2378 1497 1663 
Q 1497 947 1637 672 
Q 1778 397 2119 397 
Q 2447 397 2597 656 
Q 2747 916 2747 1497 
L 2747 1825 
z
" transform="scale(0.015625)"/>
      <path id="DejaVuSerif-Bold-68" d="M 219 0 
L 219 378 
L 691 378 
L 691 4488 
L 197 4488 
L 197 4863 
L 1797 4863 
L 1797 2853 
Q 1997 3150 2253 3281 
Q 2509 3413 2900 3413 
Q 3459 3413 3745 3083 
Q 4031 2753 4031 2113 
L 4031 378 
L 4506 378 
L 4506 0 
L 2522 0 
L 2522 378 
L 2925 378 
L 2925 2144 
Q 2925 2566 2817 2730 
Q 2709 2894 2444 2894 
Q 2109 2894 1953 2648 
Q 1797 2403 1797 1869 
L 1797 378 
L 2203 378 
L 2203 0 
L 219 0 
z
" transform="scale(0.015625)"/>
      <path id="DejaVuSerif-Bold-4e" d="M 281 0 
L 281 378 
L 878 378 
L 878 4288 
L 281 4288 
L 281 4666 
L 1741 4666 
L 4556 1363 
L 4556 4288 
L 3963 4288 
L 3963 4666 
L 5594 4666 
L 5594 4288 
L 4997 4288 
L 4997 0 
L 4178 0 
L 1319 3372 
L 1319 378 
L 1913 378 
L 1913 0 
L 281 0 
z
" transform="scale(0.015625)"/>
      <path id="DejaVuSerif-Bold-77" d="M 3450 3322 
L 4206 1106 
L 4831 2944 
L 4397 2944 
L 4397 3322 
L 5638 3322 
L 5638 2944 
L 5247 2944 
L 4244 0 
L 3481 0 
L 2778 2081 
L 2069 0 
L 1313 0 
L 306 2944 
L -56 2944 
L -56 3322 
L 1825 3322 
L 1825 2944 
L 1434 2944 
L 2047 1147 
L 2791 3322 
L 3450 3322 
z
" transform="scale(0.015625)"/>
      <path id="DejaVuSerif-Bold-6f" d="M 2138 263 
Q 2488 263 2630 563 
Q 2772 863 2772 1663 
Q 2772 2463 2631 2761 
Q 2491 3059 2138 3059 
Q 1784 3059 1640 2757 
Q 1497 2456 1497 1663 
Q 1497 869 1640 566 
Q 1784 263 2138 263 
z
M 2138 -91 
Q 1259 -91 761 376 
Q 263 844 263 1663 
Q 263 2484 761 2948 
Q 1259 3413 2138 3413 
Q 3019 3413 3516 2948 
Q 4013 2484 4013 1663 
Q 4013 844 3514 376 
Q 3016 -91 2138 -91 
z
" transform="scale(0.015625)"/>
      <path id="DejaVuSerif-Bold-6b" d="M 2216 0 
L 219 0 
L 219 378 
L 691 378 
L 691 4488 
L 219 4488 
L 219 4863 
L 1797 4863 
L 1797 1741 
L 3138 2944 
L 2741 2944 
L 2741 3322 
L 4256 3322 
L 4256 2944 
L 3641 2944 
L 2784 2175 
L 4184 378 
L 4544 378 
L 4544 0 
L 2638 0 
L 2638 378 
L 3028 378 
L 2106 1563 
L 1797 1288 
L 1797 378 
L 2216 378 
L 2216 0 
z
" transform="scale(0.015625)"/>
     </defs>
     <use xlink:href="#DejaVuSerif-Bold-46"/>
     <use xlink:href="#DejaVuSerif-Bold-6c" transform="translate(70.996094 0)"/>
     <use xlink:href="#DejaVuSerif-Bold-69" transform="translate(108.984375 0)"/>
     <use xlink:href="#DejaVuSerif-Bold-67" transform="translate(146.972656 0)"/>
     <use xlink:href="#DejaVuSerif-Bold-68" transform="translate(216.894531 0)"/>
     <use xlink:href="#DejaVuSerif-Bold-74" transform="translate(289.599609 0)"/>
     <use xlink:href="#DejaVuSerif-Bold-20" transform="translate(335.791016 0)"/>
     <use xlink:href="#DejaVuSerif-Bold-4e" transform="translate(370.605469 0)"/>
     <use xlink:href="#DejaVuSerif-Bold-65" transform="translate(462.011719 0)"/>
     <use xlink:href="#DejaVuSerif-Bold-74" transform="translate(525.634766 0)"/>
     <use xlink:href="#DejaVuSerif-Bold-77" transform="translate(571.826172 0)"/>
     <use xlink:href="#DejaVuSerif-Bold-6f" transform="translate(657.910156 0)"/>
     <use xlink:href="#DejaVuSerif-Bold-72" transform="translate(724.609375 0)"/>
     <use xlink:href="#DejaVuSerif-Bold-6b" transform="translate(777.294922 0)"/>
    </g>
   </g>
   <g id="patch_7">
    <path d="M 410.973333 140.280681 
Q 374.872867 157.858558 339.677085 174.99593 
" style="fill: none; opacity: 0.9; stroke: #6b5ca5; stroke-width: 0.9; stroke-linecap: round"/>
    <path d="M 343.388753 175.034987 
L 339.677085 174.99593 
L 341.935331 172.05003 
" style="fill: none; opacity: 0.9; stroke: #6b5ca5; stroke-width: 0.9; stroke-linecap: round"/>
   </g>
   <g id="text_17">
    <g id="patch_8">
     <path d="M 393.373512 138.906015 
L 458.217262 138.906015 
Q 460.043262 138.906015 460.043262 137.080015 
L 460.043262 129.047171 
Q 460.043262 127.221171 458.217262 127.221171 
L 393.373512 127.221171 
Q 391.547512 127.221171 391.547512 129.047171 
L 391.547512 137.080015 
Q 391.547512 138.906015 393.373512 138.906015 
z
" style="fill: #ffffff; opacity: 0.96; stroke: #ddd8f0; stroke-linejoin: miter"/>
    </g>
    <!-- +0.007 vs local -->
    <g style="fill: #6b5ca5" transform="translate(393.373512 135.353874) scale(0.083 -0.083)">
     <defs>
      <path id="DejaVuSerif-2b" d="M 2931 4013 
L 2931 2259 
L 4684 2259 
L 4684 1753 
L 2931 1753 
L 2931 0 
L 2431 0 
L 2431 1753 
L 678 1753 
L 678 2259 
L 2431 2259 
L 2431 4013 
L 2931 4013 
z
" transform="scale(0.015625)"/>
      <path id="DejaVuSerif-37" d="M 3609 4347 
L 1784 0 
L 1319 0 
L 3059 4153 
L 903 4153 
L 903 3578 
L 538 3578 
L 538 4666 
L 3609 4666 
L 3609 4347 
z
" transform="scale(0.015625)"/>
     </defs>
     <use xlink:href="#DejaVuSerif-2b"/>
     <use xlink:href="#DejaVuSerif-30" transform="translate(83.789062 0)"/>
     <use xlink:href="#DejaVuSerif-2e" transform="translate(147.412109 0)"/>
     <use xlink:href="#DejaVuSerif-30" transform="translate(179.199219 0)"/>
     <use xlink:href="#DejaVuSerif-30" transform="translate(242.822266 0)"/>
     <use xlink:href="#DejaVuSerif-37" transform="translate(306.445312 0)"/>
     <use xlink:href="#DejaVuSerif-20" transform="translate(370.068359 0)"/>
     <use xlink:href="#DejaVuSerif-76" transform="translate(401.855469 0)"/>
     <use xlink:href="#DejaVuSerif-73" transform="translate(458.349609 0)"/>
     <use xlink:href="#DejaVuSerif-20" transform="translate(509.667969 0)"/>
     <use xlink:href="#DejaVuSerif-6c" transform="translate(541.455078 0)"/>
     <use xlink:href="#DejaVuSerif-6f" transform="translate(573.4375 0)"/>
     <use xlink:href="#DejaVuSerif-63" transform="translate(633.642578 0)"/>
     <use xlink:href="#DejaVuSerif-61" transform="translate(689.648438 0)"/>
     <use xlink:href="#DejaVuSerif-6c" transform="translate(749.267578 0)"/>
    </g>
   </g>
   <g id="patch_9">
    <path d="M 410.630084 355.13852 
Q 363.520119 381.471873 317.288479 407.314263 
" style="fill: none; opacity: 0.9; stroke: #2b7a78; stroke-width: 0.9; stroke-linecap: round"/>
    <path d="M 320.996415 407.14335 
L 317.288479 407.314263 
L 319.376511 404.245367 
" style="fill: none; opacity: 0.9; stroke: #2b7a78; stroke-width: 0.9; stroke-linecap: round"/>
   </g>
   <g id="text_18">
    <g id="patch_10">
     <path d="M 393.373512 353.663773 
L 454.067262 353.663773 
Q 455.893262 353.663773 455.893262 351.837773 
L 455.893262 343.804929 
Q 455.893262 341.978929 454.067262 341.978929 
L 393.373512 341.978929 
Q 391.547512 341.978929 391.547512 343.804929 
L 391.547512 351.837773 
Q 391.547512 353.663773 393.373512 353.663773 
z
" style="fill: #ffffff; opacity: 0.96; stroke: #b9e3df; stroke-linejoin: miter"/>
    </g>
    <!-- -0.004 vs local -->
    <g style="fill: #2b7a78" transform="translate(393.373512 350.111632) scale(0.083 -0.083)">
     <use xlink:href="#DejaVuSerif-2d"/>
     <use xlink:href="#DejaVuSerif-30" transform="translate(33.789062 0)"/>
     <use xlink:href="#DejaVuSerif-2e" transform="translate(97.412109 0)"/>
     <use xlink:href="#DejaVuSerif-30" transform="translate(129.199219 0)"/>
     <use xlink:href="#DejaVuSerif-30" transform="translate(192.822266 0)"/>
     <use xlink:href="#DejaVuSerif-34" transform="translate(256.445312 0)"/>
     <use xlink:href="#DejaVuSerif-20" transform="translate(320.068359 0)"/>
     <use xlink:href="#DejaVuSerif-76" transform="translate(351.855469 0)"/>
     <use xlink:href="#DejaVuSerif-73" transform="translate(408.349609 0)"/>
     <use xlink:href="#DejaVuSerif-20" transform="translate(459.667969 0)"/>
     <use xlink:href="#DejaVuSerif-6c" transform="translate(491.455078 0)"/>
     <use xlink:href="#DejaVuSerif-6f" transform="translate(523.4375 0)"/>
     <use xlink:href="#DejaVuSerif-63" transform="translate(583.642578 0)"/>
     <use xlink:href="#DejaVuSerif-61" transform="translate(639.648438 0)"/>
     <use xlink:href="#DejaVuSerif-6c" transform="translate(699.267578 0)"/>
    </g>
   </g>
   <g id="text_19">
    <!-- Geographic and flight-network spillovers -->
    <g style="fill: #0f172a" transform="translate(197.608445 14.27025) scale(0.112 -0.112)">
     <defs>
      <path id="DejaVuSerif-Bold-47" d="M 4403 3200 
Q 4263 3819 3934 4095 
Q 3606 4372 3009 4372 
Q 2284 4372 1945 3880 
Q 1606 3388 1606 2328 
Q 1606 1278 1931 783 
Q 2256 288 2944 288 
Q 3206 288 3431 347 
Q 3656 406 3841 525 
L 3841 1806 
L 3278 1806 
L 3278 2181 
L 4959 2181 
L 4959 391 
Q 4434 147 3911 28 
Q 3388 -91 2841 -91 
Q 1641 -91 955 556 
Q 269 1203 269 2328 
Q 269 3456 955 4103 
Q 1641 4750 2841 4750 
Q 3341 4750 3825 4650 
Q 4309 4550 4800 4347 
L 4800 3200 
L 4403 3200 
z
" transform="scale(0.015625)"/>
      <path id="DejaVuSerif-Bold-70" d="M 1728 1825 
L 1728 1497 
Q 1728 916 1876 656 
Q 2025 397 2356 397 
Q 2697 397 2836 672 
Q 2975 947 2975 1663 
Q 2975 2378 2836 2651 
Q 2697 2925 2356 2925 
Q 2025 2925 1876 2665 
Q 1728 2406 1728 1825 
z
M 622 2944 
L 147 2944 
L 147 3322 
L 1728 3322 
L 1728 2900 
Q 1869 3159 2106 3286 
Q 2344 3413 2694 3413 
Q 3403 3413 3811 2945 
Q 4219 2478 4219 1663 
Q 4219 847 3811 378 
Q 3403 -91 2694 -91 
Q 2344 -91 2106 36 
Q 1869 163 1728 422 
L 1728 -953 
L 2241 -953 
L 2241 -1331 
L 147 -1331 
L 147 -953 
L 622 -953 
L 622 2944 
z
" transform="scale(0.015625)"/>
      <path id="DejaVuSerif-Bold-64" d="M 2747 1497 
L 2747 1825 
Q 2747 2406 2597 2665 
Q 2447 2925 2119 2925 
Q 1775 2925 1636 2651 
Q 1497 2378 1497 1663 
Q 1497 947 1637 672 
Q 1778 397 2119 397 
Q 2447 397 2597 656 
Q 2747 916 2747 1497 
z
M 3853 378 
L 4325 378 
L 4325 0 
L 2747 0 
L 2747 422 
Q 2606 163 2367 36 
Q 2128 -91 1778 -91 
Q 1072 -91 667 378 
Q 263 847 263 1663 
Q 263 2481 667 2947 
Q 1072 3413 1778 3413 
Q 2128 3413 2367 3286 
Q 2606 3159 2747 2900 
L 2747 4488 
L 2272 4488 
L 2272 4863 
L 3853 4863 
L 3853 378 
z
" transform="scale(0.015625)"/>
      <path id="DejaVuSerif-Bold-66" d="M 3097 4031 
L 2747 4031 
Q 2722 4275 2605 4394 
Q 2488 4513 2272 4513 
Q 2022 4513 1909 4333 
Q 1797 4153 1797 3750 
L 1797 3322 
L 2631 3322 
L 2631 2944 
L 1797 2944 
L 1797 378 
L 2438 378 
L 2438 0 
L 219 0 
L 219 378 
L 691 378 
L 691 2944 
L 197 2944 
L 197 3322 
L 691 3322 
L 691 3738 
Q 691 4291 1044 4577 
Q 1397 4863 2081 4863 
Q 2347 4863 2600 4833 
Q 2853 4803 3097 4744 
L 3097 4031 
z
" transform="scale(0.015625)"/>
      <path id="DejaVuSerif-Bold-2d" d="M 347 2138 
L 2309 2138 
L 2309 1294 
L 347 1294 
L 347 2138 
z
" transform="scale(0.015625)"/>
      <path id="DejaVuSerif-Bold-76" d="M 1428 0 
L 250 2944 
L -116 2944 
L -116 3322 
L 1791 3322 
L 1791 2944 
L 1388 2944 
L 2228 844 
L 3066 2944 
L 2631 2944 
L 2631 3322 
L 3878 3322 
L 3878 2944 
L 3494 2944 
L 2316 0 
L 1428 0 
z
" transform="scale(0.015625)"/>
     </defs>
     <use xlink:href="#DejaVuSerif-Bold-47"/>
     <use xlink:href="#DejaVuSerif-Bold-65" transform="translate(85.400391 0)"/>
     <use xlink:href="#DejaVuSerif-Bold-6f" transform="translate(149.023438 0)"/>
     <use xlink:href="#DejaVuSerif-Bold-67" transform="translate(215.722656 0)"/>
     <use xlink:href="#DejaVuSerif-Bold-72" transform="translate(285.644531 0)"/>
     <use xlink:href="#DejaVuSerif-Bold-61" transform="translate(338.330078 0)"/>
     <use xlink:href="#DejaVuSerif-Bold-70" transform="translate(403.125 0)"/>
     <use xlink:href="#DejaVuSerif-Bold-68" transform="translate(473.046875 0)"/>
     <use xlink:href="#DejaVuSerif-Bold-69" transform="translate(545.751953 0)"/>
     <use xlink:href="#DejaVuSerif-Bold-63" transform="translate(583.740234 0)"/>
     <use xlink:href="#DejaVuSerif-Bold-20" transform="translate(644.628906 0)"/>
     <use xlink:href="#DejaVuSerif-Bold-61" transform="translate(679.443359 0)"/>
     <use xlink:href="#DejaVuSerif-Bold-6e" transform="translate(744.238281 0)"/>
     <use xlink:href="#DejaVuSerif-Bold-64" transform="translate(816.943359 0)"/>
     <use xlink:href="#DejaVuSerif-Bold-20" transform="translate(886.865234 0)"/>
     <use xlink:href="#DejaVuSerif-Bold-66" transform="translate(921.679688 0)"/>
     <use xlink:href="#DejaVuSerif-Bold-6c" transform="translate(964.697266 0)"/>
     <use xlink:href="#DejaVuSerif-Bold-69" transform="translate(1002.685547 0)"/>
     <use xlink:href="#DejaVuSerif-Bold-67" transform="translate(1040.673828 0)"/>
     <use xlink:href="#DejaVuSerif-Bold-68" transform="translate(1110.595703 0)"/>
     <use xlink:href="#DejaVuSerif-Bold-74" transform="translate(1183.300781 0)"/>
     <use xlink:href="#DejaVuSerif-Bold-2d" transform="translate(1229.492188 0)"/>
     <use xlink:href="#DejaVuSerif-Bold-6e" transform="translate(1270.996094 0)"/>
     <use xlink:href="#DejaVuSerif-Bold-65" transform="translate(1343.701172 0)"/>
     <use xlink:href="#DejaVuSerif-Bold-74" transform="translate(1407.324219 0)"/>
     <use xlink:href="#DejaVuSerif-Bold-77" transform="translate(1453.515625 0)"/>
     <use xlink:href="#DejaVuSerif-Bold-6f" transform="translate(1539.599609 0)"/>
     <use xlink:href="#DejaVuSerif-Bold-72" transform="translate(1606.298828 0)"/>
     <use xlink:href="#DejaVuSerif-Bold-6b" transform="translate(1658.984375 0)"/>
     <use xlink:href="#DejaVuSerif-Bold-20" transform="translate(1728.271484 0)"/>
     <use xlink:href="#DejaVuSerif-Bold-73" transform="translate(1763.085938 0)"/>
     <use xlink:href="#DejaVuSerif-Bold-70" transform="translate(1819.384766 0)"/>
     <use xlink:href="#DejaVuSerif-Bold-69" transform="translate(1889.306641 0)"/>
     <use xlink:href="#DejaVuSerif-Bold-6c" transform="translate(1927.294922 0)"/>
     <use xlink:href="#DejaVuSerif-Bold-6c" transform="translate(1965.283203 0)"/>
     <use xlink:href="#DejaVuSerif-Bold-6f" transform="translate(2003.271484 0)"/>
     <use xlink:href="#DejaVuSerif-Bold-76" transform="translate(2069.970703 0)"/>
     <use xlink:href="#DejaVuSerif-Bold-65" transform="translate(2128.076172 0)"/>
     <use xlink:href="#DejaVuSerif-Bold-72" transform="translate(2191.699219 0)"/>
     <use xlink:href="#DejaVuSerif-Bold-73" transform="translate(2244.384766 0)"/>
    </g>
   </g>
   <g id="text_20">
    <g id="patch_11">
     <path d="M 204.140132 451.63185 
L 513.386132 451.63185 
Q 515.066132 451.63185 515.066132 449.95185 
L 515.066132 422.651587 
Q 515.066132 420.971587 513.386132 420.971587 
L 204.140132 420.971587 
Q 202.460132 420.971587 202.460132 422.651587 
L 202.460132 449.95185 
Q 202.460132 451.63185 204.140132 451.63185 
z
" style="fill: #ffffff; opacity: 0.88; stroke: #e2e8f0; stroke-linejoin: miter"/>
    </g>
    <!-- Flight edges: 2884, mean out-degree: 10.0 -->
    <g style="fill: #0f172a" transform="translate(204.140132 429.034275) scale(0.084 -0.084)">
     <defs>
      <path id="DejaVuSerif-46" d="M 353 0 
L 353 331 
L 947 331 
L 947 4331 
L 353 4331 
L 353 4666 
L 4172 4666 
L 4172 3628 
L 3788 3628 
L 3788 4281 
L 1581 4281 
L 1581 2719 
L 3175 2719 
L 3175 3303 
L 3559 3303 
L 3559 1753 
L 3175 1753 
L 3175 2338 
L 1581 2338 
L 1581 331 
L 2328 331 
L 2328 0 
L 353 0 
z
" transform="scale(0.015625)"/>
      <path id="DejaVuSerif-3a" d="M 666 325 
Q 666 500 786 622 
Q 906 744 1081 744 
Q 1256 744 1376 622 
Q 1497 500 1497 325 
Q 1497 150 1378 29 
Q 1259 -91 1081 -91 
Q 903 -91 784 29 
Q 666 150 666 325 
z
M 666 2363 
Q 666 2538 786 2658 
Q 906 2778 1081 2778 
Q 1259 2778 1378 2659 
Q 1497 2541 1497 2363 
Q 1497 2184 1378 2065 
Q 1259 1947 1081 1947 
Q 906 1947 786 2067 
Q 666 2188 666 2363 
z
" transform="scale(0.015625)"/>
      <path id="DejaVuSerif-2c" d="M 231 -622 
Q 525 -406 662 -114 
Q 800 178 800 594 
L 800 709 
L 1416 709 
Q 1391 175 1164 -208 
Q 938 -591 481 -872 
L 231 -622 
z
" transform="scale(0.015625)"/>
     </defs>
     <use xlink:href="#DejaVuSerif-46"/>
     <use xlink:href="#DejaVuSerif-6c" transform="translate(69.384766 0)"/>
     <use xlink:href="#DejaVuSerif-69" transform="translate(101.367188 0)"/>
     <use xlink:href="#DejaVuSerif-67" transform="translate(133.349609 0)"/>
     <use xlink:href="#DejaVuSerif-68" transform="translate(197.363281 0)"/>
     <use xlink:href="#DejaVuSerif-74" transform="translate(261.767578 0)"/>
     <use xlink:href="#DejaVuSerif-20" transform="translate(301.953125 0)"/>
     <use xlink:href="#DejaVuSerif-65" transform="translate(333.740234 0)"/>
     <use xlink:href="#DejaVuSerif-64" transform="translate(392.919922 0)"/>
     <use xlink:href="#DejaVuSerif-67" transform="translate(456.933594 0)"/>
     <use xlink:href="#DejaVuSerif-65" transform="translate(520.947266 0)"/>
     <use xlink:href="#DejaVuSerif-73" transform="translate(580.126953 0)"/>
     <use xlink:href="#DejaVuSerif-3a" transform="translate(631.445312 0)"/>
     <use xlink:href="#DejaVuSerif-20" transform="translate(665.136719 0)"/>
     <use xlink:href="#DejaVuSerif-32" transform="translate(696.923828 0)"/>
     <use xlink:href="#DejaVuSerif-38" transform="translate(760.546875 0)"/>
     <use xlink:href="#DejaVuSerif-38" transform="translate(824.169922 0)"/>
     <use xlink:href="#DejaVuSerif-34" transform="translate(887.792969 0)"/>
     <use xlink:href="#DejaVuSerif-2c" transform="translate(951.416016 0)"/>
     <use xlink:href="#DejaVuSerif-20" transform="translate(983.203125 0)"/>
     <use xlink:href="#DejaVuSerif-6d" transform="translate(1014.990234 0)"/>
     <use xlink:href="#DejaVuSerif-65" transform="translate(1109.814453 0)"/>
     <use xlink:href="#DejaVuSerif-61" transform="translate(1168.994141 0)"/>
     <use xlink:href="#DejaVuSerif-6e" transform="translate(1228.613281 0)"/>
     <use xlink:href="#DejaVuSerif-20" transform="translate(1293.017578 0)"/>
     <use xlink:href="#DejaVuSerif-6f" transform="translate(1324.804688 0)"/>
     <use xlink:href="#DejaVuSerif-75" transform="translate(1385.009766 0)"/>
     <use xlink:href="#DejaVuSerif-74" transform="translate(1449.414062 0)"/>
     <use xlink:href="#DejaVuSerif-2d" transform="translate(1489.599609 0)"/>
     <use xlink:href="#DejaVuSerif-64" transform="translate(1523.388672 0)"/>
     <use xlink:href="#DejaVuSerif-65" transform="translate(1587.402344 0)"/>
     <use xlink:href="#DejaVuSerif-67" transform="translate(1646.582031 0)"/>
     <use xlink:href="#DejaVuSerif-72" transform="translate(1710.595703 0)"/>
     <use xlink:href="#DejaVuSerif-65" transform="translate(1758.398438 0)"/>
     <use xlink:href="#DejaVuSerif-65" transform="translate(1817.578125 0)"/>
     <use xlink:href="#DejaVuSerif-3a" transform="translate(1876.757812 0)"/>
     <use xlink:href="#DejaVuSerif-20" transform="translate(1910.449219 0)"/>
     <use xlink:href="#DejaVuSerif-31" transform="translate(1942.236328 0)"/>
     <use xlink:href="#DejaVuSerif-30" transform="translate(2005.859375 0)"/>
     <use xlink:href="#DejaVuSerif-2e" transform="translate(2069.482422 0)"/>
     <use xlink:href="#DejaVuSerif-30" transform="translate(2101.269531 0)"/>
    </g>
    <!-- Positive ATT persists under both topology choices. -->
    <g style="fill: #0f172a" transform="translate(204.140132 438.559875) scale(0.084 -0.084)">
     <defs>
      <path id="DejaVuSerif-50" d="M 1581 2375 
L 2406 2375 
Q 2872 2375 3115 2626 
Q 3359 2878 3359 3353 
Q 3359 3831 3115 4081 
Q 2872 4331 2406 4331 
L 1581 4331 
L 1581 2375 
z
M 353 0 
L 353 331 
L 947 331 
L 947 4331 
L 353 4331 
L 353 4666 
L 2559 4666 
Q 3259 4666 3668 4311 
Q 4078 3956 4078 3353 
Q 4078 2753 3668 2397 
Q 3259 2041 2559 2041 
L 1581 2041 
L 1581 331 
L 2303 331 
L 2303 0 
L 353 0 
z
" transform="scale(0.015625)"/>
      <path id="DejaVuSerif-62" d="M 738 331 
L 738 4531 
L 184 4531 
L 184 4863 
L 1313 4863 
L 1313 2803 
Q 1481 3116 1742 3264 
Q 2003 3413 2388 3413 
Q 3000 3413 3387 2928 
Q 3775 2444 3775 1663 
Q 3775 881 3387 395 
Q 3000 -91 2388 -91 
Q 2003 -91 1742 57 
Q 1481 206 1313 519 
L 1313 0 
L 184 0 
L 184 331 
L 738 331 
z
M 1313 1497 
Q 1313 897 1542 583 
Q 1772 269 2209 269 
Q 2650 269 2876 622 
Q 3103 975 3103 1663 
Q 3103 2353 2876 2703 
Q 2650 3053 2209 3053 
Q 1772 3053 1542 2737 
Q 1313 2422 1313 1825 
L 1313 1497 
z
" transform="scale(0.015625)"/>
     </defs>
     <use xlink:href="#DejaVuSerif-50"/>
     <use xlink:href="#DejaVuSerif-6f" transform="translate(63.285156 0)"/>
     <use xlink:href="#DejaVuSerif-73" transform="translate(123.490234 0)"/>
     <use xlink:href="#DejaVuSerif-69" transform="translate(174.808594 0)"/>
     <use xlink:href="#DejaVuSerif-74" transform="translate(206.791016 0)"/>
     <use xlink:href="#DejaVuSerif-69" transform="translate(246.976562 0)"/>
     <use xlink:href="#DejaVuSerif-76" transform="translate(278.958984 0)"/>
     <use xlink:href="#DejaVuSerif-65" transform="translate(335.453125 0)"/>
     <use xlink:href="#DejaVuSerif-20" transform="translate(394.632812 0)"/>
     <use xlink:href="#DejaVuSerif-41" transform="translate(426.419922 0)"/>
     <use xlink:href="#DejaVuSerif-54" transform="translate(493.136719 0)"/>
     <use xlink:href="#DejaVuSerif-54" transform="translate(561.710938 0)"/>
     <use xlink:href="#DejaVuSerif-20" transform="translate(628.410156 0)"/>
     <use xlink:href="#DejaVuSerif-70" transform="translate(660.197266 0)"/>
     <use xlink:href="#DejaVuSerif-65" transform="translate(724.210938 0)"/>
     <use xlink:href="#DejaVuSerif-72" transform="translate(783.390625 0)"/>
     <use xlink:href="#DejaVuSerif-73" transform="translate(831.193359 0)"/>
     <use xlink:href="#DejaVuSerif-69" transform="translate(882.511719 0)"/>
     <use xlink:href="#DejaVuSerif-73" transform="translate(914.494141 0)"/>
     <use xlink:href="#DejaVuSerif-74" transform="translate(965.8125 0)"/>
     <use xlink:href="#DejaVuSerif-73" transform="translate(1005.998047 0)"/>
     <use xlink:href="#DejaVuSerif-20" transform="translate(1057.316406 0)"/>
     <use xlink:href="#DejaVuSerif-75" transform="translate(1089.103516 0)"/>
     <use xlink:href="#DejaVuSerif-6e" transform="translate(1153.507812 0)"/>
     <use xlink:href="#DejaVuSerif-64" transform="translate(1217.912109 0)"/>
     <use xlink:href="#DejaVuSerif-65" transform="translate(1281.925781 0)"/>
     <use xlink:href="#DejaVuSerif-72" transform="translate(1341.105469 0)"/>
     <use xlink:href="#DejaVuSerif-20" transform="translate(1388.908203 0)"/>
     <use xlink:href="#DejaVuSerif-62" transform="translate(1420.695312 0)"/>
     <use xlink:href="#DejaVuSerif-6f" transform="translate(1484.708984 0)"/>
     <use xlink:href="#DejaVuSerif-74" transform="translate(1544.914062 0)"/>
     <use xlink:href="#DejaVuSerif-68" transform="translate(1585.099609 0)"/>
     <use xlink:href="#DejaVuSerif-20" transform="translate(1649.503906 0)"/>
     <use xlink:href="#DejaVuSerif-74" transform="translate(1681.291016 0)"/>
     <use xlink:href="#DejaVuSerif-6f" transform="translate(1721.476562 0)"/>
     <use xlink:href="#DejaVuSerif-70" transform="translate(1781.681641 0)"/>
     <use xlink:href="#DejaVuSerif-6f" transform="translate(1845.695312 0)"/>
     <use xlink:href="#DejaVuSerif-6c" transform="translate(1905.900391 0)"/>
     <use xlink:href="#DejaVuSerif-6f" transform="translate(1937.882812 0)"/>
     <use xlink:href="#DejaVuSerif-67" transform="translate(1998.087891 0)"/>
     <use xlink:href="#DejaVuSerif-79" transform="translate(2062.101562 0)"/>
     <use xlink:href="#DejaVuSerif-20" transform="translate(2118.595703 0)"/>
     <use xlink:href="#DejaVuSerif-63" transform="translate(2150.382812 0)"/>
     <use xlink:href="#DejaVuSerif-68" transform="translate(2206.388672 0)"/>
     <use xlink:href="#DejaVuSerif-6f" transform="translate(2270.792969 0)"/>
     <use xlink:href="#DejaVuSerif-69" transform="translate(2330.998047 0)"/>
     <use xlink:href="#DejaVuSerif-63" transform="translate(2362.980469 0)"/>
     <use xlink:href="#DejaVuSerif-65" transform="translate(2418.986328 0)"/>
     <use xlink:href="#DejaVuSerif-73" transform="translate(2478.166016 0)"/>
     <use xlink:href="#DejaVuSerif-2e" transform="translate(2529.484375 0)"/>
    </g>
    <!-- The flight network attenuates magnitude but does not reverse direction. -->
    <g style="fill: #0f172a" transform="translate(204.140132 448.085475) scale(0.084 -0.084)">
     <use xlink:href="#DejaVuSerif-54"/>
     <use xlink:href="#DejaVuSerif-68" transform="translate(66.699219 0)"/>
     <use xlink:href="#DejaVuSerif-65" transform="translate(131.103516 0)"/>
     <use xlink:href="#DejaVuSerif-20" transform="translate(190.283203 0)"/>
     <use xlink:href="#DejaVuSerif-66" transform="translate(222.070312 0)"/>
     <use xlink:href="#DejaVuSerif-6c" transform="translate(259.082031 0)"/>
     <use xlink:href="#DejaVuSerif-69" transform="translate(291.064453 0)"/>
     <use xlink:href="#DejaVuSerif-67" transform="translate(323.046875 0)"/>
     <use xlink:href="#DejaVuSerif-68" transform="translate(387.060547 0)"/>
     <use xlink:href="#DejaVuSerif-74" transform="translate(451.464844 0)"/>
     <use xlink:href="#DejaVuSerif-20" transform="translate(491.650391 0)"/>
     <use xlink:href="#DejaVuSerif-6e" transform="translate(523.4375 0)"/>
     <use xlink:href="#DejaVuSerif-65" transform="translate(587.841797 0)"/>
     <use xlink:href="#DejaVuSerif-74" transform="translate(647.021484 0)"/>
     <use xlink:href="#DejaVuSerif-77" transform="translate(687.207031 0)"/>
     <use xlink:href="#DejaVuSerif-6f" transform="translate(772.802734 0)"/>
     <use xlink:href="#DejaVuSerif-72" transform="translate(833.007812 0)"/>
     <use xlink:href="#DejaVuSerif-6b" transform="translate(880.810547 0)"/>
     <use xlink:href="#DejaVuSerif-20" transform="translate(941.40625 0)"/>
     <use xlink:href="#DejaVuSerif-61" transform="translate(973.193359 0)"/>
     <use xlink:href="#DejaVuSerif-74" transform="translate(1032.8125 0)"/>
     <use xlink:href="#DejaVuSerif-74" transform="translate(1072.998047 0)"/>
     <use xlink:href="#DejaVuSerif-65" transform="translate(1113.183594 0)"/>
     <use xlink:href="#DejaVuSerif-6e" transform="translate(1172.363281 0)"/>
     <use xlink:href="#DejaVuSerif-75" transform="translate(1236.767578 0)"/>
     <use xlink:href="#DejaVuSerif-61" transform="translate(1301.171875 0)"/>
     <use xlink:href="#DejaVuSerif-74" transform="translate(1360.791016 0)"/>
     <use xlink:href="#DejaVuSerif-65" transform="translate(1400.976562 0)"/>
     <use xlink:href="#DejaVuSerif-73" transform="translate(1460.15625 0)"/>
     <use xlink:href="#DejaVuSerif-20" transform="translate(1511.474609 0)"/>
     <use xlink:href="#DejaVuSerif-6d" transform="translate(1543.261719 0)"/>
     <use xlink:href="#DejaVuSerif-61" transform="translate(1638.085938 0)"/>
     <use xlink:href="#DejaVuSerif-67" transform="translate(1697.705078 0)"/>
     <use xlink:href="#DejaVuSerif-6e" transform="translate(1761.71875 0)"/>
     <use xlink:href="#DejaVuSerif-69" transform="translate(1826.123047 0)"/>
     <use xlink:href="#DejaVuSerif-74" transform="translate(1858.105469 0)"/>
     <use xlink:href="#DejaVuSerif-75" transform="translate(1898.291016 0)"/>
     <use xlink:href="#DejaVuSerif-64" transform="translate(1962.695312 0)"/>
     <use xlink:href="#DejaVuSerif-65" transform="translate(2026.708984 0)"/>
     <use xlink:href="#DejaVuSerif-20" transform="translate(2085.888672 0)"/>
     <use xlink:href="#DejaVuSerif-62" transform="translate(2117.675781 0)"/>
     <use xlink:href="#DejaVuSerif-75" transform="translate(2181.689453 0)"/>
     <use xlink:href="#DejaVuSerif-74" transform="translate(2246.09375 0)"/>
     <use xlink:href="#DejaVuSerif-20" transform="translate(2286.279297 0)"/>
     <use xlink:href="#DejaVuSerif-64" transform="translate(2318.066406 0)"/>
     <use xlink:href="#DejaVuSerif-6f" transform="translate(2382.080078 0)"/>
     <use xlink:href="#DejaVuSerif-65" transform="translate(2442.285156 0)"/>
     <use xlink:href="#DejaVuSerif-73" transform="translate(2501.464844 0)"/>
     <use xlink:href="#DejaVuSerif-20" transform="translate(2552.783203 0)"/>
     <use xlink:href="#DejaVuSerif-6e" transform="translate(2584.570312 0)"/>
     <use xlink:href="#DejaVuSerif-6f" transform="translate(2648.974609 0)"/>
     <use xlink:href="#DejaVuSerif-74" transform="translate(2709.179688 0)"/>
     <use xlink:href="#DejaVuSerif-20" transform="translate(2749.365234 0)"/>
     <use xlink:href="#DejaVuSerif-72" transform="translate(2781.152344 0)"/>
     <use xlink:href="#DejaVuSerif-65" transform="translate(2828.955078 0)"/>
     <use xlink:href="#DejaVuSerif-76" transform="translate(2888.134766 0)"/>
     <use xlink:href="#DejaVuSerif-65" transform="translate(2944.628906 0)"/>
     <use xlink:href="#DejaVuSerif-72" transform="translate(3003.808594 0)"/>
     <use xlink:href="#DejaVuSerif-73" transform="translate(3051.611328 0)"/>
     <use xlink:href="#DejaVuSerif-65" transform="translate(3102.929688 0)"/>
     <use xlink:href="#DejaVuSerif-20" transform="translate(3162.109375 0)"/>
     <use xlink:href="#DejaVuSerif-64" transform="translate(3193.896484 0)"/>
     <use xlink:href="#DejaVuSerif-69" transform="translate(3257.910156 0)"/>
     <use xlink:href="#DejaVuSerif-72" transform="translate(3289.892578 0)"/>
     <use xlink:href="#DejaVuSerif-65" transform="translate(3337.695312 0)"/>
     <use xlink:href="#DejaVuSerif-63" transform="translate(3396.875 0)"/>
     <use xlink:href="#DejaVuSerif-74" transform="translate(3452.880859 0)"/>
     <use xlink:href="#DejaVuSerif-69" transform="translate(3493.066406 0)"/>
     <use xlink:href="#DejaVuSerif-6f" transform="translate(3525.048828 0)"/>
     <use xlink:href="#DejaVuSerif-6e" transform="translate(3585.253906 0)"/>
     <use xlink:href="#DejaVuSerif-2e" transform="translate(3649.658203 0)"/>
    </g>
   </g>
  </g>
 </g>
 <defs>
  <clipPath id="p1a6916340d">
   <rect x="197.608445" y="23.27025" width="217.722885" height="444.46"/>
  </clipPath>
 </defs>
</svg>
