<?xml version="1.0" encoding="utf-8" standalone="no"?>
<!DOCTYPE svg PUBLIC "-//W3C//DTD SVG 1.1//EN"
  "http://www.w3.org/Graphics/SVG/1.1/DTD/svg11.dtd">
<svg xmlns:xlink="http://www.w3.org/1999/xlink" width="837.423187pt" height="434.475781pt" viewBox="0 0 837.423187 434.475781" xmlns="http://www.w3.org/2000/svg" version="1.1">
 <metadata>
  <rdf:RDF xmlns:dc="http://purl.org/dc/elements/1.1/" xmlns:cc="http://creativecommons.org/ns#" xmlns:rdf="http://www.w3.org/1999/02/22-rdf-syntax-ns#">
   <cc:Work>
    <dc:type rdf:resource="http://purl.org/dc/dcmitype/StillImage"/>
    <dc:date>2026-03-26T14:58:59.573792</dc:date>
    <dc:format>image/svg+xml</dc:format>
    <dc:creator>
     <cc:Agent>
      <dc:title>Matplotlib v3.10.8, https://matplotlib.org/</dc:title>
     </cc:Agent>
    </dc:creator>
   </cc:Work>
  </rdf:RDF>
 </metadata>
 <defs>
  <style type="text/css">*{stroke-linejoin: round; stroke-linecap: butt}</style>
 </defs>
 <g id="figure_1">
  <g id="patch_1">
   <path d="M 0 434.475781 
L 837.423187 434.475781 
L 837.423187 0 
L 0 0 
z
" style="fill: #ffffff"/>
  </g>
  <g id="axes_1">
   <g id="patch_2">
    <path d="M 39.303188 400.26225 
L 366.724675 400.26225 
L 366.724675 23.27025 
L 39.303188 23.27025 
z
" style="fill: #ffffff"/>
   </g>
   <g id="matplotlib.axis_1">
    <g id="xtick_1">
     <g id="line2d_1">
      <path d="M 108.819027 400.26225 
L 108.819027 23.27025 
" clip-path="url(#p796ac0e4ed)" style="fill: none; stroke-dasharray: 2.59,1.12; stroke-dashoffset: 0; stroke: #cbd5e1; stroke-opacity: 0.35; stroke-width: 0.7"/>
     </g>
     <g id="line2d_2">
      <defs>
       <path id="mf025fc7a75" d="M 0 0 
L 0 3.2 
" style="stroke: #475569; stroke-width: 0.7"/>
      </defs>
      <g>
       <use xlink:href="#mf025fc7a75" x="108.819027" y="400.26225" style="fill: #475569; stroke: #475569; stroke-width: 0.7"/>
      </g>
     </g>
     <g id="text_1">
      <!-- First-stage -->
      <g style="fill: #475569" transform="translate(85.769558 413.2255) scale(0.084 -0.084)">
       <defs>
        <path id="DejaVuSerif-46" d="M 353 0 
L 353 331 
L 947 331 
L 947 4331 
L 353 4331 
L 353 4666 
L 4172 4666 
L 4172 3628 
L 3788 3628 
L 3788 4281 
L 1581 4281 
L 1581 2719 
L 3175 2719 
L 3175 3303 
L 3559 3303 
L 3559 1753 
L 3175 1753 
L 3175 2338 
L 1581 2338 
L 1581 331 
L 2328 331 
L 2328 0 
L 353 0 
z
" transform="scale(0.015625)"/>
        <path id="DejaVuSerif-69" d="M 622 4353 
Q 622 4497 726 4603 
Q 831 4709 978 4709 
Q 1122 4709 1226 4603 
Q 1331 4497 1331 4353 
Q 1331 4206 1228 4103 
Q 1125 4000 978 4000 
Q 831 4000 726 4103 
Q 622 4206 622 4353 
z
M 1356 331 
L 1900 331 
L 1900 0 
L 231 0 
L 231 331 
L 781 331 
L 781 2988 
L 231 2988 
L 231 3322 
L 1356 3322 
L 1356 331 
z
" transform="scale(0.015625)"/>
        <path id="DejaVuSerif-72" d="M 3059 3328 
L 3059 2497 
L 2728 2497 
Q 2713 2744 2591 2866 
Q 2469 2988 2234 2988 
Q 1809 2988 1582 2694 
Q 1356 2400 1356 1850 
L 1356 331 
L 2022 331 
L 2022 0 
L 263 0 
L 263 331 
L 781 331 
L 781 2994 
L 231 2994 
L 231 3322 
L 1356 3322 
L 1356 2731 
Q 1525 3078 1790 3245 
Q 2056 3413 2438 3413 
Q 2578 3413 2733 3391 
Q 2888 3369 3059 3328 
z
" transform="scale(0.015625)"/>
        <path id="DejaVuSerif-73" d="M 359 184 
L 359 959 
L 691 959 
Q 703 588 923 403 
Q 1144 219 1575 219 
Q 1963 219 2166 364 
Q 2369 509 2369 788 
Q 2369 1006 2220 1140 
Q 2072 1275 1594 1428 
L 1178 1569 
Q 750 1706 558 1912 
Q 366 2119 366 2438 
Q 366 2894 700 3153 
Q 1034 3413 1625 3413 
Q 1888 3413 2178 3344 
Q 2469 3275 2778 3144 
L 2778 2419 
L 2447 2419 
Q 2434 2741 2221 2922 
Q 2009 3103 1644 3103 
Q 1281 3103 1095 2975 
Q 909 2847 909 2591 
Q 909 2381 1050 2254 
Q 1191 2128 1613 1997 
L 2069 1856 
Q 2541 1709 2748 1489 
Q 2956 1269 2956 922 
Q 2956 450 2595 179 
Q 2234 -91 1600 -91 
Q 1278 -91 972 -22 
Q 666 47 359 184 
z
" transform="scale(0.015625)"/>
        <path id="DejaVuSerif-74" d="M 691 2988 
L 184 2988 
L 184 3322 
L 691 3322 
L 691 4353 
L 1269 4353 
L 1269 3322 
L 2350 3322 
L 2350 2988 
L 1269 2988 
L 1269 878 
Q 1269 456 1350 337 
Q 1431 219 1650 219 
Q 1875 219 1978 351 
Q 2081 484 2088 781 
L 2522 781 
Q 2497 328 2275 118 
Q 2053 -91 1600 -91 
Q 1103 -91 897 129 
Q 691 350 691 878 
L 691 2988 
z
" transform="scale(0.015625)"/>
        <path id="DejaVuSerif-2d" d="M 281 1959 
L 1881 1959 
L 1881 1472 
L 281 1472 
L 281 1959 
z
" transform="scale(0.015625)"/>
        <path id="DejaVuSerif-61" d="M 2547 1044 
L 2547 1747 
L 1806 1747 
Q 1378 1747 1168 1562 
Q 959 1378 959 997 
Q 959 650 1171 447 
Q 1384 244 1747 244 
Q 2106 244 2326 466 
Q 2547 688 2547 1044 
z
M 3122 2075 
L 3122 331 
L 3634 331 
L 3634 0 
L 2547 0 
L 2547 359 
Q 2356 128 2106 18 
Q 1856 -91 1522 -91 
Q 969 -91 644 203 
Q 319 497 319 997 
Q 319 1513 691 1797 
Q 1063 2081 1741 2081 
L 2547 2081 
L 2547 2309 
Q 2547 2688 2317 2895 
Q 2088 3103 1672 3103 
Q 1328 3103 1125 2947 
Q 922 2791 872 2484 
L 575 2484 
L 575 3156 
Q 875 3284 1158 3348 
Q 1441 3413 1709 3413 
Q 2400 3413 2761 3070 
Q 3122 2728 3122 2075 
z
" transform="scale(0.015625)"/>
        <path id="DejaVuSerif-67" d="M 3359 2988 
L 3359 72 
Q 3359 -644 2965 -1033 
Q 2572 -1422 1844 -1422 
Q 1516 -1422 1216 -1362 
Q 916 -1303 641 -1184 
L 641 -488 
L 941 -488 
Q 997 -813 1206 -963 
Q 1416 -1113 1806 -1113 
Q 2313 -1113 2548 -827 
Q 2784 -541 2784 72 
L 2784 519 
Q 2616 206 2355 57 
Q 2094 -91 1709 -91 
Q 1097 -91 708 395 
Q 319 881 319 1663 
Q 319 2444 706 2928 
Q 1094 3413 1709 3413 
Q 2094 3413 2355 3264 
Q 2616 3116 2784 2803 
L 2784 3322 
L 3909 3322 
L 3909 2988 
L 3359 2988 
z
M 2784 1825 
Q 2784 2422 2554 2737 
Q 2325 3053 1888 3053 
Q 1444 3053 1217 2703 
Q 991 2353 991 1663 
Q 991 975 1217 622 
Q 1444 269 1888 269 
Q 2325 269 2554 583 
Q 2784 897 2784 1497 
L 2784 1825 
z
" transform="scale(0.015625)"/>
        <path id="DejaVuSerif-65" d="M 3469 1600 
L 991 1600 
L 991 1575 
Q 991 903 1244 561 
Q 1497 219 1991 219 
Q 2369 219 2611 417 
Q 2853 616 2950 1006 
L 3413 1006 
Q 3275 459 2904 184 
Q 2534 -91 1931 -91 
Q 1203 -91 761 389 
Q 319 869 319 1663 
Q 319 2450 753 2931 
Q 1188 3413 1894 3413 
Q 2647 3413 3050 2948 
Q 3453 2484 3469 1600 
z
M 2791 1931 
Q 2772 2513 2545 2808 
Q 2319 3103 1894 3103 
Q 1497 3103 1269 2806 
Q 1041 2509 991 1931 
L 2791 1931 
z
" transform="scale(0.015625)"/>
       </defs>
       <use xlink:href="#DejaVuSerif-46"/>
       <use xlink:href="#DejaVuSerif-69" transform="translate(69.384766 0)"/>
       <use xlink:href="#DejaVuSerif-72" transform="translate(101.367188 0)"/>
       <use xlink:href="#DejaVuSerif-73" transform="translate(149.169922 0)"/>
       <use xlink:href="#DejaVuSerif-74" transform="translate(200.488281 0)"/>
       <use xlink:href="#DejaVuSerif-2d" transform="translate(240.673828 0)"/>
       <use xlink:href="#DejaVuSerif-73" transform="translate(274.462891 0)"/>
       <use xlink:href="#DejaVuSerif-74" transform="translate(325.78125 0)"/>
       <use xlink:href="#DejaVuSerif-61" transform="translate(365.966797 0)"/>
       <use xlink:href="#DejaVuSerif-67" transform="translate(425.585938 0)"/>
       <use xlink:href="#DejaVuSerif-65" transform="translate(489.599609 0)"/>
      </g>
     </g>
    </g>
    <g id="xtick_2">
     <g id="line2d_3">
      <path d="M 297.208836 400.26225 
L 297.208836 23.27025 
" clip-path="url(#p796ac0e4ed)" style="fill: none; stroke-dasharray: 2.59,1.12; stroke-dashoffset: 0; stroke: #cbd5e1; stroke-opacity: 0.35; stroke-width: 0.7"/>
     </g>
     <g id="line2d_4">
      <g>
       <use xlink:href="#mf025fc7a75" x="297.208836" y="400.26225" style="fill: #475569; stroke: #475569; stroke-width: 0.7"/>
      </g>
     </g>
     <g id="text_2">
      <!-- Reduced-form -->
      <g style="fill: #475569" transform="translate(267.147336 413.344937) scale(0.084 -0.084)">
       <defs>
        <path id="DejaVuSerif-52" d="M 3066 2316 
Q 3284 2256 3442 2114 
Q 3600 1972 3725 1716 
L 4403 331 
L 4972 331 
L 4972 0 
L 3872 0 
L 3144 1484 
Q 2934 1916 2759 2042 
Q 2584 2169 2278 2169 
L 1581 2169 
L 1581 331 
L 2241 331 
L 2241 0 
L 353 0 
L 353 331 
L 947 331 
L 947 4331 
L 353 4331 
L 353 4666 
L 2719 4666 
Q 3400 4666 3770 4341 
Q 4141 4016 4141 3419 
Q 4141 2938 3870 2661 
Q 3600 2384 3066 2316 
z
M 1581 2503 
L 2503 2503 
Q 2975 2503 3200 2726 
Q 3425 2950 3425 3419 
Q 3425 3888 3200 4109 
Q 2975 4331 2503 4331 
L 1581 4331 
L 1581 2503 
z
" transform="scale(0.015625)"/>
        <path id="DejaVuSerif-64" d="M 3359 331 
L 3909 331 
L 3909 0 
L 2784 0 
L 2784 519 
Q 2616 206 2355 57 
Q 2094 -91 1709 -91 
Q 1097 -91 708 395 
Q 319 881 319 1663 
Q 319 2444 706 2928 
Q 1094 3413 1709 3413 
Q 2094 3413 2355 3264 
Q 2616 3116 2784 2803 
L 2784 4531 
L 2241 4531 
L 2241 4863 
L 3359 4863 
L 3359 331 
z
M 2784 1497 
L 2784 1825 
Q 2784 2422 2554 2737 
Q 2325 3053 1888 3053 
Q 1444 3053 1217 2703 
Q 991 2353 991 1663 
Q 991 975 1217 622 
Q 1444 269 1888 269 
Q 2325 269 2554 583 
Q 2784 897 2784 1497 
z
" transform="scale(0.015625)"/>
        <path id="DejaVuSerif-75" d="M 2266 3322 
L 3341 3322 
L 3341 331 
L 3884 331 
L 3884 0 
L 2766 0 
L 2766 588 
Q 2606 256 2353 82 
Q 2100 -91 1766 -91 
Q 1213 -91 952 223 
Q 691 538 691 1209 
L 691 2988 
L 172 2988 
L 172 3322 
L 1269 3322 
L 1269 1388 
Q 1269 781 1417 556 
Q 1566 331 1947 331 
Q 2347 331 2556 625 
Q 2766 919 2766 1478 
L 2766 2988 
L 2266 2988 
L 2266 3322 
z
" transform="scale(0.015625)"/>
        <path id="DejaVuSerif-63" d="M 3291 997 
Q 3169 466 2822 187 
Q 2475 -91 1925 -91 
Q 1200 -91 759 389 
Q 319 869 319 1663 
Q 319 2459 759 2936 
Q 1200 3413 1925 3413 
Q 2241 3413 2553 3339 
Q 2866 3266 3181 3116 
L 3181 2266 
L 2847 2266 
Q 2781 2703 2561 2903 
Q 2341 3103 1931 3103 
Q 1466 3103 1228 2742 
Q 991 2381 991 1663 
Q 991 944 1227 581 
Q 1463 219 1931 219 
Q 2303 219 2525 412 
Q 2747 606 2828 997 
L 3291 997 
z
" transform="scale(0.015625)"/>
        <path id="DejaVuSerif-66" d="M 2753 4078 
L 2450 4078 
Q 2447 4313 2317 4434 
Q 2188 4556 1941 4556 
Q 1619 4556 1487 4379 
Q 1356 4203 1356 3750 
L 1356 3322 
L 2284 3322 
L 2284 2988 
L 1356 2988 
L 1356 331 
L 2094 331 
L 2094 0 
L 231 0 
L 231 331 
L 781 331 
L 781 2988 
L 231 2988 
L 231 3322 
L 781 3322 
L 781 3738 
Q 781 4294 1070 4578 
Q 1359 4863 1919 4863 
Q 2128 4863 2337 4825 
Q 2547 4788 2753 4709 
L 2753 4078 
z
" transform="scale(0.015625)"/>
        <path id="DejaVuSerif-6f" d="M 1925 219 
Q 2388 219 2623 584 
Q 2859 950 2859 1663 
Q 2859 2375 2623 2739 
Q 2388 3103 1925 3103 
Q 1463 3103 1227 2739 
Q 991 2375 991 1663 
Q 991 950 1228 584 
Q 1466 219 1925 219 
z
M 1925 -91 
Q 1200 -91 759 389 
Q 319 869 319 1663 
Q 319 2456 758 2934 
Q 1197 3413 1925 3413 
Q 2653 3413 3092 2934 
Q 3531 2456 3531 1663 
Q 3531 869 3092 389 
Q 2653 -91 1925 -91 
z
" transform="scale(0.015625)"/>
        <path id="DejaVuSerif-6d" d="M 3316 2675 
Q 3481 3041 3739 3227 
Q 3997 3413 4341 3413 
Q 4863 3413 5119 3089 
Q 5375 2766 5375 2113 
L 5375 331 
L 5894 331 
L 5894 0 
L 4300 0 
L 4300 331 
L 4800 331 
L 4800 2047 
Q 4800 2556 4650 2772 
Q 4500 2988 4153 2988 
Q 3769 2988 3567 2697 
Q 3366 2406 3366 1850 
L 3366 331 
L 3866 331 
L 3866 0 
L 2291 0 
L 2291 331 
L 2791 331 
L 2791 2069 
Q 2791 2566 2641 2777 
Q 2491 2988 2144 2988 
Q 1759 2988 1557 2697 
Q 1356 2406 1356 1850 
L 1356 331 
L 1856 331 
L 1856 0 
L 263 0 
L 263 331 
L 781 331 
L 781 2994 
L 231 2994 
L 231 3322 
L 1356 3322 
L 1356 2731 
Q 1516 3063 1762 3238 
Q 2009 3413 2322 3413 
Q 2709 3413 2968 3220 
Q 3228 3028 3316 2675 
z
" transform="scale(0.015625)"/>
       </defs>
       <use xlink:href="#DejaVuSerif-52"/>
       <use xlink:href="#DejaVuSerif-65" transform="translate(75.292969 0)"/>
       <use xlink:href="#DejaVuSerif-64" transform="translate(134.472656 0)"/>
       <use xlink:href="#DejaVuSerif-75" transform="translate(198.486328 0)"/>
       <use xlink:href="#DejaVuSerif-63" transform="translate(262.890625 0)"/>
       <use xlink:href="#DejaVuSerif-65" transform="translate(318.896484 0)"/>
       <use xlink:href="#DejaVuSerif-64" transform="translate(378.076172 0)"/>
       <use xlink:href="#DejaVuSerif-2d" transform="translate(442.089844 0)"/>
       <use xlink:href="#DejaVuSerif-66" transform="translate(475.878906 0)"/>
       <use xlink:href="#DejaVuSerif-6f" transform="translate(512.890625 0)"/>
       <use xlink:href="#DejaVuSerif-72" transform="translate(573.095703 0)"/>
       <use xlink:href="#DejaVuSerif-6d" transform="translate(620.898438 0)"/>
      </g>
     </g>
    </g>
   </g>
   <g id="matplotlib.axis_2">
    <g id="ytick_1">
     <g id="line2d_5">
      <path d="M 39.303188 347.98676 
L 366.724675 347.98676 
" clip-path="url(#p796ac0e4ed)" style="fill: none; stroke-dasharray: 2.59,1.12; stroke-dashoffset: 0; stroke: #cbd5e1; stroke-opacity: 0.35; stroke-width: 0.7"/>
     </g>
     <g id="line2d_6">
      <defs>
       <path id="md5753c7ef9" d="M 0 0 
L -3.2 0 
" style="stroke: #475569; stroke-width: 0.7"/>
      </defs>
      <g>
       <use xlink:href="#md5753c7ef9" x="39.303188" y="347.98676" style="fill: #475569; stroke: #475569; stroke-width: 0.7"/>
      </g>
     </g>
     <g id="text_3">
      <!-- 0.0 -->
      <g style="fill: #475569" transform="translate(19.244563 351.178104) scale(0.084 -0.084)">
       <defs>
        <path id="DejaVuSerif-30" d="M 2034 219 
Q 2513 219 2750 744 
Q 2988 1269 2988 2328 
Q 2988 3391 2750 3916 
Q 2513 4441 2034 4441 
Q 1556 4441 1318 3916 
Q 1081 3391 1081 2328 
Q 1081 1269 1318 744 
Q 1556 219 2034 219 
z
M 2034 -91 
Q 1275 -91 848 546 
Q 422 1184 422 2328 
Q 422 3475 848 4112 
Q 1275 4750 2034 4750 
Q 2797 4750 3222 4112 
Q 3647 3475 3647 2328 
Q 3647 1184 3222 546 
Q 2797 -91 2034 -91 
z
" transform="scale(0.015625)"/>
        <path id="DejaVuSerif-2e" d="M 603 325 
Q 603 500 722 622 
Q 841 744 1019 744 
Q 1191 744 1312 622 
Q 1434 500 1434 325 
Q 1434 153 1312 31 
Q 1191 -91 1019 -91 
Q 841 -91 722 29 
Q 603 150 603 325 
z
" transform="scale(0.015625)"/>
       </defs>
       <use xlink:href="#DejaVuSerif-30"/>
       <use xlink:href="#DejaVuSerif-2e" transform="translate(63.623047 0)"/>
       <use xlink:href="#DejaVuSerif-30" transform="translate(95.410156 0)"/>
      </g>
     </g>
    </g>
    <g id="ytick_2">
     <g id="line2d_7">
      <path d="M 39.303188 282.045843 
L 366.724675 282.045843 
" clip-path="url(#p796ac0e4ed)" style="fill: none; stroke-dasharray: 2.59,1.12; stroke-dashoffset: 0; stroke: #cbd5e1; stroke-opacity: 0.35; stroke-width: 0.7"/>
     </g>
     <g id="line2d_8">
      <g>
       <use xlink:href="#md5753c7ef9" x="39.303188" y="282.045843" style="fill: #475569; stroke: #475569; stroke-width: 0.7"/>
      </g>
     </g>
     <g id="text_4">
      <!-- 0.2 -->
      <g style="fill: #475569" transform="translate(19.244563 285.237187) scale(0.084 -0.084)">
       <defs>
        <path id="DejaVuSerif-32" d="M 819 3553 
L 469 3553 
L 469 4384 
Q 803 4563 1142 4656 
Q 1481 4750 1806 4750 
Q 2534 4750 2956 4397 
Q 3378 4044 3378 3438 
Q 3378 2753 2422 1800 
Q 2347 1728 2309 1691 
L 1131 513 
L 3078 513 
L 3078 1088 
L 3444 1088 
L 3444 0 
L 434 0 
L 434 341 
L 1850 1753 
Q 2319 2222 2519 2614 
Q 2719 3006 2719 3438 
Q 2719 3909 2473 4175 
Q 2228 4441 1797 4441 
Q 1350 4441 1106 4219 
Q 863 3997 819 3553 
z
" transform="scale(0.015625)"/>
       </defs>
       <use xlink:href="#DejaVuSerif-30"/>
       <use xlink:href="#DejaVuSerif-2e" transform="translate(63.623047 0)"/>
       <use xlink:href="#DejaVuSerif-32" transform="translate(95.410156 0)"/>
      </g>
     </g>
    </g>
    <g id="ytick_3">
     <g id="line2d_9">
      <path d="M 39.303188 216.104925 
L 366.724675 216.104925 
" clip-path="url(#p796ac0e4ed)" style="fill: none; stroke-dasharray: 2.59,1.12; stroke-dashoffset: 0; stroke: #cbd5e1; stroke-opacity: 0.35; stroke-width: 0.7"/>
     </g>
     <g id="line2d_10">
      <g>
       <use xlink:href="#md5753c7ef9" x="39.303188" y="216.104925" style="fill: #475569; stroke: #475569; stroke-width: 0.7"/>
      </g>
     </g>
     <g id="text_5">
      <!-- 0.4 -->
      <g style="fill: #475569" transform="translate(19.244563 219.296269) scale(0.084 -0.084)">
       <defs>
        <path id="DejaVuSerif-34" d="M 2234 1581 
L 2234 4063 
L 641 1581 
L 2234 1581 
z
M 3609 0 
L 1484 0 
L 1484 331 
L 2234 331 
L 2234 1247 
L 197 1247 
L 197 1588 
L 2241 4750 
L 2859 4750 
L 2859 1581 
L 3750 1581 
L 3750 1247 
L 2859 1247 
L 2859 331 
L 3609 331 
L 3609 0 
z
" transform="scale(0.015625)"/>
       </defs>
       <use xlink:href="#DejaVuSerif-30"/>
       <use xlink:href="#DejaVuSerif-2e" transform="translate(63.623047 0)"/>
       <use xlink:href="#DejaVuSerif-34" transform="translate(95.410156 0)"/>
      </g>
     </g>
    </g>
    <g id="ytick_4">
     <g id="line2d_11">
      <path d="M 39.303188 150.164008 
L 366.724675 150.164008 
" clip-path="url(#p796ac0e4ed)" style="fill: none; stroke-dasharray: 2.59,1.12; stroke-dashoffset: 0; stroke: #cbd5e1; stroke-opacity: 0.35; stroke-width: 0.7"/>
     </g>
     <g id="line2d_12">
      <g>
       <use xlink:href="#md5753c7ef9" x="39.303188" y="150.164008" style="fill: #475569; stroke: #475569; stroke-width: 0.7"/>
      </g>
     </g>
     <g id="text_6">
      <!-- 0.6 -->
      <g style="fill: #475569" transform="translate(19.244563 153.355352) scale(0.084 -0.084)">
       <defs>
        <path id="DejaVuSerif-36" d="M 2094 219 
Q 2534 219 2771 542 
Q 3009 866 3009 1472 
Q 3009 2078 2771 2401 
Q 2534 2725 2094 2725 
Q 1647 2725 1412 2412 
Q 1178 2100 1178 1509 
Q 1178 888 1415 553 
Q 1653 219 2094 219 
z
M 1075 2569 
Q 1288 2803 1556 2918 
Q 1825 3034 2163 3034 
Q 2859 3034 3264 2615 
Q 3669 2197 3669 1472 
Q 3669 763 3233 336 
Q 2797 -91 2069 -91 
Q 1278 -91 853 498 
Q 428 1088 428 2181 
Q 428 3406 931 4078 
Q 1434 4750 2350 4750 
Q 2597 4750 2869 4703 
Q 3141 4656 3425 4563 
L 3425 3794 
L 3072 3794 
Q 3034 4109 2831 4275 
Q 2628 4441 2284 4441 
Q 1678 4441 1381 3981 
Q 1084 3522 1075 2569 
z
" transform="scale(0.015625)"/>
       </defs>
       <use xlink:href="#DejaVuSerif-30"/>
       <use xlink:href="#DejaVuSerif-2e" transform="translate(63.623047 0)"/>
       <use xlink:href="#DejaVuSerif-36" transform="translate(95.410156 0)"/>
      </g>
     </g>
    </g>
    <g id="ytick_5">
     <g id="line2d_13">
      <path d="M 39.303188 84.223091 
L 366.724675 84.223091 
" clip-path="url(#p796ac0e4ed)" style="fill: none; stroke-dasharray: 2.59,1.12; stroke-dashoffset: 0; stroke: #cbd5e1; stroke-opacity: 0.35; stroke-width: 0.7"/>
     </g>
     <g id="line2d_14">
      <g>
       <use xlink:href="#md5753c7ef9" x="39.303188" y="84.223091" style="fill: #475569; stroke: #475569; stroke-width: 0.7"/>
      </g>
     </g>
     <g id="text_7">
      <!-- 0.8 -->
      <g style="fill: #475569" transform="translate(19.244563 87.414434) scale(0.084 -0.084)">
       <defs>
        <path id="DejaVuSerif-38" d="M 2981 1275 
Q 2981 1775 2732 2051 
Q 2484 2328 2034 2328 
Q 1584 2328 1336 2051 
Q 1088 1775 1088 1275 
Q 1088 772 1336 495 
Q 1584 219 2034 219 
Q 2484 219 2732 495 
Q 2981 772 2981 1275 
z
M 2853 3541 
Q 2853 3966 2637 4203 
Q 2422 4441 2034 4441 
Q 1650 4441 1433 4203 
Q 1216 3966 1216 3541 
Q 1216 3113 1433 2875 
Q 1650 2638 2034 2638 
Q 2422 2638 2637 2875 
Q 2853 3113 2853 3541 
z
M 2516 2484 
Q 3047 2413 3344 2092 
Q 3641 1772 3641 1275 
Q 3641 619 3225 264 
Q 2809 -91 2034 -91 
Q 1263 -91 845 264 
Q 428 619 428 1275 
Q 428 1772 725 2092 
Q 1022 2413 1556 2484 
Q 1084 2569 832 2842 
Q 581 3116 581 3541 
Q 581 4103 968 4426 
Q 1356 4750 2034 4750 
Q 2713 4750 3100 4426 
Q 3488 4103 3488 3541 
Q 3488 3116 3236 2842 
Q 2984 2569 2516 2484 
z
" transform="scale(0.015625)"/>
       </defs>
       <use xlink:href="#DejaVuSerif-30"/>
       <use xlink:href="#DejaVuSerif-2e" transform="translate(63.623047 0)"/>
       <use xlink:href="#DejaVuSerif-38" transform="translate(95.410156 0)"/>
      </g>
     </g>
    </g>
    <g id="text_8">
     <!-- Coefficient -->
     <g style="fill: #0f172a" transform="translate(13.206469 238.896937) rotate(-90) scale(0.098 -0.098)">
      <defs>
       <path id="DejaVuSerif-43" d="M 4513 1234 
Q 4306 581 3820 245 
Q 3334 -91 2591 -91 
Q 2134 -91 1743 65 
Q 1353 222 1050 525 
Q 700 875 529 1320 
Q 359 1766 359 2328 
Q 359 3416 987 4083 
Q 1616 4750 2644 4750 
Q 3025 4750 3456 4650 
Q 3888 4550 4384 4347 
L 4384 3272 
L 4031 3272 
Q 3916 3859 3567 4137 
Q 3219 4416 2591 4416 
Q 1844 4416 1459 3886 
Q 1075 3356 1075 2328 
Q 1075 1303 1459 773 
Q 1844 244 2591 244 
Q 3113 244 3450 492 
Q 3788 741 3938 1234 
L 4513 1234 
z
" transform="scale(0.015625)"/>
       <path id="DejaVuSerif-6e" d="M 263 0 
L 263 331 
L 781 331 
L 781 2988 
L 231 2988 
L 231 3322 
L 1356 3322 
L 1356 2731 
Q 1516 3069 1770 3241 
Q 2025 3413 2363 3413 
Q 2913 3413 3172 3097 
Q 3431 2781 3431 2113 
L 3431 331 
L 3944 331 
L 3944 0 
L 2356 0 
L 2356 331 
L 2853 331 
L 2853 1931 
Q 2853 2541 2703 2767 
Q 2553 2994 2175 2994 
Q 1775 2994 1565 2701 
Q 1356 2409 1356 1850 
L 1356 331 
L 1856 331 
L 1856 0 
L 263 0 
z
" transform="scale(0.015625)"/>
      </defs>
      <use xlink:href="#DejaVuSerif-43"/>
      <use xlink:href="#DejaVuSerif-6f" transform="translate(76.513672 0)"/>
      <use xlink:href="#DejaVuSerif-65" transform="translate(136.71875 0)"/>
      <use xlink:href="#DejaVuSerif-66" transform="translate(195.898438 0)"/>
      <use xlink:href="#DejaVuSerif-66" transform="translate(232.910156 0)"/>
      <use xlink:href="#DejaVuSerif-69" transform="translate(269.921875 0)"/>
      <use xlink:href="#DejaVuSerif-63" transform="translate(301.904297 0)"/>
      <use xlink:href="#DejaVuSerif-69" transform="translate(357.910156 0)"/>
      <use xlink:href="#DejaVuSerif-65" transform="translate(389.892578 0)"/>
      <use xlink:href="#DejaVuSerif-6e" transform="translate(449.072266 0)"/>
      <use xlink:href="#DejaVuSerif-74" transform="translate(513.476562 0)"/>
     </g>
    </g>
   </g>
   <g id="patch_3">
    <path d="M 54.185982 347.98676 
L 163.452071 347.98676 
L 163.452071 370.110374 
L 54.185982 370.110374 
z
" clip-path="url(#p796ac0e4ed)" style="fill: #365a9b; opacity: 0.88"/>
   </g>
   <g id="patch_4">
    <path d="M 242.575791 347.98676 
L 351.84188 347.98676 
L 351.84188 158.693775 
L 242.575791 158.693775 
z
" clip-path="url(#p796ac0e4ed)" style="fill: #2b7a78; opacity: 0.88"/>
   </g>
   <g id="LineCollection_1">
    <path d="M 108.819027 383.12625 
L 108.819027 357.094499 
" clip-path="url(#p796ac0e4ed)" style="fill: none; stroke: #0f172a"/>
    <path d="M 297.208836 276.981301 
L 297.208836 40.40625 
" clip-path="url(#p796ac0e4ed)" style="fill: none; stroke: #0f172a"/>
   </g>
   <g id="line2d_15">
    <defs>
     <path id="m6a8fbf7f2f" d="M 3 0 
L -3 -0 
" style="stroke: #0f172a"/>
    </defs>
    <g clip-path="url(#p796ac0e4ed)">
     <use xlink:href="#m6a8fbf7f2f" x="108.819027" y="383.12625" style="fill: #1f77b4; stroke: #0f172a"/>
     <use xlink:href="#m6a8fbf7f2f" x="297.208836" y="276.981301" style="fill: #1f77b4; stroke: #0f172a"/>
    </g>
   </g>
   <g id="line2d_16">
    <g clip-path="url(#p796ac0e4ed)">
     <use xlink:href="#m6a8fbf7f2f" x="108.819027" y="357.094499" style="fill: #1f77b4; stroke: #0f172a"/>
     <use xlink:href="#m6a8fbf7f2f" x="297.208836" y="40.40625" style="fill: #1f77b4; stroke: #0f172a"/>
    </g>
   </g>
   <g id="line2d_17">
    <path d="M 39.303188 347.98676 
L 366.724675 347.98676 
" clip-path="url(#p796ac0e4ed)" style="fill: none; stroke: #0f172a; stroke-linecap: square"/>
   </g>
   <g id="patch_5">
    <path d="M 39.303188 400.26225 
L 39.303188 23.27025 
" style="fill: none; stroke: #cbd5e1; stroke-width: 0.8; stroke-linejoin: miter; stroke-linecap: square"/>
   </g>
   <g id="patch_6">
    <path d="M 39.303188 400.26225 
L 366.724675 400.26225 
" style="fill: none; stroke: #cbd5e1; stroke-width: 0.8; stroke-linejoin: miter; stroke-linecap: square"/>
   </g>
   <g id="text_9">
    <!-- First-stage F~11.10 -->
    <g style="fill: #0f172a" transform="translate(45.851617 388.95249) scale(0.08 -0.08)">
     <defs>
      <path id="DejaVuSerif-20" transform="scale(0.015625)"/>
      <path id="DejaVuSerif-7e" d="M 4684 2522 
L 4684 2059 
Q 4372 1784 4090 1653 
Q 3809 1522 3519 1522 
Q 3219 1522 2675 1728 
L 2644 1741 
Q 2609 1753 2541 1781 
Q 2081 1959 1784 1959 
Q 1497 1959 1226 1845 
Q 956 1731 678 1491 
L 678 1966 
Q 991 2238 1270 2364 
Q 1550 2491 1844 2491 
Q 2144 2491 2688 2284 
L 2719 2272 
Q 2753 2259 2816 2234 
Q 3269 2053 3572 2053 
Q 3859 2053 4134 2168 
Q 4409 2284 4684 2522 
z
" transform="scale(0.015625)"/>
      <path id="DejaVuSerif-31" d="M 909 0 
L 909 331 
L 1722 331 
L 1722 4213 
L 781 3603 
L 781 4013 
L 1919 4750 
L 2350 4750 
L 2350 331 
L 3163 331 
L 3163 0 
L 909 0 
z
" transform="scale(0.015625)"/>
     </defs>
     <use xlink:href="#DejaVuSerif-46"/>
     <use xlink:href="#DejaVuSerif-69" transform="translate(69.384766 0)"/>
     <use xlink:href="#DejaVuSerif-72" transform="translate(101.367188 0)"/>
     <use xlink:href="#DejaVuSerif-73" transform="translate(149.169922 0)"/>
     <use xlink:href="#DejaVuSerif-74" transform="translate(200.488281 0)"/>
     <use xlink:href="#DejaVuSerif-2d" transform="translate(240.673828 0)"/>
     <use xlink:href="#DejaVuSerif-73" transform="translate(274.462891 0)"/>
     <use xlink:href="#DejaVuSerif-74" transform="translate(325.78125 0)"/>
     <use xlink:href="#DejaVuSerif-61" transform="translate(365.966797 0)"/>
     <use xlink:href="#DejaVuSerif-67" transform="translate(425.585938 0)"/>
     <use xlink:href="#DejaVuSerif-65" transform="translate(489.599609 0)"/>
     <use xlink:href="#DejaVuSerif-20" transform="translate(548.779297 0)"/>
     <use xlink:href="#DejaVuSerif-46" transform="translate(580.566406 0)"/>
     <use xlink:href="#DejaVuSerif-7e" transform="translate(649.951172 0)"/>
     <use xlink:href="#DejaVuSerif-31" transform="translate(733.740234 0)"/>
     <use xlink:href="#DejaVuSerif-31" transform="translate(797.363281 0)"/>
     <use xlink:href="#DejaVuSerif-2e" transform="translate(860.986328 0)"/>
     <use xlink:href="#DejaVuSerif-31" transform="translate(892.773438 0)"/>
     <use xlink:href="#DejaVuSerif-30" transform="translate(956.396484 0)"/>
    </g>
   </g>
   <g id="text_10">
    <!-- Shift-Share Instrument Strength -->
    <g style="fill: #0f172a" transform="translate(39.303188 14.27025) scale(0.112 -0.112)">
     <defs>
      <path id="DejaVuSerif-Bold-53" d="M 494 225 
L 494 1331 
L 891 1331 
Q 981 806 1318 547 
Q 1656 288 2253 288 
Q 2738 288 2991 472 
Q 3244 656 3244 1013 
Q 3244 1294 3072 1450 
Q 2900 1606 2363 1741 
L 1663 1913 
Q 978 2088 700 2398 
Q 422 2709 422 3284 
Q 422 3978 883 4364 
Q 1344 4750 2175 4750 
Q 2584 4750 3026 4681 
Q 3469 4613 3944 4475 
L 3944 3444 
L 3547 3444 
Q 3456 3925 3150 4148 
Q 2844 4372 2278 4372 
Q 1816 4372 1580 4211 
Q 1344 4050 1344 3731 
Q 1344 3441 1506 3289 
Q 1669 3138 2303 2975 
L 3003 2803 
Q 3653 2641 3945 2297 
Q 4238 1953 4238 1350 
Q 4238 644 3750 276 
Q 3263 -91 2316 -91 
Q 1859 -91 1409 -12 
Q 959 66 494 225 
z
" transform="scale(0.015625)"/>
      <path id="DejaVuSerif-Bold-68" d="M 219 0 
L 219 378 
L 691 378 
L 691 4488 
L 197 4488 
L 197 4863 
L 1797 4863 
L 1797 2853 
Q 1997 3150 2253 3281 
Q 2509 3413 2900 3413 
Q 3459 3413 3745 3083 
Q 4031 2753 4031 2113 
L 4031 378 
L 4506 378 
L 4506 0 
L 2522 0 
L 2522 378 
L 2925 378 
L 2925 2144 
Q 2925 2566 2817 2730 
Q 2709 2894 2444 2894 
Q 2109 2894 1953 2648 
Q 1797 2403 1797 1869 
L 1797 378 
L 2203 378 
L 2203 0 
L 219 0 
z
" transform="scale(0.015625)"/>
      <path id="DejaVuSerif-Bold-69" d="M 588 4263 
Q 588 4516 763 4689 
Q 938 4863 1191 4863 
Q 1438 4863 1611 4689 
Q 1784 4516 1784 4263 
Q 1784 4016 1611 3842 
Q 1438 3669 1191 3669 
Q 938 3669 763 3841 
Q 588 4013 588 4263 
z
M 1797 378 
L 2272 378 
L 2272 0 
L 219 0 
L 219 378 
L 691 378 
L 691 2944 
L 219 2944 
L 219 3322 
L 1797 3322 
L 1797 378 
z
" transform="scale(0.015625)"/>
      <path id="DejaVuSerif-Bold-66" d="M 3097 4031 
L 2747 4031 
Q 2722 4275 2605 4394 
Q 2488 4513 2272 4513 
Q 2022 4513 1909 4333 
Q 1797 4153 1797 3750 
L 1797 3322 
L 2631 3322 
L 2631 2944 
L 1797 2944 
L 1797 378 
L 2438 378 
L 2438 0 
L 219 0 
L 219 378 
L 691 378 
L 691 2944 
L 197 2944 
L 197 3322 
L 691 3322 
L 691 3738 
Q 691 4291 1044 4577 
Q 1397 4863 2081 4863 
Q 2347 4863 2600 4833 
Q 2853 4803 3097 4744 
L 3097 4031 
z
" transform="scale(0.015625)"/>
      <path id="DejaVuSerif-Bold-74" d="M 634 2944 
L 153 2944 
L 153 3322 
L 634 3322 
L 634 4353 
L 1741 4353 
L 1741 3322 
L 2663 3322 
L 2663 2944 
L 1741 2944 
L 1741 909 
Q 1741 475 1809 369 
Q 1878 263 2059 263 
Q 2259 263 2356 397 
Q 2453 531 2459 813 
L 2925 813 
Q 2897 313 2651 111 
Q 2406 -91 1806 -91 
Q 1122 -91 878 123 
Q 634 338 634 909 
L 634 2944 
z
" transform="scale(0.015625)"/>
      <path id="DejaVuSerif-Bold-2d" d="M 347 2138 
L 2309 2138 
L 2309 1294 
L 347 1294 
L 347 2138 
z
" transform="scale(0.015625)"/>
      <path id="DejaVuSerif-Bold-61" d="M 3525 2041 
L 3525 378 
L 4000 378 
L 4000 0 
L 2419 0 
L 2419 422 
Q 2200 159 1931 34 
Q 1663 -91 1319 -91 
Q 809 -91 536 182 
Q 263 456 263 966 
Q 263 1525 655 1803 
Q 1047 2081 1838 2081 
L 2419 2081 
L 2419 2278 
Q 2419 2681 2228 2873 
Q 2038 3066 1638 3066 
Q 1306 3066 1126 2930 
Q 947 2794 872 2484 
L 519 2484 
L 519 3200 
Q 816 3306 1134 3359 
Q 1453 3413 1806 3413 
Q 2697 3413 3111 3081 
Q 3525 2750 3525 2041 
z
M 2419 1044 
L 2419 1709 
L 2003 1709 
Q 1694 1709 1528 1540 
Q 1363 1372 1363 1056 
Q 1363 741 1483 584 
Q 1603 428 1850 428 
Q 2106 428 2262 597 
Q 2419 766 2419 1044 
z
" transform="scale(0.015625)"/>
      <path id="DejaVuSerif-Bold-72" d="M 3438 3359 
L 3438 2369 
L 3084 2369 
Q 3066 2634 2941 2764 
Q 2816 2894 2578 2894 
Q 2216 2894 2006 2575 
Q 1797 2256 1797 1691 
L 1797 378 
L 2400 378 
L 2400 0 
L 219 0 
L 219 378 
L 691 378 
L 691 2944 
L 184 2944 
L 184 3322 
L 1797 3322 
L 1797 2731 
Q 1959 3078 2226 3245 
Q 2494 3413 2881 3413 
Q 2978 3413 3117 3398 
Q 3256 3384 3438 3359 
z
" transform="scale(0.015625)"/>
      <path id="DejaVuSerif-Bold-65" d="M 2566 1875 
Q 2566 2531 2444 2795 
Q 2322 3059 2028 3059 
Q 1744 3059 1620 2800 
Q 1497 2541 1497 1931 
L 1497 1875 
L 2566 1875 
z
M 3781 1503 
L 1497 1503 
L 1497 1478 
Q 1497 834 1690 548 
Q 1884 263 2316 263 
Q 2675 263 2897 453 
Q 3119 644 3181 1006 
L 3700 1006 
Q 3566 441 3166 175 
Q 2766 -91 2047 -91 
Q 1184 -91 723 364 
Q 263 819 263 1663 
Q 263 2488 734 2950 
Q 1206 3413 2047 3413 
Q 2872 3413 3312 2927 
Q 3753 2441 3781 1503 
z
" transform="scale(0.015625)"/>
      <path id="DejaVuSerif-Bold-20" transform="scale(0.015625)"/>
      <path id="DejaVuSerif-Bold-49" d="M 300 0 
L 300 378 
L 897 378 
L 897 4288 
L 300 4288 
L 300 4666 
L 2700 4666 
L 2700 4288 
L 2100 4288 
L 2100 378 
L 2700 378 
L 2700 0 
L 300 0 
z
" transform="scale(0.015625)"/>
      <path id="DejaVuSerif-Bold-6e" d="M 219 0 
L 219 378 
L 691 378 
L 691 2944 
L 219 2944 
L 219 3322 
L 1797 3322 
L 1797 2853 
Q 1997 3150 2253 3281 
Q 2509 3413 2900 3413 
Q 3459 3413 3745 3083 
Q 4031 2753 4031 2113 
L 4031 378 
L 4506 378 
L 4506 0 
L 2522 0 
L 2522 378 
L 2925 378 
L 2925 2144 
Q 2925 2566 2817 2730 
Q 2709 2894 2444 2894 
Q 2109 2894 1953 2648 
Q 1797 2403 1797 1869 
L 1797 378 
L 2203 378 
L 2203 0 
L 219 0 
z
" transform="scale(0.015625)"/>
      <path id="DejaVuSerif-Bold-73" d="M 300 97 
L 300 1025 
L 653 1025 
Q 697 653 931 458 
Q 1166 263 1569 263 
Q 1906 263 2086 380 
Q 2266 497 2266 716 
Q 2266 916 2152 1025 
Q 2038 1134 1709 1216 
L 1253 1331 
Q 738 1459 506 1698 
Q 275 1938 275 2344 
Q 275 2884 650 3148 
Q 1025 3413 1806 3413 
Q 2100 3413 2433 3364 
Q 2766 3316 3169 3213 
L 3169 2375 
L 2816 2375 
Q 2788 2716 2573 2887 
Q 2359 3059 1959 3059 
Q 1622 3059 1448 2951 
Q 1275 2844 1275 2638 
Q 1275 2469 1375 2372 
Q 1475 2275 1734 2209 
L 2188 2094 
Q 2841 1928 3091 1684 
Q 3341 1441 3341 1006 
Q 3341 444 2939 176 
Q 2538 -91 1691 -91 
Q 1381 -91 1034 -44 
Q 688 3 300 97 
z
" transform="scale(0.015625)"/>
      <path id="DejaVuSerif-Bold-75" d="M 3963 3322 
L 3963 378 
L 4434 378 
L 4434 0 
L 2853 0 
L 2853 469 
Q 2656 172 2400 40 
Q 2144 -91 1753 -91 
Q 1194 -91 908 239 
Q 622 569 622 1209 
L 622 2944 
L 147 2944 
L 147 3322 
L 1728 3322 
L 1728 1381 
Q 1728 763 1831 595 
Q 1934 428 2209 428 
Q 2544 428 2698 675 
Q 2853 922 2853 1459 
L 2853 2944 
L 2450 2944 
L 2450 3322 
L 3963 3322 
z
" transform="scale(0.015625)"/>
      <path id="DejaVuSerif-Bold-6d" d="M 3884 2778 
Q 4116 3109 4384 3261 
Q 4653 3413 5013 3413 
Q 5584 3413 5867 3089 
Q 6150 2766 6150 2113 
L 6150 378 
L 6625 378 
L 6625 0 
L 4647 0 
L 4647 378 
L 5044 378 
L 5044 1947 
Q 5044 2569 4948 2731 
Q 4853 2894 4594 2894 
Q 4300 2894 4137 2667 
Q 3975 2441 3975 2022 
L 3975 378 
L 4372 378 
L 4372 0 
L 2472 0 
L 2472 378 
L 2869 378 
L 2869 1947 
Q 2869 2569 2772 2731 
Q 2675 2894 2419 2894 
Q 2122 2894 1959 2667 
Q 1797 2441 1797 2022 
L 1797 378 
L 2194 378 
L 2194 0 
L 219 0 
L 219 378 
L 691 378 
L 691 2944 
L 219 2944 
L 219 3322 
L 1797 3322 
L 1797 2853 
Q 1991 3144 2241 3278 
Q 2491 3413 2834 3413 
Q 3241 3413 3494 3258 
Q 3747 3103 3884 2778 
z
" transform="scale(0.015625)"/>
      <path id="DejaVuSerif-Bold-67" d="M 3853 2944 
L 3853 44 
Q 3853 -656 3354 -1039 
Q 2856 -1422 1947 -1422 
Q 1616 -1422 1275 -1370 
Q 934 -1319 575 -1216 
L 575 -422 
L 928 -422 
Q 975 -750 1192 -909 
Q 1409 -1069 1813 -1069 
Q 2325 -1069 2536 -823 
Q 2747 -578 2747 44 
L 2747 422 
Q 2606 163 2367 36 
Q 2128 -91 1778 -91 
Q 1072 -91 667 378 
Q 263 847 263 1663 
Q 263 2481 667 2947 
Q 1072 3413 1778 3413 
Q 2128 3413 2367 3286 
Q 2606 3159 2747 2900 
L 2747 3322 
L 4325 3322 
L 4325 2944 
L 3853 2944 
z
M 2747 1825 
Q 2747 2406 2597 2665 
Q 2447 2925 2119 2925 
Q 1775 2925 1636 2651 
Q 1497 2378 1497 1663 
Q 1497 947 1637 672 
Q 1778 397 2119 397 
Q 2447 397 2597 656 
Q 2747 916 2747 1497 
L 2747 1825 
z
" transform="scale(0.015625)"/>
     </defs>
     <use xlink:href="#DejaVuSerif-Bold-53"/>
     <use xlink:href="#DejaVuSerif-Bold-68" transform="translate(72.216797 0)"/>
     <use xlink:href="#DejaVuSerif-Bold-69" transform="translate(144.921875 0)"/>
     <use xlink:href="#DejaVuSerif-Bold-66" transform="translate(182.910156 0)"/>
     <use xlink:href="#DejaVuSerif-Bold-74" transform="translate(225.927734 0)"/>
     <use xlink:href="#DejaVuSerif-Bold-2d" transform="translate(272.119141 0)"/>
     <use xlink:href="#DejaVuSerif-Bold-53" transform="translate(313.623047 0)"/>
     <use xlink:href="#DejaVuSerif-Bold-68" transform="translate(385.839844 0)"/>
     <use xlink:href="#DejaVuSerif-Bold-61" transform="translate(458.544922 0)"/>
     <use xlink:href="#DejaVuSerif-Bold-72" transform="translate(523.339844 0)"/>
     <use xlink:href="#DejaVuSerif-Bold-65" transform="translate(576.025391 0)"/>
     <use xlink:href="#DejaVuSerif-Bold-20" transform="translate(639.648438 0)"/>
     <use xlink:href="#DejaVuSerif-Bold-49" transform="translate(674.462891 0)"/>
     <use xlink:href="#DejaVuSerif-Bold-6e" transform="translate(721.240234 0)"/>
     <use xlink:href="#DejaVuSerif-Bold-73" transform="translate(793.945312 0)"/>
     <use xlink:href="#DejaVuSerif-Bold-74" transform="translate(850.244141 0)"/>
     <use xlink:href="#DejaVuSerif-Bold-72" transform="translate(896.435547 0)"/>
     <use xlink:href="#DejaVuSerif-Bold-75" transform="translate(949.121094 0)"/>
     <use xlink:href="#DejaVuSerif-Bold-6d" transform="translate(1021.826172 0)"/>
     <use xlink:href="#DejaVuSerif-Bold-65" transform="translate(1127.636719 0)"/>
     <use xlink:href="#DejaVuSerif-Bold-6e" transform="translate(1191.259766 0)"/>
     <use xlink:href="#DejaVuSerif-Bold-74" transform="translate(1263.964844 0)"/>
     <use xlink:href="#DejaVuSerif-Bold-20" transform="translate(1310.15625 0)"/>
     <use xlink:href="#DejaVuSerif-Bold-53" transform="translate(1344.970703 0)"/>
     <use xlink:href="#DejaVuSerif-Bold-74" transform="translate(1417.1875 0)"/>
     <use xlink:href="#DejaVuSerif-Bold-72" transform="translate(1463.378906 0)"/>
     <use xlink:href="#DejaVuSerif-Bold-65" transform="translate(1516.064453 0)"/>
     <use xlink:href="#DejaVuSerif-Bold-6e" transform="translate(1579.6875 0)"/>
     <use xlink:href="#DejaVuSerif-Bold-67" transform="translate(1652.392578 0)"/>
     <use xlink:href="#DejaVuSerif-Bold-74" transform="translate(1722.314453 0)"/>
     <use xlink:href="#DejaVuSerif-Bold-68" transform="translate(1768.505859 0)"/>
    </g>
   </g>
  </g>
  <g id="axes_2">
   <g id="patch_7">
    <path d="M 438.757402 400.26225 
L 831.663187 400.26225 
L 831.663187 23.27025 
L 438.757402 23.27025 
z
" style="fill: #ffffff"/>
   </g>
   <g id="matplotlib.axis_3">
    <g id="xtick_3">
     <g id="line2d_18">
      <path d="M 485.586247 400.26225 
L 485.586247 23.27025 
" clip-path="url(#p5984f45039)" style="fill: none; stroke-dasharray: 2.59,1.12; stroke-dashoffset: 0; stroke: #cbd5e1; stroke-opacity: 0.35; stroke-width: 0.7"/>
     </g>
     <g id="line2d_19">
      <g>
       <use xlink:href="#mf025fc7a75" x="485.586247" y="400.26225" style="fill: #475569; stroke: #475569; stroke-width: 0.7"/>
      </g>
     </g>
     <g id="text_11">
      <!-- 0.0 -->
      <g style="fill: #475569" transform="translate(478.906934 413.344937) scale(0.084 -0.084)">
       <use xlink:href="#DejaVuSerif-30"/>
       <use xlink:href="#DejaVuSerif-2e" transform="translate(63.623047 0)"/>
       <use xlink:href="#DejaVuSerif-30" transform="translate(95.410156 0)"/>
      </g>
     </g>
    </g>
    <g id="xtick_4">
     <g id="line2d_20">
      <path d="M 551.229764 400.26225 
L 551.229764 23.27025 
" clip-path="url(#p5984f45039)" style="fill: none; stroke-dasharray: 2.59,1.12; stroke-dashoffset: 0; stroke: #cbd5e1; stroke-opacity: 0.35; stroke-width: 0.7"/>
     </g>
     <g id="line2d_21">
      <g>
       <use xlink:href="#mf025fc7a75" x="551.229764" y="400.26225" style="fill: #475569; stroke: #475569; stroke-width: 0.7"/>
      </g>
     </g>
     <g id="text_12">
      <!-- 0.2 -->
      <g style="fill: #475569" transform="translate(544.550451 413.344937) scale(0.084 -0.084)">
       <use xlink:href="#DejaVuSerif-30"/>
       <use xlink:href="#DejaVuSerif-2e" transform="translate(63.623047 0)"/>
       <use xlink:href="#DejaVuSerif-32" transform="translate(95.410156 0)"/>
      </g>
     </g>
    </g>
    <g id="xtick_5">
     <g id="line2d_22">
      <path d="M 616.873281 400.26225 
L 616.873281 23.27025 
" clip-path="url(#p5984f45039)" style="fill: none; stroke-dasharray: 2.59,1.12; stroke-dashoffset: 0; stroke: #cbd5e1; stroke-opacity: 0.35; stroke-width: 0.7"/>
     </g>
     <g id="line2d_23">
      <g>
       <use xlink:href="#mf025fc7a75" x="616.873281" y="400.26225" style="fill: #475569; stroke: #475569; stroke-width: 0.7"/>
      </g>
     </g>
     <g id="text_13">
      <!-- 0.4 -->
      <g style="fill: #475569" transform="translate(610.193969 413.344937) scale(0.084 -0.084)">
       <use xlink:href="#DejaVuSerif-30"/>
       <use xlink:href="#DejaVuSerif-2e" transform="translate(63.623047 0)"/>
       <use xlink:href="#DejaVuSerif-34" transform="translate(95.410156 0)"/>
      </g>
     </g>
    </g>
    <g id="xtick_6">
     <g id="line2d_24">
      <path d="M 682.516799 400.26225 
L 682.516799 23.27025 
" clip-path="url(#p5984f45039)" style="fill: none; stroke-dasharray: 2.59,1.12; stroke-dashoffset: 0; stroke: #cbd5e1; stroke-opacity: 0.35; stroke-width: 0.7"/>
     </g>
     <g id="line2d_25">
      <g>
       <use xlink:href="#mf025fc7a75" x="682.516799" y="400.26225" style="fill: #475569; stroke: #475569; stroke-width: 0.7"/>
      </g>
     </g>
     <g id="text_14">
      <!-- 0.6 -->
      <g style="fill: #475569" transform="translate(675.837486 413.344937) scale(0.084 -0.084)">
       <use xlink:href="#DejaVuSerif-30"/>
       <use xlink:href="#DejaVuSerif-2e" transform="translate(63.623047 0)"/>
       <use xlink:href="#DejaVuSerif-36" transform="translate(95.410156 0)"/>
      </g>
     </g>
    </g>
    <g id="xtick_7">
     <g id="line2d_26">
      <path d="M 748.160316 400.26225 
L 748.160316 23.27025 
" clip-path="url(#p5984f45039)" style="fill: none; stroke-dasharray: 2.59,1.12; stroke-dashoffset: 0; stroke: #cbd5e1; stroke-opacity: 0.35; stroke-width: 0.7"/>
     </g>
     <g id="line2d_27">
      <g>
       <use xlink:href="#mf025fc7a75" x="748.160316" y="400.26225" style="fill: #475569; stroke: #475569; stroke-width: 0.7"/>
      </g>
     </g>
     <g id="text_15">
      <!-- 0.8 -->
      <g style="fill: #475569" transform="translate(741.481004 413.344937) scale(0.084 -0.084)">
       <use xlink:href="#DejaVuSerif-30"/>
       <use xlink:href="#DejaVuSerif-2e" transform="translate(63.623047 0)"/>
       <use xlink:href="#DejaVuSerif-38" transform="translate(95.410156 0)"/>
      </g>
     </g>
    </g>
    <g id="xtick_8">
     <g id="line2d_28">
      <path d="M 813.803834 400.26225 
L 813.803834 23.27025 
" clip-path="url(#p5984f45039)" style="fill: none; stroke-dasharray: 2.59,1.12; stroke-dashoffset: 0; stroke: #cbd5e1; stroke-opacity: 0.35; stroke-width: 0.7"/>
     </g>
     <g id="line2d_29">
      <g>
       <use xlink:href="#mf025fc7a75" x="813.803834" y="400.26225" style="fill: #475569; stroke: #475569; stroke-width: 0.7"/>
      </g>
     </g>
     <g id="text_16">
      <!-- 1.0 -->
      <g style="fill: #475569" transform="translate(807.124521 413.344937) scale(0.084 -0.084)">
       <use xlink:href="#DejaVuSerif-31"/>
       <use xlink:href="#DejaVuSerif-2e" transform="translate(63.623047 0)"/>
       <use xlink:href="#DejaVuSerif-30" transform="translate(95.410156 0)"/>
      </g>
     </g>
    </g>
    <g id="text_17">
     <!-- t=0 Effect (High-low) -->
     <g style="fill: #0f172a" transform="translate(581.761248 426.538344) scale(0.098 -0.098)">
      <defs>
       <path id="DejaVuSerif-3d" d="M 678 2894 
L 4684 2894 
L 4684 2394 
L 678 2394 
L 678 2894 
z
M 678 1619 
L 4684 1619 
L 4684 1119 
L 678 1119 
L 678 1619 
z
" transform="scale(0.015625)"/>
       <path id="DejaVuSerif-45" d="M 353 0 
L 353 331 
L 947 331 
L 947 4331 
L 353 4331 
L 353 4666 
L 4109 4666 
L 4109 3628 
L 3725 3628 
L 3725 4281 
L 1581 4281 
L 1581 2719 
L 3109 2719 
L 3109 3303 
L 3494 3303 
L 3494 1753 
L 3109 1753 
L 3109 2338 
L 1581 2338 
L 1581 384 
L 3775 384 
L 3775 1038 
L 4159 1038 
L 4159 0 
L 353 0 
z
" transform="scale(0.015625)"/>
       <path id="DejaVuSerif-28" d="M 2041 -997 
Q 1281 -656 893 83 
Q 506 822 506 1931 
Q 506 3044 893 3783 
Q 1281 4522 2041 4863 
L 2041 4556 
Q 1559 4225 1350 3623 
Q 1141 3022 1141 1931 
Q 1141 844 1350 242 
Q 1559 -359 2041 -691 
L 2041 -997 
z
" transform="scale(0.015625)"/>
       <path id="DejaVuSerif-48" d="M 353 0 
L 353 331 
L 947 331 
L 947 4331 
L 353 4331 
L 353 4666 
L 2175 4666 
L 2175 4331 
L 1581 4331 
L 1581 2719 
L 4000 2719 
L 4000 4331 
L 3406 4331 
L 3406 4666 
L 5228 4666 
L 5228 4331 
L 4634 4331 
L 4634 331 
L 5228 331 
L 5228 0 
L 3406 0 
L 3406 331 
L 4000 331 
L 4000 2338 
L 1581 2338 
L 1581 331 
L 2175 331 
L 2175 0 
L 353 0 
z
" transform="scale(0.015625)"/>
       <path id="DejaVuSerif-68" d="M 263 0 
L 263 331 
L 781 331 
L 781 4531 
L 231 4531 
L 231 4863 
L 1356 4863 
L 1356 2731 
Q 1516 3069 1770 3241 
Q 2025 3413 2363 3413 
Q 2913 3413 3172 3097 
Q 3431 2781 3431 2113 
L 3431 331 
L 3944 331 
L 3944 0 
L 2356 0 
L 2356 331 
L 2853 331 
L 2853 1931 
Q 2853 2541 2704 2764 
Q 2556 2988 2175 2988 
Q 1775 2988 1565 2697 
Q 1356 2406 1356 1850 
L 1356 331 
L 1856 331 
L 1856 0 
L 263 0 
z
" transform="scale(0.015625)"/>
       <path id="DejaVuSerif-6c" d="M 1313 331 
L 1856 331 
L 1856 0 
L 184 0 
L 184 331 
L 738 331 
L 738 4531 
L 184 4531 
L 184 4863 
L 1313 4863 
L 1313 331 
z
" transform="scale(0.015625)"/>
       <path id="DejaVuSerif-77" d="M 3072 3322 
L 3922 728 
L 4672 2988 
L 4191 2988 
L 4191 3322 
L 5394 3322 
L 5394 2988 
L 5025 2988 
L 4038 0 
L 3559 0 
L 2741 2484 
L 1919 0 
L 1459 0 
L 475 2988 
L 103 2988 
L 103 3322 
L 1606 3322 
L 1606 2988 
L 1069 2988 
L 1813 728 
L 2669 3322 
L 3072 3322 
z
" transform="scale(0.015625)"/>
       <path id="DejaVuSerif-29" d="M 453 -997 
L 453 -691 
Q 934 -359 1145 242 
Q 1356 844 1356 1931 
Q 1356 3022 1145 3623 
Q 934 4225 453 4556 
L 453 4863 
Q 1216 4522 1603 3783 
Q 1991 3044 1991 1931 
Q 1991 822 1603 83 
Q 1216 -656 453 -997 
z
" transform="scale(0.015625)"/>
      </defs>
      <use xlink:href="#DejaVuSerif-74"/>
      <use xlink:href="#DejaVuSerif-3d" transform="translate(40.185547 0)"/>
      <use xlink:href="#DejaVuSerif-30" transform="translate(123.974609 0)"/>
      <use xlink:href="#DejaVuSerif-20" transform="translate(187.597656 0)"/>
      <use xlink:href="#DejaVuSerif-45" transform="translate(219.384766 0)"/>
      <use xlink:href="#DejaVuSerif-66" transform="translate(292.382812 0)"/>
      <use xlink:href="#DejaVuSerif-66" transform="translate(329.394531 0)"/>
      <use xlink:href="#DejaVuSerif-65" transform="translate(366.40625 0)"/>
      <use xlink:href="#DejaVuSerif-63" transform="translate(425.585938 0)"/>
      <use xlink:href="#DejaVuSerif-74" transform="translate(481.591797 0)"/>
      <use xlink:href="#DejaVuSerif-20" transform="translate(521.777344 0)"/>
      <use xlink:href="#DejaVuSerif-28" transform="translate(553.564453 0)"/>
      <use xlink:href="#DejaVuSerif-48" transform="translate(592.578125 0)"/>
      <use xlink:href="#DejaVuSerif-69" transform="translate(679.785156 0)"/>
      <use xlink:href="#DejaVuSerif-67" transform="translate(711.767578 0)"/>
      <use xlink:href="#DejaVuSerif-68" transform="translate(775.78125 0)"/>
      <use xlink:href="#DejaVuSerif-2d" transform="translate(840.185547 0)"/>
      <use xlink:href="#DejaVuSerif-6c" transform="translate(873.974609 0)"/>
      <use xlink:href="#DejaVuSerif-6f" transform="translate(905.957031 0)"/>
      <use xlink:href="#DejaVuSerif-77" transform="translate(966.162109 0)"/>
      <use xlink:href="#DejaVuSerif-29" transform="translate(1051.757812 0)"/>
     </g>
    </g>
   </g>
   <g id="matplotlib.axis_4">
    <g id="ytick_6">
     <g id="line2d_30">
      <path d="M 438.757402 400.26225 
L 831.663187 400.26225 
" clip-path="url(#p5984f45039)" style="fill: none; stroke-dasharray: 2.59,1.12; stroke-dashoffset: 0; stroke: #cbd5e1; stroke-opacity: 0.35; stroke-width: 0.7"/>
     </g>
     <g id="line2d_31">
      <g>
       <use xlink:href="#md5753c7ef9" x="438.757402" y="400.26225" style="fill: #475569; stroke: #475569; stroke-width: 0.7"/>
      </g>
     </g>
     <g id="text_18">
      <!-- 0.00 -->
      <g style="fill: #475569" transform="translate(413.354277 403.453594) scale(0.084 -0.084)">
       <use xlink:href="#DejaVuSerif-30"/>
       <use xlink:href="#DejaVuSerif-2e" transform="translate(63.623047 0)"/>
       <use xlink:href="#DejaVuSerif-30" transform="translate(95.410156 0)"/>
       <use xlink:href="#DejaVuSerif-30" transform="translate(159.033203 0)"/>
      </g>
     </g>
    </g>
    <g id="ytick_7">
     <g id="line2d_32">
      <path d="M 438.757402 355.38225 
L 831.663187 355.38225 
" clip-path="url(#p5984f45039)" style="fill: none; stroke-dasharray: 2.59,1.12; stroke-dashoffset: 0; stroke: #cbd5e1; stroke-opacity: 0.35; stroke-width: 0.7"/>
     </g>
     <g id="line2d_33">
      <g>
       <use xlink:href="#md5753c7ef9" x="438.757402" y="355.38225" style="fill: #475569; stroke: #475569; stroke-width: 0.7"/>
      </g>
     </g>
     <g id="text_19">
      <!-- 0.25 -->
      <g style="fill: #475569" transform="translate(413.354277 358.573594) scale(0.084 -0.084)">
       <defs>
        <path id="DejaVuSerif-35" d="M 3219 4666 
L 3219 4153 
L 1081 4153 
L 1081 2816 
Q 1244 2928 1461 2984 
Q 1678 3041 1947 3041 
Q 2703 3041 3140 2622 
Q 3578 2203 3578 1478 
Q 3578 738 3136 323 
Q 2694 -91 1894 -91 
Q 1572 -91 1234 -12 
Q 897 66 544 225 
L 544 1131 
L 897 1131 
Q 925 688 1179 453 
Q 1434 219 1894 219 
Q 2388 219 2653 544 
Q 2919 869 2919 1478 
Q 2919 2084 2655 2407 
Q 2391 2731 1894 2731 
Q 1613 2731 1398 2631 
Q 1184 2531 1019 2322 
L 750 2322 
L 750 4666 
L 3219 4666 
z
" transform="scale(0.015625)"/>
       </defs>
       <use xlink:href="#DejaVuSerif-30"/>
       <use xlink:href="#DejaVuSerif-2e" transform="translate(63.623047 0)"/>
       <use xlink:href="#DejaVuSerif-32" transform="translate(95.410156 0)"/>
       <use xlink:href="#DejaVuSerif-35" transform="translate(159.033203 0)"/>
      </g>
     </g>
    </g>
    <g id="ytick_8">
     <g id="line2d_34">
      <path d="M 438.757402 310.50225 
L 831.663187 310.50225 
" clip-path="url(#p5984f45039)" style="fill: none; stroke-dasharray: 2.59,1.12; stroke-dashoffset: 0; stroke: #cbd5e1; stroke-opacity: 0.35; stroke-width: 0.7"/>
     </g>
     <g id="line2d_35">
      <g>
       <use xlink:href="#md5753c7ef9" x="438.757402" y="310.50225" style="fill: #475569; stroke: #475569; stroke-width: 0.7"/>
      </g>
     </g>
     <g id="text_20">
      <!-- 0.50 -->
      <g style="fill: #475569" transform="translate(413.354277 313.693594) scale(0.084 -0.084)">
       <use xlink:href="#DejaVuSerif-30"/>
       <use xlink:href="#DejaVuSerif-2e" transform="translate(63.623047 0)"/>
       <use xlink:href="#DejaVuSerif-35" transform="translate(95.410156 0)"/>
       <use xlink:href="#DejaVuSerif-30" transform="translate(159.033203 0)"/>
      </g>
     </g>
    </g>
    <g id="ytick_9">
     <g id="line2d_36">
      <path d="M 438.757402 265.62225 
L 831.663187 265.62225 
" clip-path="url(#p5984f45039)" style="fill: none; stroke-dasharray: 2.59,1.12; stroke-dashoffset: 0; stroke: #cbd5e1; stroke-opacity: 0.35; stroke-width: 0.7"/>
     </g>
     <g id="line2d_37">
      <g>
       <use xlink:href="#md5753c7ef9" x="438.757402" y="265.62225" style="fill: #475569; stroke: #475569; stroke-width: 0.7"/>
      </g>
     </g>
     <g id="text_21">
      <!-- 0.75 -->
      <g style="fill: #475569" transform="translate(413.354277 268.813594) scale(0.084 -0.084)">
       <defs>
        <path id="DejaVuSerif-37" d="M 3609 4347 
L 1784 0 
L 1319 0 
L 3059 4153 
L 903 4153 
L 903 3578 
L 538 3578 
L 538 4666 
L 3609 4666 
L 3609 4347 
z
" transform="scale(0.015625)"/>
       </defs>
       <use xlink:href="#DejaVuSerif-30"/>
       <use xlink:href="#DejaVuSerif-2e" transform="translate(63.623047 0)"/>
       <use xlink:href="#DejaVuSerif-37" transform="translate(95.410156 0)"/>
       <use xlink:href="#DejaVuSerif-35" transform="translate(159.033203 0)"/>
      </g>
     </g>
    </g>
    <g id="ytick_10">
     <g id="line2d_38">
      <path d="M 438.757402 220.74225 
L 831.663187 220.74225 
" clip-path="url(#p5984f45039)" style="fill: none; stroke-dasharray: 2.59,1.12; stroke-dashoffset: 0; stroke: #cbd5e1; stroke-opacity: 0.35; stroke-width: 0.7"/>
     </g>
     <g id="line2d_39">
      <g>
       <use xlink:href="#md5753c7ef9" x="438.757402" y="220.74225" style="fill: #475569; stroke: #475569; stroke-width: 0.7"/>
      </g>
     </g>
     <g id="text_22">
      <!-- 1.00 -->
      <g style="fill: #475569" transform="translate(413.354277 223.933594) scale(0.084 -0.084)">
       <use xlink:href="#DejaVuSerif-31"/>
       <use xlink:href="#DejaVuSerif-2e" transform="translate(63.623047 0)"/>
       <use xlink:href="#DejaVuSerif-30" transform="translate(95.410156 0)"/>
       <use xlink:href="#DejaVuSerif-30" transform="translate(159.033203 0)"/>
      </g>
     </g>
    </g>
    <g id="ytick_11">
     <g id="line2d_40">
      <path d="M 438.757402 175.86225 
L 831.663187 175.86225 
" clip-path="url(#p5984f45039)" style="fill: none; stroke-dasharray: 2.59,1.12; stroke-dashoffset: 0; stroke: #cbd5e1; stroke-opacity: 0.35; stroke-width: 0.7"/>
     </g>
     <g id="line2d_41">
      <g>
       <use xlink:href="#md5753c7ef9" x="438.757402" y="175.86225" style="fill: #475569; stroke: #475569; stroke-width: 0.7"/>
      </g>
     </g>
     <g id="text_23">
      <!-- 1.25 -->
      <g style="fill: #475569" transform="translate(413.354277 179.053594) scale(0.084 -0.084)">
       <use xlink:href="#DejaVuSerif-31"/>
       <use xlink:href="#DejaVuSerif-2e" transform="translate(63.623047 0)"/>
       <use xlink:href="#DejaVuSerif-32" transform="translate(95.410156 0)"/>
       <use xlink:href="#DejaVuSerif-35" transform="translate(159.033203 0)"/>
      </g>
     </g>
    </g>
    <g id="ytick_12">
     <g id="line2d_42">
      <path d="M 438.757402 130.98225 
L 831.663187 130.98225 
" clip-path="url(#p5984f45039)" style="fill: none; stroke-dasharray: 2.59,1.12; stroke-dashoffset: 0; stroke: #cbd5e1; stroke-opacity: 0.35; stroke-width: 0.7"/>
     </g>
     <g id="line2d_43">
      <g>
       <use xlink:href="#md5753c7ef9" x="438.757402" y="130.98225" style="fill: #475569; stroke: #475569; stroke-width: 0.7"/>
      </g>
     </g>
     <g id="text_24">
      <!-- 1.50 -->
      <g style="fill: #475569" transform="translate(413.354277 134.173594) scale(0.084 -0.084)">
       <use xlink:href="#DejaVuSerif-31"/>
       <use xlink:href="#DejaVuSerif-2e" transform="translate(63.623047 0)"/>
       <use xlink:href="#DejaVuSerif-35" transform="translate(95.410156 0)"/>
       <use xlink:href="#DejaVuSerif-30" transform="translate(159.033203 0)"/>
      </g>
     </g>
    </g>
    <g id="ytick_13">
     <g id="line2d_44">
      <path d="M 438.757402 86.10225 
L 831.663187 86.10225 
" clip-path="url(#p5984f45039)" style="fill: none; stroke-dasharray: 2.59,1.12; stroke-dashoffset: 0; stroke: #cbd5e1; stroke-opacity: 0.35; stroke-width: 0.7"/>
     </g>
     <g id="line2d_45">
      <g>
       <use xlink:href="#md5753c7ef9" x="438.757402" y="86.10225" style="fill: #475569; stroke: #475569; stroke-width: 0.7"/>
      </g>
     </g>
     <g id="text_25">
      <!-- 1.75 -->
      <g style="fill: #475569" transform="translate(413.354277 89.293594) scale(0.084 -0.084)">
       <use xlink:href="#DejaVuSerif-31"/>
       <use xlink:href="#DejaVuSerif-2e" transform="translate(63.623047 0)"/>
       <use xlink:href="#DejaVuSerif-37" transform="translate(95.410156 0)"/>
       <use xlink:href="#DejaVuSerif-35" transform="translate(159.033203 0)"/>
      </g>
     </g>
    </g>
    <g id="ytick_14">
     <g id="line2d_46">
      <path d="M 438.757402 41.22225 
L 831.663187 41.22225 
" clip-path="url(#p5984f45039)" style="fill: none; stroke-dasharray: 2.59,1.12; stroke-dashoffset: 0; stroke: #cbd5e1; stroke-opacity: 0.35; stroke-width: 0.7"/>
     </g>
     <g id="line2d_47">
      <g>
       <use xlink:href="#md5753c7ef9" x="438.757402" y="41.22225" style="fill: #475569; stroke: #475569; stroke-width: 0.7"/>
      </g>
     </g>
     <g id="text_26">
      <!-- 2.00 -->
      <g style="fill: #475569" transform="translate(413.354277 44.413594) scale(0.084 -0.084)">
       <use xlink:href="#DejaVuSerif-32"/>
       <use xlink:href="#DejaVuSerif-2e" transform="translate(63.623047 0)"/>
       <use xlink:href="#DejaVuSerif-30" transform="translate(95.410156 0)"/>
       <use xlink:href="#DejaVuSerif-30" transform="translate(159.033203 0)"/>
      </g>
     </g>
    </g>
    <g id="text_27">
     <!-- Count -->
     <g style="fill: #0f172a" transform="translate(407.316184 226.746469) rotate(-90) scale(0.098 -0.098)">
      <use xlink:href="#DejaVuSerif-43"/>
      <use xlink:href="#DejaVuSerif-6f" transform="translate(76.513672 0)"/>
      <use xlink:href="#DejaVuSerif-75" transform="translate(136.71875 0)"/>
      <use xlink:href="#DejaVuSerif-6e" transform="translate(201.123047 0)"/>
      <use xlink:href="#DejaVuSerif-74" transform="translate(265.527344 0)"/>
     </g>
    </g>
   </g>
   <g id="patch_8">
    <path d="M 485.586247 400.26225 
L 540.289178 400.26225 
L 540.289178 400.26225 
L 485.586247 400.26225 
z
" clip-path="url(#p5984f45039)" style="fill: #cbd5e1; opacity: 0.55"/>
   </g>
   <g id="patch_9">
    <path d="M 540.289178 400.26225 
L 594.992109 400.26225 
L 594.992109 400.26225 
L 540.289178 400.26225 
z
" clip-path="url(#p5984f45039)" style="fill: #cbd5e1; opacity: 0.55"/>
   </g>
   <g id="patch_10">
    <path d="M 594.992109 400.26225 
L 649.69504 400.26225 
L 649.69504 400.26225 
L 594.992109 400.26225 
z
" clip-path="url(#p5984f45039)" style="fill: #cbd5e1; opacity: 0.55"/>
   </g>
   <g id="patch_11">
    <path d="M 649.69504 400.26225 
L 704.397971 400.26225 
L 704.397971 400.26225 
L 649.69504 400.26225 
z
" clip-path="url(#p5984f45039)" style="fill: #cbd5e1; opacity: 0.55"/>
   </g>
   <g id="patch_12">
    <path d="M 704.397971 400.26225 
L 759.100902 400.26225 
L 759.100902 400.26225 
L 704.397971 400.26225 
z
" clip-path="url(#p5984f45039)" style="fill: #cbd5e1; opacity: 0.55"/>
   </g>
   <g id="patch_13">
    <path d="M 759.100902 400.26225 
L 813.803834 400.26225 
L 813.803834 400.26225 
L 759.100902 400.26225 
z
" clip-path="url(#p5984f45039)" style="fill: #cbd5e1; opacity: 0.55"/>
   </g>
   <g id="patch_14">
    <path d="M 456.616756 400.26225 
L 490.807613 400.26225 
L 490.807613 41.22225 
L 456.616756 41.22225 
z
" clip-path="url(#p5984f45039)" style="fill: #b24a54; opacity: 0.75"/>
   </g>
   <g id="patch_15">
    <path d="M 490.807613 400.26225 
L 524.998469 400.26225 
L 524.998469 400.26225 
L 490.807613 400.26225 
z
" clip-path="url(#p5984f45039)" style="fill: #b24a54; opacity: 0.75"/>
   </g>
   <g id="patch_16">
    <path d="M 524.998469 400.26225 
L 559.189326 400.26225 
L 559.189326 220.74225 
L 524.998469 220.74225 
z
" clip-path="url(#p5984f45039)" style="fill: #b24a54; opacity: 0.75"/>
   </g>
   <g id="line2d_48">
    <path d="M 559.189326 400.26225 
L 559.189326 23.27025 
" clip-path="url(#p5984f45039)" style="fill: none; stroke-dasharray: 3.7,1.6; stroke-dashoffset: 0; stroke: #b24a54; stroke-opacity: 0.35"/>
   </g>
   <g id="line2d_49">
    <path d="M 460.209395 400.26225 
L 460.209395 23.27025 
" clip-path="url(#p5984f45039)" style="fill: none; stroke-dasharray: 3.7,1.6; stroke-dashoffset: 0; stroke: #b24a54; stroke-opacity: 0.35"/>
   </g>
   <g id="line2d_50">
    <path d="M 456.616756 400.26225 
L 456.616756 23.27025 
" clip-path="url(#p5984f45039)" style="fill: none; stroke-dasharray: 3.7,1.6; stroke-dashoffset: 0; stroke: #b24a54; stroke-opacity: 0.35"/>
   </g>
   <g id="line2d_51">
    <path d="M 485.586247 400.26225 
L 485.586247 23.27025 
" clip-path="url(#p5984f45039)" style="fill: none; stroke: #0f172a; stroke-linecap: square"/>
   </g>
   <g id="patch_17">
    <path d="M 438.757402 400.26225 
L 438.757402 23.27025 
" style="fill: none; stroke: #cbd5e1; stroke-width: 0.8; stroke-linejoin: miter; stroke-linecap: square"/>
   </g>
   <g id="patch_18">
    <path d="M 438.757402 400.26225 
L 831.663187 400.26225 
" style="fill: none; stroke: #cbd5e1; stroke-width: 0.8; stroke-linejoin: miter; stroke-linecap: square"/>
   </g>
   <g id="text_28">
    <!-- Placebo-Year Effect Distribution -->
    <g style="fill: #0f172a" transform="translate(438.757402 14.27025) scale(0.112 -0.112)">
     <defs>
      <path id="DejaVuSerif-Bold-50" d="M 300 0 
L 300 378 
L 897 378 
L 897 4288 
L 300 4288 
L 300 4666 
L 2956 4666 
Q 3734 4666 4193 4295 
Q 4653 3925 4653 3303 
Q 4653 2678 4192 2304 
Q 3731 1931 2956 1931 
L 2100 1931 
L 2100 378 
L 2853 378 
L 2853 0 
L 300 0 
z
M 2100 2309 
L 2450 2309 
Q 2856 2309 3098 2579 
Q 3341 2850 3341 3303 
Q 3341 3753 3100 4020 
Q 2859 4288 2450 4288 
L 2100 4288 
L 2100 2309 
z
" transform="scale(0.015625)"/>
      <path id="DejaVuSerif-Bold-6c" d="M 1797 378 
L 2272 378 
L 2272 0 
L 219 0 
L 219 378 
L 691 378 
L 691 4488 
L 219 4488 
L 219 4863 
L 1797 4863 
L 1797 378 
z
" transform="scale(0.015625)"/>
      <path id="DejaVuSerif-Bold-63" d="M 3609 1038 
Q 3491 469 3123 189 
Q 2756 -91 2125 -91 
Q 1238 -91 750 368 
Q 263 828 263 1663 
Q 263 2488 744 2950 
Q 1225 3413 2081 3413 
Q 2428 3413 2781 3347 
Q 3134 3281 3500 3150 
L 3500 2228 
L 3150 2228 
Q 3100 2650 2903 2854 
Q 2706 3059 2350 3059 
Q 1888 3059 1692 2746 
Q 1497 2434 1497 1663 
Q 1497 909 1687 586 
Q 1878 263 2309 263 
Q 2644 263 2845 463 
Q 3047 663 3091 1038 
L 3609 1038 
z
" transform="scale(0.015625)"/>
      <path id="DejaVuSerif-Bold-62" d="M 622 378 
L 622 4488 
L 147 4488 
L 147 4863 
L 1728 4863 
L 1728 2900 
Q 1869 3159 2106 3286 
Q 2344 3413 2694 3413 
Q 3403 3413 3811 2945 
Q 4219 2478 4219 1663 
Q 4219 847 3811 378 
Q 3403 -91 2694 -91 
Q 2344 -91 2106 36 
Q 1869 163 1728 422 
L 1728 0 
L 147 0 
L 147 378 
L 622 378 
z
M 1728 1497 
Q 1728 916 1876 656 
Q 2025 397 2356 397 
Q 2697 397 2836 672 
Q 2975 947 2975 1663 
Q 2975 2378 2836 2651 
Q 2697 2925 2356 2925 
Q 2025 2925 1876 2665 
Q 1728 2406 1728 1825 
L 1728 1497 
z
" transform="scale(0.015625)"/>
      <path id="DejaVuSerif-Bold-6f" d="M 2138 263 
Q 2488 263 2630 563 
Q 2772 863 2772 1663 
Q 2772 2463 2631 2761 
Q 2491 3059 2138 3059 
Q 1784 3059 1640 2757 
Q 1497 2456 1497 1663 
Q 1497 869 1640 566 
Q 1784 263 2138 263 
z
M 2138 -91 
Q 1259 -91 761 376 
Q 263 844 263 1663 
Q 263 2484 761 2948 
Q 1259 3413 2138 3413 
Q 3019 3413 3516 2948 
Q 4013 2484 4013 1663 
Q 4013 844 3514 376 
Q 3016 -91 2138 -91 
z
" transform="scale(0.015625)"/>
      <path id="DejaVuSerif-Bold-59" d="M 1100 0 
L 1100 378 
L 1728 378 
L 1728 1931 
L 341 4288 
L -56 4288 
L -56 4666 
L 2181 4666 
L 2181 4288 
L 1663 4288 
L 2713 2509 
L 3756 4288 
L 3291 4288 
L 3291 4666 
L 4628 4666 
L 4628 4288 
L 4231 4288 
L 2938 2094 
L 2938 378 
L 3566 378 
L 3566 0 
L 1100 0 
z
" transform="scale(0.015625)"/>
      <path id="DejaVuSerif-Bold-45" d="M 300 0 
L 300 378 
L 897 378 
L 897 4288 
L 300 4288 
L 300 4666 
L 4494 4666 
L 4494 3566 
L 4063 3566 
L 4063 4238 
L 2100 4238 
L 2100 2741 
L 3322 2741 
L 3322 3334 
L 3750 3334 
L 3750 1722 
L 3322 1722 
L 3322 2316 
L 2100 2316 
L 2100 428 
L 4122 428 
L 4122 1100 
L 4550 1100 
L 4550 0 
L 300 0 
z
" transform="scale(0.015625)"/>
      <path id="DejaVuSerif-Bold-44" d="M 2100 378 
L 2534 378 
Q 3266 378 3605 847 
Q 3944 1316 3944 2338 
Q 3944 3353 3606 3820 
Q 3269 4288 2534 4288 
L 2100 4288 
L 2100 378 
z
M 300 0 
L 300 378 
L 897 378 
L 897 4288 
L 300 4288 
L 300 4666 
L 2694 4666 
Q 3950 4666 4615 4066 
Q 5281 3466 5281 2338 
Q 5281 1203 4614 601 
Q 3947 0 2694 0 
L 300 0 
z
" transform="scale(0.015625)"/>
     </defs>
     <use xlink:href="#DejaVuSerif-Bold-50"/>
     <use xlink:href="#DejaVuSerif-Bold-6c" transform="translate(75.195312 0)"/>
     <use xlink:href="#DejaVuSerif-Bold-61" transform="translate(113.183594 0)"/>
     <use xlink:href="#DejaVuSerif-Bold-63" transform="translate(177.978516 0)"/>
     <use xlink:href="#DejaVuSerif-Bold-65" transform="translate(238.867188 0)"/>
     <use xlink:href="#DejaVuSerif-Bold-62" transform="translate(302.490234 0)"/>
     <use xlink:href="#DejaVuSerif-Bold-6f" transform="translate(372.412109 0)"/>
     <use xlink:href="#DejaVuSerif-Bold-2d" transform="translate(439.111328 0)"/>
     <use xlink:href="#DejaVuSerif-Bold-59" transform="translate(469.615234 0)"/>
     <use xlink:href="#DejaVuSerif-Bold-65" transform="translate(532.251953 0)"/>
     <use xlink:href="#DejaVuSerif-Bold-61" transform="translate(595.875 0)"/>
     <use xlink:href="#DejaVuSerif-Bold-72" transform="translate(660.669922 0)"/>
     <use xlink:href="#DejaVuSerif-Bold-20" transform="translate(713.355469 0)"/>
     <use xlink:href="#DejaVuSerif-Bold-45" transform="translate(748.169922 0)"/>
     <use xlink:href="#DejaVuSerif-Bold-66" transform="translate(824.390625 0)"/>
     <use xlink:href="#DejaVuSerif-Bold-66" transform="translate(867.408203 0)"/>
     <use xlink:href="#DejaVuSerif-Bold-65" transform="translate(910.425781 0)"/>
     <use xlink:href="#DejaVuSerif-Bold-63" transform="translate(974.048828 0)"/>
     <use xlink:href="#DejaVuSerif-Bold-74" transform="translate(1034.9375 0)"/>
     <use xlink:href="#DejaVuSerif-Bold-20" transform="translate(1081.128906 0)"/>
     <use xlink:href="#DejaVuSerif-Bold-44" transform="translate(1115.943359 0)"/>
     <use xlink:href="#DejaVuSerif-Bold-69" transform="translate(1202.662109 0)"/>
     <use xlink:href="#DejaVuSerif-Bold-73" transform="translate(1240.650391 0)"/>
     <use xlink:href="#DejaVuSerif-Bold-74" transform="translate(1296.949219 0)"/>
     <use xlink:href="#DejaVuSerif-Bold-72" transform="translate(1343.140625 0)"/>
     <use xlink:href="#DejaVuSerif-Bold-69" transform="translate(1395.826172 0)"/>
     <use xlink:href="#DejaVuSerif-Bold-62" transform="translate(1433.814453 0)"/>
     <use xlink:href="#DejaVuSerif-Bold-75" transform="translate(1503.736328 0)"/>
     <use xlink:href="#DejaVuSerif-Bold-74" transform="translate(1576.441406 0)"/>
     <use xlink:href="#DejaVuSerif-Bold-69" transform="translate(1622.632812 0)"/>
     <use xlink:href="#DejaVuSerif-Bold-6f" transform="translate(1660.621094 0)"/>
     <use xlink:href="#DejaVuSerif-Bold-6e" transform="translate(1727.320312 0)"/>
    </g>
   </g>
   <g id="legend_1">
    <g id="patch_19">
     <path d="M 733.535687 36.549 
L 749.535687 36.549 
L 749.535687 30.949 
L 733.535687 30.949 
z
" style="fill: #cbd5e1; opacity: 0.55"/>
    </g>
    <g id="text_29">
     <!-- Placebo years -->
     <g style="fill: #0f172a" transform="translate(755.935687 36.549) scale(0.08 -0.08)">
      <defs>
       <path id="DejaVuSerif-50" d="M 1581 2375 
L 2406 2375 
Q 2872 2375 3115 2626 
Q 3359 2878 3359 3353 
Q 3359 3831 3115 4081 
Q 2872 4331 2406 4331 
L 1581 4331 
L 1581 2375 
z
M 353 0 
L 353 331 
L 947 331 
L 947 4331 
L 353 4331 
L 353 4666 
L 2559 4666 
Q 3259 4666 3668 4311 
Q 4078 3956 4078 3353 
Q 4078 2753 3668 2397 
Q 3259 2041 2559 2041 
L 1581 2041 
L 1581 331 
L 2303 331 
L 2303 0 
L 353 0 
z
" transform="scale(0.015625)"/>
       <path id="DejaVuSerif-62" d="M 738 331 
L 738 4531 
L 184 4531 
L 184 4863 
L 1313 4863 
L 1313 2803 
Q 1481 3116 1742 3264 
Q 2003 3413 2388 3413 
Q 3000 3413 3387 2928 
Q 3775 2444 3775 1663 
Q 3775 881 3387 395 
Q 3000 -91 2388 -91 
Q 2003 -91 1742 57 
Q 1481 206 1313 519 
L 1313 0 
L 184 0 
L 184 331 
L 738 331 
z
M 1313 1497 
Q 1313 897 1542 583 
Q 1772 269 2209 269 
Q 2650 269 2876 622 
Q 3103 975 3103 1663 
Q 3103 2353 2876 2703 
Q 2650 3053 2209 3053 
Q 1772 3053 1542 2737 
Q 1313 2422 1313 1825 
L 1313 1497 
z
" transform="scale(0.015625)"/>
       <path id="DejaVuSerif-79" d="M 1381 -609 
L 1600 -56 
L 359 2988 
L -19 2988 
L -19 3322 
L 1509 3322 
L 1509 2988 
L 978 2988 
L 1913 703 
L 2847 2988 
L 2350 2988 
L 2350 3322 
L 3597 3322 
L 3597 2988 
L 3225 2988 
L 1703 -750 
Q 1547 -1138 1356 -1280 
Q 1166 -1422 819 -1422 
Q 672 -1422 517 -1397 
Q 363 -1372 206 -1325 
L 206 -691 
L 500 -691 
Q 519 -903 608 -995 
Q 697 -1088 884 -1088 
Q 1056 -1088 1161 -992 
Q 1266 -897 1381 -609 
z
" transform="scale(0.015625)"/>
      </defs>
      <use xlink:href="#DejaVuSerif-50"/>
      <use xlink:href="#DejaVuSerif-6c" transform="translate(67.285156 0)"/>
      <use xlink:href="#DejaVuSerif-61" transform="translate(99.267578 0)"/>
      <use xlink:href="#DejaVuSerif-63" transform="translate(158.886719 0)"/>
      <use xlink:href="#DejaVuSerif-65" transform="translate(214.892578 0)"/>
      <use xlink:href="#DejaVuSerif-62" transform="translate(274.072266 0)"/>
      <use xlink:href="#DejaVuSerif-6f" transform="translate(338.085938 0)"/>
      <use xlink:href="#DejaVuSerif-20" transform="translate(398.291016 0)"/>
      <use xlink:href="#DejaVuSerif-79" transform="translate(430.078125 0)"/>
      <use xlink:href="#DejaVuSerif-65" transform="translate(486.572266 0)"/>
      <use xlink:href="#DejaVuSerif-61" transform="translate(545.751953 0)"/>
      <use xlink:href="#DejaVuSerif-72" transform="translate(605.371094 0)"/>
      <use xlink:href="#DejaVuSerif-73" transform="translate(653.173828 0)"/>
     </g>
    </g>
    <g id="patch_20">
     <path d="M 733.535687 48.40525 
L 749.535687 48.40525 
L 749.535687 42.80525 
L 733.535687 42.80525 
z
" style="fill: #b24a54; opacity: 0.75"/>
    </g>
    <g id="text_30">
     <!-- Real shock years -->
     <g style="fill: #0f172a" transform="translate(755.935687 48.40525) scale(0.08 -0.08)">
      <defs>
       <path id="DejaVuSerif-6b" d="M 1831 0 
L 219 0 
L 219 331 
L 738 331 
L 738 4531 
L 184 4531 
L 184 4863 
L 1313 4863 
L 1313 1697 
L 2713 2988 
L 2234 2988 
L 2234 3322 
L 3738 3322 
L 3738 2988 
L 3169 2988 
L 2181 2075 
L 3444 331 
L 3922 331 
L 3922 0 
L 2284 0 
L 2284 331 
L 2759 331 
L 1766 1697 
L 1313 1275 
L 1313 331 
L 1831 331 
L 1831 0 
z
" transform="scale(0.015625)"/>
      </defs>
      <use xlink:href="#DejaVuSerif-52"/>
      <use xlink:href="#DejaVuSerif-65" transform="translate(75.292969 0)"/>
      <use xlink:href="#DejaVuSerif-61" transform="translate(134.472656 0)"/>
      <use xlink:href="#DejaVuSerif-6c" transform="translate(194.091797 0)"/>
      <use xlink:href="#DejaVuSerif-20" transform="translate(226.074219 0)"/>
      <use xlink:href="#DejaVuSerif-73" transform="translate(257.861328 0)"/>
      <use xlink:href="#DejaVuSerif-68" transform="translate(309.179688 0)"/>
      <use xlink:href="#DejaVuSerif-6f" transform="translate(373.583984 0)"/>
      <use xlink:href="#DejaVuSerif-63" transform="translate(433.789062 0)"/>
      <use xlink:href="#DejaVuSerif-6b" transform="translate(489.794922 0)"/>
      <use xlink:href="#DejaVuSerif-20" transform="translate(550.390625 0)"/>
      <use xlink:href="#DejaVuSerif-79" transform="translate(582.177734 0)"/>
      <use xlink:href="#DejaVuSerif-65" transform="translate(638.671875 0)"/>
      <use xlink:href="#DejaVuSerif-61" transform="translate(697.851562 0)"/>
      <use xlink:href="#DejaVuSerif-72" transform="translate(757.470703 0)"/>
      <use xlink:href="#DejaVuSerif-73" transform="translate(805.273438 0)"/>
     </g>
    </g>
   </g>
  </g>
 </g>
 <defs>
  <clipPath id="p796ac0e4ed">
   <rect x="39.303188" y="23.27025" width="327.421488" height="376.992"/>
  </clipPath>
  <clipPath id="p5984f45039">
   <rect x="438.757402" y="23.27025" width="392.905785" height="376.992"/>
  </clipPath>
 </defs>
</svg>
