<?xml version="1.0" encoding="utf-8" standalone="no"?>
<!DOCTYPE svg PUBLIC "-//W3C//DTD SVG 1.1//EN"
  "http://www.w3.org/Graphics/SVG/1.1/DTD/svg11.dtd">
<svg xmlns:xlink="http://www.w3.org/1999/xlink" width="662.43675pt" height="390.423781pt" viewBox="0 0 662.43675 390.423781" xmlns="http://www.w3.org/2000/svg" version="1.1">
 <metadata>
  <rdf:RDF xmlns:dc="http://purl.org/dc/elements/1.1/" xmlns:cc="http://creativecommons.org/ns#" xmlns:rdf="http://www.w3.org/1999/02/22-rdf-syntax-ns#">
   <cc:Work>
    <dc:type rdf:resource="http://purl.org/dc/dcmitype/StillImage"/>
    <dc:date>2026-03-26T14:58:48.868105</dc:date>
    <dc:format>image/svg+xml</dc:format>
    <dc:creator>
     <cc:Agent>
      <dc:title>Matplotlib v3.10.8, https://matplotlib.org/</dc:title>
     </cc:Agent>
    </dc:creator>
   </cc:Work>
  </rdf:RDF>
 </metadata>
 <defs>
  <style type="text/css">*{stroke-linejoin: round; stroke-linecap: butt}</style>
 </defs>
 <g id="figure_1">
  <g id="patch_1">
   <path d="M 0 390.423781 
L 662.43675 390.423781 
L 662.43675 0 
L 0 0 
z
" style="fill: #ffffff"/>
  </g>
  <g id="axes_1">
   <g id="patch_2">
    <path d="M 36.933563 355.91025 
L 622.833562 355.91025 
L 622.833562 23.27025 
L 36.933563 23.27025 
z
" style="fill: #ffffff"/>
   </g>
   <g id="patch_3">
    <path d="M 63.565381 355.91025 
L 107.0459 355.91025 
L 107.0459 90.674227 
L 63.565381 90.674227 
z
" clip-path="url(#pfc48efae1e)" style="fill: #dc2626; fill-opacity: 0.666667"/>
   </g>
   <g id="patch_4">
    <path d="M 117.91603 355.91025 
L 161.39655 355.91025 
L 161.39655 127.258506 
L 117.91603 127.258506 
z
" clip-path="url(#pfc48efae1e)" style="fill: #dc2626; fill-opacity: 0.666667"/>
   </g>
   <g id="patch_5">
    <path d="M 172.266679 355.91025 
L 215.747199 355.91025 
L 215.747199 296.968911 
L 172.266679 296.968911 
z
" clip-path="url(#pfc48efae1e)" style="fill: #dc2626; fill-opacity: 0.666667"/>
   </g>
   <g id="patch_6">
    <path d="M 226.617329 355.91025 
L 270.097848 355.91025 
L 270.097848 264.449552 
L 226.617329 264.449552 
z
" clip-path="url(#pfc48efae1e)" style="fill: #dc2626; fill-opacity: 0.666667"/>
   </g>
   <g id="patch_7">
    <path d="M 280.967978 355.91025 
L 324.448498 355.91025 
L 324.448498 282.233577 
L 280.967978 282.233577 
z
" clip-path="url(#pfc48efae1e)" style="fill: #dc2626; fill-opacity: 0.666667"/>
   </g>
   <g id="patch_8">
    <path d="M 335.318627 355.91025 
L 378.799147 355.91025 
L 378.799147 279.693002 
L 335.318627 279.693002 
z
" clip-path="url(#pfc48efae1e)" style="fill: #dc2626; fill-opacity: 0.666667"/>
   </g>
   <g id="patch_9">
    <path d="M 389.669277 355.91025 
L 433.149796 355.91025 
L 433.149796 325.423351 
L 389.669277 325.423351 
z
" clip-path="url(#pfc48efae1e)" style="fill: #dc2626; fill-opacity: 0.666667"/>
   </g>
   <g id="patch_10">
    <path d="M 444.019926 355.91025 
L 487.500446 355.91025 
L 487.500446 355.91025 
L 444.019926 355.91025 
z
" clip-path="url(#pfc48efae1e)" style="fill: #dc2626; fill-opacity: 0.666667"/>
   </g>
   <g id="patch_11">
    <path d="M 498.370575 355.91025 
L 541.851095 355.91025 
L 541.851095 294.936452 
L 498.370575 294.936452 
z
" clip-path="url(#pfc48efae1e)" style="fill: #dc2626; fill-opacity: 0.666667"/>
   </g>
   <g id="patch_12">
    <path d="M 552.721225 355.91025 
L 596.201744 355.91025 
L 596.201744 296.968911 
L 552.721225 296.968911 
z
" clip-path="url(#pfc48efae1e)" style="fill: #dc2626; fill-opacity: 0.666667"/>
   </g>
   <g id="matplotlib.axis_1">
    <g id="xtick_1">
     <g id="line2d_1">
      <defs>
       <path id="m35aee617ee" d="M 0 0 
L 0 3.5 
" style="stroke: #475569; stroke-width: 0.8"/>
      </defs>
      <g>
       <use xlink:href="#m35aee617ee" x="139.65629" y="355.91025" style="fill: #475569; stroke: #475569; stroke-width: 0.8"/>
      </g>
     </g>
     <g id="text_1">
      <!-- 2 -->
      <g style="fill: #475569" transform="translate(136.98404 369.292938) scale(0.084 -0.084)">
       <defs>
        <path id="DejaVuSerif-32" d="M 819 3553 
L 469 3553 
L 469 4384 
Q 803 4563 1142 4656 
Q 1481 4750 1806 4750 
Q 2534 4750 2956 4397 
Q 3378 4044 3378 3438 
Q 3378 2753 2422 1800 
Q 2347 1728 2309 1691 
L 1131 513 
L 3078 513 
L 3078 1088 
L 3444 1088 
L 3444 0 
L 434 0 
L 434 341 
L 1850 1753 
Q 2319 2222 2519 2614 
Q 2719 3006 2719 3438 
Q 2719 3909 2473 4175 
Q 2228 4441 1797 4441 
Q 1350 4441 1106 4219 
Q 863 3997 819 3553 
z
" transform="scale(0.015625)"/>
       </defs>
       <use xlink:href="#DejaVuSerif-32"/>
      </g>
     </g>
    </g>
    <g id="xtick_2">
     <g id="line2d_2">
      <g>
       <use xlink:href="#m35aee617ee" x="248.357588" y="355.91025" style="fill: #475569; stroke: #475569; stroke-width: 0.8"/>
      </g>
     </g>
     <g id="text_2">
      <!-- 4 -->
      <g style="fill: #475569" transform="translate(245.685338 369.292938) scale(0.084 -0.084)">
       <defs>
        <path id="DejaVuSerif-34" d="M 2234 1581 
L 2234 4063 
L 641 1581 
L 2234 1581 
z
M 3609 0 
L 1484 0 
L 1484 331 
L 2234 331 
L 2234 1247 
L 197 1247 
L 197 1588 
L 2241 4750 
L 2859 4750 
L 2859 1581 
L 3750 1581 
L 3750 1247 
L 2859 1247 
L 2859 331 
L 3609 331 
L 3609 0 
z
" transform="scale(0.015625)"/>
       </defs>
       <use xlink:href="#DejaVuSerif-34"/>
      </g>
     </g>
    </g>
    <g id="xtick_3">
     <g id="line2d_3">
      <g>
       <use xlink:href="#m35aee617ee" x="357.058887" y="355.91025" style="fill: #475569; stroke: #475569; stroke-width: 0.8"/>
      </g>
     </g>
     <g id="text_3">
      <!-- 6 -->
      <g style="fill: #475569" transform="translate(354.386637 369.292938) scale(0.084 -0.084)">
       <defs>
        <path id="DejaVuSerif-36" d="M 2094 219 
Q 2534 219 2771 542 
Q 3009 866 3009 1472 
Q 3009 2078 2771 2401 
Q 2534 2725 2094 2725 
Q 1647 2725 1412 2412 
Q 1178 2100 1178 1509 
Q 1178 888 1415 553 
Q 1653 219 2094 219 
z
M 1075 2569 
Q 1288 2803 1556 2918 
Q 1825 3034 2163 3034 
Q 2859 3034 3264 2615 
Q 3669 2197 3669 1472 
Q 3669 763 3233 336 
Q 2797 -91 2069 -91 
Q 1278 -91 853 498 
Q 428 1088 428 2181 
Q 428 3406 931 4078 
Q 1434 4750 2350 4750 
Q 2597 4750 2869 4703 
Q 3141 4656 3425 4563 
L 3425 3794 
L 3072 3794 
Q 3034 4109 2831 4275 
Q 2628 4441 2284 4441 
Q 1678 4441 1381 3981 
Q 1084 3522 1075 2569 
z
" transform="scale(0.015625)"/>
       </defs>
       <use xlink:href="#DejaVuSerif-36"/>
      </g>
     </g>
    </g>
    <g id="xtick_4">
     <g id="line2d_4">
      <g>
       <use xlink:href="#m35aee617ee" x="465.760186" y="355.91025" style="fill: #475569; stroke: #475569; stroke-width: 0.8"/>
      </g>
     </g>
     <g id="text_4">
      <!-- 8 -->
      <g style="fill: #475569" transform="translate(463.087936 369.292938) scale(0.084 -0.084)">
       <defs>
        <path id="DejaVuSerif-38" d="M 2981 1275 
Q 2981 1775 2732 2051 
Q 2484 2328 2034 2328 
Q 1584 2328 1336 2051 
Q 1088 1775 1088 1275 
Q 1088 772 1336 495 
Q 1584 219 2034 219 
Q 2484 219 2732 495 
Q 2981 772 2981 1275 
z
M 2853 3541 
Q 2853 3966 2637 4203 
Q 2422 4441 2034 4441 
Q 1650 4441 1433 4203 
Q 1216 3966 1216 3541 
Q 1216 3113 1433 2875 
Q 1650 2638 2034 2638 
Q 2422 2638 2637 2875 
Q 2853 3113 2853 3541 
z
M 2516 2484 
Q 3047 2413 3344 2092 
Q 3641 1772 3641 1275 
Q 3641 619 3225 264 
Q 2809 -91 2034 -91 
Q 1263 -91 845 264 
Q 428 619 428 1275 
Q 428 1772 725 2092 
Q 1022 2413 1556 2484 
Q 1084 2569 832 2842 
Q 581 3116 581 3541 
Q 581 4103 968 4426 
Q 1356 4750 2034 4750 
Q 2713 4750 3100 4426 
Q 3488 4103 3488 3541 
Q 3488 3116 3236 2842 
Q 2984 2569 2516 2484 
z
" transform="scale(0.015625)"/>
       </defs>
       <use xlink:href="#DejaVuSerif-38"/>
      </g>
     </g>
    </g>
    <g id="xtick_5">
     <g id="line2d_5">
      <g>
       <use xlink:href="#m35aee617ee" x="574.461485" y="355.91025" style="fill: #475569; stroke: #475569; stroke-width: 0.8"/>
      </g>
     </g>
     <g id="text_5">
      <!-- 10 -->
      <g style="fill: #475569" transform="translate(569.116985 369.292938) scale(0.084 -0.084)">
       <defs>
        <path id="DejaVuSerif-31" d="M 909 0 
L 909 331 
L 1722 331 
L 1722 4213 
L 781 3603 
L 781 4013 
L 1919 4750 
L 2350 4750 
L 2350 331 
L 3163 331 
L 3163 0 
L 909 0 
z
" transform="scale(0.015625)"/>
        <path id="DejaVuSerif-30" d="M 2034 219 
Q 2513 219 2750 744 
Q 2988 1269 2988 2328 
Q 2988 3391 2750 3916 
Q 2513 4441 2034 4441 
Q 1556 4441 1318 3916 
Q 1081 3391 1081 2328 
Q 1081 1269 1318 744 
Q 1556 219 2034 219 
z
M 2034 -91 
Q 1275 -91 848 546 
Q 422 1184 422 2328 
Q 422 3475 848 4112 
Q 1275 4750 2034 4750 
Q 2797 4750 3222 4112 
Q 3647 3475 3647 2328 
Q 3647 1184 3222 546 
Q 2797 -91 2034 -91 
z
" transform="scale(0.015625)"/>
       </defs>
       <use xlink:href="#DejaVuSerif-31"/>
       <use xlink:href="#DejaVuSerif-30" transform="translate(63.623047 0)"/>
      </g>
     </g>
    </g>
    <g id="text_6">
     <!-- Risk decile (1 = highest predicted risk) -->
     <g style="fill: #0f172a" transform="translate(232.311547 382.486344) scale(0.098 -0.098)">
      <defs>
       <path id="DejaVuSerif-52" d="M 3066 2316 
Q 3284 2256 3442 2114 
Q 3600 1972 3725 1716 
L 4403 331 
L 4972 331 
L 4972 0 
L 3872 0 
L 3144 1484 
Q 2934 1916 2759 2042 
Q 2584 2169 2278 2169 
L 1581 2169 
L 1581 331 
L 2241 331 
L 2241 0 
L 353 0 
L 353 331 
L 947 331 
L 947 4331 
L 353 4331 
L 353 4666 
L 2719 4666 
Q 3400 4666 3770 4341 
Q 4141 4016 4141 3419 
Q 4141 2938 3870 2661 
Q 3600 2384 3066 2316 
z
M 1581 2503 
L 2503 2503 
Q 2975 2503 3200 2726 
Q 3425 2950 3425 3419 
Q 3425 3888 3200 4109 
Q 2975 4331 2503 4331 
L 1581 4331 
L 1581 2503 
z
" transform="scale(0.015625)"/>
       <path id="DejaVuSerif-69" d="M 622 4353 
Q 622 4497 726 4603 
Q 831 4709 978 4709 
Q 1122 4709 1226 4603 
Q 1331 4497 1331 4353 
Q 1331 4206 1228 4103 
Q 1125 4000 978 4000 
Q 831 4000 726 4103 
Q 622 4206 622 4353 
z
M 1356 331 
L 1900 331 
L 1900 0 
L 231 0 
L 231 331 
L 781 331 
L 781 2988 
L 231 2988 
L 231 3322 
L 1356 3322 
L 1356 331 
z
" transform="scale(0.015625)"/>
       <path id="DejaVuSerif-73" d="M 359 184 
L 359 959 
L 691 959 
Q 703 588 923 403 
Q 1144 219 1575 219 
Q 1963 219 2166 364 
Q 2369 509 2369 788 
Q 2369 1006 2220 1140 
Q 2072 1275 1594 1428 
L 1178 1569 
Q 750 1706 558 1912 
Q 366 2119 366 2438 
Q 366 2894 700 3153 
Q 1034 3413 1625 3413 
Q 1888 3413 2178 3344 
Q 2469 3275 2778 3144 
L 2778 2419 
L 2447 2419 
Q 2434 2741 2221 2922 
Q 2009 3103 1644 3103 
Q 1281 3103 1095 2975 
Q 909 2847 909 2591 
Q 909 2381 1050 2254 
Q 1191 2128 1613 1997 
L 2069 1856 
Q 2541 1709 2748 1489 
Q 2956 1269 2956 922 
Q 2956 450 2595 179 
Q 2234 -91 1600 -91 
Q 1278 -91 972 -22 
Q 666 47 359 184 
z
" transform="scale(0.015625)"/>
       <path id="DejaVuSerif-6b" d="M 1831 0 
L 219 0 
L 219 331 
L 738 331 
L 738 4531 
L 184 4531 
L 184 4863 
L 1313 4863 
L 1313 1697 
L 2713 2988 
L 2234 2988 
L 2234 3322 
L 3738 3322 
L 3738 2988 
L 3169 2988 
L 2181 2075 
L 3444 331 
L 3922 331 
L 3922 0 
L 2284 0 
L 2284 331 
L 2759 331 
L 1766 1697 
L 1313 1275 
L 1313 331 
L 1831 331 
L 1831 0 
z
" transform="scale(0.015625)"/>
       <path id="DejaVuSerif-20" transform="scale(0.015625)"/>
       <path id="DejaVuSerif-64" d="M 3359 331 
L 3909 331 
L 3909 0 
L 2784 0 
L 2784 519 
Q 2616 206 2355 57 
Q 2094 -91 1709 -91 
Q 1097 -91 708 395 
Q 319 881 319 1663 
Q 319 2444 706 2928 
Q 1094 3413 1709 3413 
Q 2094 3413 2355 3264 
Q 2616 3116 2784 2803 
L 2784 4531 
L 2241 4531 
L 2241 4863 
L 3359 4863 
L 3359 331 
z
M 2784 1497 
L 2784 1825 
Q 2784 2422 2554 2737 
Q 2325 3053 1888 3053 
Q 1444 3053 1217 2703 
Q 991 2353 991 1663 
Q 991 975 1217 622 
Q 1444 269 1888 269 
Q 2325 269 2554 583 
Q 2784 897 2784 1497 
z
" transform="scale(0.015625)"/>
       <path id="DejaVuSerif-65" d="M 3469 1600 
L 991 1600 
L 991 1575 
Q 991 903 1244 561 
Q 1497 219 1991 219 
Q 2369 219 2611 417 
Q 2853 616 2950 1006 
L 3413 1006 
Q 3275 459 2904 184 
Q 2534 -91 1931 -91 
Q 1203 -91 761 389 
Q 319 869 319 1663 
Q 319 2450 753 2931 
Q 1188 3413 1894 3413 
Q 2647 3413 3050 2948 
Q 3453 2484 3469 1600 
z
M 2791 1931 
Q 2772 2513 2545 2808 
Q 2319 3103 1894 3103 
Q 1497 3103 1269 2806 
Q 1041 2509 991 1931 
L 2791 1931 
z
" transform="scale(0.015625)"/>
       <path id="DejaVuSerif-63" d="M 3291 997 
Q 3169 466 2822 187 
Q 2475 -91 1925 -91 
Q 1200 -91 759 389 
Q 319 869 319 1663 
Q 319 2459 759 2936 
Q 1200 3413 1925 3413 
Q 2241 3413 2553 3339 
Q 2866 3266 3181 3116 
L 3181 2266 
L 2847 2266 
Q 2781 2703 2561 2903 
Q 2341 3103 1931 3103 
Q 1466 3103 1228 2742 
Q 991 2381 991 1663 
Q 991 944 1227 581 
Q 1463 219 1931 219 
Q 2303 219 2525 412 
Q 2747 606 2828 997 
L 3291 997 
z
" transform="scale(0.015625)"/>
       <path id="DejaVuSerif-6c" d="M 1313 331 
L 1856 331 
L 1856 0 
L 184 0 
L 184 331 
L 738 331 
L 738 4531 
L 184 4531 
L 184 4863 
L 1313 4863 
L 1313 331 
z
" transform="scale(0.015625)"/>
       <path id="DejaVuSerif-28" d="M 2041 -997 
Q 1281 -656 893 83 
Q 506 822 506 1931 
Q 506 3044 893 3783 
Q 1281 4522 2041 4863 
L 2041 4556 
Q 1559 4225 1350 3623 
Q 1141 3022 1141 1931 
Q 1141 844 1350 242 
Q 1559 -359 2041 -691 
L 2041 -997 
z
" transform="scale(0.015625)"/>
       <path id="DejaVuSerif-3d" d="M 678 2894 
L 4684 2894 
L 4684 2394 
L 678 2394 
L 678 2894 
z
M 678 1619 
L 4684 1619 
L 4684 1119 
L 678 1119 
L 678 1619 
z
" transform="scale(0.015625)"/>
       <path id="DejaVuSerif-68" d="M 263 0 
L 263 331 
L 781 331 
L 781 4531 
L 231 4531 
L 231 4863 
L 1356 4863 
L 1356 2731 
Q 1516 3069 1770 3241 
Q 2025 3413 2363 3413 
Q 2913 3413 3172 3097 
Q 3431 2781 3431 2113 
L 3431 331 
L 3944 331 
L 3944 0 
L 2356 0 
L 2356 331 
L 2853 331 
L 2853 1931 
Q 2853 2541 2704 2764 
Q 2556 2988 2175 2988 
Q 1775 2988 1565 2697 
Q 1356 2406 1356 1850 
L 1356 331 
L 1856 331 
L 1856 0 
L 263 0 
z
" transform="scale(0.015625)"/>
       <path id="DejaVuSerif-67" d="M 3359 2988 
L 3359 72 
Q 3359 -644 2965 -1033 
Q 2572 -1422 1844 -1422 
Q 1516 -1422 1216 -1362 
Q 916 -1303 641 -1184 
L 641 -488 
L 941 -488 
Q 997 -813 1206 -963 
Q 1416 -1113 1806 -1113 
Q 2313 -1113 2548 -827 
Q 2784 -541 2784 72 
L 2784 519 
Q 2616 206 2355 57 
Q 2094 -91 1709 -91 
Q 1097 -91 708 395 
Q 319 881 319 1663 
Q 319 2444 706 2928 
Q 1094 3413 1709 3413 
Q 2094 3413 2355 3264 
Q 2616 3116 2784 2803 
L 2784 3322 
L 3909 3322 
L 3909 2988 
L 3359 2988 
z
M 2784 1825 
Q 2784 2422 2554 2737 
Q 2325 3053 1888 3053 
Q 1444 3053 1217 2703 
Q 991 2353 991 1663 
Q 991 975 1217 622 
Q 1444 269 1888 269 
Q 2325 269 2554 583 
Q 2784 897 2784 1497 
L 2784 1825 
z
" transform="scale(0.015625)"/>
       <path id="DejaVuSerif-74" d="M 691 2988 
L 184 2988 
L 184 3322 
L 691 3322 
L 691 4353 
L 1269 4353 
L 1269 3322 
L 2350 3322 
L 2350 2988 
L 1269 2988 
L 1269 878 
Q 1269 456 1350 337 
Q 1431 219 1650 219 
Q 1875 219 1978 351 
Q 2081 484 2088 781 
L 2522 781 
Q 2497 328 2275 118 
Q 2053 -91 1600 -91 
Q 1103 -91 897 129 
Q 691 350 691 878 
L 691 2988 
z
" transform="scale(0.015625)"/>
       <path id="DejaVuSerif-70" d="M 1313 1825 
L 1313 1497 
Q 1313 897 1542 583 
Q 1772 269 2209 269 
Q 2650 269 2876 622 
Q 3103 975 3103 1663 
Q 3103 2353 2876 2703 
Q 2650 3053 2209 3053 
Q 1772 3053 1542 2737 
Q 1313 2422 1313 1825 
z
M 738 2988 
L 184 2988 
L 184 3322 
L 1313 3322 
L 1313 2803 
Q 1481 3116 1742 3264 
Q 2003 3413 2388 3413 
Q 3000 3413 3387 2928 
Q 3775 2444 3775 1663 
Q 3775 881 3387 395 
Q 3000 -91 2388 -91 
Q 2003 -91 1742 57 
Q 1481 206 1313 519 
L 1313 -997 
L 1856 -997 
L 1856 -1331 
L 184 -1331 
L 184 -997 
L 738 -997 
L 738 2988 
z
" transform="scale(0.015625)"/>
       <path id="DejaVuSerif-72" d="M 3059 3328 
L 3059 2497 
L 2728 2497 
Q 2713 2744 2591 2866 
Q 2469 2988 2234 2988 
Q 1809 2988 1582 2694 
Q 1356 2400 1356 1850 
L 1356 331 
L 2022 331 
L 2022 0 
L 263 0 
L 263 331 
L 781 331 
L 781 2994 
L 231 2994 
L 231 3322 
L 1356 3322 
L 1356 2731 
Q 1525 3078 1790 3245 
Q 2056 3413 2438 3413 
Q 2578 3413 2733 3391 
Q 2888 3369 3059 3328 
z
" transform="scale(0.015625)"/>
       <path id="DejaVuSerif-29" d="M 453 -997 
L 453 -691 
Q 934 -359 1145 242 
Q 1356 844 1356 1931 
Q 1356 3022 1145 3623 
Q 934 4225 453 4556 
L 453 4863 
Q 1216 4522 1603 3783 
Q 1991 3044 1991 1931 
Q 1991 822 1603 83 
Q 1216 -656 453 -997 
z
" transform="scale(0.015625)"/>
      </defs>
      <use xlink:href="#DejaVuSerif-52"/>
      <use xlink:href="#DejaVuSerif-69" transform="translate(75.292969 0)"/>
      <use xlink:href="#DejaVuSerif-73" transform="translate(107.275391 0)"/>
      <use xlink:href="#DejaVuSerif-6b" transform="translate(158.59375 0)"/>
      <use xlink:href="#DejaVuSerif-20" transform="translate(219.189453 0)"/>
      <use xlink:href="#DejaVuSerif-64" transform="translate(250.976562 0)"/>
      <use xlink:href="#DejaVuSerif-65" transform="translate(314.990234 0)"/>
      <use xlink:href="#DejaVuSerif-63" transform="translate(374.169922 0)"/>
      <use xlink:href="#DejaVuSerif-69" transform="translate(430.175781 0)"/>
      <use xlink:href="#DejaVuSerif-6c" transform="translate(462.158203 0)"/>
      <use xlink:href="#DejaVuSerif-65" transform="translate(494.140625 0)"/>
      <use xlink:href="#DejaVuSerif-20" transform="translate(553.320312 0)"/>
      <use xlink:href="#DejaVuSerif-28" transform="translate(585.107422 0)"/>
      <use xlink:href="#DejaVuSerif-31" transform="translate(624.121094 0)"/>
      <use xlink:href="#DejaVuSerif-20" transform="translate(687.744141 0)"/>
      <use xlink:href="#DejaVuSerif-3d" transform="translate(719.53125 0)"/>
      <use xlink:href="#DejaVuSerif-20" transform="translate(803.320312 0)"/>
      <use xlink:href="#DejaVuSerif-68" transform="translate(835.107422 0)"/>
      <use xlink:href="#DejaVuSerif-69" transform="translate(899.511719 0)"/>
      <use xlink:href="#DejaVuSerif-67" transform="translate(931.494141 0)"/>
      <use xlink:href="#DejaVuSerif-68" transform="translate(995.507812 0)"/>
      <use xlink:href="#DejaVuSerif-65" transform="translate(1059.912109 0)"/>
      <use xlink:href="#DejaVuSerif-73" transform="translate(1119.091797 0)"/>
      <use xlink:href="#DejaVuSerif-74" transform="translate(1170.410156 0)"/>
      <use xlink:href="#DejaVuSerif-20" transform="translate(1210.595703 0)"/>
      <use xlink:href="#DejaVuSerif-70" transform="translate(1242.382812 0)"/>
      <use xlink:href="#DejaVuSerif-72" transform="translate(1306.396484 0)"/>
      <use xlink:href="#DejaVuSerif-65" transform="translate(1354.199219 0)"/>
      <use xlink:href="#DejaVuSerif-64" transform="translate(1413.378906 0)"/>
      <use xlink:href="#DejaVuSerif-69" transform="translate(1477.392578 0)"/>
      <use xlink:href="#DejaVuSerif-63" transform="translate(1509.375 0)"/>
      <use xlink:href="#DejaVuSerif-74" transform="translate(1565.380859 0)"/>
      <use xlink:href="#DejaVuSerif-65" transform="translate(1605.566406 0)"/>
      <use xlink:href="#DejaVuSerif-64" transform="translate(1664.746094 0)"/>
      <use xlink:href="#DejaVuSerif-20" transform="translate(1728.759766 0)"/>
      <use xlink:href="#DejaVuSerif-72" transform="translate(1760.546875 0)"/>
      <use xlink:href="#DejaVuSerif-69" transform="translate(1808.349609 0)"/>
      <use xlink:href="#DejaVuSerif-73" transform="translate(1840.332031 0)"/>
      <use xlink:href="#DejaVuSerif-6b" transform="translate(1891.650391 0)"/>
      <use xlink:href="#DejaVuSerif-29" transform="translate(1952.246094 0)"/>
     </g>
    </g>
   </g>
   <g id="matplotlib.axis_2">
    <g id="ytick_1">
     <g id="line2d_6">
      <path d="M 36.933563 355.91025 
L 622.833562 355.91025 
" clip-path="url(#pfc48efae1e)" style="fill: none; stroke-dasharray: 2.96,1.28; stroke-dashoffset: 0; stroke: #e2e8f0; stroke-opacity: 0.22; stroke-width: 0.8"/>
     </g>
     <g id="line2d_7">
      <defs>
       <path id="mdc01aaba80" d="M 0 0 
L -3.5 0 
" style="stroke: #475569; stroke-width: 0.8"/>
      </defs>
      <g>
       <use xlink:href="#mdc01aaba80" x="36.933563" y="355.91025" style="fill: #475569; stroke: #475569; stroke-width: 0.8"/>
      </g>
     </g>
     <g id="text_7">
      <!-- 0 -->
      <g style="fill: #475569" transform="translate(24.589063 359.101594) scale(0.084 -0.084)">
       <use xlink:href="#DejaVuSerif-30"/>
      </g>
     </g>
    </g>
    <g id="ytick_2">
     <g id="line2d_8">
      <path d="M 36.933563 311.704246 
L 622.833562 311.704246 
" clip-path="url(#pfc48efae1e)" style="fill: none; stroke-dasharray: 2.96,1.28; stroke-dashoffset: 0; stroke: #e2e8f0; stroke-opacity: 0.22; stroke-width: 0.8"/>
     </g>
     <g id="line2d_9">
      <g>
       <use xlink:href="#mdc01aaba80" x="36.933563" y="311.704246" style="fill: #475569; stroke: #475569; stroke-width: 0.8"/>
      </g>
     </g>
     <g id="text_8">
      <!-- 10 -->
      <g style="fill: #475569" transform="translate(19.244563 314.89559) scale(0.084 -0.084)">
       <use xlink:href="#DejaVuSerif-31"/>
       <use xlink:href="#DejaVuSerif-30" transform="translate(63.623047 0)"/>
      </g>
     </g>
    </g>
    <g id="ytick_3">
     <g id="line2d_10">
      <path d="M 36.933563 267.498242 
L 622.833562 267.498242 
" clip-path="url(#pfc48efae1e)" style="fill: none; stroke-dasharray: 2.96,1.28; stroke-dashoffset: 0; stroke: #e2e8f0; stroke-opacity: 0.22; stroke-width: 0.8"/>
     </g>
     <g id="line2d_11">
      <g>
       <use xlink:href="#mdc01aaba80" x="36.933563" y="267.498242" style="fill: #475569; stroke: #475569; stroke-width: 0.8"/>
      </g>
     </g>
     <g id="text_9">
      <!-- 20 -->
      <g style="fill: #475569" transform="translate(19.244563 270.689586) scale(0.084 -0.084)">
       <use xlink:href="#DejaVuSerif-32"/>
       <use xlink:href="#DejaVuSerif-30" transform="translate(63.623047 0)"/>
      </g>
     </g>
    </g>
    <g id="ytick_4">
     <g id="line2d_12">
      <path d="M 36.933563 223.292238 
L 622.833562 223.292238 
" clip-path="url(#pfc48efae1e)" style="fill: none; stroke-dasharray: 2.96,1.28; stroke-dashoffset: 0; stroke: #e2e8f0; stroke-opacity: 0.22; stroke-width: 0.8"/>
     </g>
     <g id="line2d_13">
      <g>
       <use xlink:href="#mdc01aaba80" x="36.933563" y="223.292238" style="fill: #475569; stroke: #475569; stroke-width: 0.8"/>
      </g>
     </g>
     <g id="text_10">
      <!-- 30 -->
      <g style="fill: #475569" transform="translate(19.244563 226.483582) scale(0.084 -0.084)">
       <defs>
        <path id="DejaVuSerif-33" d="M 622 4469 
Q 988 4606 1323 4678 
Q 1659 4750 1953 4750 
Q 2638 4750 3022 4454 
Q 3406 4159 3406 3634 
Q 3406 3213 3140 2930 
Q 2875 2647 2388 2547 
Q 2963 2466 3280 2130 
Q 3597 1794 3597 1259 
Q 3597 606 3158 257 
Q 2719 -91 1894 -91 
Q 1528 -91 1179 -12 
Q 831 66 488 225 
L 488 1131 
L 838 1131 
Q 869 681 1141 450 
Q 1413 219 1906 219 
Q 2384 219 2661 495 
Q 2938 772 2938 1253 
Q 2938 1803 2653 2086 
Q 2369 2369 1819 2369 
L 1522 2369 
L 1522 2688 
L 1678 2688 
Q 2225 2688 2498 2914 
Q 2772 3141 2772 3597 
Q 2772 4006 2547 4223 
Q 2322 4441 1900 4441 
Q 1478 4441 1245 4241 
Q 1013 4041 972 3647 
L 622 3647 
L 622 4469 
z
" transform="scale(0.015625)"/>
       </defs>
       <use xlink:href="#DejaVuSerif-33"/>
       <use xlink:href="#DejaVuSerif-30" transform="translate(63.623047 0)"/>
      </g>
     </g>
    </g>
    <g id="ytick_5">
     <g id="line2d_14">
      <path d="M 36.933563 179.086234 
L 622.833562 179.086234 
" clip-path="url(#pfc48efae1e)" style="fill: none; stroke-dasharray: 2.96,1.28; stroke-dashoffset: 0; stroke: #e2e8f0; stroke-opacity: 0.22; stroke-width: 0.8"/>
     </g>
     <g id="line2d_15">
      <g>
       <use xlink:href="#mdc01aaba80" x="36.933563" y="179.086234" style="fill: #475569; stroke: #475569; stroke-width: 0.8"/>
      </g>
     </g>
     <g id="text_11">
      <!-- 40 -->
      <g style="fill: #475569" transform="translate(19.244563 182.277578) scale(0.084 -0.084)">
       <use xlink:href="#DejaVuSerif-34"/>
       <use xlink:href="#DejaVuSerif-30" transform="translate(63.623047 0)"/>
      </g>
     </g>
    </g>
    <g id="ytick_6">
     <g id="line2d_16">
      <path d="M 36.933563 134.880231 
L 622.833562 134.880231 
" clip-path="url(#pfc48efae1e)" style="fill: none; stroke-dasharray: 2.96,1.28; stroke-dashoffset: 0; stroke: #e2e8f0; stroke-opacity: 0.22; stroke-width: 0.8"/>
     </g>
     <g id="line2d_17">
      <g>
       <use xlink:href="#mdc01aaba80" x="36.933563" y="134.880231" style="fill: #475569; stroke: #475569; stroke-width: 0.8"/>
      </g>
     </g>
     <g id="text_12">
      <!-- 50 -->
      <g style="fill: #475569" transform="translate(19.244563 138.071574) scale(0.084 -0.084)">
       <defs>
        <path id="DejaVuSerif-35" d="M 3219 4666 
L 3219 4153 
L 1081 4153 
L 1081 2816 
Q 1244 2928 1461 2984 
Q 1678 3041 1947 3041 
Q 2703 3041 3140 2622 
Q 3578 2203 3578 1478 
Q 3578 738 3136 323 
Q 2694 -91 1894 -91 
Q 1572 -91 1234 -12 
Q 897 66 544 225 
L 544 1131 
L 897 1131 
Q 925 688 1179 453 
Q 1434 219 1894 219 
Q 2388 219 2653 544 
Q 2919 869 2919 1478 
Q 2919 2084 2655 2407 
Q 2391 2731 1894 2731 
Q 1613 2731 1398 2631 
Q 1184 2531 1019 2322 
L 750 2322 
L 750 4666 
L 3219 4666 
z
" transform="scale(0.015625)"/>
       </defs>
       <use xlink:href="#DejaVuSerif-35"/>
       <use xlink:href="#DejaVuSerif-30" transform="translate(63.623047 0)"/>
      </g>
     </g>
    </g>
    <g id="ytick_7">
     <g id="line2d_18">
      <path d="M 36.933563 90.674227 
L 622.833562 90.674227 
" clip-path="url(#pfc48efae1e)" style="fill: none; stroke-dasharray: 2.96,1.28; stroke-dashoffset: 0; stroke: #e2e8f0; stroke-opacity: 0.22; stroke-width: 0.8"/>
     </g>
     <g id="line2d_19">
      <g>
       <use xlink:href="#mdc01aaba80" x="36.933563" y="90.674227" style="fill: #475569; stroke: #475569; stroke-width: 0.8"/>
      </g>
     </g>
     <g id="text_13">
      <!-- 60 -->
      <g style="fill: #475569" transform="translate(19.244563 93.86557) scale(0.084 -0.084)">
       <use xlink:href="#DejaVuSerif-36"/>
       <use xlink:href="#DejaVuSerif-30" transform="translate(63.623047 0)"/>
      </g>
     </g>
    </g>
    <g id="ytick_8">
     <g id="line2d_20">
      <path d="M 36.933563 46.468223 
L 622.833562 46.468223 
" clip-path="url(#pfc48efae1e)" style="fill: none; stroke-dasharray: 2.96,1.28; stroke-dashoffset: 0; stroke: #e2e8f0; stroke-opacity: 0.22; stroke-width: 0.8"/>
     </g>
     <g id="line2d_21">
      <g>
       <use xlink:href="#mdc01aaba80" x="36.933563" y="46.468223" style="fill: #475569; stroke: #475569; stroke-width: 0.8"/>
      </g>
     </g>
     <g id="text_14">
      <!-- 70 -->
      <g style="fill: #475569" transform="translate(19.244563 49.659567) scale(0.084 -0.084)">
       <defs>
        <path id="DejaVuSerif-37" d="M 3609 4347 
L 1784 0 
L 1319 0 
L 3059 4153 
L 903 4153 
L 903 3578 
L 538 3578 
L 538 4666 
L 3609 4666 
L 3609 4347 
z
" transform="scale(0.015625)"/>
       </defs>
       <use xlink:href="#DejaVuSerif-37"/>
       <use xlink:href="#DejaVuSerif-30" transform="translate(63.623047 0)"/>
      </g>
     </g>
    </g>
    <g id="text_15">
     <!-- Rate (%) -->
     <g style="fill: #0f172a" transform="translate(13.206469 211.217625) rotate(-90) scale(0.098 -0.098)">
      <defs>
       <path id="DejaVuSerif-61" d="M 2547 1044 
L 2547 1747 
L 1806 1747 
Q 1378 1747 1168 1562 
Q 959 1378 959 997 
Q 959 650 1171 447 
Q 1384 244 1747 244 
Q 2106 244 2326 466 
Q 2547 688 2547 1044 
z
M 3122 2075 
L 3122 331 
L 3634 331 
L 3634 0 
L 2547 0 
L 2547 359 
Q 2356 128 2106 18 
Q 1856 -91 1522 -91 
Q 969 -91 644 203 
Q 319 497 319 997 
Q 319 1513 691 1797 
Q 1063 2081 1741 2081 
L 2547 2081 
L 2547 2309 
Q 2547 2688 2317 2895 
Q 2088 3103 1672 3103 
Q 1328 3103 1125 2947 
Q 922 2791 872 2484 
L 575 2484 
L 575 3156 
Q 875 3284 1158 3348 
Q 1441 3413 1709 3413 
Q 2400 3413 2761 3070 
Q 3122 2728 3122 2075 
z
" transform="scale(0.015625)"/>
       <path id="DejaVuSerif-25" d="M 1434 4459 
Q 1159 4459 1004 4200 
Q 850 3941 850 3475 
Q 850 3016 1008 2753 
Q 1166 2491 1434 2491 
Q 1700 2491 1854 2752 
Q 2009 3013 2009 3475 
Q 2009 3938 1854 4198 
Q 1700 4459 1434 4459 
z
M 4653 2169 
Q 4381 2169 4226 1906 
Q 4072 1644 4072 1178 
Q 4072 719 4228 458 
Q 4384 197 4653 197 
Q 4922 197 5075 458 
Q 5228 719 5228 1178 
Q 5228 1641 5073 1905 
Q 4919 2169 4653 2169 
z
M 4653 2450 
Q 5147 2450 5437 2106 
Q 5728 1763 5728 1178 
Q 5728 594 5436 251 
Q 5144 -91 4653 -91 
Q 4153 -91 3862 251 
Q 3572 594 3572 1178 
Q 3572 1766 3864 2108 
Q 4156 2450 4653 2450 
z
M 4263 4750 
L 4738 4750 
L 1819 -91 
L 1344 -91 
L 4263 4750 
z
M 1428 4750 
Q 1922 4750 2215 4408 
Q 2509 4066 2509 3481 
Q 2509 2891 2217 2550 
Q 1925 2209 1428 2209 
Q 931 2209 642 2551 
Q 353 2894 353 3481 
Q 353 4063 643 4406 
Q 934 4750 1428 4750 
z
" transform="scale(0.015625)"/>
      </defs>
      <use xlink:href="#DejaVuSerif-52"/>
      <use xlink:href="#DejaVuSerif-61" transform="translate(77.542969 0)"/>
      <use xlink:href="#DejaVuSerif-74" transform="translate(137.162109 0)"/>
      <use xlink:href="#DejaVuSerif-65" transform="translate(177.347656 0)"/>
      <use xlink:href="#DejaVuSerif-20" transform="translate(236.527344 0)"/>
      <use xlink:href="#DejaVuSerif-28" transform="translate(268.314453 0)"/>
      <use xlink:href="#DejaVuSerif-25" transform="translate(307.328125 0)"/>
      <use xlink:href="#DejaVuSerif-29" transform="translate(402.347656 0)"/>
     </g>
    </g>
   </g>
   <g id="line2d_22">
    <path d="M 85.30564 78.71025 
L 139.65629 138.613241 
L 194.006939 182.086573 
L 248.357588 213.377124 
L 302.708238 236.57128 
L 357.058887 255.594765 
L 411.409537 272.654678 
L 465.760186 288.100609 
L 520.110835 297.876732 
L 574.461485 313.234487 
" clip-path="url(#pfc48efae1e)" style="fill: none; stroke: #0f766e; stroke-width: 2; stroke-linecap: square"/>
    <defs>
     <path id="mdc44baed26" d="M 0 3 
C 0.795609 3 1.55874 2.683901 2.12132 2.12132 
C 2.683901 1.55874 3 0.795609 3 0 
C 3 -0.795609 2.683901 -1.55874 2.12132 -2.12132 
C 1.55874 -2.683901 0.795609 -3 0 -3 
C -0.795609 -3 -1.55874 -2.683901 -2.12132 -2.12132 
C -2.683901 -1.55874 -3 -0.795609 -3 0 
C -3 0.795609 -2.683901 1.55874 -2.12132 2.12132 
C -1.55874 2.683901 -0.795609 3 0 3 
z
" style="stroke: #0f766e"/>
    </defs>
    <g clip-path="url(#pfc48efae1e)">
     <use xlink:href="#mdc44baed26" x="85.30564" y="78.71025" style="fill: #0f766e; stroke: #0f766e"/>
     <use xlink:href="#mdc44baed26" x="139.65629" y="138.613241" style="fill: #0f766e; stroke: #0f766e"/>
     <use xlink:href="#mdc44baed26" x="194.006939" y="182.086573" style="fill: #0f766e; stroke: #0f766e"/>
     <use xlink:href="#mdc44baed26" x="248.357588" y="213.377124" style="fill: #0f766e; stroke: #0f766e"/>
     <use xlink:href="#mdc44baed26" x="302.708238" y="236.57128" style="fill: #0f766e; stroke: #0f766e"/>
     <use xlink:href="#mdc44baed26" x="357.058887" y="255.594765" style="fill: #0f766e; stroke: #0f766e"/>
     <use xlink:href="#mdc44baed26" x="411.409537" y="272.654678" style="fill: #0f766e; stroke: #0f766e"/>
     <use xlink:href="#mdc44baed26" x="465.760186" y="288.100609" style="fill: #0f766e; stroke: #0f766e"/>
     <use xlink:href="#mdc44baed26" x="520.110835" y="297.876732" style="fill: #0f766e; stroke: #0f766e"/>
     <use xlink:href="#mdc44baed26" x="574.461485" y="313.234487" style="fill: #0f766e; stroke: #0f766e"/>
    </g>
   </g>
   <g id="patch_13">
    <path d="M 36.933563 355.91025 
L 36.933563 23.27025 
" style="fill: none; stroke: #475569; stroke-width: 0.85; stroke-linejoin: miter; stroke-linecap: square"/>
   </g>
   <g id="patch_14">
    <path d="M 36.933563 355.91025 
L 622.833562 355.91025 
" style="fill: none; stroke: #475569; stroke-width: 0.85; stroke-linejoin: miter; stroke-linecap: square"/>
   </g>
   <g id="text_16">
    <!-- Critical-Transition Early Warning Decile Diagnostic -->
    <g style="fill: #0f172a" transform="translate(169.009562 14.27025) scale(0.112 -0.112)">
     <defs>
      <path id="DejaVuSerif-Bold-43" d="M 4769 1331 
Q 4584 609 4106 259 
Q 3628 -91 2822 -91 
Q 1641 -91 955 561 
Q 269 1213 269 2328 
Q 269 3447 955 4098 
Q 1641 4750 2822 4750 
Q 3238 4750 3688 4650 
Q 4138 4550 4641 4347 
L 4641 3200 
L 4244 3200 
Q 4122 3788 3800 4080 
Q 3478 4372 2950 4372 
Q 2269 4372 1937 3870 
Q 1606 3369 1606 2328 
Q 1606 1288 1937 788 
Q 2269 288 2956 288 
Q 3422 288 3717 547 
Q 4013 806 4147 1331 
L 4769 1331 
z
" transform="scale(0.015625)"/>
      <path id="DejaVuSerif-Bold-72" d="M 3438 3359 
L 3438 2369 
L 3084 2369 
Q 3066 2634 2941 2764 
Q 2816 2894 2578 2894 
Q 2216 2894 2006 2575 
Q 1797 2256 1797 1691 
L 1797 378 
L 2400 378 
L 2400 0 
L 219 0 
L 219 378 
L 691 378 
L 691 2944 
L 184 2944 
L 184 3322 
L 1797 3322 
L 1797 2731 
Q 1959 3078 2226 3245 
Q 2494 3413 2881 3413 
Q 2978 3413 3117 3398 
Q 3256 3384 3438 3359 
z
" transform="scale(0.015625)"/>
      <path id="DejaVuSerif-Bold-69" d="M 588 4263 
Q 588 4516 763 4689 
Q 938 4863 1191 4863 
Q 1438 4863 1611 4689 
Q 1784 4516 1784 4263 
Q 1784 4016 1611 3842 
Q 1438 3669 1191 3669 
Q 938 3669 763 3841 
Q 588 4013 588 4263 
z
M 1797 378 
L 2272 378 
L 2272 0 
L 219 0 
L 219 378 
L 691 378 
L 691 2944 
L 219 2944 
L 219 3322 
L 1797 3322 
L 1797 378 
z
" transform="scale(0.015625)"/>
      <path id="DejaVuSerif-Bold-74" d="M 634 2944 
L 153 2944 
L 153 3322 
L 634 3322 
L 634 4353 
L 1741 4353 
L 1741 3322 
L 2663 3322 
L 2663 2944 
L 1741 2944 
L 1741 909 
Q 1741 475 1809 369 
Q 1878 263 2059 263 
Q 2259 263 2356 397 
Q 2453 531 2459 813 
L 2925 813 
Q 2897 313 2651 111 
Q 2406 -91 1806 -91 
Q 1122 -91 878 123 
Q 634 338 634 909 
L 634 2944 
z
" transform="scale(0.015625)"/>
      <path id="DejaVuSerif-Bold-63" d="M 3609 1038 
Q 3491 469 3123 189 
Q 2756 -91 2125 -91 
Q 1238 -91 750 368 
Q 263 828 263 1663 
Q 263 2488 744 2950 
Q 1225 3413 2081 3413 
Q 2428 3413 2781 3347 
Q 3134 3281 3500 3150 
L 3500 2228 
L 3150 2228 
Q 3100 2650 2903 2854 
Q 2706 3059 2350 3059 
Q 1888 3059 1692 2746 
Q 1497 2434 1497 1663 
Q 1497 909 1687 586 
Q 1878 263 2309 263 
Q 2644 263 2845 463 
Q 3047 663 3091 1038 
L 3609 1038 
z
" transform="scale(0.015625)"/>
      <path id="DejaVuSerif-Bold-61" d="M 3525 2041 
L 3525 378 
L 4000 378 
L 4000 0 
L 2419 0 
L 2419 422 
Q 2200 159 1931 34 
Q 1663 -91 1319 -91 
Q 809 -91 536 182 
Q 263 456 263 966 
Q 263 1525 655 1803 
Q 1047 2081 1838 2081 
L 2419 2081 
L 2419 2278 
Q 2419 2681 2228 2873 
Q 2038 3066 1638 3066 
Q 1306 3066 1126 2930 
Q 947 2794 872 2484 
L 519 2484 
L 519 3200 
Q 816 3306 1134 3359 
Q 1453 3413 1806 3413 
Q 2697 3413 3111 3081 
Q 3525 2750 3525 2041 
z
M 2419 1044 
L 2419 1709 
L 2003 1709 
Q 1694 1709 1528 1540 
Q 1363 1372 1363 1056 
Q 1363 741 1483 584 
Q 1603 428 1850 428 
Q 2106 428 2262 597 
Q 2419 766 2419 1044 
z
" transform="scale(0.015625)"/>
      <path id="DejaVuSerif-Bold-6c" d="M 1797 378 
L 2272 378 
L 2272 0 
L 219 0 
L 219 378 
L 691 378 
L 691 4488 
L 219 4488 
L 219 4863 
L 1797 4863 
L 1797 378 
z
" transform="scale(0.015625)"/>
      <path id="DejaVuSerif-Bold-2d" d="M 347 2138 
L 2309 2138 
L 2309 1294 
L 347 1294 
L 347 2138 
z
" transform="scale(0.015625)"/>
      <path id="DejaVuSerif-Bold-54" d="M 1159 0 
L 1159 378 
L 1778 378 
L 1778 4238 
L 500 4238 
L 500 3500 
L 72 3500 
L 72 4666 
L 4697 4666 
L 4697 3500 
L 4275 3500 
L 4275 4238 
L 2988 4238 
L 2988 378 
L 3609 378 
L 3609 0 
L 1159 0 
z
" transform="scale(0.015625)"/>
      <path id="DejaVuSerif-Bold-6e" d="M 219 0 
L 219 378 
L 691 378 
L 691 2944 
L 219 2944 
L 219 3322 
L 1797 3322 
L 1797 2853 
Q 1997 3150 2253 3281 
Q 2509 3413 2900 3413 
Q 3459 3413 3745 3083 
Q 4031 2753 4031 2113 
L 4031 378 
L 4506 378 
L 4506 0 
L 2522 0 
L 2522 378 
L 2925 378 
L 2925 2144 
Q 2925 2566 2817 2730 
Q 2709 2894 2444 2894 
Q 2109 2894 1953 2648 
Q 1797 2403 1797 1869 
L 1797 378 
L 2203 378 
L 2203 0 
L 219 0 
z
" transform="scale(0.015625)"/>
      <path id="DejaVuSerif-Bold-73" d="M 300 97 
L 300 1025 
L 653 1025 
Q 697 653 931 458 
Q 1166 263 1569 263 
Q 1906 263 2086 380 
Q 2266 497 2266 716 
Q 2266 916 2152 1025 
Q 2038 1134 1709 1216 
L 1253 1331 
Q 738 1459 506 1698 
Q 275 1938 275 2344 
Q 275 2884 650 3148 
Q 1025 3413 1806 3413 
Q 2100 3413 2433 3364 
Q 2766 3316 3169 3213 
L 3169 2375 
L 2816 2375 
Q 2788 2716 2573 2887 
Q 2359 3059 1959 3059 
Q 1622 3059 1448 2951 
Q 1275 2844 1275 2638 
Q 1275 2469 1375 2372 
Q 1475 2275 1734 2209 
L 2188 2094 
Q 2841 1928 3091 1684 
Q 3341 1441 3341 1006 
Q 3341 444 2939 176 
Q 2538 -91 1691 -91 
Q 1381 -91 1034 -44 
Q 688 3 300 97 
z
" transform="scale(0.015625)"/>
      <path id="DejaVuSerif-Bold-6f" d="M 2138 263 
Q 2488 263 2630 563 
Q 2772 863 2772 1663 
Q 2772 2463 2631 2761 
Q 2491 3059 2138 3059 
Q 1784 3059 1640 2757 
Q 1497 2456 1497 1663 
Q 1497 869 1640 566 
Q 1784 263 2138 263 
z
M 2138 -91 
Q 1259 -91 761 376 
Q 263 844 263 1663 
Q 263 2484 761 2948 
Q 1259 3413 2138 3413 
Q 3019 3413 3516 2948 
Q 4013 2484 4013 1663 
Q 4013 844 3514 376 
Q 3016 -91 2138 -91 
z
" transform="scale(0.015625)"/>
      <path id="DejaVuSerif-Bold-20" transform="scale(0.015625)"/>
      <path id="DejaVuSerif-Bold-45" d="M 300 0 
L 300 378 
L 897 378 
L 897 4288 
L 300 4288 
L 300 4666 
L 4494 4666 
L 4494 3566 
L 4063 3566 
L 4063 4238 
L 2100 4238 
L 2100 2741 
L 3322 2741 
L 3322 3334 
L 3750 3334 
L 3750 1722 
L 3322 1722 
L 3322 2316 
L 2100 2316 
L 2100 428 
L 4122 428 
L 4122 1100 
L 4550 1100 
L 4550 0 
L 300 0 
z
" transform="scale(0.015625)"/>
      <path id="DejaVuSerif-Bold-79" d="M 1997 -750 
Q 1847 -1116 1634 -1269 
Q 1422 -1422 1063 -1422 
Q 909 -1422 721 -1387 
Q 534 -1353 313 -1288 
L 313 -594 
L 666 -597 
Q 675 -838 779 -953 
Q 884 -1069 1094 -1069 
Q 1297 -1069 1422 -958 
Q 1547 -847 1672 -538 
L 1722 -422 
L 275 2944 
L -84 2944 
L -84 3322 
L 1831 3322 
L 1831 2944 
L 1434 2944 
L 2278 978 
L 3066 2944 
L 2625 2944 
L 2625 3322 
L 3872 3322 
L 3872 2944 
L 3469 2944 
L 1997 -750 
z
" transform="scale(0.015625)"/>
      <path id="DejaVuSerif-Bold-57" d="M 5453 0 
L 4647 0 
L 3591 3397 
L 2534 0 
L 1728 0 
L 397 4288 
L -56 4288 
L -56 4666 
L 2156 4666 
L 2156 4288 
L 1656 4288 
L 2547 1422 
L 3553 4666 
L 4441 4666 
L 5466 1369 
L 6375 4288 
L 5819 4288 
L 5819 4666 
L 7263 4666 
L 7263 4288 
L 6784 4288 
L 5453 0 
z
" transform="scale(0.015625)"/>
      <path id="DejaVuSerif-Bold-67" d="M 3853 2944 
L 3853 44 
Q 3853 -656 3354 -1039 
Q 2856 -1422 1947 -1422 
Q 1616 -1422 1275 -1370 
Q 934 -1319 575 -1216 
L 575 -422 
L 928 -422 
Q 975 -750 1192 -909 
Q 1409 -1069 1813 -1069 
Q 2325 -1069 2536 -823 
Q 2747 -578 2747 44 
L 2747 422 
Q 2606 163 2367 36 
Q 2128 -91 1778 -91 
Q 1072 -91 667 378 
Q 263 847 263 1663 
Q 263 2481 667 2947 
Q 1072 3413 1778 3413 
Q 2128 3413 2367 3286 
Q 2606 3159 2747 2900 
L 2747 3322 
L 4325 3322 
L 4325 2944 
L 3853 2944 
z
M 2747 1825 
Q 2747 2406 2597 2665 
Q 2447 2925 2119 2925 
Q 1775 2925 1636 2651 
Q 1497 2378 1497 1663 
Q 1497 947 1637 672 
Q 1778 397 2119 397 
Q 2447 397 2597 656 
Q 2747 916 2747 1497 
L 2747 1825 
z
" transform="scale(0.015625)"/>
      <path id="DejaVuSerif-Bold-44" d="M 2100 378 
L 2534 378 
Q 3266 378 3605 847 
Q 3944 1316 3944 2338 
Q 3944 3353 3606 3820 
Q 3269 4288 2534 4288 
L 2100 4288 
L 2100 378 
z
M 300 0 
L 300 378 
L 897 378 
L 897 4288 
L 300 4288 
L 300 4666 
L 2694 4666 
Q 3950 4666 4615 4066 
Q 5281 3466 5281 2338 
Q 5281 1203 4614 601 
Q 3947 0 2694 0 
L 300 0 
z
" transform="scale(0.015625)"/>
      <path id="DejaVuSerif-Bold-65" d="M 2566 1875 
Q 2566 2531 2444 2795 
Q 2322 3059 2028 3059 
Q 1744 3059 1620 2800 
Q 1497 2541 1497 1931 
L 1497 1875 
L 2566 1875 
z
M 3781 1503 
L 1497 1503 
L 1497 1478 
Q 1497 834 1690 548 
Q 1884 263 2316 263 
Q 2675 263 2897 453 
Q 3119 644 3181 1006 
L 3700 1006 
Q 3566 441 3166 175 
Q 2766 -91 2047 -91 
Q 1184 -91 723 364 
Q 263 819 263 1663 
Q 263 2488 734 2950 
Q 1206 3413 2047 3413 
Q 2872 3413 3312 2927 
Q 3753 2441 3781 1503 
z
" transform="scale(0.015625)"/>
     </defs>
     <use xlink:href="#DejaVuSerif-Bold-43"/>
     <use xlink:href="#DejaVuSerif-Bold-72" transform="translate(79.589844 0)"/>
     <use xlink:href="#DejaVuSerif-Bold-69" transform="translate(132.275391 0)"/>
     <use xlink:href="#DejaVuSerif-Bold-74" transform="translate(170.263672 0)"/>
     <use xlink:href="#DejaVuSerif-Bold-69" transform="translate(216.455078 0)"/>
     <use xlink:href="#DejaVuSerif-Bold-63" transform="translate(254.443359 0)"/>
     <use xlink:href="#DejaVuSerif-Bold-61" transform="translate(315.332031 0)"/>
     <use xlink:href="#DejaVuSerif-Bold-6c" transform="translate(380.126953 0)"/>
     <use xlink:href="#DejaVuSerif-Bold-2d" transform="translate(418.115234 0)"/>
     <use xlink:href="#DejaVuSerif-Bold-54" transform="translate(443.119141 0)"/>
     <use xlink:href="#DejaVuSerif-Bold-72" transform="translate(510.283203 0)"/>
     <use xlink:href="#DejaVuSerif-Bold-61" transform="translate(562.96875 0)"/>
     <use xlink:href="#DejaVuSerif-Bold-6e" transform="translate(627.763672 0)"/>
     <use xlink:href="#DejaVuSerif-Bold-73" transform="translate(700.46875 0)"/>
     <use xlink:href="#DejaVuSerif-Bold-69" transform="translate(756.767578 0)"/>
     <use xlink:href="#DejaVuSerif-Bold-74" transform="translate(794.755859 0)"/>
     <use xlink:href="#DejaVuSerif-Bold-69" transform="translate(840.947266 0)"/>
     <use xlink:href="#DejaVuSerif-Bold-6f" transform="translate(878.935547 0)"/>
     <use xlink:href="#DejaVuSerif-Bold-6e" transform="translate(945.634766 0)"/>
     <use xlink:href="#DejaVuSerif-Bold-20" transform="translate(1018.339844 0)"/>
     <use xlink:href="#DejaVuSerif-Bold-45" transform="translate(1053.154297 0)"/>
     <use xlink:href="#DejaVuSerif-Bold-61" transform="translate(1129.375 0)"/>
     <use xlink:href="#DejaVuSerif-Bold-72" transform="translate(1194.169922 0)"/>
     <use xlink:href="#DejaVuSerif-Bold-6c" transform="translate(1246.855469 0)"/>
     <use xlink:href="#DejaVuSerif-Bold-79" transform="translate(1284.84375 0)"/>
     <use xlink:href="#DejaVuSerif-Bold-20" transform="translate(1342.949219 0)"/>
     <use xlink:href="#DejaVuSerif-Bold-57" transform="translate(1377.763672 0)"/>
     <use xlink:href="#DejaVuSerif-Bold-61" transform="translate(1481.318359 0)"/>
     <use xlink:href="#DejaVuSerif-Bold-72" transform="translate(1546.113281 0)"/>
     <use xlink:href="#DejaVuSerif-Bold-6e" transform="translate(1598.798828 0)"/>
     <use xlink:href="#DejaVuSerif-Bold-69" transform="translate(1671.503906 0)"/>
     <use xlink:href="#DejaVuSerif-Bold-6e" transform="translate(1709.492188 0)"/>
     <use xlink:href="#DejaVuSerif-Bold-67" transform="translate(1782.197266 0)"/>
     <use xlink:href="#DejaVuSerif-Bold-20" transform="translate(1852.119141 0)"/>
     <use xlink:href="#DejaVuSerif-Bold-44" transform="translate(1886.933594 0)"/>
     <use xlink:href="#DejaVuSerif-Bold-65" transform="translate(1973.652344 0)"/>
     <use xlink:href="#DejaVuSerif-Bold-63" transform="translate(2037.275391 0)"/>
     <use xlink:href="#DejaVuSerif-Bold-69" transform="translate(2098.164062 0)"/>
     <use xlink:href="#DejaVuSerif-Bold-6c" transform="translate(2136.152344 0)"/>
     <use xlink:href="#DejaVuSerif-Bold-65" transform="translate(2174.140625 0)"/>
     <use xlink:href="#DejaVuSerif-Bold-20" transform="translate(2237.763672 0)"/>
     <use xlink:href="#DejaVuSerif-Bold-44" transform="translate(2272.578125 0)"/>
     <use xlink:href="#DejaVuSerif-Bold-69" transform="translate(2359.296875 0)"/>
     <use xlink:href="#DejaVuSerif-Bold-61" transform="translate(2397.285156 0)"/>
     <use xlink:href="#DejaVuSerif-Bold-67" transform="translate(2462.080078 0)"/>
     <use xlink:href="#DejaVuSerif-Bold-6e" transform="translate(2532.001953 0)"/>
     <use xlink:href="#DejaVuSerif-Bold-6f" transform="translate(2604.707031 0)"/>
     <use xlink:href="#DejaVuSerif-Bold-73" transform="translate(2671.40625 0)"/>
     <use xlink:href="#DejaVuSerif-Bold-74" transform="translate(2727.705078 0)"/>
     <use xlink:href="#DejaVuSerif-Bold-69" transform="translate(2773.896484 0)"/>
     <use xlink:href="#DejaVuSerif-Bold-63" transform="translate(2811.884766 0)"/>
    </g>
   </g>
   <g id="legend_1">
    <g id="line2d_23">
     <path d="M 502.379625 33.487031 
L 510.179625 33.487031 
L 517.979625 33.487031 
" style="fill: none; stroke: #0f766e; stroke-width: 2; stroke-linecap: square"/>
     <g>
      <use xlink:href="#mdc44baed26" x="510.179625" y="33.487031" style="fill: #0f766e; stroke: #0f766e"/>
     </g>
    </g>
    <g id="text_17">
     <!-- Predicted risk (%) -->
     <g style="fill: #0f172a" transform="translate(524.219625 36.217031) scale(0.078 -0.078)">
      <defs>
       <path id="DejaVuSerif-50" d="M 1581 2375 
L 2406 2375 
Q 2872 2375 3115 2626 
Q 3359 2878 3359 3353 
Q 3359 3831 3115 4081 
Q 2872 4331 2406 4331 
L 1581 4331 
L 1581 2375 
z
M 353 0 
L 353 331 
L 947 331 
L 947 4331 
L 353 4331 
L 353 4666 
L 2559 4666 
Q 3259 4666 3668 4311 
Q 4078 3956 4078 3353 
Q 4078 2753 3668 2397 
Q 3259 2041 2559 2041 
L 1581 2041 
L 1581 331 
L 2303 331 
L 2303 0 
L 353 0 
z
" transform="scale(0.015625)"/>
      </defs>
      <use xlink:href="#DejaVuSerif-50"/>
      <use xlink:href="#DejaVuSerif-72" transform="translate(67.285156 0)"/>
      <use xlink:href="#DejaVuSerif-65" transform="translate(115.087891 0)"/>
      <use xlink:href="#DejaVuSerif-64" transform="translate(174.267578 0)"/>
      <use xlink:href="#DejaVuSerif-69" transform="translate(238.28125 0)"/>
      <use xlink:href="#DejaVuSerif-63" transform="translate(270.263672 0)"/>
      <use xlink:href="#DejaVuSerif-74" transform="translate(326.269531 0)"/>
      <use xlink:href="#DejaVuSerif-65" transform="translate(366.455078 0)"/>
      <use xlink:href="#DejaVuSerif-64" transform="translate(425.634766 0)"/>
      <use xlink:href="#DejaVuSerif-20" transform="translate(489.648438 0)"/>
      <use xlink:href="#DejaVuSerif-72" transform="translate(521.435547 0)"/>
      <use xlink:href="#DejaVuSerif-69" transform="translate(569.238281 0)"/>
      <use xlink:href="#DejaVuSerif-73" transform="translate(601.220703 0)"/>
      <use xlink:href="#DejaVuSerif-6b" transform="translate(652.539062 0)"/>
      <use xlink:href="#DejaVuSerif-20" transform="translate(713.134766 0)"/>
      <use xlink:href="#DejaVuSerif-28" transform="translate(744.921875 0)"/>
      <use xlink:href="#DejaVuSerif-25" transform="translate(783.935547 0)"/>
      <use xlink:href="#DejaVuSerif-29" transform="translate(878.955078 0)"/>
     </g>
    </g>
    <g id="patch_15">
     <path d="M 502.379625 47.665969 
L 517.979625 47.665969 
L 517.979625 42.205969 
L 502.379625 42.205969 
z
" style="fill: #dc2626; fill-opacity: 0.666667"/>
    </g>
    <g id="text_18">
     <!-- Observed stall rate (%) -->
     <g style="fill: #0f172a" transform="translate(524.219625 47.665969) scale(0.078 -0.078)">
      <defs>
       <path id="DejaVuSerif-4f" d="M 2625 244 
Q 3391 244 3781 770 
Q 4172 1297 4172 2328 
Q 4172 3363 3781 3889 
Q 3391 4416 2625 4416 
Q 1856 4416 1465 3889 
Q 1075 3363 1075 2328 
Q 1075 1297 1465 770 
Q 1856 244 2625 244 
z
M 2625 -91 
Q 2150 -91 1751 65 
Q 1353 222 1050 525 
Q 700 875 529 1319 
Q 359 1763 359 2328 
Q 359 2894 529 3339 
Q 700 3784 1050 4134 
Q 1356 4441 1750 4595 
Q 2144 4750 2625 4750 
Q 3641 4750 4266 4084 
Q 4891 3419 4891 2328 
Q 4891 1769 4719 1320 
Q 4547 872 4197 525 
Q 3891 219 3497 64 
Q 3103 -91 2625 -91 
z
" transform="scale(0.015625)"/>
       <path id="DejaVuSerif-62" d="M 738 331 
L 738 4531 
L 184 4531 
L 184 4863 
L 1313 4863 
L 1313 2803 
Q 1481 3116 1742 3264 
Q 2003 3413 2388 3413 
Q 3000 3413 3387 2928 
Q 3775 2444 3775 1663 
Q 3775 881 3387 395 
Q 3000 -91 2388 -91 
Q 2003 -91 1742 57 
Q 1481 206 1313 519 
L 1313 0 
L 184 0 
L 184 331 
L 738 331 
z
M 1313 1497 
Q 1313 897 1542 583 
Q 1772 269 2209 269 
Q 2650 269 2876 622 
Q 3103 975 3103 1663 
Q 3103 2353 2876 2703 
Q 2650 3053 2209 3053 
Q 1772 3053 1542 2737 
Q 1313 2422 1313 1825 
L 1313 1497 
z
" transform="scale(0.015625)"/>
       <path id="DejaVuSerif-76" d="M 1581 0 
L 359 2988 
L -19 2988 
L -19 3322 
L 1509 3322 
L 1509 2988 
L 978 2988 
L 1913 703 
L 2847 2988 
L 2350 2988 
L 2350 3322 
L 3597 3322 
L 3597 2988 
L 3225 2988 
L 2003 0 
L 1581 0 
z
" transform="scale(0.015625)"/>
      </defs>
      <use xlink:href="#DejaVuSerif-4f"/>
      <use xlink:href="#DejaVuSerif-62" transform="translate(81.982422 0)"/>
      <use xlink:href="#DejaVuSerif-73" transform="translate(145.996094 0)"/>
      <use xlink:href="#DejaVuSerif-65" transform="translate(197.314453 0)"/>
      <use xlink:href="#DejaVuSerif-72" transform="translate(256.494141 0)"/>
      <use xlink:href="#DejaVuSerif-76" transform="translate(304.296875 0)"/>
      <use xlink:href="#DejaVuSerif-65" transform="translate(360.791016 0)"/>
      <use xlink:href="#DejaVuSerif-64" transform="translate(419.970703 0)"/>
      <use xlink:href="#DejaVuSerif-20" transform="translate(483.984375 0)"/>
      <use xlink:href="#DejaVuSerif-73" transform="translate(515.771484 0)"/>
      <use xlink:href="#DejaVuSerif-74" transform="translate(567.089844 0)"/>
      <use xlink:href="#DejaVuSerif-61" transform="translate(607.275391 0)"/>
      <use xlink:href="#DejaVuSerif-6c" transform="translate(666.894531 0)"/>
      <use xlink:href="#DejaVuSerif-6c" transform="translate(698.876953 0)"/>
      <use xlink:href="#DejaVuSerif-20" transform="translate(730.859375 0)"/>
      <use xlink:href="#DejaVuSerif-72" transform="translate(762.646484 0)"/>
      <use xlink:href="#DejaVuSerif-61" transform="translate(810.449219 0)"/>
      <use xlink:href="#DejaVuSerif-74" transform="translate(870.068359 0)"/>
      <use xlink:href="#DejaVuSerif-65" transform="translate(910.253906 0)"/>
      <use xlink:href="#DejaVuSerif-20" transform="translate(969.433594 0)"/>
      <use xlink:href="#DejaVuSerif-28" transform="translate(1001.220703 0)"/>
      <use xlink:href="#DejaVuSerif-25" transform="translate(1040.234375 0)"/>
      <use xlink:href="#DejaVuSerif-29" transform="translate(1135.253906 0)"/>
     </g>
    </g>
    <g id="line2d_24">
     <path d="M 502.379625 56.384906 
L 510.179625 56.384906 
L 517.979625 56.384906 
" style="fill: none; stroke: #1d4ed8; stroke-width: 1.8; stroke-linecap: square"/>
     <defs>
      <path id="m6697d05eab" d="M -3 3 
L 3 3 
L 3 -3 
L -3 -3 
z
" style="stroke: #1d4ed8; stroke-linejoin: miter"/>
     </defs>
     <g>
      <use xlink:href="#m6697d05eab" x="510.179625" y="56.384906" style="fill: #1d4ed8; stroke: #1d4ed8; stroke-linejoin: miter"/>
     </g>
    </g>
    <g id="text_19">
     <!-- Lift vs base -->
     <g style="fill: #0f172a" transform="translate(524.219625 59.114906) scale(0.078 -0.078)">
      <defs>
       <path id="DejaVuSerif-4c" d="M 353 0 
L 353 331 
L 947 331 
L 947 4331 
L 353 4331 
L 353 4666 
L 2175 4666 
L 2175 4331 
L 1581 4331 
L 1581 384 
L 3713 384 
L 3713 1166 
L 4097 1166 
L 4097 0 
L 353 0 
z
" transform="scale(0.015625)"/>
       <path id="DejaVuSerif-66" d="M 2753 4078 
L 2450 4078 
Q 2447 4313 2317 4434 
Q 2188 4556 1941 4556 
Q 1619 4556 1487 4379 
Q 1356 4203 1356 3750 
L 1356 3322 
L 2284 3322 
L 2284 2988 
L 1356 2988 
L 1356 331 
L 2094 331 
L 2094 0 
L 231 0 
L 231 331 
L 781 331 
L 781 2988 
L 231 2988 
L 231 3322 
L 781 3322 
L 781 3738 
Q 781 4294 1070 4578 
Q 1359 4863 1919 4863 
Q 2128 4863 2337 4825 
Q 2547 4788 2753 4709 
L 2753 4078 
z
" transform="scale(0.015625)"/>
      </defs>
      <use xlink:href="#DejaVuSerif-4c"/>
      <use xlink:href="#DejaVuSerif-69" transform="translate(66.40625 0)"/>
      <use xlink:href="#DejaVuSerif-66" transform="translate(98.388672 0)"/>
      <use xlink:href="#DejaVuSerif-74" transform="translate(135.400391 0)"/>
      <use xlink:href="#DejaVuSerif-20" transform="translate(175.585938 0)"/>
      <use xlink:href="#DejaVuSerif-76" transform="translate(207.373047 0)"/>
      <use xlink:href="#DejaVuSerif-73" transform="translate(263.867188 0)"/>
      <use xlink:href="#DejaVuSerif-20" transform="translate(315.185547 0)"/>
      <use xlink:href="#DejaVuSerif-62" transform="translate(346.972656 0)"/>
      <use xlink:href="#DejaVuSerif-61" transform="translate(410.986328 0)"/>
      <use xlink:href="#DejaVuSerif-73" transform="translate(470.605469 0)"/>
      <use xlink:href="#DejaVuSerif-65" transform="translate(521.923828 0)"/>
     </g>
    </g>
   </g>
  </g>
  <g id="axes_2">
   <g id="matplotlib.axis_3">
    <g id="ytick_9">
     <g id="line2d_25">
      <defs>
       <path id="mf9447bec3d" d="M 0 0 
L 3.5 0 
" style="stroke: #475569; stroke-width: 0.8"/>
      </defs>
      <g>
       <use xlink:href="#mf9447bec3d" x="622.833562" y="355.91025" style="fill: #475569; stroke: #475569; stroke-width: 0.8"/>
      </g>
     </g>
     <g id="text_20">
      <!-- 0.0 -->
      <g style="fill: #475569" transform="translate(629.833562 359.101594) scale(0.084 -0.084)">
       <defs>
        <path id="DejaVuSerif-2e" d="M 603 325 
Q 603 500 722 622 
Q 841 744 1019 744 
Q 1191 744 1312 622 
Q 1434 500 1434 325 
Q 1434 153 1312 31 
Q 1191 -91 1019 -91 
Q 841 -91 722 29 
Q 603 150 603 325 
z
" transform="scale(0.015625)"/>
       </defs>
       <use xlink:href="#DejaVuSerif-30"/>
       <use xlink:href="#DejaVuSerif-2e" transform="translate(63.623047 0)"/>
       <use xlink:href="#DejaVuSerif-30" transform="translate(95.410156 0)"/>
      </g>
     </g>
    </g>
    <g id="ytick_10">
     <g id="line2d_26">
      <g>
       <use xlink:href="#mf9447bec3d" x="622.833562" y="306.578047" style="fill: #475569; stroke: #475569; stroke-width: 0.8"/>
      </g>
     </g>
     <g id="text_21">
      <!-- 0.5 -->
      <g style="fill: #475569" transform="translate(629.833562 309.76939) scale(0.084 -0.084)">
       <use xlink:href="#DejaVuSerif-30"/>
       <use xlink:href="#DejaVuSerif-2e" transform="translate(63.623047 0)"/>
       <use xlink:href="#DejaVuSerif-35" transform="translate(95.410156 0)"/>
      </g>
     </g>
    </g>
    <g id="ytick_11">
     <g id="line2d_27">
      <g>
       <use xlink:href="#mf9447bec3d" x="622.833562" y="257.245843" style="fill: #475569; stroke: #475569; stroke-width: 0.8"/>
      </g>
     </g>
     <g id="text_22">
      <!-- 1.0 -->
      <g style="fill: #475569" transform="translate(629.833562 260.437187) scale(0.084 -0.084)">
       <use xlink:href="#DejaVuSerif-31"/>
       <use xlink:href="#DejaVuSerif-2e" transform="translate(63.623047 0)"/>
       <use xlink:href="#DejaVuSerif-30" transform="translate(95.410156 0)"/>
      </g>
     </g>
    </g>
    <g id="ytick_12">
     <g id="line2d_28">
      <g>
       <use xlink:href="#mf9447bec3d" x="622.833562" y="207.91364" style="fill: #475569; stroke: #475569; stroke-width: 0.8"/>
      </g>
     </g>
     <g id="text_23">
      <!-- 1.5 -->
      <g style="fill: #475569" transform="translate(629.833562 211.104984) scale(0.084 -0.084)">
       <use xlink:href="#DejaVuSerif-31"/>
       <use xlink:href="#DejaVuSerif-2e" transform="translate(63.623047 0)"/>
       <use xlink:href="#DejaVuSerif-35" transform="translate(95.410156 0)"/>
      </g>
     </g>
    </g>
    <g id="ytick_13">
     <g id="line2d_29">
      <g>
       <use xlink:href="#mf9447bec3d" x="622.833562" y="158.581436" style="fill: #475569; stroke: #475569; stroke-width: 0.8"/>
      </g>
     </g>
     <g id="text_24">
      <!-- 2.0 -->
      <g style="fill: #475569" transform="translate(629.833562 161.77278) scale(0.084 -0.084)">
       <use xlink:href="#DejaVuSerif-32"/>
       <use xlink:href="#DejaVuSerif-2e" transform="translate(63.623047 0)"/>
       <use xlink:href="#DejaVuSerif-30" transform="translate(95.410156 0)"/>
      </g>
     </g>
    </g>
    <g id="ytick_14">
     <g id="line2d_30">
      <g>
       <use xlink:href="#mf9447bec3d" x="622.833562" y="109.249233" style="fill: #475569; stroke: #475569; stroke-width: 0.8"/>
      </g>
     </g>
     <g id="text_25">
      <!-- 2.5 -->
      <g style="fill: #475569" transform="translate(629.833562 112.440577) scale(0.084 -0.084)">
       <use xlink:href="#DejaVuSerif-32"/>
       <use xlink:href="#DejaVuSerif-2e" transform="translate(63.623047 0)"/>
       <use xlink:href="#DejaVuSerif-35" transform="translate(95.410156 0)"/>
      </g>
     </g>
    </g>
    <g id="ytick_15">
     <g id="line2d_31">
      <g>
       <use xlink:href="#mf9447bec3d" x="622.833562" y="59.91703" style="fill: #475569; stroke: #475569; stroke-width: 0.8"/>
      </g>
     </g>
     <g id="text_26">
      <!-- 3.0 -->
      <g style="fill: #475569" transform="translate(629.833562 63.108373) scale(0.084 -0.084)">
       <use xlink:href="#DejaVuSerif-33"/>
       <use xlink:href="#DejaVuSerif-2e" transform="translate(63.623047 0)"/>
       <use xlink:href="#DejaVuSerif-30" transform="translate(95.410156 0)"/>
      </g>
     </g>
    </g>
    <g id="text_27">
     <!-- Lift -->
     <g style="fill: #0f172a" transform="translate(654.638656 198.194344) rotate(-90) scale(0.098 -0.098)">
      <use xlink:href="#DejaVuSerif-4c"/>
      <use xlink:href="#DejaVuSerif-69" transform="translate(66.40625 0)"/>
      <use xlink:href="#DejaVuSerif-66" transform="translate(98.388672 0)"/>
      <use xlink:href="#DejaVuSerif-74" transform="translate(135.400391 0)"/>
     </g>
    </g>
   </g>
   <g id="line2d_32">
    <path d="M 85.30564 78.71025 
L 139.65629 116.944733 
L 194.006939 294.31025 
L 248.357588 260.324043 
L 302.708238 278.91025 
L 357.058887 276.255078 
L 411.409537 324.048181 
L 465.760186 355.91025 
L 520.110835 292.186112 
L 574.461485 294.31025 
" clip-path="url(#pfc48efae1e)" style="fill: none; stroke: #1d4ed8; stroke-width: 1.8; stroke-linecap: square"/>
    <g clip-path="url(#pfc48efae1e)">
     <use xlink:href="#m6697d05eab" x="85.30564" y="78.71025" style="fill: #1d4ed8; stroke: #1d4ed8; stroke-linejoin: miter"/>
     <use xlink:href="#m6697d05eab" x="139.65629" y="116.944733" style="fill: #1d4ed8; stroke: #1d4ed8; stroke-linejoin: miter"/>
     <use xlink:href="#m6697d05eab" x="194.006939" y="294.31025" style="fill: #1d4ed8; stroke: #1d4ed8; stroke-linejoin: miter"/>
     <use xlink:href="#m6697d05eab" x="248.357588" y="260.324043" style="fill: #1d4ed8; stroke: #1d4ed8; stroke-linejoin: miter"/>
     <use xlink:href="#m6697d05eab" x="302.708238" y="278.91025" style="fill: #1d4ed8; stroke: #1d4ed8; stroke-linejoin: miter"/>
     <use xlink:href="#m6697d05eab" x="357.058887" y="276.255078" style="fill: #1d4ed8; stroke: #1d4ed8; stroke-linejoin: miter"/>
     <use xlink:href="#m6697d05eab" x="411.409537" y="324.048181" style="fill: #1d4ed8; stroke: #1d4ed8; stroke-linejoin: miter"/>
     <use xlink:href="#m6697d05eab" x="465.760186" y="355.91025" style="fill: #1d4ed8; stroke: #1d4ed8; stroke-linejoin: miter"/>
     <use xlink:href="#m6697d05eab" x="520.110835" y="292.186112" style="fill: #1d4ed8; stroke: #1d4ed8; stroke-linejoin: miter"/>
     <use xlink:href="#m6697d05eab" x="574.461485" y="294.31025" style="fill: #1d4ed8; stroke: #1d4ed8; stroke-linejoin: miter"/>
    </g>
   </g>
   <g id="patch_16">
    <path d="M 36.933563 355.91025 
L 36.933563 23.27025 
" style="fill: none; stroke: #475569; stroke-width: 0.85; stroke-linejoin: miter; stroke-linecap: square"/>
   </g>
   <g id="patch_17">
    <path d="M 36.933563 355.91025 
L 622.833562 355.91025 
" style="fill: none; stroke: #475569; stroke-width: 0.85; stroke-linejoin: miter; stroke-linecap: square"/>
   </g>
  </g>
 </g>
 <defs>
  <clipPath id="pfc48efae1e">
   <rect x="36.933563" y="23.27025" width="585.9" height="332.64"/>
  </clipPath>
 </defs>
</svg>
